<svg xmlns="http://www.w3.org/2000/svg" xmlns:xlink="http://www.w3.org/1999/xlink" width="120" zoomAndPan="magnify" viewBox="0 0 90 89.999999" height="120" preserveAspectRatio="xMidYMid meet" version="1.0"><path fill="#ffffff" d="M 51.453125 44.777344 C 51.070312 44.726562 50.722656 45 50.671875 45.375 C 50.304688 48.210938 47.867188 50.347656 45 50.347656 C 42.132812 50.347656 39.695312 48.210938 39.328125 45.375 C 39.277344 44.992188 38.929688 44.726562 38.546875 44.777344 C 38.167969 44.828125 37.902344 45.171875 37.953125 45.554688 C 38.410156 49.082031 41.441406 51.746094 45.007812 51.746094 C 48.570312 51.746094 51.601562 49.082031 52.0625 45.554688 C 52.097656 45.179688 51.832031 44.828125 51.453125 44.777344 Z M 51.453125 44.777344 " fill-opacity="1" fill-rule="nonzero"/><path fill="#ffffff" d="M 45 27 C 35.070312 27 27 35.070312 27 45 C 27 54.929688 35.070312 63 45 63 C 54.929688 63 63 54.929688 63 45 C 63 35.070312 54.929688 27 45 27 Z M 45 61.609375 C 35.839844 61.609375 28.390625 54.160156 28.390625 45 C 28.390625 35.839844 35.839844 28.390625 45 28.390625 C 54.160156 28.390625 61.609375 35.839844 61.609375 45 C 61.609375 54.160156 54.160156 61.609375 45 61.609375 Z M 45 61.609375 " fill-opacity="1" fill-rule="nonzero"/><path fill="#ffffff" d="M 53.847656 33.695312 C 53.46875 33.644531 53.121094 33.917969 53.070312 34.292969 C 52.890625 35.660156 51.726562 36.691406 50.34375 36.691406 C 48.96875 36.691406 47.792969 35.660156 47.613281 34.292969 C 47.5625 33.910156 47.21875 33.644531 46.835938 33.695312 C 46.453125 33.746094 46.1875 34.09375 46.238281 34.472656 C 46.503906 36.53125 48.269531 38.082031 50.347656 38.082031 C 52.421875 38.082031 54.195312 36.53125 54.460938 34.472656 C 54.496094 34.09375 54.230469 33.746094 53.847656 33.695312 Z M 53.847656 33.695312 " fill-opacity="1" fill-rule="nonzero"/><path fill="#ffffff" d="M 43.769531 34.472656 C 43.820312 34.09375 43.546875 33.746094 43.171875 33.695312 C 42.789062 33.644531 42.445312 33.917969 42.394531 34.292969 C 42.214844 35.660156 41.046875 36.691406 39.664062 36.691406 C 38.28125 36.691406 37.117188 35.660156 36.9375 34.292969 C 36.886719 33.910156 36.539062 33.644531 36.160156 33.695312 C 35.777344 33.746094 35.511719 34.09375 35.5625 34.472656 C 35.828125 36.53125 37.589844 38.082031 39.671875 38.082031 C 41.738281 38.082031 43.503906 36.53125 43.769531 34.472656 Z M 43.769531 34.472656 " fill-opacity="1" fill-rule="nonzero"/></svg>