<svg xmlns="http://www.w3.org/2000/svg" xmlns:xlink="http://www.w3.org/1999/xlink" width="120" zoomAndPan="magnify" viewBox="0 0 90 89.999999" height="120" preserveAspectRatio="xMidYMid meet" version="1.0"><path fill="#ff9999" d="M 45 49.148438 C 42.148438 49.148438 39.679688 51.191406 38.835938 54.238281 C 38.5625 55.222656 39.089844 56.269531 40.011719 56.5625 C 40.96875 56.871094 42.617188 57.246094 45 57.246094 C 47.382812 57.246094 49.03125 56.871094 49.988281 56.5625 C 50.902344 56.269531 51.429688 55.222656 51.164062 54.238281 C 50.320312 51.191406 47.84375 49.148438 45 49.148438 Z M 49.566406 55.238281 C 48.699219 55.519531 47.203125 55.851562 45 55.851562 C 42.796875 55.851562 41.304688 55.519531 40.433594 55.238281 C 40.253906 55.179688 40.097656 54.894531 40.175781 54.605469 C 40.84375 52.171875 42.78125 50.535156 44.992188 50.535156 C 47.203125 50.535156 49.140625 52.171875 49.808594 54.605469 C 49.894531 54.894531 49.746094 55.179688 49.566406 55.238281 Z M 49.566406 55.238281 " fill-opacity="1" fill-rule="nonzero"/><path fill="#ff9999" d="M 45 27 C 35.070312 27 27 35.070312 27 45 C 27 54.929688 35.070312 63 45 63 C 54.929688 63 63 54.929688 63 45 C 63 35.070312 54.929688 27 45 27 Z M 45 61.609375 C 35.839844 61.609375 28.390625 54.160156 28.390625 45 C 28.390625 35.839844 35.839844 28.390625 45 28.390625 C 54.160156 28.390625 61.609375 35.839844 61.609375 45 C 61.609375 54.160156 54.160156 61.609375 45 61.609375 Z M 45 61.609375 " fill-opacity="1" fill-rule="nonzero"/><path fill="#ff9999" d="M 50.363281 33.226562 C 48.175781 33.226562 46.167969 34.359375 45 36.144531 C 43.832031 34.359375 41.824219 33.226562 39.636719 33.226562 C 36.101562 33.226562 33.226562 36.101562 33.226562 39.636719 C 33.226562 43.171875 36.101562 46.042969 39.636719 46.042969 C 41.824219 46.042969 43.832031 44.914062 45 43.128906 C 46.167969 44.914062 48.175781 46.042969 50.363281 46.042969 C 53.898438 46.042969 56.773438 43.171875 56.773438 39.636719 C 56.773438 36.101562 53.898438 33.226562 50.363281 33.226562 Z M 50.363281 44.648438 C 48.261719 44.648438 46.367188 43.316406 45.65625 41.335938 C 45.554688 41.0625 45.296875 40.875 45 40.875 C 44.703125 40.875 44.445312 41.054688 44.34375 41.335938 C 43.625 43.316406 41.738281 44.648438 39.636719 44.648438 C 36.871094 44.648438 34.625 42.402344 34.625 39.636719 C 34.625 36.871094 36.871094 34.625 39.636719 34.625 C 41.738281 34.625 43.625 35.957031 44.34375 37.9375 C 44.445312 38.210938 44.703125 38.398438 45 38.398438 C 45.296875 38.398438 45.554688 38.21875 45.65625 37.9375 C 46.375 35.957031 48.261719 34.625 50.363281 34.625 C 53.128906 34.625 55.375 36.871094 55.375 39.636719 C 55.375 42.402344 53.128906 44.648438 50.363281 44.648438 Z M 50.363281 44.648438 " fill-opacity="1" fill-rule="nonzero"/><path fill="#ff9999" d="M 40.925781 39.636719 C 40.925781 39.808594 40.890625 39.972656 40.828125 40.128906 C 40.761719 40.289062 40.667969 40.425781 40.546875 40.546875 C 40.425781 40.667969 40.285156 40.761719 40.128906 40.828125 C 39.972656 40.890625 39.808594 40.925781 39.636719 40.925781 C 39.464844 40.925781 39.300781 40.890625 39.144531 40.828125 C 38.984375 40.761719 38.84375 40.667969 38.726562 40.546875 C 38.605469 40.425781 38.511719 40.289062 38.445312 40.128906 C 38.378906 39.972656 38.347656 39.808594 38.347656 39.636719 C 38.347656 39.464844 38.378906 39.300781 38.445312 39.144531 C 38.511719 38.984375 38.605469 38.84375 38.726562 38.726562 C 38.84375 38.605469 38.984375 38.511719 39.144531 38.445312 C 39.300781 38.378906 39.464844 38.347656 39.636719 38.347656 C 39.808594 38.347656 39.972656 38.378906 40.128906 38.445312 C 40.285156 38.511719 40.425781 38.605469 40.546875 38.726562 C 40.667969 38.84375 40.761719 38.984375 40.828125 39.144531 C 40.890625 39.300781 40.925781 39.464844 40.925781 39.636719 Z M 40.925781 39.636719 " fill-opacity="1" fill-rule="nonzero"/><path fill="#ff9999" d="M 51.652344 39.636719 C 51.652344 39.808594 51.621094 39.972656 51.554688 40.128906 C 51.488281 40.289062 51.394531 40.425781 51.273438 40.546875 C 51.15625 40.667969 51.015625 40.761719 50.855469 40.828125 C 50.699219 40.890625 50.535156 40.925781 50.363281 40.925781 C 50.191406 40.925781 50.027344 40.890625 49.871094 40.828125 C 49.714844 40.761719 49.574219 40.667969 49.453125 40.546875 C 49.332031 40.425781 49.238281 40.289062 49.171875 40.128906 C 49.109375 39.972656 49.074219 39.808594 49.074219 39.636719 C 49.074219 39.464844 49.109375 39.300781 49.171875 39.144531 C 49.238281 38.984375 49.332031 38.84375 49.453125 38.726562 C 49.574219 38.605469 49.714844 38.511719 49.871094 38.445312 C 50.027344 38.378906 50.191406 38.347656 50.363281 38.347656 C 50.535156 38.347656 50.699219 38.378906 50.855469 38.445312 C 51.015625 38.511719 51.15625 38.605469 51.273438 38.726562 C 51.394531 38.84375 51.488281 38.984375 51.554688 39.144531 C 51.621094 39.300781 51.652344 39.464844 51.652344 39.636719 Z M 51.652344 39.636719 " fill-opacity="1" fill-rule="nonzero"/></svg>