<svg xmlns="http://www.w3.org/2000/svg" xmlns:xlink="http://www.w3.org/1999/xlink" width="1080" zoomAndPan="magnify" viewBox="0 0 810 809.999993" height="1080" preserveAspectRatio="xMidYMid meet" version="1.0"><path fill="#ffffff" d="M 567 405 C 567 315.53125 494.46875 243 405 243 C 315.53125 243 243 315.53125 243 405 C 243 494.46875 315.53125 567 405 567 C 494.46875 567 567 494.46875 567 405 Z M 556.199219 405 C 556.199219 488.503906 488.503906 556.199219 405 556.199219 C 321.496094 556.199219 253.800781 488.503906 253.800781 405 C 253.800781 321.496094 321.496094 253.800781 405 253.800781 C 488.503906 253.800781 556.199219 321.496094 556.199219 405 " fill-opacity="1" fill-rule="nonzero"/><path fill="#ffffff" d="M 327.566406 372.261719 C 325.328125 370.292969 321.917969 370.507812 319.945312 372.746094 C 317.976562 374.984375 318.195312 378.398438 320.433594 380.367188 C 335.832031 393.925781 362.542969 390.511719 376.652344 374.484375 C 379.832031 370.871094 377.058594 365.222656 372.257812 365.527344 C 354.691406 366.640625 330.203125 352.644531 329.390625 339.859375 C 329.199219 336.882812 326.632812 334.621094 323.65625 334.8125 C 320.679688 335 318.421875 337.570312 318.609375 340.542969 C 319.617188 356.335938 338.855469 370.480469 358.148438 374.9375 C 347.863281 379.609375 335.292969 379.058594 327.566406 372.261719 " fill-opacity="1" fill-rule="nonzero"/><path fill="#ffffff" d="M 491.390625 340.542969 C 491.578125 337.570312 489.320312 335 486.34375 334.8125 C 483.367188 334.621094 480.800781 336.882812 480.609375 339.859375 C 479.796875 352.644531 455.308594 366.640625 437.742188 365.527344 C 432.941406 365.222656 430.167969 370.871094 433.347656 374.484375 C 447.457031 390.511719 474.167969 393.925781 489.566406 380.367188 C 491.804688 378.398438 492.023438 374.984375 490.054688 372.746094 C 488.082031 370.507812 484.671875 370.292969 482.433594 372.261719 C 474.707031 379.058594 462.136719 379.609375 451.851562 374.9375 C 471.144531 370.480469 490.382812 356.335938 491.390625 340.542969 " fill-opacity="1" fill-rule="nonzero"/><path fill="#ffffff" d="M 351 340.199219 C 368.90625 340.199219 383.398438 325.707031 383.398438 307.800781 C 383.398438 304.816406 380.984375 302.402344 378 302.402344 C 375.019531 302.402344 372.601562 304.816406 372.601562 307.800781 C 372.601562 319.742188 362.941406 329.398438 351 329.398438 C 348.015625 329.398438 345.601562 331.820312 345.601562 334.800781 C 345.601562 337.78125 348.015625 340.199219 351 340.199219 " fill-opacity="1" fill-rule="nonzero"/><path fill="#ffffff" d="M 459 329.398438 C 447.058594 329.398438 437.398438 319.742188 437.398438 307.800781 C 437.398438 304.816406 434.980469 302.402344 432 302.402344 C 429.015625 302.402344 426.601562 304.816406 426.601562 307.800781 C 426.601562 325.707031 441.09375 340.199219 459 340.199219 C 461.984375 340.199219 464.398438 337.78125 464.398438 334.800781 C 464.398438 331.820312 461.984375 329.398438 459 329.398438 " fill-opacity="1" fill-rule="nonzero"/><path fill="#ffffff" d="M 448.199219 502.199219 L 448.199219 470.804688 C 448.199219 458.308594 438.121094 447.792969 425.789062 448.214844 C 418.527344 448.460938 412.019531 451.640625 405 457.300781 C 397.980469 451.640625 391.472656 448.460938 384.210938 448.214844 C 371.878906 447.792969 361.800781 458.308594 361.800781 470.804688 L 361.800781 502.199219 C 361.800781 526.058594 381.140625 545.398438 405 545.398438 C 428.859375 545.398438 448.199219 526.058594 448.199219 502.199219 Z M 437.398438 470.804688 L 437.398438 502.199219 C 437.398438 520.09375 422.894531 534.601562 405 534.601562 C 387.105469 534.601562 372.601562 520.09375 372.601562 502.199219 L 372.601562 470.804688 C 372.601562 464.238281 377.8125 458.800781 383.84375 459.007812 C 389.109375 459.1875 394.683594 462.394531 401.394531 468.417969 C 403.445312 470.261719 406.554688 470.261719 408.605469 468.417969 C 415.316406 462.394531 420.890625 459.1875 426.15625 459.007812 C 432.1875 458.800781 437.398438 464.238281 437.398438 470.804688 " fill-opacity="1" fill-rule="nonzero"/><path fill="#ffffff" d="M 448.199219 470.804688 C 448.199219 458.308594 438.125 447.792969 425.792969 448.214844 C 418.527344 448.460938 412.027344 451.636719 405 457.304688 C 397.980469 451.640625 391.472656 448.460938 384.207031 448.214844 C 371.878906 447.792969 361.796875 458.308594 361.796875 470.804688 L 361.796875 484.507812 C 356.308594 485.453125 350.984375 486.554688 345.734375 487.855469 C 335.011719 490.5 326.125 479.851562 330.589844 469.6875 C 343.410156 440.472656 372.339844 421.199219 404.800781 421.199219 C 437.867188 421.199219 467.234375 441.203125 479.667969 471.234375 C 483.574219 480.652344 474.824219 490.65625 464.777344 488.21875 C 459.535156 486.945312 453.972656 485.792969 448.199219 484.789062 Z M 404.800781 410.398438 C 368.015625 410.398438 335.226562 432.242188 320.699219 465.347656 C 312.644531 483.6875 328.871094 503.136719 348.324219 498.335938 C 354.695312 496.765625 361.207031 495.484375 368.019531 494.4375 C 370.652344 494.03125 372.597656 491.765625 372.597656 489.101562 L 372.597656 470.804688 C 372.597656 464.238281 377.808594 458.800781 383.839844 459.007812 C 389.109375 459.1875 394.679688 462.394531 401.390625 468.417969 C 403.441406 470.261719 406.550781 470.261719 408.605469 468.417969 C 415.332031 462.386719 420.890625 459.1875 426.164062 459.007812 C 432.191406 458.800781 437.398438 464.238281 437.398438 470.804688 L 437.398438 489.371094 C 437.398438 492.027344 439.335938 494.292969 441.960938 494.707031 C 449.085938 495.820312 455.910156 497.179688 462.226562 498.714844 C 480.800781 503.21875 496.957031 484.742188 489.648438 467.101562 C 475.554688 433.066406 442.273438 410.398438 404.800781 410.398438 " fill-opacity="1" fill-rule="nonzero"/></svg>