<svg xmlns="http://www.w3.org/2000/svg" xmlns:xlink="http://www.w3.org/1999/xlink" width="120" zoomAndPan="magnify" viewBox="0 0 90 89.999999" height="120" preserveAspectRatio="xMidYMid meet" version="1.0"><path fill="#ffffff" d="M 51.453125 41.667969 C 51.070312 41.617188 50.722656 41.890625 50.671875 42.265625 C 50.304688 45.101562 47.867188 47.238281 45 47.238281 C 42.132812 47.238281 39.695312 45.101562 39.328125 42.265625 C 39.277344 41.882812 38.929688 41.617188 38.546875 41.667969 C 38.167969 41.71875 37.902344 42.0625 37.953125 42.445312 C 38.410156 45.972656 41.441406 48.636719 45.007812 48.636719 C 48.570312 48.636719 51.601562 45.972656 52.0625 42.445312 C 52.097656 42.0625 51.832031 41.71875 51.453125 41.667969 Z M 51.453125 41.667969 " fill-opacity="1" fill-rule="nonzero"/><path fill="#ffffff" d="M 45 27 C 35.070312 27 27 35.070312 27 45 C 27 54.929688 35.070312 63 45 63 C 54.929688 63 63 54.929688 63 45 C 63 35.070312 54.929688 27 45 27 Z M 45 61.609375 C 35.839844 61.609375 28.390625 54.160156 28.390625 45 C 28.390625 35.839844 35.839844 28.390625 45 28.390625 C 54.160156 28.390625 61.609375 35.839844 61.609375 45 C 61.609375 54.160156 54.160156 61.609375 45 61.609375 Z M 45 61.609375 " fill-opacity="1" fill-rule="nonzero"/><path fill="#ffffff" d="M 42.378906 35.632812 C 42.414062 35.632812 42.453125 35.625 42.488281 35.617188 C 42.496094 35.617188 42.507812 35.617188 42.515625 35.609375 C 42.550781 35.605469 42.589844 35.589844 42.625 35.574219 C 42.632812 35.574219 42.636719 35.566406 42.644531 35.5625 C 42.675781 35.546875 42.703125 35.53125 42.730469 35.511719 C 42.738281 35.503906 42.746094 35.503906 42.753906 35.496094 C 42.78125 35.472656 42.820312 35.445312 42.847656 35.417969 C 42.847656 35.417969 42.855469 35.410156 42.855469 35.410156 C 42.875 35.378906 42.898438 35.359375 42.917969 35.324219 C 42.925781 35.316406 42.933594 35.300781 42.941406 35.292969 C 42.949219 35.289062 42.957031 35.28125 42.957031 35.265625 C 42.960938 35.25 42.960938 35.242188 42.96875 35.230469 C 42.984375 35.207031 42.992188 35.1875 43 35.15625 C 43.003906 35.136719 43.011719 35.113281 43.019531 35.09375 C 43.027344 35.070312 43.027344 35.050781 43.035156 35.027344 C 43.042969 35.007812 43.042969 34.976562 43.042969 34.957031 C 43.042969 34.941406 43.042969 34.925781 43.042969 34.921875 C 43.042969 34.914062 43.042969 34.90625 43.042969 34.898438 C 43.042969 34.875 43.035156 34.847656 43.035156 34.828125 C 43.035156 34.804688 43.027344 34.785156 43.019531 34.761719 C 43.011719 34.738281 43.003906 34.71875 43 34.695312 C 42.992188 34.675781 42.984375 34.652344 42.976562 34.632812 C 42.96875 34.609375 42.957031 34.597656 42.949219 34.574219 C 42.933594 34.554688 42.925781 34.53125 42.910156 34.507812 C 42.898438 34.496094 42.890625 34.480469 42.875 34.464844 C 42.855469 34.445312 42.839844 34.421875 42.820312 34.410156 C 42.8125 34.402344 42.796875 34.394531 42.78125 34.378906 C 42.753906 34.359375 42.730469 34.335938 42.703125 34.324219 C 42.703125 34.324219 42.695312 34.316406 42.695312 34.316406 C 40.660156 33.175781 38.296875 32.890625 36.042969 33.488281 C 35.667969 33.589844 35.453125 33.96875 35.554688 34.335938 C 35.65625 34.710938 36.035156 34.925781 36.402344 34.828125 C 37.476562 34.539062 38.578125 34.496094 39.644531 34.675781 C 38.347656 35.105469 37.160156 35.835938 36.171875 36.828125 C 35.898438 37.101562 35.898438 37.539062 36.171875 37.8125 C 36.308594 37.953125 36.488281 38.015625 36.664062 38.015625 C 36.84375 38.015625 37.023438 37.953125 37.152344 37.8125 C 38.542969 36.425781 40.390625 35.640625 42.363281 35.609375 C 42.371094 35.640625 42.371094 35.632812 42.378906 35.632812 Z M 42.378906 35.632812 " fill-opacity="1" fill-rule="nonzero"/><path fill="#ffffff" d="M 53.957031 33.507812 C 51.703125 32.902344 49.339844 33.199219 47.304688 34.335938 C 47.304688 34.335938 47.304688 34.335938 47.296875 34.335938 C 47.261719 34.359375 47.230469 34.378906 47.195312 34.410156 C 47.1875 34.414062 47.179688 34.414062 47.179688 34.421875 C 47.152344 34.445312 47.132812 34.472656 47.109375 34.503906 C 47.101562 34.507812 47.09375 34.515625 47.089844 34.53125 C 47.066406 34.554688 47.050781 34.582031 47.039062 34.609375 C 47.03125 34.625 47.023438 34.640625 47.015625 34.652344 C 47 34.675781 46.996094 34.703125 46.988281 34.726562 C 46.980469 34.746094 46.972656 34.761719 46.964844 34.785156 C 46.957031 34.804688 46.957031 34.828125 46.953125 34.847656 C 46.945312 34.871094 46.945312 34.898438 46.945312 34.921875 C 46.945312 34.925781 46.945312 34.933594 46.945312 34.941406 C 46.945312 34.957031 46.945312 34.96875 46.945312 34.984375 C 46.945312 35.007812 46.945312 35.035156 46.953125 35.058594 C 46.953125 35.078125 46.957031 35.101562 46.964844 35.121094 C 46.972656 35.144531 46.980469 35.164062 46.988281 35.1875 C 46.996094 35.207031 47.007812 35.238281 47.015625 35.257812 C 47.023438 35.273438 47.023438 35.28125 47.03125 35.292969 C 47.039062 35.300781 47.042969 35.308594 47.042969 35.324219 C 47.050781 35.332031 47.058594 35.34375 47.066406 35.351562 C 47.089844 35.378906 47.109375 35.410156 47.132812 35.4375 C 47.132812 35.4375 47.136719 35.445312 47.136719 35.445312 C 47.167969 35.472656 47.195312 35.503906 47.230469 35.523438 C 47.238281 35.53125 47.246094 35.53125 47.253906 35.539062 C 47.28125 35.5625 47.3125 35.574219 47.339844 35.589844 C 47.347656 35.597656 47.355469 35.597656 47.363281 35.605469 C 47.398438 35.617188 47.433594 35.632812 47.46875 35.640625 C 47.476562 35.640625 47.492188 35.648438 47.5 35.648438 C 47.535156 35.65625 47.570312 35.660156 47.605469 35.660156 C 47.613281 35.660156 47.613281 35.660156 47.621094 35.660156 C 49.585938 35.691406 51.4375 36.476562 52.832031 37.863281 C 52.96875 38 53.152344 38.066406 53.324219 38.066406 C 53.496094 38.066406 53.683594 38 53.8125 37.863281 C 54.085938 37.589844 54.085938 37.152344 53.8125 36.878906 C 52.820312 35.886719 51.636719 35.15625 50.34375 34.726562 C 51.40625 34.539062 52.507812 34.589844 53.582031 34.875 C 53.949219 34.976562 54.339844 34.753906 54.433594 34.386719 C 54.546875 33.992188 54.332031 33.609375 53.957031 33.507812 Z M 53.957031 33.507812 " fill-opacity="1" fill-rule="nonzero"/></svg>