<svg xmlns="http://www.w3.org/2000/svg" xmlns:xlink="http://www.w3.org/1999/xlink" width="1080" zoomAndPan="magnify" viewBox="0 0 810 809.999993" height="1080" preserveAspectRatio="xMidYMid meet" version="1.0"><path fill="#ffffff" d="M 457.746094 410.378906 C 447.636719 407.460938 430.207031 404.027344 405 404.027344 C 379.726562 404.027344 362.363281 407.460938 352.253906 410.378906 C 347.78125 411.675781 343.894531 414.785156 341.691406 418.867188 C 339.488281 423.015625 338.96875 427.746094 340.394531 432.152344 C 349.273438 460.597656 375.257812 479.714844 405.066406 479.714844 C 434.871094 479.714844 460.859375 460.597656 469.734375 432.152344 C 471.097656 427.746094 470.640625 423.015625 468.4375 418.867188 C 466.105469 414.785156 462.28125 411.675781 457.746094 410.378906 Z M 457.683594 428.457031 C 450.488281 451.589844 429.300781 467.207031 405 467.207031 C 380.699219 467.207031 359.511719 451.65625 352.316406 428.457031 C 351.929688 427.292969 352.058594 425.996094 352.707031 424.894531 C 353.355469 423.726562 354.390625 422.820312 355.6875 422.496094 C 365.082031 419.839844 381.21875 416.597656 405 416.597656 C 428.78125 416.597656 444.980469 419.773438 454.3125 422.496094 C 455.609375 422.886719 456.644531 423.726562 457.292969 424.894531 C 457.941406 425.996094 458.070312 427.292969 457.683594 428.457031 Z M 457.683594 428.457031 " fill-opacity="1" fill-rule="nonzero"/><path fill="#ffffff" d="M 405 243 C 315.640625 243 243 315.640625 243 405 C 243 494.359375 315.640625 567 405 567 C 494.359375 567 567 494.359375 567 405 C 567 315.640625 494.359375 243 405 243 Z M 405 554.492188 C 322.574219 554.492188 255.507812 487.425781 255.507812 405 C 255.507812 322.574219 322.574219 255.507812 405 255.507812 C 487.425781 255.507812 554.492188 322.574219 554.492188 405 C 554.492188 487.425781 487.425781 554.492188 405 554.492188 Z M 405 554.492188 " fill-opacity="1" fill-rule="nonzero"/><path fill="#ffffff" d="M 346.613281 382.253906 C 346.679688 382.253906 346.746094 382.253906 346.808594 382.253906 C 359.1875 378.5625 369.425781 371.5 379.792969 360.742188 C 395.539062 344.476562 398.972656 322.25 387.4375 311.105469 C 377.914062 301.902344 359.058594 301.96875 346.613281 316.222656 C 334.171875 301.96875 315.316406 301.902344 305.792969 311.105469 C 294.257812 322.25 297.691406 344.476562 313.4375 360.742188 C 323.804688 371.5 333.980469 378.625 346.421875 382.253906 C 346.484375 382.253906 346.550781 382.253906 346.613281 382.253906 Z M 346.613281 382.253906 " fill-opacity="1" fill-rule="nonzero"/><path fill="#ffffff" d="M 504.207031 311.105469 C 494.683594 301.902344 475.828125 301.96875 463.386719 316.222656 C 450.941406 301.96875 432.085938 301.902344 422.5625 311.105469 C 411.027344 322.25 414.460938 344.476562 430.207031 360.742188 C 440.574219 371.5 450.75 378.625 463.191406 382.253906 C 463.253906 382.253906 463.320312 382.253906 463.386719 382.253906 C 463.449219 382.253906 463.515625 382.253906 463.578125 382.253906 C 475.957031 378.5625 486.195312 371.5 496.5625 360.742188 C 512.308594 344.476562 515.742188 322.25 504.207031 311.105469 Z M 504.207031 311.105469 " fill-opacity="1" fill-rule="nonzero"/></svg>