<svg xmlns="http://www.w3.org/2000/svg" xmlns:xlink="http://www.w3.org/1999/xlink" width="120" zoomAndPan="magnify" viewBox="0 0 90 89.999999" height="120" preserveAspectRatio="xMidYMid meet" version="1.0"><path fill="#ff9999" d="M 57.726562 32.273438 C 54.328125 28.871094 49.808594 27 45 27 C 40.191406 27 35.671875 28.871094 32.273438 32.273438 C 28.871094 35.671875 27 40.191406 27 45 C 27 49.808594 28.871094 54.328125 32.273438 57.726562 C 35.671875 61.128906 40.191406 63 45 63 C 49.808594 63 54.328125 61.128906 57.726562 57.726562 C 61.128906 54.328125 63 49.808594 63 45 C 63 40.191406 61.128906 35.671875 57.726562 32.273438 Z M 56.238281 56.238281 C 53.234375 59.238281 49.246094 60.890625 45 60.890625 C 40.753906 60.890625 36.765625 59.238281 33.761719 56.238281 C 30.761719 53.234375 29.109375 49.246094 29.109375 45 C 29.109375 40.753906 30.761719 36.765625 33.761719 33.761719 C 36.765625 30.761719 40.753906 29.109375 45 29.109375 C 49.246094 29.109375 53.234375 30.761719 56.238281 33.761719 C 59.238281 36.765625 60.890625 40.753906 60.890625 45 C 60.890625 49.246094 59.238281 53.234375 56.238281 56.238281 Z M 56.238281 56.238281 " fill-opacity="1" fill-rule="nonzero"/><path fill="#ff9999" d="M 51.339844 46.042969 C 53.34375 46.042969 54.972656 44.414062 54.972656 42.414062 C 54.972656 40.410156 53.34375 38.78125 51.339844 38.78125 C 49.339844 38.78125 47.710938 40.410156 47.710938 42.414062 C 47.710938 44.414062 49.339844 46.042969 51.339844 46.042969 Z M 51.339844 40.890625 C 52.179688 40.890625 52.863281 41.574219 52.863281 42.414062 C 52.863281 43.253906 52.179688 43.933594 51.339844 43.933594 C 50.5 43.933594 49.820312 43.253906 49.820312 42.414062 C 49.820312 41.574219 50.5 40.890625 51.339844 40.890625 Z M 51.339844 40.890625 " fill-opacity="1" fill-rule="nonzero"/><path fill="#ff9999" d="M 38.445312 46.042969 C 39.875 46.042969 41.226562 45.554688 42.054688 44.734375 C 42.46875 44.324219 42.472656 43.65625 42.0625 43.242188 C 41.65625 42.828125 40.988281 42.824219 40.574219 43.234375 C 40.230469 43.574219 39.492188 43.933594 38.445312 43.933594 C 37.316406 43.933594 36.558594 43.519531 36.25 43.164062 C 35.871094 42.722656 35.203125 42.675781 34.761719 43.058594 C 34.324219 43.441406 34.277344 44.105469 34.65625 44.546875 C 35.46875 45.484375 36.886719 46.042969 38.445312 46.042969 Z M 38.445312 46.042969 " fill-opacity="1" fill-rule="nonzero"/><path fill="#ff9999" d="M 35.339844 40.960938 C 35.617188 41.015625 35.890625 41.042969 36.164062 41.042969 C 38.191406 41.042969 40.007812 39.601562 40.40625 37.539062 C 40.515625 36.96875 40.144531 36.414062 39.570312 36.304688 C 39 36.191406 38.445312 36.566406 38.335938 37.136719 C 38.101562 38.335938 36.9375 39.125 35.742188 38.890625 C 35.167969 38.78125 34.613281 39.15625 34.503906 39.726562 C 34.394531 40.296875 34.765625 40.851562 35.339844 40.960938 Z M 35.339844 40.960938 " fill-opacity="1" fill-rule="nonzero"/><path fill="#ff9999" d="M 49.183594 36.332031 L 53.496094 36.332031 C 54.078125 36.332031 54.550781 35.859375 54.550781 35.277344 C 54.550781 34.695312 54.078125 34.222656 53.496094 34.222656 L 49.183594 34.222656 C 48.601562 34.222656 48.128906 34.695312 48.128906 35.277344 C 48.128906 35.859375 48.601562 36.332031 49.183594 36.332031 Z M 49.183594 36.332031 " fill-opacity="1" fill-rule="nonzero"/><path fill="#ff9999" d="M 55.03125 48.230469 C 54.515625 47.957031 53.875 48.15625 53.605469 48.671875 C 53.117188 49.601562 52.324219 50.871094 51.0625 51.1875 C 50.191406 51.402344 49.1875 51.167969 48.125 50.917969 C 46.917969 50.632812 45.546875 50.3125 44.160156 50.65625 C 42.292969 51.011719 41.230469 51.914062 40.449219 52.574219 C 39.722656 53.191406 39.542969 53.285156 39.242188 53.222656 C 38.574219 53.074219 37.414062 52.152344 35.792969 50.472656 C 35.390625 50.054688 34.722656 50.039062 34.304688 50.445312 C 33.882812 50.851562 33.871094 51.515625 34.277344 51.9375 C 36.324219 54.0625 37.632812 55.03125 38.792969 55.28125 C 39.007812 55.328125 39.210938 55.351562 39.402344 55.351562 C 40.433594 55.351562 41.160156 54.734375 41.8125 54.183594 C 42.515625 53.589844 43.242188 52.972656 44.582031 52.726562 C 44.605469 52.71875 44.628906 52.714844 44.652344 52.710938 C 45.546875 52.480469 46.566406 52.71875 47.644531 52.972656 C 48.902344 53.269531 50.207031 53.574219 51.574219 53.230469 C 53.136719 52.839844 54.414062 51.671875 55.472656 49.652344 C 55.746094 49.136719 55.546875 48.5 55.03125 48.230469 Z M 55.03125 48.230469 " fill-opacity="1" fill-rule="nonzero"/></svg>