<svg xmlns="http://www.w3.org/2000/svg" xmlns:xlink="http://www.w3.org/1999/xlink" width="1080" zoomAndPan="magnify" viewBox="0 0 810 809.999993" height="1080" preserveAspectRatio="xMidYMid meet" version="1.0"><defs><clipPath id="id1"><path d="M 246.441406 243 L 563.691406 243 L 563.691406 567 L 246.441406 567 Z M 246.441406 243 " clip-rule="nonzero"/></clipPath></defs><g clip-path="url(#id1)"><path fill="#ffffff" d="M 405.066406 243 C 317.726562 243 246.78125 313.914062 246.78125 401.214844 C 246.78125 427.089844 253 451.558594 264.039062 473.136719 C 264.734375 474.484375 265.757812 475.492188 267.117188 476.160156 C 271.359375 496.261719 274.644531 523.425781 274.644531 559.433594 C 274.636719 559.890625 274.675781 560.339844 274.761719 560.789062 C 274.84375 561.238281 274.96875 561.671875 275.140625 562.09375 C 275.3125 562.519531 275.519531 562.921875 275.769531 563.300781 C 276.019531 563.683594 276.304688 564.035156 276.625 564.359375 C 276.945312 564.683594 277.296875 564.976562 277.671875 565.230469 C 278.050781 565.484375 278.449219 565.699219 278.871094 565.878906 C 279.292969 566.054688 279.726562 566.1875 280.171875 566.277344 C 280.621094 566.363281 281.070312 566.410156 281.527344 566.410156 C 281.984375 566.410156 282.433594 566.363281 282.882812 566.277344 C 283.328125 566.1875 283.761719 566.054688 284.183594 565.878906 C 284.605469 565.699219 285.003906 565.484375 285.382812 565.230469 C 285.757812 564.976562 286.109375 564.683594 286.429688 564.359375 C 286.75 564.035156 287.035156 563.683594 287.285156 563.300781 C 287.535156 562.921875 287.742188 562.519531 287.914062 562.09375 C 288.082031 561.671875 288.210938 561.238281 288.292969 560.789062 C 288.375 560.339844 288.414062 559.890625 288.410156 559.433594 C 288.410156 509.957031 282.34375 476.152344 275.695312 453.9375 C 271.890625 441.234375 281.464844 428.734375 294.820312 428.734375 C 299.292969 428.734375 303.546875 430.125 306.824219 432.75 C 318.882812 442.410156 343.128906 472.265625 343.128906 559.433594 C 343.121094 559.890625 343.160156 560.339844 343.246094 560.789062 C 343.328125 561.238281 343.453125 561.671875 343.625 562.09375 C 343.792969 562.519531 344.003906 562.921875 344.253906 563.300781 C 344.503906 563.683594 344.789062 564.035156 345.109375 564.359375 C 345.429688 564.683594 345.777344 564.976562 346.15625 565.230469 C 346.535156 565.484375 346.933594 565.699219 347.355469 565.878906 C 347.777344 566.054688 348.210938 566.1875 348.65625 566.277344 C 349.105469 566.367188 349.554688 566.410156 350.011719 566.410156 C 350.46875 566.410156 350.917969 566.367188 351.367188 566.277344 C 351.8125 566.1875 352.246094 566.054688 352.667969 565.878906 C 353.089844 565.699219 353.488281 565.484375 353.867188 565.230469 C 354.242188 564.976562 354.59375 564.683594 354.914062 564.359375 C 355.234375 564.035156 355.519531 563.683594 355.769531 563.300781 C 356.019531 562.921875 356.226562 562.519531 356.398438 562.09375 C 356.566406 561.671875 356.695312 561.238281 356.777344 560.789062 C 356.859375 560.339844 356.898438 559.890625 356.894531 559.433594 C 356.894531 556.78125 356.800781 554.332031 356.757812 551.773438 C 372.011719 556.664062 388.210938 559.433594 405.066406 559.433594 C 421.8125 559.433594 437.914062 556.699219 453.082031 551.867188 C 453.039062 554.398438 452.945312 556.8125 452.945312 559.433594 C 452.941406 559.890625 452.976562 560.339844 453.0625 560.789062 C 453.144531 561.238281 453.273438 561.671875 453.441406 562.09375 C 453.613281 562.519531 453.820312 562.921875 454.070312 563.300781 C 454.320312 563.683594 454.605469 564.035156 454.925781 564.359375 C 455.246094 564.683594 455.597656 564.976562 455.972656 565.230469 C 456.351562 565.484375 456.75 565.699219 457.171875 565.875 C 457.59375 566.050781 458.027344 566.183594 458.472656 566.273438 C 458.921875 566.363281 459.371094 566.410156 459.828125 566.410156 C 460.285156 566.410156 460.734375 566.363281 461.183594 566.273438 C 461.628906 566.183594 462.0625 566.050781 462.484375 565.875 C 462.90625 565.699219 463.304688 565.484375 463.683594 565.230469 C 464.058594 564.976562 464.410156 564.683594 464.730469 564.359375 C 465.050781 564.035156 465.335938 563.683594 465.585938 563.300781 C 465.835938 562.921875 466.042969 562.519531 466.214844 562.09375 C 466.382812 561.671875 466.511719 561.238281 466.59375 560.789062 C 466.679688 560.339844 466.714844 559.890625 466.710938 559.433594 C 466.710938 553.851562 466.804688 548.523438 466.992188 543.40625 C 467.09375 542.847656 467.125 542.289062 467.085938 541.726562 C 470.128906 468.183594 491.828125 441.722656 503.027344 432.75 C 506.308594 430.125 510.558594 428.734375 515.03125 428.734375 C 528.386719 428.734375 537.957031 441.234375 534.160156 453.9375 C 527.511719 476.152344 521.445312 509.957031 521.445312 559.433594 C 521.4375 559.890625 521.476562 560.339844 521.558594 560.789062 C 521.644531 561.238281 521.769531 561.671875 521.941406 562.09375 C 522.109375 562.519531 522.320312 562.921875 522.570312 563.300781 C 522.820312 563.683594 523.105469 564.035156 523.425781 564.359375 C 523.746094 564.683594 524.09375 564.976562 524.472656 565.230469 C 524.847656 565.484375 525.25 565.699219 525.667969 565.875 C 526.089844 566.050781 526.523438 566.183594 526.972656 566.273438 C 527.417969 566.363281 527.871094 566.410156 528.324219 566.410156 C 528.78125 566.410156 529.234375 566.363281 529.679688 566.273438 C 530.128906 566.183594 530.5625 566.050781 530.980469 565.875 C 531.402344 565.699219 531.800781 565.484375 532.179688 565.230469 C 532.558594 564.976562 532.90625 564.683594 533.226562 564.359375 C 533.546875 564.035156 533.832031 563.683594 534.082031 563.300781 C 534.332031 562.921875 534.542969 562.519531 534.710938 562.09375 C 534.882812 561.671875 535.007812 561.238281 535.09375 560.789062 C 535.175781 560.339844 535.214844 559.890625 535.207031 559.433594 C 535.207031 526.132812 538.042969 500.527344 541.820312 480.941406 C 555.507812 457.53125 563.355469 430.261719 563.355469 401.214844 C 563.355469 313.914062 492.410156 243 405.066406 243 Z M 405.066406 256.757812 C 484.972656 256.757812 549.589844 321.347656 549.589844 401.214844 C 549.589844 412.742188 548.171875 423.921875 545.625 434.65625 C 540.328125 423.28125 528.765625 414.972656 515.03125 414.972656 C 507.695312 414.972656 500.355469 417.265625 494.425781 422.015625 C 479.890625 433.660156 457.421875 463.871094 453.578125 537.199219 C 438.410156 542.609375 422.121094 545.675781 405.066406 545.675781 C 387.902344 545.675781 371.503906 542.570312 356.25 537.089844 C 352.390625 463.851562 329.957031 433.652344 315.425781 422.015625 C 309.496094 417.265625 302.160156 414.972656 294.820312 414.972656 C 281.210938 414.972656 269.75 423.132812 264.390625 434.347656 C 261.890625 423.710938 260.542969 412.632812 260.542969 401.214844 C 260.542969 321.347656 325.164062 256.757812 405.066406 256.757812 Z M 356.894531 325.546875 C 347.390625 325.546875 339.6875 337.867188 339.6875 353.0625 C 339.6875 368.257812 347.390625 380.578125 356.894531 380.578125 C 366.398438 380.578125 374.097656 368.257812 374.097656 353.0625 C 374.097656 337.867188 366.398438 325.546875 356.894531 325.546875 Z M 453.242188 325.546875 C 443.738281 325.546875 436.035156 337.867188 436.035156 353.0625 C 436.035156 368.257812 443.738281 380.578125 453.242188 380.578125 C 462.746094 380.578125 470.445312 368.257812 470.445312 353.0625 C 470.445312 337.867188 462.746094 325.546875 453.242188 325.546875 Z M 405.066406 394.335938 C 391.1875 394.335938 380.117188 402.09375 373.453125 412.582031 C 366.789062 423.070312 363.773438 436.238281 363.773438 449.371094 C 363.773438 462.5 366.789062 475.667969 373.453125 486.15625 C 380.117188 496.644531 391.1875 504.402344 405.066406 504.402344 C 417.171875 504.402344 427.8125 497.480469 435 487.417969 C 442.191406 477.359375 446.359375 463.996094 446.359375 449.371094 C 446.359375 434.746094 442.191406 421.378906 435 411.320312 C 427.8125 401.257812 417.171875 394.335938 405.066406 394.335938 Z M 405.066406 408.09375 C 411.964844 408.09375 418.539062 411.945312 423.804688 419.3125 C 429.070312 426.679688 432.59375 437.398438 432.59375 449.371094 C 432.59375 461.339844 429.070312 472.058594 423.804688 479.425781 C 418.539062 486.792969 411.964844 490.644531 405.066406 490.644531 C 396.007812 490.644531 389.875 486.363281 385.066406 478.792969 C 380.257812 471.222656 377.539062 460.316406 377.539062 449.371094 C 377.539062 438.421875 380.257812 427.515625 385.066406 419.945312 C 389.875 412.375 396.007812 408.09375 405.066406 408.09375 Z M 405.066406 408.09375 " fill-opacity="1" fill-rule="nonzero"/></g></svg>