<svg xmlns="http://www.w3.org/2000/svg" xmlns:xlink="http://www.w3.org/1999/xlink" width="1080" zoomAndPan="magnify" viewBox="0 0 810 809.999993" height="1080" preserveAspectRatio="xMidYMid meet" version="1.0"><defs><clipPath id="id1"><path d="M 243 243 L 567 243 L 567 567 L 243 567 Z M 243 243 " clip-rule="nonzero"/></clipPath></defs><g clip-path="url(#id1)"><path fill="#ffffff" d="M 405 243.148438 C 396.585938 243.117188 388.226562 243.746094 379.910156 245.03125 C 371.597656 246.316406 363.4375 248.246094 355.425781 250.816406 C 347.414062 253.386719 339.65625 256.566406 332.144531 260.359375 C 324.636719 264.152344 317.46875 268.507812 310.644531 273.425781 C 302.195312 260.046875 290.222656 248.78125 286.703125 245.257812 C 286.382812 244.925781 286.035156 244.625 285.65625 244.363281 C 285.28125 244.101562 284.878906 243.878906 284.457031 243.695312 C 284.03125 243.515625 283.59375 243.378906 283.144531 243.285156 C 282.691406 243.191406 282.234375 243.148438 281.773438 243.148438 C 281.3125 243.148438 280.859375 243.191406 280.40625 243.285156 C 279.953125 243.378906 279.515625 243.515625 279.09375 243.695312 C 278.671875 243.878906 278.269531 244.101562 277.890625 244.363281 C 277.511719 244.625 277.164062 244.925781 276.847656 245.257812 C 271.214844 250.890625 243.046875 279.058594 243.046875 297.363281 C 243.046875 310.742188 250.792969 322.710938 262.0625 329.054688 C 250.085938 352.285156 243.046875 378.347656 243.046875 405.101562 C 243.046875 494.527344 315.574219 567.054688 405 567.054688 C 494.425781 567.054688 566.953125 494.527344 566.953125 405.101562 C 566.953125 315.675781 494.425781 243.148438 405 243.148438 Z M 281.773438 260.046875 C 293.042969 272.019531 306.421875 288.917969 306.421875 297.371094 C 306.421875 310.042969 295.152344 320.609375 281.773438 320.609375 C 268.398438 320.609375 257.128906 310.042969 257.128906 297.371094 C 257.128906 289.621094 270.480469 272.011719 281.773438 260.046875 Z M 405 552.972656 C 323.320312 552.972656 257.128906 486.78125 257.128906 405.101562 C 257.140625 398.910156 257.539062 392.742188 258.324219 386.601562 C 259.109375 380.457031 260.273438 374.386719 261.816406 368.390625 C 263.359375 362.394531 265.269531 356.519531 267.546875 350.761719 C 269.828125 345.003906 272.457031 339.410156 275.433594 333.980469 C 277.550781 333.980469 279.660156 334.65625 281.773438 334.65625 C 302.898438 334.65625 320.5 317.757812 320.5 297.335938 C 320.5 293.8125 319.097656 289.589844 317.683594 285.363281 C 343.03125 266.382812 373.308594 256.527344 405 256.527344 C 486.679688 256.527344 552.871094 322.71875 552.871094 404.398438 C 552.871094 486.078125 486.679688 552.972656 405 552.972656 Z M 405 552.972656 " fill-opacity="1" fill-rule="nonzero"/></g><path fill="#ffffff" d="M 461.328125 341.726562 C 460.40625 341.730469 459.488281 341.777344 458.570312 341.871094 C 457.652344 341.964844 456.742188 342.101562 455.839844 342.28125 C 454.9375 342.464844 454.042969 342.691406 453.160156 342.957031 C 452.28125 343.226562 451.414062 343.539062 450.5625 343.894531 C 449.710938 344.246094 448.878906 344.640625 448.066406 345.078125 C 447.253906 345.511719 446.464844 345.988281 445.699219 346.5 C 444.933594 347.011719 444.195312 347.5625 443.480469 348.144531 C 442.769531 348.730469 442.085938 349.351562 441.433594 350 C 440.785156 350.652344 440.164062 351.335938 439.582031 352.046875 C 438.996094 352.761719 438.445312 353.5 437.933594 354.265625 C 437.421875 355.03125 436.945312 355.820312 436.511719 356.632812 C 436.074219 357.445312 435.679688 358.277344 435.328125 359.128906 C 434.972656 359.980469 434.660156 360.847656 434.390625 361.726562 C 434.125 362.609375 433.898438 363.503906 433.714844 364.40625 C 433.535156 365.308594 433.398438 366.21875 433.304688 367.136719 C 433.210938 368.054688 433.164062 368.972656 433.160156 369.894531 C 433.160156 374.121094 435.980469 376.941406 440.207031 376.941406 C 444.429688 376.941406 447.25 374.121094 447.25 369.894531 C 447.25 368.972656 447.339844 368.054688 447.519531 367.148438 C 447.699219 366.242188 447.96875 365.359375 448.320312 364.507812 C 448.675781 363.652344 449.109375 362.839844 449.621094 362.070312 C 450.136719 361.300781 450.71875 360.589844 451.375 359.9375 C 452.027344 359.28125 452.738281 358.699219 453.507812 358.183594 C 454.277344 357.671875 455.089844 357.238281 455.945312 356.882812 C 456.796875 356.53125 457.679688 356.261719 458.585938 356.082031 C 459.492188 355.902344 460.410156 355.8125 461.332031 355.8125 C 462.257812 355.8125 463.175781 355.902344 464.082031 356.082031 C 464.988281 356.261719 465.867188 356.53125 466.722656 356.882812 C 467.578125 357.238281 468.390625 357.671875 469.15625 358.183594 C 469.925781 358.699219 470.636719 359.28125 471.292969 359.9375 C 471.945312 360.589844 472.53125 361.300781 473.042969 362.070312 C 473.558594 362.839844 473.992188 363.652344 474.34375 364.507812 C 474.699219 365.359375 474.964844 366.242188 475.148438 367.148438 C 475.328125 368.054688 475.417969 368.972656 475.417969 369.894531 C 475.417969 374.121094 478.234375 376.941406 482.460938 376.941406 C 486.6875 376.941406 489.5 374.121094 489.5 369.894531 C 489.496094 368.972656 489.449219 368.054688 489.355469 367.136719 C 489.261719 366.21875 489.125 365.308594 488.945312 364.40625 C 488.761719 363.503906 488.535156 362.609375 488.265625 361.726562 C 487.996094 360.847656 487.6875 359.980469 487.332031 359.128906 C 486.976562 358.277344 486.582031 357.445312 486.148438 356.632812 C 485.714844 355.820312 485.238281 355.03125 484.726562 354.265625 C 484.214844 353.5 483.664062 352.761719 483.078125 352.046875 C 482.496094 351.335938 481.875 350.652344 481.222656 350 C 480.574219 349.351562 479.890625 348.730469 479.179688 348.144531 C 478.464844 347.5625 477.726562 347.011719 476.960938 346.5 C 476.195312 345.988281 475.40625 345.511719 474.59375 345.078125 C 473.78125 344.640625 472.949219 344.246094 472.097656 343.894531 C 471.246094 343.539062 470.378906 343.226562 469.496094 342.957031 C 468.617188 342.691406 467.722656 342.464844 466.820312 342.28125 C 465.914062 342.101562 465.003906 341.964844 464.089844 341.871094 C 463.171875 341.777344 462.25 341.730469 461.328125 341.726562 Z M 461.328125 341.726562 " fill-opacity="1" fill-rule="nonzero"/><path fill="#ffffff" d="M 334.582031 369.894531 C 334.582031 368.972656 334.671875 368.054688 334.851562 367.148438 C 335.035156 366.242188 335.300781 365.359375 335.65625 364.507812 C 336.007812 363.652344 336.441406 362.839844 336.957031 362.070312 C 337.46875 361.300781 338.054688 360.589844 338.707031 359.9375 C 339.363281 359.28125 340.074219 358.699219 340.84375 358.183594 C 341.609375 357.671875 342.421875 357.238281 343.277344 356.882812 C 344.132812 356.53125 345.011719 356.261719 345.917969 356.082031 C 346.824219 355.902344 347.742188 355.8125 348.667969 355.8125 C 349.589844 355.8125 350.507812 355.902344 351.414062 356.082031 C 352.320312 356.261719 353.203125 356.53125 354.054688 356.882812 C 354.910156 357.238281 355.722656 357.671875 356.492188 358.183594 C 357.261719 358.699219 357.972656 359.28125 358.625 359.9375 C 359.28125 360.589844 359.863281 361.300781 360.378906 362.070312 C 360.890625 362.839844 361.324219 363.652344 361.679688 364.507812 C 362.03125 365.359375 362.300781 366.242188 362.480469 367.148438 C 362.660156 368.054688 362.75 368.972656 362.75 369.894531 C 362.75 374.121094 365.570312 376.941406 369.792969 376.941406 C 374.019531 376.941406 376.839844 374.121094 376.839844 369.894531 C 376.851562 368.964844 376.820312 368.035156 376.742188 367.105469 C 376.664062 366.179688 376.542969 365.253906 376.371094 364.339844 C 376.203125 363.421875 375.988281 362.519531 375.730469 361.621094 C 375.46875 360.726562 375.167969 359.847656 374.820312 358.984375 C 374.472656 358.117188 374.085938 357.273438 373.65625 356.445312 C 373.226562 355.621094 372.753906 354.816406 372.246094 354.039062 C 371.734375 353.257812 371.1875 352.503906 370.601562 351.78125 C 370.019531 351.054688 369.398438 350.359375 368.746094 349.695312 C 368.089844 349.03125 367.40625 348.402344 366.691406 347.808594 C 365.972656 347.210938 365.230469 346.652344 364.457031 346.128906 C 363.6875 345.609375 362.890625 345.125 362.070312 344.683594 C 361.253906 344.238281 360.414062 343.835938 359.554688 343.476562 C 358.695312 343.117188 357.820312 342.800781 356.929688 342.527344 C 356.039062 342.253906 355.136719 342.027344 354.222656 341.84375 C 353.308594 341.660156 352.386719 341.523438 351.460938 341.429688 C 350.535156 341.335938 349.605469 341.292969 348.671875 341.292969 C 347.742188 341.292969 346.8125 341.335938 345.886719 341.429688 C 344.957031 341.523438 344.039062 341.660156 343.125 341.84375 C 342.210938 342.027344 341.308594 342.253906 340.417969 342.527344 C 339.527344 342.800781 338.652344 343.117188 337.792969 343.476562 C 336.933594 343.835938 336.09375 344.238281 335.273438 344.683594 C 334.457031 345.125 333.660156 345.609375 332.886719 346.128906 C 332.117188 346.652344 331.371094 347.210938 330.65625 347.808594 C 329.941406 348.402344 329.253906 349.03125 328.601562 349.695312 C 327.949219 350.359375 327.328125 351.054688 326.746094 351.78125 C 326.160156 352.503906 325.613281 353.257812 325.101562 354.039062 C 324.59375 354.816406 324.121094 355.621094 323.691406 356.445312 C 323.261719 357.273438 322.871094 358.117188 322.527344 358.984375 C 322.179688 359.847656 321.875 360.726562 321.617188 361.621094 C 321.359375 362.519531 321.144531 363.421875 320.972656 364.339844 C 320.804688 365.253906 320.679688 366.179688 320.605469 367.105469 C 320.527344 368.035156 320.492188 368.964844 320.507812 369.894531 C 320.507812 374.121094 323.328125 376.941406 327.550781 376.941406 C 331.777344 376.941406 334.582031 374.121094 334.582031 369.894531 Z M 334.582031 369.894531 " fill-opacity="1" fill-rule="nonzero"/><path fill="#ffffff" d="M 405 440.308594 C 352.894531 440.308594 329.65625 469.882812 328.953125 471.289062 C 326.84375 474.105469 327.546875 479.035156 330.359375 481.144531 C 333.167969 483.253906 338.105469 482.550781 340.214844 479.738281 C 340.214844 479.738281 359.933594 454.386719 404.992188 454.386719 C 450.054688 454.386719 469.070312 479.035156 469.773438 479.738281 C 470.082031 480.195312 470.441406 480.605469 470.855469 480.96875 C 471.269531 481.335938 471.722656 481.640625 472.21875 481.886719 C 472.710938 482.132812 473.226562 482.3125 473.769531 482.425781 C 474.308594 482.539062 474.851562 482.582031 475.402344 482.554688 C 476.808594 482.554688 478.222656 481.878906 479.628906 481.148438 C 482.449219 479.039062 483.152344 474.105469 481.035156 471.292969 C 480.34375 469.882812 457.105469 440.308594 405 440.308594 Z M 405 440.308594 " fill-opacity="1" fill-rule="nonzero"/></svg>