<svg xmlns="http://www.w3.org/2000/svg" xmlns:xlink="http://www.w3.org/1999/xlink" width="120" zoomAndPan="magnify" viewBox="0 0 90 89.999999" height="120" preserveAspectRatio="xMidYMid meet" version="1.0"><path fill="#ff9999" d="M 45 47.058594 C 41.953125 47.058594 39.183594 48.738281 37.765625 51.445312 C 37.585938 51.78125 37.722656 52.207031 38.058594 52.386719 C 38.398438 52.566406 38.824219 52.429688 39.003906 52.09375 C 40.175781 49.84375 42.472656 48.457031 45.007812 48.457031 C 47.542969 48.457031 49.832031 49.851562 51.011719 52.09375 C 51.132812 52.328125 51.378906 52.464844 51.632812 52.464844 C 51.738281 52.464844 51.847656 52.4375 51.957031 52.386719 C 52.292969 52.207031 52.429688 51.789062 52.25 51.445312 C 50.816406 48.738281 48.046875 47.058594 45 47.058594 Z M 45 47.058594 " fill-opacity="1" fill-rule="nonzero"/><path fill="#ff9999" d="M 45 27 C 35.070312 27 27 35.070312 27 45 C 27 54.929688 35.070312 63 45 63 C 54.929688 63 63 54.929688 63 45 C 63 35.070312 54.929688 27 45 27 Z M 45 61.609375 C 35.839844 61.609375 28.390625 54.160156 28.390625 45 C 28.390625 35.839844 35.839844 28.390625 45 28.390625 C 54.160156 28.390625 61.609375 35.839844 61.609375 45 C 61.609375 54.160156 54.160156 61.609375 45 61.609375 Z M 45 61.609375 " fill-opacity="1" fill-rule="nonzero"/><path fill="#ff9999" d="M 52.34375 37.402344 L 49.074219 38.542969 C 48.449219 38.757812 48.109375 39.457031 48.328125 40.082031 C 48.542969 40.707031 49.242188 41.046875 49.867188 40.832031 L 53.136719 39.695312 C 53.761719 39.476562 54.101562 38.777344 53.886719 38.152344 C 53.667969 37.519531 52.976562 37.1875 52.34375 37.402344 Z M 52.34375 37.402344 " fill-opacity="1" fill-rule="nonzero"/><path fill="#ff9999" d="M 41.667969 40.082031 C 41.882812 39.457031 41.550781 38.757812 40.917969 38.542969 L 37.65625 37.402344 C 37.03125 37.1875 36.332031 37.519531 36.113281 38.152344 C 35.898438 38.777344 36.230469 39.476562 36.863281 39.695312 L 40.132812 40.832031 C 40.753906 41.046875 41.449219 40.714844 41.667969 40.082031 Z M 41.667969 40.082031 " fill-opacity="1" fill-rule="nonzero"/></svg>