<svg xmlns="http://www.w3.org/2000/svg" xmlns:xlink="http://www.w3.org/1999/xlink" width="120" zoomAndPan="magnify" viewBox="0 0 90 89.999999" height="120" preserveAspectRatio="xMidYMid meet" version="1.0"><path fill="#ffffff" d="M 32.882812 41.191406 L 32.882812 42.589844 C 32.882812 49.269531 38.320312 54.707031 45 54.707031 C 51.679688 54.707031 57.117188 49.269531 57.117188 42.589844 L 57.117188 41.191406 Z M 39.886719 52.011719 C 40.988281 50.765625 42.898438 50.003906 45 50.003906 C 47.101562 50.003906 49.011719 50.765625 50.113281 52.011719 C 48.59375 52.839844 46.851562 53.308594 45 53.308594 C 43.148438 53.308594 41.40625 52.839844 39.886719 52.011719 Z M 55.722656 42.589844 C 55.722656 46.152344 53.976562 49.304688 51.292969 51.257812 C 49.945312 49.613281 47.578125 48.605469 44.992188 48.605469 C 42.414062 48.605469 40.039062 49.613281 38.691406 51.257812 C 36.015625 49.304688 34.265625 46.144531 34.265625 42.589844 Z M 55.722656 42.589844 " fill-opacity="1" fill-rule="nonzero"/><path fill="#ffffff" d="M 45 27 C 35.070312 27 27 35.070312 27 45 C 27 54.929688 35.070312 63 45 63 C 54.929688 63 63 54.929688 63 45 C 63 35.070312 54.929688 27 45 27 Z M 45 61.609375 C 35.839844 61.609375 28.390625 54.160156 28.390625 45 C 28.390625 35.839844 35.839844 28.390625 45 28.390625 C 54.160156 28.390625 61.609375 35.839844 61.609375 45 C 61.609375 54.160156 54.160156 61.609375 45 61.609375 Z M 45 61.609375 " fill-opacity="1" fill-rule="nonzero"/><path fill="#ffffff" d="M 36.402344 34.855469 C 37.476562 34.566406 38.578125 34.523438 39.644531 34.703125 C 38.347656 35.136719 37.160156 35.863281 36.171875 36.855469 C 35.898438 37.128906 35.898438 37.570312 36.171875 37.84375 C 36.308594 37.980469 36.488281 38.042969 36.664062 38.042969 C 36.84375 38.042969 37.023438 37.980469 37.152344 37.84375 C 38.542969 36.453125 40.390625 35.667969 42.363281 35.640625 C 42.371094 35.640625 42.371094 35.640625 42.378906 35.640625 C 42.414062 35.640625 42.453125 35.632812 42.488281 35.625 C 42.496094 35.625 42.507812 35.625 42.515625 35.617188 C 42.550781 35.609375 42.589844 35.597656 42.625 35.582031 C 42.632812 35.582031 42.636719 35.574219 42.644531 35.566406 C 42.675781 35.554688 42.703125 35.539062 42.730469 35.519531 C 42.738281 35.511719 42.746094 35.511719 42.753906 35.503906 C 42.78125 35.480469 42.820312 35.453125 42.847656 35.425781 C 42.847656 35.425781 42.855469 35.417969 42.855469 35.417969 C 42.875 35.386719 42.898438 35.367188 42.917969 35.332031 C 42.925781 35.324219 42.933594 35.308594 42.941406 35.300781 C 42.949219 35.292969 42.957031 35.289062 42.957031 35.273438 C 42.960938 35.257812 42.960938 35.25 42.96875 35.238281 C 42.984375 35.214844 42.992188 35.195312 43 35.164062 C 43.003906 35.144531 43.011719 35.121094 43.019531 35.101562 C 43.027344 35.078125 43.027344 35.058594 43.035156 35.035156 C 43.042969 35.011719 43.042969 34.984375 43.042969 34.964844 C 43.042969 34.949219 43.042969 34.933594 43.042969 34.925781 C 43.042969 34.921875 43.042969 34.914062 43.042969 34.90625 C 43.042969 34.882812 43.035156 34.855469 43.035156 34.832031 C 43.035156 34.8125 43.027344 34.789062 43.019531 34.769531 C 43.011719 34.746094 43.003906 34.726562 43 34.703125 C 42.992188 34.683594 42.984375 34.660156 42.976562 34.640625 C 42.96875 34.617188 42.957031 34.601562 42.949219 34.582031 C 42.933594 34.558594 42.925781 34.539062 42.910156 34.515625 C 42.898438 34.503906 42.890625 34.488281 42.875 34.472656 C 42.855469 34.453125 42.839844 34.429688 42.820312 34.414062 C 42.8125 34.410156 42.796875 34.402344 42.78125 34.386719 C 42.753906 34.367188 42.730469 34.34375 42.703125 34.328125 C 42.703125 34.328125 42.695312 34.324219 42.695312 34.324219 C 40.660156 33.183594 38.296875 32.898438 36.042969 33.496094 C 35.667969 33.59375 35.453125 33.976562 35.554688 34.34375 C 35.648438 34.734375 36.027344 34.957031 36.402344 34.855469 Z M 36.402344 34.855469 " fill-opacity="1" fill-rule="nonzero"/><path fill="#ffffff" d="M 46.953125 34.96875 C 46.953125 34.992188 46.953125 35.019531 46.957031 35.042969 C 46.957031 35.0625 46.964844 35.085938 46.972656 35.105469 C 46.980469 35.128906 46.988281 35.152344 46.996094 35.171875 C 47 35.195312 47.015625 35.222656 47.023438 35.242188 C 47.03125 35.257812 47.03125 35.265625 47.039062 35.28125 C 47.042969 35.289062 47.050781 35.292969 47.050781 35.308594 C 47.058594 35.316406 47.066406 35.332031 47.074219 35.335938 C 47.09375 35.367188 47.117188 35.394531 47.136719 35.425781 C 47.136719 35.425781 47.144531 35.429688 47.144531 35.429688 C 47.175781 35.460938 47.203125 35.488281 47.238281 35.511719 C 47.246094 35.519531 47.253906 35.519531 47.261719 35.523438 C 47.289062 35.546875 47.320312 35.5625 47.347656 35.574219 C 47.355469 35.582031 47.363281 35.582031 47.367188 35.589844 C 47.40625 35.605469 47.441406 35.617188 47.476562 35.625 C 47.484375 35.625 47.5 35.632812 47.503906 35.632812 C 47.542969 35.640625 47.578125 35.648438 47.613281 35.648438 C 47.621094 35.648438 47.621094 35.648438 47.628906 35.648438 C 49.59375 35.675781 51.445312 36.460938 52.839844 37.851562 C 52.976562 37.988281 53.15625 38.050781 53.332031 38.050781 C 53.503906 38.050781 53.691406 37.988281 53.820312 37.851562 C 54.09375 37.578125 54.09375 37.136719 53.820312 36.863281 C 52.828125 35.871094 51.644531 35.144531 50.347656 34.710938 C 51.414062 34.523438 52.515625 34.574219 53.589844 34.863281 C 53.957031 34.964844 54.34375 34.738281 54.4375 34.371094 C 54.539062 34 54.316406 33.617188 53.949219 33.523438 C 51.695312 32.917969 49.335938 33.214844 47.296875 34.351562 C 47.296875 34.351562 47.296875 34.351562 47.289062 34.351562 C 47.253906 34.371094 47.226562 34.394531 47.1875 34.421875 C 47.179688 34.429688 47.175781 34.429688 47.175781 34.4375 C 47.144531 34.460938 47.125 34.488281 47.101562 34.515625 C 47.09375 34.523438 47.089844 34.53125 47.082031 34.546875 C 47.058594 34.566406 47.042969 34.597656 47.03125 34.625 C 47.023438 34.640625 47.015625 34.652344 47.007812 34.667969 C 46.996094 34.691406 46.988281 34.71875 46.980469 34.738281 C 46.972656 34.761719 46.964844 34.777344 46.957031 34.796875 C 46.953125 34.820312 46.953125 34.839844 46.945312 34.863281 C 46.9375 34.882812 46.9375 34.914062 46.9375 34.933594 C 46.9375 34.941406 46.9375 34.949219 46.9375 34.957031 C 46.945312 34.941406 46.953125 34.957031 46.953125 34.96875 Z M 46.953125 34.96875 " fill-opacity="1" fill-rule="nonzero"/></svg>