<svg xmlns="http://www.w3.org/2000/svg" xmlns:xlink="http://www.w3.org/1999/xlink" width="1080" zoomAndPan="magnify" viewBox="0 0 810 809.999993" height="1080" preserveAspectRatio="xMidYMid meet" version="1.0"><path fill="#ffffff" d="M 405 243.015625 C 315.554688 243.015625 243.011719 315.554688 243.011719 405 C 243.011719 494.445312 315.554688 566.988281 405 566.988281 C 494.445312 566.988281 566.988281 494.445312 566.988281 405 C 566.988281 315.554688 494.445312 243.015625 405 243.015625 Z M 405 552.902344 C 323.304688 552.902344 257.097656 486.695312 257.097656 405 C 257.097656 323.304688 323.304688 257.097656 405 257.097656 C 486.695312 257.097656 552.902344 323.304688 552.902344 405 C 552.902344 486.695312 486.695312 552.902344 405 552.902344 Z M 405 552.902344 " fill-opacity="1" fill-rule="nonzero"/><path fill="#ffffff" d="M 390.917969 369.789062 C 390.917969 368.402344 390.847656 367.023438 390.710938 365.644531 C 390.578125 364.269531 390.375 362.902344 390.105469 361.542969 C 389.835938 360.1875 389.5 358.84375 389.097656 357.519531 C 388.695312 356.195312 388.230469 354.894531 387.699219 353.617188 C 387.171875 352.335938 386.578125 351.089844 385.925781 349.867188 C 385.273438 348.648438 384.5625 347.460938 383.792969 346.308594 C 383.027344 345.160156 382.203125 344.050781 381.324219 342.980469 C 380.445312 341.910156 379.519531 340.886719 378.539062 339.90625 C 377.5625 338.929688 376.535156 338 375.464844 337.121094 C 374.398438 336.242188 373.285156 335.421875 372.136719 334.652344 C 370.984375 333.882812 369.800781 333.171875 368.578125 332.519531 C 367.359375 331.867188 366.109375 331.277344 364.828125 330.746094 C 363.550781 330.21875 362.25 329.75 360.925781 329.347656 C 359.601562 328.949219 358.261719 328.613281 356.902344 328.34375 C 355.546875 328.070312 354.175781 327.867188 352.800781 327.734375 C 351.421875 327.597656 350.042969 327.53125 348.660156 327.53125 C 347.273438 327.53125 345.894531 327.597656 344.515625 327.734375 C 343.140625 327.867188 341.773438 328.070312 340.414062 328.34375 C 339.058594 328.613281 337.714844 328.949219 336.390625 329.347656 C 335.066406 329.75 333.765625 330.21875 332.488281 330.746094 C 331.207031 331.277344 329.957031 331.867188 328.738281 332.519531 C 327.515625 333.171875 326.332031 333.882812 325.179688 334.652344 C 324.03125 335.421875 322.921875 336.242188 321.851562 337.121094 C 320.78125 338 319.757812 338.929688 318.777344 339.90625 C 317.800781 340.886719 316.871094 341.910156 315.992188 342.980469 C 315.113281 344.050781 314.292969 345.160156 313.523438 346.308594 C 312.753906 347.460938 312.042969 348.648438 311.390625 349.867188 C 310.738281 351.089844 310.148438 352.335938 309.617188 353.617188 C 309.085938 354.894531 308.621094 356.195312 308.21875 357.519531 C 307.816406 358.84375 307.480469 360.1875 307.210938 361.542969 C 306.941406 362.902344 306.738281 364.269531 306.605469 365.644531 C 306.46875 367.023438 306.402344 368.402344 306.402344 369.789062 C 306.402344 371.171875 306.46875 372.550781 306.605469 373.929688 C 306.738281 375.308594 306.941406 376.675781 307.210938 378.03125 C 307.480469 379.390625 307.816406 380.730469 308.21875 382.054688 C 308.621094 383.378906 309.085938 384.679688 309.617188 385.960938 C 310.148438 387.238281 310.738281 388.488281 311.390625 389.707031 C 312.042969 390.929688 312.753906 392.113281 313.523438 393.265625 C 314.292969 394.414062 315.113281 395.527344 315.992188 396.597656 C 316.871094 397.664062 317.800781 398.691406 318.777344 399.667969 C 319.757812 400.648438 320.78125 401.574219 321.851562 402.453125 C 322.921875 403.332031 324.03125 404.15625 325.179688 404.925781 C 326.332031 405.691406 327.515625 406.402344 328.738281 407.054688 C 329.957031 407.707031 331.207031 408.300781 332.488281 408.828125 C 333.765625 409.359375 335.066406 409.824219 336.390625 410.226562 C 337.714844 410.628906 339.058594 410.964844 340.414062 411.234375 C 341.773438 411.503906 343.140625 411.707031 344.515625 411.84375 C 345.894531 411.976562 347.273438 412.046875 348.660156 412.046875 C 350.042969 412.042969 351.421875 411.96875 352.796875 411.832031 C 354.171875 411.691406 355.539062 411.488281 356.894531 411.214844 C 358.25 410.941406 359.589844 410.601562 360.910156 410.199219 C 362.234375 409.796875 363.535156 409.328125 364.8125 408.796875 C 366.085938 408.265625 367.335938 407.671875 368.554688 407.019531 C 369.773438 406.367188 370.957031 405.65625 372.105469 404.886719 C 373.257812 404.117188 374.363281 403.292969 375.433594 402.417969 C 376.503906 401.539062 377.527344 400.609375 378.503906 399.632812 C 379.480469 398.65625 380.410156 397.632812 381.285156 396.5625 C 382.164062 395.496094 382.988281 394.386719 383.757812 393.238281 C 384.527344 392.085938 385.238281 390.902344 385.890625 389.683594 C 386.542969 388.464844 387.136719 387.21875 387.667969 385.941406 C 388.199219 384.664062 388.664062 383.363281 389.070312 382.042969 C 389.472656 380.71875 389.8125 379.378906 390.085938 378.023438 C 390.355469 376.667969 390.5625 375.300781 390.703125 373.925781 C 390.839844 372.550781 390.914062 371.171875 390.917969 369.789062 Z M 355.703125 348.660156 C 355.703125 352.882812 352.882812 355.703125 348.660156 355.703125 C 344.433594 355.703125 341.613281 352.882812 341.613281 348.660156 C 341.613281 344.433594 344.433594 341.613281 348.660156 341.613281 C 352.882812 341.613281 355.695312 344.433594 355.695312 348.660156 Z M 320.484375 369.789062 C 320.523438 366.304688 321.144531 362.933594 322.355469 359.667969 C 323.566406 356.40625 325.289062 353.441406 327.53125 350.773438 C 328.9375 361.34375 337.386719 369.792969 348.660156 369.792969 C 359.929688 369.792969 368.382812 361.34375 369.789062 350.78125 C 370.925781 352.085938 371.9375 353.484375 372.820312 354.976562 C 373.707031 356.464844 374.449219 358.023438 375.050781 359.648438 C 375.652344 361.269531 376.105469 362.9375 376.402344 364.644531 C 376.703125 366.347656 376.84375 368.070312 376.832031 369.800781 C 376.847656 370.734375 376.816406 371.664062 376.738281 372.59375 C 376.660156 373.519531 376.535156 374.441406 376.367188 375.359375 C 376.195312 376.277344 375.984375 377.179688 375.722656 378.078125 C 375.464844 378.972656 375.160156 379.851562 374.816406 380.714844 C 374.46875 381.582031 374.078125 382.425781 373.648438 383.253906 C 373.21875 384.078125 372.75 384.882812 372.238281 385.664062 C 371.726562 386.441406 371.179688 387.195312 370.59375 387.921875 C 370.011719 388.644531 369.390625 389.339844 368.738281 390.003906 C 368.082031 390.667969 367.398438 391.300781 366.683594 391.894531 C 365.964844 392.492188 365.222656 393.050781 364.449219 393.574219 C 363.679688 394.09375 362.882812 394.578125 362.0625 395.019531 C 361.242188 395.464844 360.402344 395.867188 359.542969 396.226562 C 358.683594 396.585938 357.808594 396.902344 356.917969 397.175781 C 356.027344 397.449219 355.125 397.675781 354.210938 397.859375 C 353.296875 398.042969 352.378906 398.179688 351.449219 398.273438 C 350.523438 398.367188 349.59375 398.410156 348.660156 398.410156 C 347.730469 398.410156 346.800781 398.367188 345.871094 398.273438 C 344.945312 398.179688 344.023438 398.042969 343.113281 397.859375 C 342.199219 397.675781 341.296875 397.449219 340.40625 397.175781 C 339.515625 396.902344 338.640625 396.585938 337.777344 396.226562 C 336.917969 395.867188 336.078125 395.464844 335.261719 395.019531 C 334.441406 394.578125 333.644531 394.09375 332.875 393.574219 C 332.101562 393.050781 331.355469 392.492188 330.640625 391.894531 C 329.925781 391.300781 329.238281 390.667969 328.585938 390.003906 C 327.933594 389.339844 327.3125 388.644531 326.726562 387.921875 C 326.144531 387.195312 325.59375 386.441406 325.085938 385.664062 C 324.574219 384.882812 324.105469 384.078125 323.675781 383.253906 C 323.242188 382.425781 322.855469 381.582031 322.507812 380.714844 C 322.160156 379.851562 321.859375 378.972656 321.601562 378.078125 C 321.339844 377.179688 321.125 376.277344 320.957031 375.359375 C 320.789062 374.441406 320.664062 373.519531 320.585938 372.59375 C 320.507812 371.664062 320.476562 370.734375 320.492188 369.800781 Z M 320.484375 369.789062 " fill-opacity="1" fill-rule="nonzero"/><path fill="#ffffff" d="M 461.339844 327.53125 C 459.957031 327.53125 458.578125 327.597656 457.199219 327.734375 C 455.824219 327.867188 454.453125 328.070312 453.097656 328.34375 C 451.738281 328.613281 450.398438 328.949219 449.074219 329.347656 C 447.75 329.75 446.449219 330.21875 445.171875 330.746094 C 443.890625 331.277344 442.640625 331.867188 441.421875 332.519531 C 440.199219 333.171875 439.015625 333.882812 437.863281 334.652344 C 436.714844 335.421875 435.601562 336.242188 434.535156 337.121094 C 433.464844 338 432.4375 338.929688 431.460938 339.90625 C 430.480469 340.886719 429.554688 341.910156 428.675781 342.980469 C 427.796875 344.050781 426.972656 345.160156 426.207031 346.308594 C 425.4375 347.460938 424.726562 348.648438 424.074219 349.867188 C 423.421875 351.089844 422.828125 352.335938 422.300781 353.617188 C 421.769531 354.894531 421.304688 356.195312 420.902344 357.519531 C 420.5 358.84375 420.164062 360.1875 419.894531 361.542969 C 419.625 362.902344 419.421875 364.269531 419.289062 365.644531 C 419.152344 367.023438 419.082031 368.402344 419.082031 369.789062 C 419.082031 371.171875 419.152344 372.550781 419.289062 373.929688 C 419.421875 375.308594 419.625 376.675781 419.894531 378.03125 C 420.164062 379.390625 420.5 380.730469 420.902344 382.054688 C 421.304688 383.378906 421.769531 384.679688 422.300781 385.960938 C 422.828125 387.238281 423.421875 388.488281 424.074219 389.707031 C 424.726562 390.929688 425.4375 392.113281 426.207031 393.265625 C 426.972656 394.414062 427.796875 395.527344 428.675781 396.597656 C 429.554688 397.664062 430.480469 398.691406 431.460938 399.667969 C 432.4375 400.648438 433.464844 401.574219 434.535156 402.453125 C 435.601562 403.332031 436.714844 404.15625 437.863281 404.925781 C 439.015625 405.691406 440.199219 406.402344 441.421875 407.054688 C 442.640625 407.707031 443.890625 408.300781 445.171875 408.828125 C 446.449219 409.359375 447.75 409.824219 449.074219 410.226562 C 450.398438 410.628906 451.738281 410.964844 453.097656 411.234375 C 454.453125 411.503906 455.824219 411.707031 457.199219 411.84375 C 458.578125 411.976562 459.957031 412.046875 461.339844 412.046875 C 462.726562 412.046875 464.105469 411.976562 465.484375 411.84375 C 466.859375 411.707031 468.226562 411.503906 469.585938 411.234375 C 470.941406 410.964844 472.285156 410.628906 473.609375 410.226562 C 474.933594 409.824219 476.234375 409.359375 477.511719 408.828125 C 478.792969 408.300781 480.042969 407.707031 481.261719 407.054688 C 482.484375 406.402344 483.667969 405.691406 484.820312 404.925781 C 485.96875 404.15625 487.078125 403.332031 488.148438 402.453125 C 489.21875 401.574219 490.242188 400.648438 491.222656 399.667969 C 492.199219 398.691406 493.128906 397.664062 494.007812 396.597656 C 494.886719 395.527344 495.707031 394.414062 496.476562 393.265625 C 497.246094 392.113281 497.957031 390.929688 498.609375 389.707031 C 499.261719 388.488281 499.851562 387.238281 500.382812 385.960938 C 500.914062 384.679688 501.378906 383.378906 501.78125 382.054688 C 502.183594 380.730469 502.515625 379.390625 502.789062 378.03125 C 503.058594 376.675781 503.261719 375.308594 503.394531 373.929688 C 503.53125 372.550781 503.597656 371.171875 503.597656 369.789062 C 503.59375 368.40625 503.523438 367.027344 503.386719 365.648438 C 503.246094 364.273438 503.039062 362.90625 502.765625 361.550781 C 502.496094 360.195312 502.15625 358.855469 501.753906 357.535156 C 501.347656 356.210938 500.882812 354.910156 500.351562 353.636719 C 499.820312 352.359375 499.226562 351.109375 498.574219 349.890625 C 497.921875 348.671875 497.210938 347.488281 496.441406 346.339844 C 495.671875 345.191406 494.847656 344.082031 493.96875 343.011719 C 493.09375 341.945312 492.164062 340.921875 491.1875 339.941406 C 490.210938 338.964844 489.1875 338.035156 488.117188 337.160156 C 487.046875 336.28125 485.941406 335.457031 484.789062 334.6875 C 483.640625 333.917969 482.457031 333.207031 481.238281 332.554688 C 480.019531 331.902344 478.769531 331.308594 477.496094 330.777344 C 476.21875 330.246094 474.917969 329.78125 473.59375 329.375 C 472.273438 328.972656 470.933594 328.632812 469.578125 328.363281 C 468.222656 328.089844 466.855469 327.882812 465.480469 327.746094 C 464.105469 327.605469 462.722656 327.535156 461.339844 327.53125 Z M 468.386719 348.660156 C 468.386719 352.882812 465.566406 355.703125 461.339844 355.703125 C 457.117188 355.703125 454.296875 352.882812 454.296875 348.660156 C 454.296875 344.433594 457.117188 341.613281 461.339844 341.613281 C 465.566406 341.613281 468.386719 344.433594 468.386719 348.660156 Z M 461.339844 397.960938 C 460.417969 397.960938 459.5 397.910156 458.582031 397.820312 C 457.664062 397.726562 456.753906 397.589844 455.851562 397.40625 C 454.945312 397.226562 454.054688 397 453.171875 396.730469 C 452.289062 396.460938 451.421875 396.148438 450.574219 395.796875 C 449.722656 395.441406 448.890625 395.046875 448.078125 394.613281 C 447.265625 394.175781 446.472656 393.703125 445.707031 393.1875 C 444.941406 392.675781 444.203125 392.128906 443.488281 391.542969 C 442.777344 390.957031 442.09375 390.339844 441.441406 389.6875 C 440.792969 389.035156 440.171875 388.351562 439.585938 387.640625 C 439.003906 386.925781 438.453125 386.1875 437.941406 385.421875 C 437.425781 384.65625 436.953125 383.867188 436.519531 383.054688 C 436.082031 382.242188 435.6875 381.410156 435.332031 380.558594 C 434.980469 379.707031 434.667969 378.839844 434.398438 377.957031 C 434.128906 377.074219 433.902344 376.183594 433.722656 375.277344 C 433.539062 374.375 433.402344 373.464844 433.308594 372.546875 C 433.21875 371.628906 433.171875 370.710938 433.167969 369.789062 C 433.203125 366.304688 433.828125 362.933594 435.039062 359.667969 C 436.246094 356.40625 437.972656 353.441406 440.210938 350.773438 C 441.617188 361.34375 450.070312 369.792969 461.339844 369.792969 C 472.613281 369.792969 481.0625 361.34375 482.46875 350.78125 C 483.609375 352.085938 484.617188 353.484375 485.503906 354.972656 C 486.386719 356.460938 487.128906 358.015625 487.730469 359.640625 C 488.332031 361.261719 488.785156 362.929688 489.085938 364.632812 C 489.382812 366.339844 489.527344 368.054688 489.515625 369.789062 C 489.511719 370.710938 489.464844 371.628906 489.371094 372.546875 C 489.28125 373.464844 489.140625 374.375 488.960938 375.277344 C 488.777344 376.179688 488.550781 377.074219 488.28125 377.957031 C 488.011719 378.835938 487.703125 379.703125 487.347656 380.554688 C 486.992188 381.40625 486.597656 382.238281 486.164062 383.050781 C 485.726562 383.863281 485.253906 384.652344 484.742188 385.417969 C 484.226562 386.183594 483.679688 386.921875 483.09375 387.636719 C 482.507812 388.347656 481.890625 389.03125 481.238281 389.683594 C 480.585938 390.332031 479.902344 390.953125 479.191406 391.539062 C 478.480469 392.121094 477.738281 392.671875 476.972656 393.183594 C 476.207031 393.695312 475.417969 394.171875 474.605469 394.605469 C 473.792969 395.042969 472.960938 395.4375 472.109375 395.789062 C 471.257812 396.144531 470.390625 396.457031 469.511719 396.722656 C 468.628906 396.992188 467.734375 397.21875 466.832031 397.402344 C 465.929688 397.582031 465.015625 397.71875 464.101562 397.8125 C 463.183594 397.90625 462.261719 397.953125 461.339844 397.957031 Z M 461.339844 397.960938 " fill-opacity="1" fill-rule="nonzero"/><path fill="#ffffff" d="M 468.386719 454.304688 L 341.613281 454.304688 C 337.386719 454.304688 334.566406 457.125 334.566406 461.347656 C 334.566406 465.574219 337.386719 468.394531 341.613281 468.394531 L 468.386719 468.394531 C 472.613281 468.394531 475.433594 465.574219 475.433594 461.347656 C 475.433594 457.125 472.613281 454.304688 468.386719 454.304688 Z M 468.386719 454.304688 " fill-opacity="1" fill-rule="nonzero"/></svg>