<svg xmlns="http://www.w3.org/2000/svg" xmlns:xlink="http://www.w3.org/1999/xlink" width="1080" zoomAndPan="magnify" viewBox="0 0 810 809.999993" height="1080" preserveAspectRatio="xMidYMid meet" version="1.0"><path fill="#ffffff" d="M 387.871094 366.273438 C 387.871094 364.777344 387.796875 363.285156 387.648438 361.792969 C 387.503906 360.304688 387.285156 358.824219 386.992188 357.359375 C 386.699219 355.890625 386.335938 354.4375 385.902344 353.007812 C 385.46875 351.574219 384.964844 350.167969 384.390625 348.785156 C 383.816406 347.402344 383.179688 346.050781 382.472656 344.730469 C 381.765625 343.410156 381 342.125 380.167969 340.882812 C 379.335938 339.636719 378.445312 338.4375 377.496094 337.277344 C 376.546875 336.121094 375.542969 335.015625 374.484375 333.957031 C 373.425781 332.898438 372.316406 331.894531 371.160156 330.945312 C 370.003906 329.996094 368.800781 329.105469 367.558594 328.273438 C 366.3125 327.441406 365.03125 326.671875 363.710938 325.964844 C 362.390625 325.261719 361.039062 324.621094 359.65625 324.046875 C 358.273438 323.476562 356.863281 322.972656 355.429688 322.539062 C 354 322.101562 352.546875 321.738281 351.082031 321.449219 C 349.613281 321.15625 348.132812 320.9375 346.644531 320.789062 C 345.152344 320.644531 343.660156 320.570312 342.164062 320.570312 C 340.667969 320.570312 339.171875 320.644531 337.683594 320.789062 C 336.195312 320.9375 334.714844 321.15625 333.246094 321.449219 C 331.777344 321.738281 330.328125 322.101562 328.894531 322.539062 C 327.464844 322.972656 326.054688 323.476562 324.671875 324.046875 C 323.289062 324.621094 321.9375 325.261719 320.617188 325.964844 C 319.296875 326.671875 318.015625 327.441406 316.769531 328.273438 C 315.527344 329.105469 314.324219 329.996094 313.167969 330.945312 C 312.011719 331.894531 310.902344 332.898438 309.84375 333.957031 C 308.785156 335.015625 307.78125 336.125 306.832031 337.28125 C 305.882812 338.4375 304.992188 339.636719 304.160156 340.882812 C 303.328125 342.128906 302.558594 343.410156 301.855469 344.730469 C 301.148438 346.050781 300.507812 347.402344 299.9375 348.785156 C 299.363281 350.167969 298.859375 351.574219 298.425781 353.007812 C 297.992188 354.441406 297.628906 355.890625 297.335938 357.359375 C 297.042969 358.828125 296.824219 360.304688 296.675781 361.796875 C 296.53125 363.285156 296.457031 364.777344 296.457031 366.277344 C 296.457031 367.773438 296.53125 369.265625 296.675781 370.757812 C 296.824219 372.246094 297.042969 373.726562 297.335938 375.191406 C 297.628906 376.660156 297.992188 378.113281 298.425781 379.542969 C 298.859375 380.976562 299.363281 382.382812 299.9375 383.765625 C 300.507812 385.148438 301.148438 386.5 301.855469 387.820312 C 302.558594 389.140625 303.328125 390.425781 304.160156 391.667969 C 304.992188 392.914062 305.882812 394.113281 306.832031 395.273438 C 307.78125 396.429688 308.785156 397.539062 309.84375 398.59375 C 310.902344 399.652344 312.011719 400.660156 313.167969 401.609375 C 314.324219 402.558594 315.527344 403.449219 316.769531 404.28125 C 318.015625 405.113281 319.296875 405.878906 320.617188 406.585938 C 321.9375 407.292969 323.289062 407.929688 324.671875 408.503906 C 326.054688 409.078125 327.460938 409.582031 328.894531 410.015625 C 330.328125 410.449219 331.777344 410.8125 333.246094 411.105469 C 334.714844 411.398438 336.191406 411.617188 337.683594 411.761719 C 339.171875 411.910156 340.664062 411.984375 342.164062 411.984375 C 343.660156 411.980469 345.152344 411.90625 346.640625 411.757812 C 348.128906 411.609375 349.609375 411.390625 351.074219 411.097656 C 352.542969 410.804688 353.992188 410.4375 355.425781 410.003906 C 356.855469 409.566406 358.265625 409.0625 359.644531 408.488281 C 361.027344 407.917969 362.378906 407.277344 363.699219 406.570312 C 365.019531 405.863281 366.300781 405.097656 367.542969 404.265625 C 368.789062 403.433594 369.988281 402.542969 371.144531 401.59375 C 372.300781 400.644531 373.410156 399.640625 374.46875 398.582031 C 375.527344 397.523438 376.53125 396.414062 377.480469 395.257812 C 378.429688 394.101562 379.320312 392.902344 380.152344 391.65625 C 380.984375 390.414062 381.753906 389.128906 382.457031 387.8125 C 383.164062 386.492188 383.804688 385.140625 384.378906 383.757812 C 384.953125 382.375 385.457031 380.96875 385.890625 379.539062 C 386.328125 378.105469 386.691406 376.65625 386.984375 375.1875 C 387.277344 373.71875 387.496094 372.242188 387.644531 370.753906 C 387.792969 369.265625 387.867188 367.769531 387.871094 366.273438 Z M 310.421875 366.273438 C 310.421875 365.234375 310.472656 364.199219 310.574219 363.164062 C 310.675781 362.128906 310.828125 361.101562 311.03125 360.082031 C 311.234375 359.0625 311.488281 358.054688 311.789062 357.0625 C 312.089844 356.066406 312.441406 355.089844 312.839844 354.128906 C 313.238281 353.167969 313.679688 352.230469 314.171875 351.3125 C 314.660156 350.394531 315.195312 349.503906 315.773438 348.640625 C 316.347656 347.777344 316.96875 346.941406 317.628906 346.140625 C 318.285156 345.335938 318.984375 344.566406 319.71875 343.832031 C 320.453125 343.097656 321.222656 342.398438 322.027344 341.738281 C 322.832031 341.078125 323.664062 340.460938 324.527344 339.882812 C 325.394531 339.304688 326.285156 338.773438 327.199219 338.28125 C 328.117188 337.792969 329.054688 337.347656 330.015625 336.949219 C 330.976562 336.554688 331.953125 336.203125 332.949219 335.902344 C 333.945312 335.601562 334.953125 335.347656 335.972656 335.144531 C 336.992188 334.941406 338.019531 334.789062 339.050781 334.6875 C 340.085938 334.585938 341.125 334.535156 342.164062 334.535156 C 343.203125 334.535156 344.242188 334.585938 345.273438 334.6875 C 346.308594 334.789062 347.335938 334.941406 348.355469 335.144531 C 349.375 335.347656 350.382812 335.601562 351.378906 335.902344 C 352.371094 336.203125 353.351562 336.554688 354.3125 336.949219 C 355.269531 337.347656 356.210938 337.792969 357.125 338.28125 C 358.042969 338.773438 358.933594 339.304688 359.796875 339.882812 C 360.664062 340.460938 361.496094 341.082031 362.300781 341.738281 C 363.105469 342.398438 363.875 343.097656 364.609375 343.832031 C 365.34375 344.566406 366.039062 345.335938 366.699219 346.140625 C 367.359375 346.941406 367.976562 347.777344 368.554688 348.640625 C 369.132812 349.507812 369.667969 350.394531 370.15625 351.3125 C 370.648438 352.230469 371.089844 353.167969 371.488281 354.128906 C 371.886719 355.089844 372.238281 356.066406 372.539062 357.0625 C 372.839844 358.058594 373.09375 359.0625 373.296875 360.082031 C 373.496094 361.101562 373.648438 362.128906 373.753906 363.164062 C 373.855469 364.199219 373.90625 365.238281 373.90625 366.277344 C 373.90625 367.316406 373.855469 368.351562 373.753906 369.386719 C 373.648438 370.421875 373.496094 371.449219 373.296875 372.46875 C 373.09375 373.488281 372.839844 374.496094 372.539062 375.488281 C 372.238281 376.484375 371.886719 377.460938 371.488281 378.421875 C 371.089844 379.382812 370.648438 380.320312 370.15625 381.238281 C 369.667969 382.15625 369.132812 383.046875 368.554688 383.910156 C 367.976562 384.773438 367.359375 385.609375 366.699219 386.414062 C 366.039062 387.214844 365.34375 387.984375 364.609375 388.71875 C 363.871094 389.457031 363.101562 390.152344 362.300781 390.8125 C 361.496094 391.472656 360.660156 392.089844 359.796875 392.667969 C 358.933594 393.246094 358.042969 393.777344 357.125 394.269531 C 356.207031 394.757812 355.269531 395.203125 354.308594 395.601562 C 353.347656 396 352.371094 396.347656 351.375 396.652344 C 350.382812 396.953125 349.375 397.203125 348.355469 397.40625 C 347.335938 397.609375 346.308594 397.761719 345.273438 397.863281 C 344.238281 397.964844 343.203125 398.015625 342.164062 398.015625 C 341.121094 398.015625 340.085938 397.964844 339.050781 397.859375 C 338.019531 397.757812 336.992188 397.605469 335.972656 397.402344 C 334.953125 397.199219 333.945312 396.945312 332.953125 396.640625 C 331.957031 396.339844 330.980469 395.988281 330.019531 395.589844 C 329.0625 395.191406 328.121094 394.75 327.207031 394.257812 C 326.289062 393.769531 325.398438 393.234375 324.535156 392.65625 C 323.671875 392.078125 322.839844 391.460938 322.035156 390.800781 C 321.230469 390.140625 320.464844 389.445312 319.726562 388.710938 C 318.992188 387.972656 318.296875 387.207031 317.636719 386.402344 C 316.976562 385.597656 316.359375 384.765625 315.78125 383.902344 C 315.203125 383.035156 314.671875 382.148438 314.179688 381.230469 C 313.691406 380.3125 313.246094 379.375 312.847656 378.417969 C 312.449219 377.457031 312.097656 376.480469 311.796875 375.484375 C 311.496094 374.492188 311.242188 373.484375 311.039062 372.464844 C 310.835938 371.445312 310.679688 370.417969 310.578125 369.382812 C 310.476562 368.351562 310.421875 367.3125 310.421875 366.273438 Z M 310.421875 366.273438 " fill-opacity="1" fill-rule="nonzero"/><path fill="#ffffff" d="M 359.375 366.273438 C 359.375 365.710938 359.347656 365.148438 359.292969 364.585938 C 359.238281 364.027344 359.15625 363.46875 359.046875 362.914062 C 358.9375 362.363281 358.800781 361.816406 358.636719 361.277344 C 358.472656 360.738281 358.28125 360.207031 358.066406 359.6875 C 357.851562 359.164062 357.609375 358.65625 357.34375 358.160156 C 357.078125 357.664062 356.789062 357.179688 356.476562 356.710938 C 356.164062 356.242188 355.828125 355.789062 355.46875 355.355469 C 355.113281 354.917969 354.734375 354.5 354.335938 354.101562 C 353.9375 353.703125 353.519531 353.324219 353.082031 352.96875 C 352.648438 352.609375 352.195312 352.273438 351.726562 351.960938 C 351.257812 351.648438 350.773438 351.359375 350.277344 351.09375 C 349.78125 350.828125 349.273438 350.585938 348.75 350.371094 C 348.230469 350.15625 347.699219 349.964844 347.160156 349.800781 C 346.621094 349.636719 346.074219 349.5 345.523438 349.390625 C 344.96875 349.28125 344.410156 349.199219 343.851562 349.144531 C 343.289062 349.085938 342.726562 349.058594 342.164062 349.058594 C 341.601562 349.058594 341.039062 349.085938 340.476562 349.144531 C 339.914062 349.199219 339.359375 349.28125 338.804688 349.390625 C 338.253906 349.5 337.707031 349.636719 337.167969 349.800781 C 336.628906 349.964844 336.097656 350.15625 335.578125 350.371094 C 335.054688 350.585938 334.546875 350.828125 334.050781 351.09375 C 333.550781 351.359375 333.070312 351.648438 332.601562 351.960938 C 332.132812 352.273438 331.679688 352.609375 331.242188 352.96875 C 330.808594 353.324219 330.390625 353.703125 329.992188 354.101562 C 329.59375 354.5 329.214844 354.917969 328.859375 355.351562 C 328.5 355.789062 328.164062 356.242188 327.851562 356.710938 C 327.539062 357.179688 327.25 357.660156 326.984375 358.160156 C 326.71875 358.65625 326.476562 359.164062 326.261719 359.6875 C 326.046875 360.207031 325.855469 360.738281 325.691406 361.277344 C 325.527344 361.816406 325.390625 362.363281 325.28125 362.914062 C 325.171875 363.46875 325.089844 364.023438 325.035156 364.585938 C 324.976562 365.148438 324.949219 365.710938 324.949219 366.273438 C 324.949219 366.835938 324.976562 367.398438 325.035156 367.960938 C 325.089844 368.519531 325.171875 369.078125 325.28125 369.632812 C 325.390625 370.183594 325.527344 370.730469 325.691406 371.269531 C 325.855469 371.808594 326.046875 372.339844 326.261719 372.859375 C 326.476562 373.382812 326.71875 373.890625 326.984375 374.386719 C 327.25 374.882812 327.539062 375.367188 327.851562 375.835938 C 328.164062 376.304688 328.5 376.757812 328.859375 377.191406 C 329.214844 377.628906 329.59375 378.046875 329.992188 378.445312 C 330.390625 378.84375 330.808594 379.222656 331.242188 379.578125 C 331.679688 379.9375 332.132812 380.273438 332.601562 380.585938 C 333.070312 380.898438 333.550781 381.1875 334.046875 381.453125 C 334.546875 381.71875 335.054688 381.960938 335.574219 382.175781 C 336.097656 382.390625 336.625 382.582031 337.164062 382.746094 C 337.707031 382.910156 338.25 383.046875 338.804688 383.15625 C 339.355469 383.265625 339.914062 383.347656 340.476562 383.402344 C 341.035156 383.457031 341.597656 383.484375 342.164062 383.484375 C 342.726562 383.484375 343.289062 383.457031 343.847656 383.402344 C 344.410156 383.347656 344.964844 383.261719 345.519531 383.152344 C 346.070312 383.042969 346.617188 382.90625 347.15625 382.742188 C 347.695312 382.578125 348.226562 382.386719 348.746094 382.171875 C 349.265625 381.953125 349.777344 381.714844 350.273438 381.449219 C 350.769531 381.183594 351.253906 380.894531 351.722656 380.578125 C 352.1875 380.265625 352.640625 379.929688 353.078125 379.574219 C 353.511719 379.214844 353.929688 378.839844 354.328125 378.441406 C 354.726562 378.042969 355.105469 377.625 355.460938 377.1875 C 355.820312 376.753906 356.15625 376.300781 356.46875 375.832031 C 356.78125 375.363281 357.070312 374.882812 357.335938 374.382812 C 357.605469 373.886719 357.84375 373.378906 358.0625 372.859375 C 358.277344 372.335938 358.464844 371.808594 358.628906 371.269531 C 358.792969 370.730469 358.933594 370.183594 359.042969 369.632812 C 359.152344 369.078125 359.234375 368.523438 359.292969 367.960938 C 359.347656 367.398438 359.375 366.835938 359.375 366.273438 Z M 338.917969 366.273438 C 338.914062 365.84375 339 365.429688 339.164062 365.03125 C 339.328125 364.632812 339.5625 364.28125 339.867188 363.976562 C 340.171875 363.671875 340.523438 363.4375 340.921875 363.273438 C 341.320312 363.109375 341.734375 363.023438 342.164062 363.023438 C 342.59375 363.023438 343.007812 363.105469 343.40625 363.273438 C 343.804688 363.4375 344.15625 363.671875 344.460938 363.976562 C 344.765625 364.28125 345 364.632812 345.164062 365.03125 C 345.328125 365.425781 345.410156 365.84375 345.410156 366.273438 C 345.410156 366.703125 345.328125 367.117188 345.164062 367.515625 C 345 367.914062 344.765625 368.265625 344.460938 368.570312 C 344.15625 368.875 343.804688 369.109375 343.40625 369.273438 C 343.007812 369.4375 342.59375 369.519531 342.160156 369.519531 C 341.730469 369.519531 341.316406 369.4375 340.921875 369.273438 C 340.523438 369.105469 340.171875 368.871094 339.867188 368.570312 C 339.5625 368.265625 339.328125 367.914062 339.164062 367.515625 C 339 367.117188 338.917969 366.703125 338.917969 366.273438 Z M 338.917969 366.273438 " fill-opacity="1" fill-rule="nonzero"/><path fill="#ffffff" d="M 459.554688 320.570312 C 458.058594 320.570312 456.566406 320.644531 455.078125 320.789062 C 453.585938 320.9375 452.109375 321.15625 450.640625 321.449219 C 449.171875 321.738281 447.722656 322.101562 446.289062 322.539062 C 444.855469 322.972656 443.449219 323.476562 442.066406 324.046875 C 440.683594 324.621094 439.332031 325.261719 438.011719 325.964844 C 436.691406 326.671875 435.410156 327.441406 434.164062 328.273438 C 432.917969 329.105469 431.71875 329.996094 430.5625 330.945312 C 429.402344 331.894531 428.296875 332.898438 427.238281 333.957031 C 426.179688 335.015625 425.175781 336.121094 424.226562 337.28125 C 423.277344 338.4375 422.386719 339.636719 421.554688 340.882812 C 420.722656 342.128906 419.953125 343.410156 419.246094 344.730469 C 418.542969 346.050781 417.902344 347.402344 417.332031 348.785156 C 416.757812 350.167969 416.253906 351.574219 415.820312 353.007812 C 415.382812 354.441406 415.019531 355.890625 414.730469 357.359375 C 414.4375 358.828125 414.21875 360.304688 414.070312 361.796875 C 413.925781 363.285156 413.851562 364.777344 413.851562 366.277344 C 413.851562 367.773438 413.925781 369.265625 414.070312 370.757812 C 414.21875 372.246094 414.4375 373.726562 414.730469 375.191406 C 415.019531 376.660156 415.382812 378.113281 415.820312 379.542969 C 416.253906 380.976562 416.757812 382.382812 417.332031 383.765625 C 417.902344 385.148438 418.542969 386.5 419.25 387.820312 C 419.953125 389.140625 420.722656 390.425781 421.554688 391.667969 C 422.386719 392.914062 423.277344 394.113281 424.226562 395.273438 C 425.175781 396.429688 426.179688 397.539062 427.238281 398.59375 C 428.296875 399.652344 429.40625 400.660156 430.5625 401.609375 C 431.71875 402.558594 432.917969 403.449219 434.164062 404.28125 C 435.410156 405.113281 436.691406 405.878906 438.011719 406.585938 C 439.332031 407.292969 440.683594 407.929688 442.066406 408.503906 C 443.449219 409.078125 444.859375 409.582031 446.289062 410.015625 C 447.722656 410.449219 449.171875 410.8125 450.640625 411.105469 C 452.109375 411.398438 453.589844 411.617188 455.078125 411.761719 C 456.566406 411.910156 458.0625 411.984375 459.558594 411.984375 C 461.054688 411.984375 462.546875 411.910156 464.039062 411.761719 C 465.527344 411.617188 467.007812 411.398438 468.476562 411.105469 C 469.941406 410.8125 471.394531 410.449219 472.824219 410.015625 C 474.257812 409.582031 475.667969 409.078125 477.050781 408.503906 C 478.433594 407.929688 479.785156 407.292969 481.105469 406.585938 C 482.425781 405.878906 483.707031 405.109375 484.953125 404.28125 C 486.195312 403.449219 487.398438 402.558594 488.554688 401.609375 C 489.710938 400.65625 490.820312 399.652344 491.878906 398.59375 C 492.9375 397.535156 493.941406 396.429688 494.890625 395.273438 C 495.839844 394.113281 496.730469 392.914062 497.5625 391.667969 C 498.394531 390.425781 499.160156 389.140625 499.867188 387.820312 C 500.574219 386.5 501.210938 385.148438 501.785156 383.765625 C 502.359375 382.382812 502.863281 380.976562 503.296875 379.542969 C 503.730469 378.109375 504.09375 376.660156 504.386719 375.191406 C 504.679688 373.722656 504.898438 372.246094 505.042969 370.753906 C 505.191406 369.265625 505.265625 367.769531 505.265625 366.273438 C 505.261719 364.777344 505.1875 363.285156 505.039062 361.796875 C 504.890625 360.308594 504.671875 358.828125 504.378906 357.359375 C 504.085938 355.894531 503.71875 354.445312 503.285156 353.011719 C 502.847656 351.582031 502.34375 350.171875 501.769531 348.792969 C 501.199219 347.410156 500.558594 346.058594 499.851562 344.738281 C 499.144531 343.417969 498.375 342.136719 497.546875 340.894531 C 496.714844 339.648438 495.824219 338.449219 494.871094 337.292969 C 493.921875 336.136719 492.917969 335.027344 491.863281 333.96875 C 490.804688 332.914062 489.695312 331.910156 488.539062 330.957031 C 487.382812 330.007812 486.183594 329.117188 484.9375 328.285156 C 483.695312 327.457031 482.410156 326.6875 481.09375 325.980469 C 479.773438 325.273438 478.421875 324.636719 477.039062 324.0625 C 475.65625 323.488281 474.25 322.984375 472.820312 322.546875 C 471.386719 322.113281 469.9375 321.75 468.46875 321.457031 C 467.003906 321.164062 465.523438 320.941406 464.035156 320.792969 C 462.546875 320.644531 461.054688 320.570312 459.554688 320.570312 Z M 459.554688 398.015625 C 458.515625 398.015625 457.480469 397.964844 456.445312 397.863281 C 455.410156 397.761719 454.382812 397.609375 453.363281 397.40625 C 452.34375 397.203125 451.335938 396.953125 450.34375 396.648438 C 449.347656 396.347656 448.371094 396 447.410156 395.601562 C 446.449219 395.203125 445.511719 394.757812 444.59375 394.269531 C 443.675781 393.777344 442.785156 393.246094 441.921875 392.667969 C 441.058594 392.089844 440.222656 391.472656 439.421875 390.8125 C 438.617188 390.152344 437.847656 389.457031 437.113281 388.71875 C 436.378906 387.984375 435.679688 387.214844 435.019531 386.410156 C 434.363281 385.609375 433.742188 384.773438 433.164062 383.910156 C 432.589844 383.046875 432.054688 382.15625 431.5625 381.238281 C 431.074219 380.320312 430.628906 379.382812 430.234375 378.421875 C 429.835938 377.460938 429.484375 376.484375 429.183594 375.488281 C 428.882812 374.496094 428.628906 373.488281 428.425781 372.46875 C 428.222656 371.449219 428.070312 370.421875 427.96875 369.386719 C 427.867188 368.351562 427.816406 367.316406 427.816406 366.277344 C 427.816406 365.238281 427.867188 364.199219 427.96875 363.164062 C 428.070312 362.128906 428.222656 361.101562 428.425781 360.082031 C 428.628906 359.0625 428.882812 358.058594 429.183594 357.0625 C 429.484375 356.066406 429.835938 355.089844 430.234375 354.128906 C 430.632812 353.167969 431.074219 352.230469 431.566406 351.3125 C 432.054688 350.394531 432.589844 349.503906 433.167969 348.640625 C 433.742188 347.777344 434.363281 346.941406 435.023438 346.140625 C 435.679688 345.335938 436.378906 344.566406 437.113281 343.832031 C 437.847656 343.097656 438.617188 342.398438 439.421875 341.738281 C 440.226562 341.082031 441.058594 340.460938 441.921875 339.882812 C 442.789062 339.304688 443.679688 338.773438 444.59375 338.28125 C 445.511719 337.792969 446.449219 337.347656 447.410156 336.949219 C 448.371094 336.554688 449.347656 336.203125 450.34375 335.902344 C 451.339844 335.601562 452.347656 335.347656 453.367188 335.144531 C 454.386719 334.941406 455.414062 334.789062 456.445312 334.6875 C 457.480469 334.585938 458.519531 334.535156 459.558594 334.535156 C 460.597656 334.535156 461.632812 334.585938 462.667969 334.6875 C 463.703125 334.789062 464.730469 334.941406 465.75 335.144531 C 466.769531 335.347656 467.777344 335.601562 468.773438 335.902344 C 469.765625 336.203125 470.746094 336.554688 471.703125 336.949219 C 472.664062 337.347656 473.605469 337.792969 474.519531 338.28125 C 475.4375 338.773438 476.328125 339.308594 477.191406 339.882812 C 478.058594 340.460938 478.890625 341.082031 479.695312 341.738281 C 480.496094 342.398438 481.265625 343.097656 482.003906 343.832031 C 482.738281 344.566406 483.433594 345.335938 484.09375 346.140625 C 484.753906 346.941406 485.371094 347.777344 485.949219 348.640625 C 486.527344 349.503906 487.0625 350.394531 487.550781 351.3125 C 488.042969 352.230469 488.484375 353.167969 488.882812 354.128906 C 489.28125 355.089844 489.628906 356.066406 489.933594 357.0625 C 490.234375 358.054688 490.488281 359.0625 490.6875 360.082031 C 490.890625 361.101562 491.042969 362.128906 491.144531 363.164062 C 491.25 364.199219 491.300781 365.234375 491.300781 366.273438 C 491.296875 367.3125 491.246094 368.351562 491.144531 369.382812 C 491.039062 370.417969 490.886719 371.445312 490.683594 372.464844 C 490.480469 373.484375 490.226562 374.492188 489.925781 375.484375 C 489.621094 376.480469 489.273438 377.457031 488.875 378.417969 C 488.476562 379.375 488.03125 380.316406 487.542969 381.230469 C 487.050781 382.148438 486.515625 383.039062 485.9375 383.902344 C 485.363281 384.765625 484.742188 385.597656 484.082031 386.402344 C 483.425781 387.207031 482.726562 387.976562 481.992188 388.710938 C 481.257812 389.445312 480.488281 390.140625 479.683594 390.800781 C 478.882812 391.460938 478.046875 392.078125 477.183594 392.65625 C 476.320312 393.234375 475.429688 393.769531 474.511719 394.257812 C 473.597656 394.75 472.660156 395.195312 471.699219 395.59375 C 470.738281 395.988281 469.761719 396.339844 468.765625 396.644531 C 467.773438 396.945312 466.765625 397.199219 465.746094 397.402344 C 464.726562 397.605469 463.699219 397.757812 462.667969 397.859375 C 461.632812 397.964844 460.59375 398.015625 459.554688 398.015625 Z M 459.554688 398.015625 " fill-opacity="1" fill-rule="nonzero"/><path fill="#ffffff" d="M 459.554688 349.0625 C 458.992188 349.0625 458.429688 349.089844 457.871094 349.144531 C 457.308594 349.199219 456.75 349.285156 456.199219 349.394531 C 455.644531 349.503906 455.097656 349.640625 454.558594 349.804688 C 454.019531 349.96875 453.492188 350.15625 452.96875 350.375 C 452.449219 350.589844 451.941406 350.828125 451.441406 351.09375 C 450.945312 351.359375 450.460938 351.652344 449.992188 351.964844 C 449.523438 352.277344 449.074219 352.613281 448.636719 352.96875 C 448.203125 353.328125 447.785156 353.707031 447.386719 354.105469 C 446.988281 354.503906 446.609375 354.917969 446.25 355.355469 C 445.894531 355.792969 445.558594 356.242188 445.246094 356.710938 C 444.933594 357.179688 444.644531 357.664062 444.378906 358.160156 C 444.113281 358.65625 443.871094 359.167969 443.65625 359.6875 C 443.4375 360.207031 443.25 360.738281 443.085938 361.277344 C 442.921875 361.816406 442.785156 362.363281 442.675781 362.917969 C 442.566406 363.46875 442.484375 364.027344 442.425781 364.585938 C 442.371094 365.148438 442.34375 365.710938 442.34375 366.273438 C 442.34375 366.839844 442.371094 367.402344 442.425781 367.960938 C 442.484375 368.523438 442.566406 369.078125 442.675781 369.632812 C 442.785156 370.183594 442.921875 370.730469 443.085938 371.269531 C 443.25 371.808594 443.4375 372.339844 443.65625 372.859375 C 443.871094 373.382812 444.113281 373.890625 444.378906 374.386719 C 444.644531 374.886719 444.933594 375.367188 445.246094 375.835938 C 445.558594 376.304688 445.894531 376.757812 446.25 377.191406 C 446.609375 377.628906 446.988281 378.046875 447.386719 378.445312 C 447.785156 378.84375 448.203125 379.222656 448.636719 379.578125 C 449.074219 379.9375 449.523438 380.273438 449.992188 380.585938 C 450.460938 380.898438 450.945312 381.1875 451.441406 381.453125 C 451.941406 381.71875 452.449219 381.960938 452.96875 382.175781 C 453.492188 382.390625 454.019531 382.582031 454.558594 382.746094 C 455.097656 382.910156 455.644531 383.046875 456.199219 383.15625 C 456.75 383.265625 457.308594 383.347656 457.871094 383.402344 C 458.429688 383.457031 458.992188 383.484375 459.554688 383.484375 C 460.121094 383.484375 460.683594 383.457031 461.242188 383.402344 C 461.804688 383.347656 462.359375 383.265625 462.914062 383.15625 C 463.46875 383.046875 464.011719 382.910156 464.550781 382.746094 C 465.09375 382.582031 465.621094 382.390625 466.144531 382.175781 C 466.664062 381.960938 467.171875 381.71875 467.667969 381.453125 C 468.167969 381.1875 468.648438 380.898438 469.117188 380.585938 C 469.585938 380.273438 470.039062 379.9375 470.476562 379.578125 C 470.910156 379.222656 471.328125 378.84375 471.726562 378.445312 C 472.125 378.046875 472.503906 377.628906 472.859375 377.191406 C 473.21875 376.757812 473.554688 376.304688 473.867188 375.835938 C 474.179688 375.367188 474.46875 374.886719 474.734375 374.386719 C 475 373.890625 475.242188 373.382812 475.457031 372.859375 C 475.671875 372.339844 475.863281 371.808594 476.027344 371.269531 C 476.191406 370.730469 476.328125 370.183594 476.4375 369.632812 C 476.546875 369.078125 476.628906 368.523438 476.683594 367.960938 C 476.738281 367.398438 476.769531 366.839844 476.769531 366.273438 C 476.765625 365.710938 476.738281 365.148438 476.683594 364.589844 C 476.625 364.027344 476.542969 363.46875 476.433594 362.917969 C 476.324219 362.367188 476.1875 361.820312 476.023438 361.28125 C 475.859375 360.742188 475.667969 360.210938 475.453125 359.691406 C 475.234375 359.171875 474.996094 358.660156 474.730469 358.164062 C 474.464844 357.667969 474.171875 357.1875 473.859375 356.71875 C 473.546875 356.25 473.210938 355.796875 472.855469 355.359375 C 472.496094 354.925781 472.117188 354.507812 471.71875 354.109375 C 471.320312 353.710938 470.90625 353.332031 470.46875 352.976562 C 470.035156 352.617188 469.582031 352.285156 469.113281 351.96875 C 468.644531 351.65625 468.164062 351.367188 467.664062 351.101562 C 467.167969 350.835938 466.660156 350.59375 466.140625 350.378906 C 465.617188 350.164062 465.089844 349.972656 464.550781 349.808594 C 464.011719 349.644531 463.464844 349.507812 462.914062 349.398438 C 462.359375 349.285156 461.804688 349.203125 461.242188 349.148438 C 460.683594 349.09375 460.121094 349.0625 459.554688 349.0625 Z M 459.554688 369.519531 C 459.125 369.519531 458.710938 369.4375 458.3125 369.273438 C 457.917969 369.109375 457.566406 368.875 457.261719 368.570312 C 456.957031 368.265625 456.722656 367.914062 456.558594 367.515625 C 456.390625 367.117188 456.308594 366.703125 456.308594 366.273438 C 456.308594 365.84375 456.390625 365.429688 456.558594 365.03125 C 456.722656 364.632812 456.957031 364.285156 457.261719 363.980469 C 457.566406 363.675781 457.917969 363.441406 458.3125 363.277344 C 458.710938 363.109375 459.125 363.027344 459.554688 363.027344 C 459.988281 363.027344 460.402344 363.109375 460.796875 363.277344 C 461.195312 363.441406 461.546875 363.675781 461.851562 363.980469 C 462.15625 364.285156 462.390625 364.632812 462.554688 365.03125 C 462.71875 365.429688 462.800781 365.84375 462.800781 366.273438 C 462.800781 366.703125 462.71875 367.117188 462.554688 367.515625 C 462.390625 367.914062 462.15625 368.265625 461.851562 368.570312 C 461.546875 368.875 461.195312 369.109375 460.796875 369.273438 C 460.402344 369.4375 459.988281 369.519531 459.554688 369.519531 Z M 459.554688 369.519531 " fill-opacity="1" fill-rule="nonzero"/><path fill="#ffffff" d="M 413.394531 433.933594 L 396.605469 433.933594 C 394.800781 433.933594 393.003906 434.027344 391.207031 434.203125 C 389.414062 434.382812 387.628906 434.648438 385.863281 435.003906 C 384.09375 435.355469 382.347656 435.792969 380.621094 436.320312 C 378.894531 436.84375 377.199219 437.453125 375.53125 438.144531 C 373.867188 438.835938 372.238281 439.605469 370.648438 440.457031 C 369.058594 441.308594 367.511719 442.234375 366.011719 443.238281 C 364.511719 444.238281 363.066406 445.3125 361.671875 446.457031 C 360.277344 447.601562 358.941406 448.8125 357.667969 450.085938 C 356.390625 451.363281 355.183594 452.699219 354.039062 454.089844 C 352.894531 455.484375 351.820312 456.933594 350.816406 458.433594 C 349.816406 459.929688 348.886719 461.476562 348.035156 463.066406 C 347.1875 464.65625 346.414062 466.285156 345.722656 467.953125 C 345.03125 469.617188 344.425781 471.3125 343.898438 473.039062 C 343.375 474.765625 342.9375 476.511719 342.582031 478.28125 C 342.230469 480.050781 341.964844 481.832031 341.785156 483.625 C 341.605469 485.421875 341.515625 487.222656 341.515625 489.023438 C 341.515625 489.484375 341.558594 489.9375 341.648438 490.386719 C 341.738281 490.835938 341.871094 491.273438 342.046875 491.695312 C 342.222656 492.121094 342.4375 492.523438 342.691406 492.90625 C 342.945312 493.285156 343.234375 493.636719 343.558594 493.960938 C 343.882812 494.285156 344.238281 494.578125 344.617188 494.832031 C 345 495.085938 345.402344 495.300781 345.824219 495.476562 C 346.25 495.652344 346.683594 495.785156 347.132812 495.875 C 347.585938 495.964844 348.039062 496.007812 348.496094 496.007812 L 461.503906 496.007812 C 461.960938 496.007812 462.414062 495.964844 462.867188 495.875 C 463.316406 495.785156 463.75 495.652344 464.175781 495.476562 C 464.597656 495.300781 465 495.085938 465.382812 494.832031 C 465.765625 494.574219 466.117188 494.285156 466.441406 493.960938 C 466.765625 493.636719 467.054688 493.285156 467.308594 492.902344 C 467.5625 492.523438 467.777344 492.121094 467.953125 491.695312 C 468.128906 491.273438 468.261719 490.835938 468.351562 490.386719 C 468.441406 489.9375 468.484375 489.484375 468.484375 489.023438 C 468.484375 487.222656 468.394531 485.421875 468.214844 483.625 C 468.035156 481.832031 467.769531 480.050781 467.417969 478.28125 C 467.0625 476.511719 466.625 474.765625 466.101562 473.039062 C 465.574219 471.3125 464.96875 469.617188 464.277344 467.953125 C 463.585938 466.285156 462.8125 464.65625 461.960938 463.066406 C 461.113281 461.476562 460.183594 459.929688 459.183594 458.433594 C 458.179688 456.933594 457.105469 455.484375 455.960938 454.089844 C 454.816406 452.699219 453.609375 451.363281 452.332031 450.085938 C 451.058594 448.8125 449.722656 447.601562 448.328125 446.457031 C 446.933594 445.3125 445.488281 444.238281 443.988281 443.238281 C 442.488281 442.234375 440.941406 441.308594 439.351562 440.457031 C 437.761719 439.605469 436.132812 438.835938 434.46875 438.144531 C 432.800781 437.453125 431.105469 436.84375 429.378906 436.320312 C 427.652344 435.792969 425.90625 435.355469 424.136719 435 C 422.367188 434.648438 420.585938 434.382812 418.792969 434.203125 C 416.996094 434.027344 415.199219 433.933594 413.394531 433.933594 Z M 356.074219 482.042969 C 356.277344 480.859375 356.535156 479.6875 356.84375 478.527344 C 357.148438 477.367188 357.507812 476.222656 357.914062 475.09375 C 358.324219 473.96875 358.78125 472.859375 359.285156 471.769531 C 359.789062 470.679688 360.339844 469.617188 360.9375 468.574219 C 361.535156 467.535156 362.179688 466.523438 362.863281 465.535156 C 363.550781 464.550781 364.277344 463.601562 365.046875 462.679688 C 365.816406 461.757812 366.625 460.871094 367.472656 460.023438 C 368.320312 459.171875 369.203125 458.359375 370.121094 457.585938 C 371.039062 456.8125 371.988281 456.082031 372.96875 455.390625 C 373.949219 454.703125 374.960938 454.054688 376 453.453125 C 377.039062 452.851562 378.101562 452.296875 379.1875 451.789062 C 380.273438 451.277344 381.378906 450.816406 382.507812 450.40625 C 383.632812 449.992188 384.777344 449.632812 385.9375 449.320312 C 387.09375 449.007812 388.265625 448.746094 389.445312 448.535156 C 390.628906 448.324219 391.816406 448.167969 393.011719 448.058594 C 394.207031 447.953125 395.40625 447.902344 396.605469 447.898438 L 413.394531 447.898438 C 414.59375 447.902344 415.792969 447.953125 416.988281 448.058594 C 418.183594 448.167969 419.371094 448.324219 420.554688 448.535156 C 421.734375 448.746094 422.90625 449.007812 424.0625 449.320312 C 425.222656 449.632812 426.363281 449.992188 427.492188 450.40625 C 428.621094 450.816406 429.726562 451.277344 430.8125 451.789062 C 431.898438 452.296875 432.960938 452.851562 434 453.453125 C 435.039062 454.054688 436.050781 454.703125 437.03125 455.390625 C 438.011719 456.082031 438.960938 456.8125 439.878906 457.585938 C 440.796875 458.359375 441.679688 459.171875 442.527344 460.023438 C 443.375 460.871094 444.183594 461.757812 444.953125 462.679688 C 445.722656 463.601562 446.449219 464.550781 447.136719 465.535156 C 447.820312 466.523438 448.464844 467.535156 449.0625 468.574219 C 449.660156 469.617188 450.210938 470.679688 450.714844 471.769531 C 451.21875 472.859375 451.675781 473.96875 452.085938 475.09375 C 452.492188 476.222656 452.847656 477.367188 453.15625 478.527344 C 453.464844 479.6875 453.722656 480.859375 453.925781 482.042969 Z M 356.074219 482.042969 " fill-opacity="1" fill-rule="nonzero"/><path fill="#ffffff" d="M 405 243.117188 C 402.351562 243.117188 399.703125 243.183594 397.058594 243.3125 C 394.410156 243.441406 391.769531 243.636719 389.132812 243.898438 C 386.496094 244.15625 383.867188 244.480469 381.246094 244.871094 C 378.625 245.257812 376.015625 245.710938 373.417969 246.226562 C 370.820312 246.746094 368.234375 247.324219 365.664062 247.96875 C 363.097656 248.613281 360.542969 249.320312 358.007812 250.089844 C 355.472656 250.859375 352.957031 251.6875 350.464844 252.582031 C 347.96875 253.472656 345.5 254.425781 343.050781 255.441406 C 340.601562 256.453125 338.179688 257.527344 335.785156 258.660156 C 333.390625 259.792969 331.027344 260.984375 328.6875 262.234375 C 326.351562 263.480469 324.046875 264.785156 321.777344 266.148438 C 319.503906 267.511719 317.265625 268.929688 315.0625 270.398438 C 312.859375 271.871094 310.695312 273.398438 308.566406 274.976562 C 306.4375 276.554688 304.351562 278.183594 302.304688 279.863281 C 300.253906 281.542969 298.25 283.273438 296.285156 285.054688 C 294.324219 286.832031 292.40625 288.660156 290.53125 290.53125 C 288.660156 292.40625 286.832031 294.324219 285.054688 296.285156 C 283.273438 298.25 281.542969 300.253906 279.863281 302.304688 C 278.183594 304.351562 276.554688 306.4375 274.976562 308.566406 C 273.398438 310.695312 271.871094 312.859375 270.398438 315.0625 C 268.929688 317.265625 267.511719 319.503906 266.148438 321.777344 C 264.785156 324.046875 263.480469 326.351562 262.234375 328.6875 C 260.984375 331.027344 259.792969 333.390625 258.660156 335.785156 C 257.527344 338.179688 256.453125 340.601562 255.441406 343.050781 C 254.425781 345.5 253.472656 347.96875 252.582031 350.464844 C 251.6875 352.957031 250.859375 355.472656 250.089844 358.007812 C 249.320312 360.542969 248.613281 363.097656 247.96875 365.664062 C 247.324219 368.234375 246.746094 370.820312 246.226562 373.417969 C 245.710938 376.015625 245.257812 378.625 244.871094 381.246094 C 244.480469 383.867188 244.15625 386.496094 243.898438 389.132812 C 243.636719 391.769531 243.441406 394.410156 243.3125 397.058594 C 243.183594 399.703125 243.117188 402.351562 243.117188 405 C 243.117188 407.648438 243.183594 410.296875 243.3125 412.941406 C 243.441406 415.589844 243.636719 418.230469 243.898438 420.867188 C 244.15625 423.503906 244.480469 426.132812 244.871094 428.753906 C 245.257812 431.375 245.710938 433.984375 246.226562 436.582031 C 246.746094 439.179688 247.324219 441.765625 247.96875 444.335938 C 248.613281 446.902344 249.320312 449.457031 250.089844 451.992188 C 250.859375 454.527344 251.6875 457.042969 252.582031 459.535156 C 253.472656 462.03125 254.425781 464.5 255.441406 466.949219 C 256.453125 469.398438 257.527344 471.820312 258.660156 474.214844 C 259.792969 476.609375 260.984375 478.972656 262.234375 481.3125 C 263.480469 483.648438 264.785156 485.953125 266.148438 488.222656 C 267.511719 490.496094 268.929688 492.734375 270.398438 494.9375 C 271.871094 497.140625 273.398438 499.304688 274.976562 501.433594 C 276.554688 503.5625 278.183594 505.648438 279.863281 507.695312 C 281.542969 509.746094 283.273438 511.75 285.054688 513.714844 C 286.832031 515.675781 288.660156 517.59375 290.53125 519.46875 C 292.40625 521.339844 294.324219 523.167969 296.285156 524.945312 C 298.25 526.726562 300.253906 528.457031 302.304688 530.136719 C 304.351562 531.816406 306.4375 533.445312 308.566406 535.023438 C 310.695312 536.601562 312.859375 538.128906 315.0625 539.601562 C 317.265625 541.070312 319.503906 542.488281 321.777344 543.851562 C 324.046875 545.210938 326.351562 546.519531 328.6875 547.765625 C 331.027344 549.015625 333.390625 550.207031 335.785156 551.339844 C 338.179688 552.472656 340.601562 553.546875 343.050781 554.558594 C 345.5 555.574219 347.96875 556.527344 350.464844 557.417969 C 352.957031 558.3125 355.472656 559.140625 358.007812 559.910156 C 360.542969 560.679688 363.097656 561.386719 365.664062 562.03125 C 368.234375 562.675781 370.820312 563.253906 373.417969 563.769531 C 376.015625 564.289062 378.625 564.742188 381.246094 565.128906 C 383.867188 565.519531 386.496094 565.84375 389.132812 566.101562 C 391.769531 566.363281 394.410156 566.558594 397.058594 566.6875 C 399.703125 566.816406 402.351562 566.882812 405 566.882812 C 407.648438 566.882812 410.296875 566.816406 412.941406 566.6875 C 415.589844 566.558594 418.230469 566.363281 420.867188 566.101562 C 423.503906 565.84375 426.132812 565.519531 428.753906 565.128906 C 431.375 564.742188 433.984375 564.289062 436.582031 563.769531 C 439.179688 563.253906 441.765625 562.675781 444.335938 562.03125 C 446.902344 561.386719 449.457031 560.679688 451.992188 559.910156 C 454.527344 559.140625 457.042969 558.3125 459.535156 557.417969 C 462.03125 556.527344 464.5 555.574219 466.949219 554.558594 C 469.398438 553.546875 471.820312 552.472656 474.214844 551.339844 C 476.609375 550.207031 478.972656 549.015625 481.3125 547.765625 C 483.648438 546.519531 485.953125 545.210938 488.222656 543.851562 C 490.496094 542.488281 492.734375 541.070312 494.9375 539.601562 C 497.140625 538.128906 499.304688 536.601562 501.433594 535.023438 C 503.5625 533.445312 505.648438 531.816406 507.695312 530.136719 C 509.746094 528.457031 511.75 526.726562 513.714844 524.945312 C 515.675781 523.167969 517.59375 521.339844 519.46875 519.46875 C 521.339844 517.59375 523.167969 515.675781 524.945312 513.714844 C 526.726562 511.75 528.457031 509.746094 530.136719 507.695312 C 531.816406 505.648438 533.445312 503.5625 535.023438 501.433594 C 536.601562 499.304688 538.128906 497.140625 539.601562 494.9375 C 541.070312 492.734375 542.488281 490.496094 543.851562 488.222656 C 545.210938 485.953125 546.519531 483.648438 547.765625 481.3125 C 549.015625 478.972656 550.207031 476.609375 551.339844 474.214844 C 552.472656 471.820312 553.546875 469.398438 554.558594 466.949219 C 555.574219 464.5 556.527344 462.03125 557.417969 459.535156 C 558.3125 457.042969 559.140625 454.527344 559.910156 451.992188 C 560.679688 449.457031 561.386719 446.902344 562.03125 444.335938 C 562.675781 441.765625 563.253906 439.179688 563.769531 436.582031 C 564.289062 433.984375 564.742188 431.375 565.128906 428.753906 C 565.519531 426.132812 565.84375 423.503906 566.101562 420.867188 C 566.363281 418.230469 566.558594 415.589844 566.6875 412.941406 C 566.816406 410.296875 566.882812 407.648438 566.882812 405 C 566.878906 402.351562 566.8125 399.703125 566.679688 397.058594 C 566.546875 394.414062 566.347656 391.773438 566.085938 389.136719 C 565.824219 386.503906 565.496094 383.875 565.105469 381.257812 C 564.714844 378.636719 564.261719 376.027344 563.742188 373.429688 C 563.222656 370.832031 562.640625 368.25 561.996094 365.683594 C 561.347656 363.113281 560.640625 360.5625 559.871094 358.027344 C 559.101562 355.496094 558.265625 352.980469 557.375 350.488281 C 556.480469 347.996094 555.527344 345.523438 554.511719 343.078125 C 553.496094 340.632812 552.421875 338.210938 551.289062 335.820312 C 550.152344 333.425781 548.960938 331.0625 547.714844 328.726562 C 546.464844 326.390625 545.15625 324.085938 543.796875 321.816406 C 542.433594 319.542969 541.015625 317.308594 539.542969 315.105469 C 538.070312 312.90625 536.546875 310.742188 534.96875 308.613281 C 533.390625 306.488281 531.761719 304.398438 530.082031 302.351562 C 528.398438 300.304688 526.671875 298.300781 524.890625 296.339844 C 523.113281 294.375 521.285156 292.457031 519.414062 290.585938 C 517.542969 288.714844 515.625 286.886719 513.660156 285.109375 C 511.699219 283.328125 509.695312 281.601562 507.648438 279.917969 C 505.601562 278.238281 503.511719 276.609375 501.386719 275.03125 C 499.257812 273.453125 497.09375 271.929688 494.894531 270.457031 C 492.691406 268.984375 490.457031 267.566406 488.183594 266.203125 C 485.914062 264.84375 483.609375 263.535156 481.273438 262.285156 C 478.9375 261.039062 476.574219 259.847656 474.179688 258.710938 C 471.789062 257.578125 469.367188 256.503906 466.921875 255.488281 C 464.476562 254.472656 462.003906 253.519531 459.511719 252.625 C 457.019531 251.734375 454.503906 250.898438 451.972656 250.128906 C 449.4375 249.359375 446.886719 248.652344 444.316406 248.003906 C 441.75 247.359375 439.167969 246.777344 436.570312 246.257812 C 433.972656 245.738281 431.363281 245.285156 428.742188 244.894531 C 426.125 244.503906 423.496094 244.175781 420.863281 243.914062 C 418.226562 243.652344 415.585938 243.453125 412.941406 243.320312 C 410.296875 243.1875 407.648438 243.121094 405 243.117188 Z M 405 552.917969 C 402.578125 552.917969 400.160156 552.855469 397.742188 552.738281 C 395.324219 552.621094 392.910156 552.441406 390.5 552.203125 C 388.09375 551.96875 385.691406 551.671875 383.296875 551.316406 C 380.902344 550.960938 378.515625 550.546875 376.144531 550.074219 C 373.769531 549.601562 371.40625 549.070312 369.058594 548.484375 C 366.710938 547.894531 364.378906 547.25 362.0625 546.546875 C 359.746094 545.84375 357.449219 545.085938 355.167969 544.269531 C 352.890625 543.453125 350.632812 542.582031 348.394531 541.65625 C 346.160156 540.730469 343.945312 539.75 341.757812 538.714844 C 339.570312 537.679688 337.40625 536.59375 335.273438 535.449219 C 333.136719 534.308594 331.03125 533.117188 328.957031 531.871094 C 326.878906 530.628906 324.835938 529.332031 322.820312 527.988281 C 320.808594 526.644531 318.832031 525.25 316.886719 523.808594 C 314.941406 522.367188 313.035156 520.875 311.164062 519.339844 C 309.292969 517.804688 307.457031 516.222656 305.664062 514.597656 C 303.871094 512.972656 302.117188 511.304688 300.40625 509.59375 C 298.695312 507.882812 297.027344 506.128906 295.402344 504.335938 C 293.773438 502.539062 292.195312 500.707031 290.660156 498.835938 C 289.125 496.964844 287.632812 495.058594 286.191406 493.113281 C 284.75 491.167969 283.355469 489.191406 282.011719 487.179688 C 280.667969 485.164062 279.371094 483.121094 278.128906 481.042969 C 276.882812 478.96875 275.691406 476.863281 274.550781 474.726562 C 273.40625 472.59375 272.320312 470.429688 271.285156 468.242188 C 270.25 466.054688 269.269531 463.839844 268.34375 461.605469 C 267.417969 459.367188 266.546875 457.109375 265.730469 454.832031 C 264.914062 452.550781 264.15625 450.253906 263.453125 447.9375 C 262.75 445.621094 262.105469 443.289062 261.515625 440.941406 C 260.929688 438.59375 260.398438 436.230469 259.925781 433.855469 C 259.453125 431.484375 259.039062 429.097656 258.683594 426.703125 C 258.328125 424.308594 258.03125 421.90625 257.796875 419.5 C 257.558594 417.089844 257.378906 414.675781 257.261719 412.257812 C 257.144531 409.839844 257.082031 407.421875 257.082031 405 C 257.082031 402.578125 257.144531 400.160156 257.261719 397.742188 C 257.378906 395.324219 257.558594 392.910156 257.796875 390.5 C 258.03125 388.09375 258.328125 385.691406 258.683594 383.296875 C 259.039062 380.902344 259.453125 378.515625 259.925781 376.144531 C 260.398438 373.769531 260.929688 371.40625 261.515625 369.058594 C 262.105469 366.710938 262.75 364.378906 263.453125 362.0625 C 264.15625 359.746094 264.914062 357.449219 265.730469 355.167969 C 266.546875 352.890625 267.417969 350.632812 268.34375 348.394531 C 269.269531 346.160156 270.25 343.945312 271.285156 341.757812 C 272.320312 339.570312 273.40625 337.40625 274.550781 335.273438 C 275.691406 333.136719 276.882812 331.03125 278.128906 328.957031 C 279.371094 326.878906 280.667969 324.835938 282.011719 322.820312 C 283.355469 320.808594 284.75 318.832031 286.191406 316.886719 C 287.632812 314.941406 289.125 313.035156 290.660156 311.164062 C 292.195312 309.292969 293.773438 307.460938 295.402344 305.664062 C 297.027344 303.871094 298.695312 302.117188 300.40625 300.40625 C 302.117188 298.695312 303.871094 297.027344 305.664062 295.402344 C 307.457031 293.773438 309.292969 292.195312 311.164062 290.660156 C 313.035156 289.125 314.941406 287.632812 316.886719 286.191406 C 318.832031 284.75 320.808594 283.355469 322.820312 282.011719 C 324.835938 280.667969 326.878906 279.371094 328.957031 278.128906 C 331.03125 276.882812 333.136719 275.691406 335.273438 274.550781 C 337.40625 273.40625 339.570312 272.320312 341.757812 271.285156 C 343.945312 270.25 346.160156 269.269531 348.394531 268.34375 C 350.632812 267.417969 352.890625 266.546875 355.167969 265.730469 C 357.449219 264.914062 359.746094 264.15625 362.0625 263.453125 C 364.378906 262.75 366.710938 262.105469 369.058594 261.515625 C 371.40625 260.929688 373.769531 260.398438 376.144531 259.925781 C 378.515625 259.453125 380.902344 259.039062 383.296875 258.683594 C 385.691406 258.328125 388.09375 258.03125 390.5 257.796875 C 392.910156 257.558594 395.324219 257.378906 397.742188 257.261719 C 400.160156 257.144531 402.578125 257.082031 405 257.082031 C 407.421875 257.082031 409.839844 257.144531 412.257812 257.261719 C 414.675781 257.378906 417.089844 257.558594 419.5 257.796875 C 421.90625 258.03125 424.308594 258.328125 426.703125 258.683594 C 429.097656 259.039062 431.484375 259.453125 433.855469 259.925781 C 436.230469 260.398438 438.59375 260.929688 440.941406 261.515625 C 443.289062 262.105469 445.621094 262.75 447.9375 263.453125 C 450.253906 264.15625 452.550781 264.914062 454.832031 265.730469 C 457.109375 266.546875 459.367188 267.417969 461.605469 268.34375 C 463.839844 269.269531 466.054688 270.25 468.242188 271.285156 C 470.429688 272.320312 472.59375 273.40625 474.726562 274.550781 C 476.863281 275.691406 478.96875 276.882812 481.042969 278.128906 C 483.121094 279.371094 485.164062 280.667969 487.179688 282.011719 C 489.191406 283.355469 491.167969 284.75 493.113281 286.191406 C 495.058594 287.632812 496.964844 289.125 498.835938 290.660156 C 500.707031 292.195312 502.539062 293.773438 504.335938 295.402344 C 506.128906 297.027344 507.882812 298.695312 509.59375 300.40625 C 511.304688 302.117188 512.972656 303.871094 514.597656 305.664062 C 516.222656 307.460938 517.804688 309.292969 519.339844 311.164062 C 520.875 313.035156 522.367188 314.941406 523.808594 316.886719 C 525.25 318.832031 526.644531 320.808594 527.988281 322.820312 C 529.332031 324.835938 530.628906 326.878906 531.871094 328.957031 C 533.117188 331.03125 534.308594 333.136719 535.449219 335.273438 C 536.59375 337.40625 537.679688 339.570312 538.714844 341.757812 C 539.75 343.945312 540.730469 346.160156 541.65625 348.394531 C 542.582031 350.632812 543.453125 352.890625 544.269531 355.167969 C 545.085938 357.449219 545.84375 359.746094 546.546875 362.0625 C 547.25 364.378906 547.894531 366.710938 548.484375 369.058594 C 549.070312 371.40625 549.601562 373.769531 550.074219 376.144531 C 550.546875 378.515625 550.960938 380.902344 551.316406 383.296875 C 551.671875 385.691406 551.96875 388.09375 552.203125 390.5 C 552.441406 392.910156 552.621094 395.324219 552.738281 397.742188 C 552.855469 400.160156 552.917969 402.578125 552.917969 405 C 552.914062 407.421875 552.851562 409.839844 552.730469 412.253906 C 552.609375 414.671875 552.429688 417.085938 552.1875 419.492188 C 551.949219 421.902344 551.652344 424.300781 551.292969 426.695312 C 550.9375 429.089844 550.519531 431.472656 550.046875 433.84375 C 549.570312 436.21875 549.039062 438.578125 548.449219 440.925781 C 547.859375 443.273438 547.214844 445.605469 546.507812 447.917969 C 545.804688 450.234375 545.042969 452.53125 544.226562 454.808594 C 543.410156 457.085938 542.539062 459.34375 541.613281 461.578125 C 540.683594 463.8125 539.703125 466.023438 538.667969 468.210938 C 537.632812 470.398438 536.542969 472.558594 535.402344 474.695312 C 534.257812 476.828125 533.066406 478.933594 531.820312 481.007812 C 530.574219 483.082031 529.28125 485.125 527.9375 487.136719 C 526.589844 489.148438 525.199219 491.128906 523.753906 493.070312 C 522.3125 495.015625 520.824219 496.921875 519.289062 498.792969 C 517.753906 500.664062 516.171875 502.492188 514.546875 504.285156 C 512.921875 506.078125 511.253906 507.832031 509.542969 509.542969 C 507.832031 511.253906 506.078125 512.921875 504.285156 514.546875 C 502.492188 516.171875 500.664062 517.753906 498.792969 519.289062 C 496.921875 520.824219 495.015625 522.3125 493.070312 523.753906 C 491.128906 525.199219 489.148438 526.589844 487.136719 527.9375 C 485.125 529.28125 483.082031 530.574219 481.007812 531.820312 C 478.933594 533.066406 476.828125 534.257812 474.695312 535.402344 C 472.558594 536.542969 470.398438 537.632812 468.210938 538.667969 C 466.023438 539.703125 463.8125 540.683594 461.578125 541.613281 C 459.34375 542.539062 457.085938 543.410156 454.808594 544.226562 C 452.53125 545.042969 450.234375 545.804688 447.917969 546.507812 C 445.605469 547.214844 443.273438 547.859375 440.925781 548.449219 C 438.578125 549.039062 436.21875 549.570312 433.84375 550.046875 C 431.472656 550.519531 429.089844 550.9375 426.695312 551.292969 C 424.300781 551.652344 421.902344 551.949219 419.492188 552.1875 C 417.085938 552.429688 414.671875 552.609375 412.253906 552.730469 C 409.839844 552.851562 407.421875 552.914062 405 552.917969 Z M 405 552.917969 " fill-opacity="1" fill-rule="nonzero"/></svg>