<svg xmlns="http://www.w3.org/2000/svg" xmlns:xlink="http://www.w3.org/1999/xlink" width="120" zoomAndPan="magnify" viewBox="0 0 90 89.999999" height="120" preserveAspectRatio="xMidYMid meet" version="1.0"><path fill="#ff9999" d="M 57.726562 32.273438 C 54.328125 28.871094 49.808594 27 45 27 C 40.191406 27 35.671875 28.871094 32.273438 32.273438 C 28.871094 35.671875 27 40.191406 27 45 C 27 49.808594 28.871094 54.328125 32.273438 57.726562 C 35.671875 61.128906 40.191406 63 45 63 C 49.808594 63 54.328125 61.128906 57.726562 57.726562 C 61.128906 54.328125 63 49.808594 63 45 C 63 40.191406 61.128906 35.671875 57.726562 32.273438 Z M 56.238281 56.238281 C 53.234375 59.238281 49.246094 60.890625 45 60.890625 C 40.753906 60.890625 36.765625 59.238281 33.761719 56.238281 C 30.761719 53.234375 29.109375 49.246094 29.109375 45 C 29.109375 40.753906 30.761719 36.765625 33.761719 33.761719 C 36.765625 30.761719 40.753906 29.109375 45 29.109375 C 49.246094 29.109375 53.234375 30.761719 56.238281 33.761719 C 59.238281 36.765625 60.890625 40.753906 60.890625 45 C 60.890625 49.246094 59.238281 53.234375 56.238281 56.238281 Z M 56.238281 56.238281 " fill-opacity="1" fill-rule="nonzero"/><path fill="#ff9999" d="M 52.226562 50.925781 L 37.777344 50.925781 C 37.191406 50.925781 36.722656 51.398438 36.722656 51.980469 C 36.722656 52.5625 37.191406 53.035156 37.777344 53.035156 L 52.226562 53.035156 C 52.808594 53.035156 53.28125 52.5625 53.28125 51.980469 C 53.28125 51.398438 52.808594 50.925781 52.226562 50.925781 Z M 52.226562 50.925781 " fill-opacity="1" fill-rule="nonzero"/><path fill="#ff9999" d="M 42.292969 43.765625 C 42.292969 41.761719 40.664062 40.132812 38.660156 40.132812 C 36.660156 40.132812 35.03125 41.761719 35.03125 43.765625 C 35.03125 45.765625 36.660156 47.394531 38.660156 47.394531 C 40.664062 47.394531 42.292969 45.765625 42.292969 43.765625 Z M 37.140625 43.765625 C 37.140625 42.925781 37.820312 42.242188 38.660156 42.242188 C 39.5 42.242188 40.183594 42.925781 40.183594 43.765625 C 40.183594 44.605469 39.5 45.285156 38.660156 45.285156 C 37.820312 45.285156 37.140625 44.605469 37.140625 43.765625 Z M 37.140625 43.765625 " fill-opacity="1" fill-rule="nonzero"/><path fill="#ff9999" d="M 51.339844 38.722656 C 48.949219 38.722656 47.003906 40.667969 47.003906 43.058594 C 47.003906 45.449219 48.949219 47.394531 51.339844 47.394531 C 53.730469 47.394531 55.675781 45.449219 55.675781 43.058594 C 55.675781 40.667969 53.730469 38.722656 51.339844 38.722656 Z M 51.339844 45.285156 C 50.113281 45.285156 49.113281 44.285156 49.113281 43.058594 C 49.113281 41.828125 50.113281 40.832031 51.339844 40.832031 C 52.570312 40.832031 53.566406 41.828125 53.566406 43.058594 C 53.566406 44.285156 52.570312 45.285156 51.339844 45.285156 Z M 51.339844 45.285156 " fill-opacity="1" fill-rule="nonzero"/><path fill="#ff9999" d="M 47.269531 37.300781 C 47.332031 37.3125 47.394531 37.320312 47.457031 37.320312 C 47.957031 37.320312 48.402344 36.960938 48.496094 36.449219 C 48.710938 35.234375 49.878906 34.421875 51.09375 34.636719 C 51.667969 34.738281 52.214844 34.359375 52.316406 33.785156 C 52.417969 33.210938 52.039062 32.664062 51.464844 32.5625 C 49.101562 32.140625 46.839844 33.71875 46.417969 36.078125 C 46.316406 36.652344 46.699219 37.199219 47.269531 37.300781 Z M 47.269531 37.300781 " fill-opacity="1" fill-rule="nonzero"/><path fill="#ff9999" d="M 35.832031 37.542969 C 35.832031 37.539062 35.90625 37.277344 36.074219 37.179688 C 36.238281 37.082031 36.558594 37.105469 36.953125 37.246094 C 39.453125 38.121094 40.417969 38.65625 40.421875 38.660156 C 40.589844 38.753906 40.769531 38.800781 40.945312 38.800781 C 41.3125 38.800781 41.667969 38.609375 41.863281 38.269531 C 42.152344 37.761719 41.976562 37.117188 41.46875 36.828125 C 41.425781 36.804688 40.375 36.210938 37.652344 35.253906 C 36.945312 35.007812 35.910156 34.824219 35 35.363281 C 33.988281 35.960938 33.773438 37.070312 33.753906 37.191406 C 33.65625 37.765625 34.042969 38.3125 34.617188 38.40625 C 35.191406 38.503906 35.738281 38.117188 35.832031 37.542969 Z M 35.832031 37.542969 " fill-opacity="1" fill-rule="nonzero"/></svg>