<svg xmlns="http://www.w3.org/2000/svg" xmlns:xlink="http://www.w3.org/1999/xlink" width="120" zoomAndPan="magnify" viewBox="0 0 90 89.999999" height="120" preserveAspectRatio="xMidYMid meet" version="1.0"><path fill="#ff9999" d="M 51.90625 52.042969 C 50.753906 51.566406 49.484375 51.566406 48.332031 52.042969 C 47.179688 52.515625 46.289062 53.417969 45.8125 54.570312 C 45.667969 54.921875 45.835938 55.332031 46.1875 55.476562 C 46.273438 55.511719 46.367188 55.527344 46.453125 55.527344 C 46.726562 55.527344 46.988281 55.359375 47.09375 55.09375 C 47.425781 54.289062 48.058594 53.65625 48.867188 53.324219 C 49.671875 52.992188 50.558594 52.992188 51.371094 53.324219 C 51.726562 53.46875 52.136719 53.300781 52.277344 52.949219 C 52.429688 52.597656 52.257812 52.191406 51.90625 52.042969 Z M 51.90625 52.042969 " fill-opacity="1" fill-rule="nonzero"/><path fill="#ff9999" d="M 45 27 C 35.070312 27 27 35.070312 27 45 C 27 54.929688 35.070312 63 45 63 C 54.929688 63 63 54.929688 63 45 C 63 35.070312 54.929688 27 45 27 Z M 45 61.609375 C 35.839844 61.609375 28.390625 54.160156 28.390625 45 C 28.390625 35.839844 35.839844 28.390625 45 28.390625 C 54.160156 28.390625 61.609375 35.839844 61.609375 45 C 61.609375 54.160156 54.160156 61.609375 45 61.609375 Z M 45 61.609375 " fill-opacity="1" fill-rule="nonzero"/><path fill="#ff9999" d="M 50.363281 33.226562 C 48.175781 33.226562 46.167969 34.359375 45 36.144531 C 43.832031 34.359375 41.824219 33.226562 39.636719 33.226562 C 36.101562 33.226562 33.226562 36.101562 33.226562 39.636719 C 33.226562 43.171875 36.101562 46.042969 39.636719 46.042969 C 41.824219 46.042969 43.832031 44.914062 45 43.128906 C 46.167969 44.914062 48.175781 46.042969 50.363281 46.042969 C 53.898438 46.042969 56.773438 43.171875 56.773438 39.636719 C 56.773438 36.101562 53.898438 33.226562 50.363281 33.226562 Z M 50.363281 44.648438 C 48.261719 44.648438 46.367188 43.316406 45.65625 41.335938 C 45.554688 41.0625 45.296875 40.875 45 40.875 C 44.703125 40.875 44.445312 41.054688 44.34375 41.335938 C 43.625 43.316406 41.738281 44.648438 39.636719 44.648438 C 36.871094 44.648438 34.625 42.402344 34.625 39.636719 C 34.625 37.160156 36.433594 35.09375 38.800781 34.695312 C 38.527344 34.933594 38.347656 35.289062 38.347656 35.675781 C 38.347656 36.390625 38.921875 36.964844 39.636719 36.964844 C 40.347656 36.964844 40.925781 36.390625 40.925781 35.675781 C 40.925781 35.289062 40.753906 34.933594 40.476562 34.695312 C 42.226562 35 43.726562 36.222656 44.34375 37.929688 C 44.445312 38.203125 44.703125 38.390625 45 38.390625 C 45.296875 38.390625 45.554688 38.210938 45.65625 37.929688 C 46.273438 36.214844 47.773438 34.992188 49.523438 34.695312 C 49.246094 34.933594 49.074219 35.28125 49.074219 35.675781 C 49.074219 36.390625 49.652344 36.964844 50.363281 36.964844 C 51.078125 36.964844 51.652344 36.390625 51.652344 35.675781 C 51.652344 35.289062 51.480469 34.933594 51.199219 34.695312 C 53.566406 35.101562 55.375 37.160156 55.375 39.636719 C 55.375 42.402344 53.128906 44.648438 50.363281 44.648438 Z M 50.363281 44.648438 " fill-opacity="1" fill-rule="nonzero"/></svg>