<svg xmlns="http://www.w3.org/2000/svg" xmlns:xlink="http://www.w3.org/1999/xlink" width="1080" zoomAndPan="magnify" viewBox="0 0 810 809.999993" height="1080" preserveAspectRatio="xMidYMid meet" version="1.0"><path fill="#ffffff" d="M 405 567 C 402.347656 567 399.699219 566.933594 397.050781 566.804688 C 394.402344 566.675781 391.757812 566.480469 389.121094 566.21875 C 386.484375 565.960938 383.851562 565.636719 381.230469 565.246094 C 378.605469 564.859375 375.996094 564.40625 373.394531 563.886719 C 370.796875 563.371094 368.207031 562.789062 365.636719 562.144531 C 363.066406 561.5 360.511719 560.792969 357.972656 560.023438 C 355.4375 559.253906 352.921875 558.421875 350.421875 557.53125 C 347.925781 556.636719 345.453125 555.683594 343.003906 554.667969 C 340.554688 553.652344 338.132812 552.578125 335.734375 551.445312 C 333.339844 550.3125 330.972656 549.121094 328.632812 547.871094 C 326.296875 546.621094 323.988281 545.316406 321.714844 543.953125 C 319.441406 542.589844 317.203125 541.171875 314.996094 539.699219 C 312.792969 538.226562 310.625 536.699219 308.496094 535.121094 C 306.367188 533.539062 304.277344 531.910156 302.226562 530.226562 C 300.179688 528.546875 298.171875 526.816406 296.207031 525.035156 C 294.242188 523.253906 292.324219 521.425781 290.449219 519.550781 C 288.574219 517.675781 286.746094 515.757812 284.964844 513.792969 C 283.183594 511.828125 281.453125 509.820312 279.773438 507.773438 C 278.089844 505.722656 276.460938 503.632812 274.878906 501.503906 C 273.300781 499.375 271.773438 497.207031 270.300781 495.003906 C 268.828125 492.796875 267.410156 490.558594 266.046875 488.285156 C 264.683594 486.011719 263.378906 483.703125 262.128906 481.367188 C 260.878906 479.027344 259.6875 476.660156 258.554688 474.265625 C 257.421875 471.867188 256.347656 469.445312 255.332031 466.996094 C 254.316406 464.546875 253.363281 462.074219 252.46875 459.574219 C 251.578125 457.078125 250.746094 454.5625 249.976562 452.027344 C 249.207031 449.488281 248.5 446.933594 247.855469 444.363281 C 247.210938 441.789062 246.628906 439.203125 246.113281 436.605469 C 245.59375 434.003906 245.140625 431.394531 244.753906 428.769531 C 244.363281 426.148438 244.039062 423.515625 243.78125 420.878906 C 243.519531 418.242188 243.324219 415.597656 243.195312 412.949219 C 243.066406 410.300781 243 407.652344 243 405 C 243 402.347656 243.066406 399.699219 243.195312 397.050781 C 243.324219 394.402344 243.519531 391.757812 243.78125 389.121094 C 244.039062 386.484375 244.363281 383.851562 244.753906 381.230469 C 245.140625 378.605469 245.59375 375.996094 246.113281 373.394531 C 246.628906 370.796875 247.210938 368.207031 247.855469 365.636719 C 248.5 363.066406 249.207031 360.511719 249.976562 357.972656 C 250.746094 355.4375 251.578125 352.921875 252.46875 350.425781 C 253.363281 347.925781 254.316406 345.453125 255.332031 343.003906 C 256.347656 340.554688 257.421875 338.132812 258.554688 335.734375 C 259.6875 333.339844 260.878906 330.972656 262.128906 328.632812 C 263.378906 326.296875 264.683594 323.988281 266.046875 321.714844 C 267.410156 319.441406 268.828125 317.203125 270.300781 314.996094 C 271.773438 312.792969 273.300781 310.625 274.878906 308.496094 C 276.460938 306.367188 278.089844 304.277344 279.773438 302.226562 C 281.453125 300.179688 283.183594 298.171875 284.964844 296.207031 C 286.746094 294.242188 288.574219 292.324219 290.449219 290.449219 C 292.324219 288.574219 294.242188 286.746094 296.207031 284.964844 C 298.171875 283.183594 300.179688 281.453125 302.226562 279.773438 C 304.277344 278.089844 306.367188 276.460938 308.496094 274.878906 C 310.625 273.300781 312.792969 271.773438 314.996094 270.300781 C 317.203125 268.828125 319.441406 267.410156 321.714844 266.046875 C 323.988281 264.683594 326.296875 263.378906 328.632812 262.128906 C 330.972656 260.878906 333.339844 259.6875 335.734375 258.554688 C 338.132812 257.421875 340.554688 256.347656 343.003906 255.332031 C 345.453125 254.316406 347.925781 253.363281 350.421875 252.46875 C 352.921875 251.578125 355.4375 250.746094 357.972656 249.976562 C 360.511719 249.207031 363.066406 248.5 365.636719 247.855469 C 368.207031 247.210938 370.796875 246.628906 373.394531 246.113281 C 375.996094 245.59375 378.605469 245.140625 381.230469 244.753906 C 383.851562 244.363281 386.484375 244.039062 389.121094 243.78125 C 391.757812 243.519531 394.402344 243.324219 397.050781 243.195312 C 399.699219 243.066406 402.347656 243 405 243 C 407.652344 243 410.300781 243.066406 412.949219 243.195312 C 415.597656 243.324219 418.242188 243.519531 420.878906 243.78125 C 423.515625 244.039062 426.148438 244.363281 428.769531 244.753906 C 431.394531 245.140625 434.003906 245.59375 436.605469 246.113281 C 439.203125 246.628906 441.789062 247.210938 444.363281 247.855469 C 446.933594 248.5 449.488281 249.207031 452.027344 249.976562 C 454.5625 250.746094 457.078125 251.578125 459.574219 252.46875 C 462.074219 253.363281 464.546875 254.316406 466.996094 255.332031 C 469.445312 256.347656 471.867188 257.421875 474.265625 258.554688 C 476.660156 259.6875 479.027344 260.878906 481.367188 262.128906 C 483.703125 263.378906 486.011719 264.683594 488.285156 266.046875 C 490.558594 267.410156 492.796875 268.828125 495.003906 270.300781 C 497.207031 271.773438 499.375 273.300781 501.503906 274.878906 C 503.632812 276.460938 505.722656 278.089844 507.773438 279.773438 C 509.820312 281.453125 511.828125 283.183594 513.792969 284.964844 C 515.757812 286.746094 517.675781 288.574219 519.550781 290.449219 C 521.425781 292.324219 523.253906 294.242188 525.035156 296.207031 C 526.816406 298.171875 528.546875 300.179688 530.226562 302.226562 C 531.910156 304.277344 533.539062 306.367188 535.121094 308.496094 C 536.699219 310.625 538.226562 312.792969 539.699219 314.996094 C 541.171875 317.203125 542.589844 319.441406 543.953125 321.714844 C 545.316406 323.988281 546.621094 326.296875 547.871094 328.632812 C 549.121094 330.972656 550.3125 333.339844 551.445312 335.734375 C 552.578125 338.132812 553.652344 340.554688 554.667969 343.003906 C 555.683594 345.453125 556.636719 347.925781 557.53125 350.421875 C 558.421875 352.921875 559.253906 355.4375 560.023438 357.972656 C 560.792969 360.511719 561.5 363.066406 562.144531 365.636719 C 562.789062 368.207031 563.371094 370.796875 563.886719 373.394531 C 564.40625 375.996094 564.859375 378.605469 565.246094 381.230469 C 565.636719 383.851562 565.960938 386.484375 566.21875 389.121094 C 566.480469 391.757812 566.675781 394.402344 566.804688 397.050781 C 566.933594 399.699219 567 402.347656 567 405 C 566.996094 407.652344 566.929688 410.300781 566.796875 412.945312 C 566.664062 415.59375 566.464844 418.234375 566.203125 420.875 C 565.941406 423.511719 565.617188 426.140625 565.222656 428.761719 C 564.832031 431.382812 564.378906 433.992188 563.859375 436.59375 C 563.339844 439.191406 562.757812 441.777344 562.113281 444.347656 C 561.464844 446.917969 560.757812 449.472656 559.984375 452.007812 C 559.214844 454.542969 558.382812 457.058594 557.488281 459.554688 C 556.59375 462.046875 555.636719 464.519531 554.621094 466.96875 C 553.605469 469.417969 552.53125 471.839844 551.398438 474.234375 C 550.265625 476.628906 549.070312 478.996094 547.820312 481.332031 C 546.570312 483.667969 545.265625 485.972656 543.902344 488.246094 C 542.535156 490.519531 541.117188 492.757812 539.644531 494.960938 C 538.171875 497.164062 536.644531 499.332031 535.066406 501.460938 C 533.488281 503.589844 531.855469 505.675781 530.175781 507.726562 C 528.492188 509.773438 526.761719 511.78125 524.984375 513.746094 C 523.203125 515.707031 521.375 517.628906 519.5 519.5 C 517.628906 521.375 515.707031 523.203125 513.746094 524.984375 C 511.78125 526.761719 509.773438 528.492188 507.726562 530.175781 C 505.675781 531.855469 503.589844 533.488281 501.460938 535.066406 C 499.332031 536.644531 497.164062 538.171875 494.960938 539.644531 C 492.757812 541.117188 490.519531 542.535156 488.246094 543.902344 C 485.972656 545.265625 483.667969 546.570312 481.332031 547.820312 C 478.996094 549.070312 476.628906 550.265625 474.234375 551.398438 C 471.839844 552.53125 469.417969 553.605469 466.96875 554.621094 C 464.519531 555.636719 462.046875 556.59375 459.554688 557.488281 C 457.058594 558.382812 454.542969 559.214844 452.007812 559.984375 C 449.472656 560.757812 446.917969 561.464844 444.347656 562.113281 C 441.777344 562.757812 439.191406 563.339844 436.59375 563.859375 C 433.992188 564.378906 431.382812 564.832031 428.761719 565.222656 C 426.140625 565.617188 423.511719 565.941406 420.875 566.203125 C 418.234375 566.464844 415.59375 566.664062 412.945312 566.796875 C 410.300781 566.929688 407.652344 566.996094 405 567 Z M 405 260.050781 C 402.628906 260.050781 400.257812 260.109375 397.886719 260.226562 C 395.519531 260.34375 393.152344 260.519531 390.792969 260.75 C 388.433594 260.984375 386.078125 261.273438 383.730469 261.621094 C 381.386719 261.96875 379.046875 262.375 376.722656 262.835938 C 374.394531 263.300781 372.082031 263.820312 369.78125 264.398438 C 367.480469 264.972656 365.195312 265.605469 362.925781 266.292969 C 360.652344 266.984375 358.402344 267.726562 356.167969 268.527344 C 353.933594 269.324219 351.722656 270.179688 349.53125 271.085938 C 347.339844 271.992188 345.171875 272.953125 343.027344 273.96875 C 340.882812 274.984375 338.765625 276.050781 336.671875 277.167969 C 334.582031 278.285156 332.515625 279.453125 330.480469 280.675781 C 328.449219 281.894531 326.445312 283.164062 324.472656 284.480469 C 322.5 285.796875 320.558594 287.164062 318.65625 288.578125 C 316.75 289.992188 314.878906 291.449219 313.046875 292.953125 C 311.210938 294.460938 309.417969 296.007812 307.660156 297.601562 C 305.902344 299.195312 304.183594 300.828125 302.507812 302.507812 C 300.828125 304.183594 299.195312 305.902344 297.601562 307.660156 C 296.007812 309.417969 294.460938 311.210938 292.953125 313.046875 C 291.449219 314.878906 289.992188 316.75 288.578125 318.65625 C 287.164062 320.558594 285.796875 322.5 284.480469 324.472656 C 283.164062 326.445312 281.894531 328.449219 280.675781 330.480469 C 279.453125 332.515625 278.285156 334.582031 277.167969 336.671875 C 276.050781 338.765625 274.984375 340.882812 273.96875 343.027344 C 272.953125 345.171875 271.992188 347.339844 271.085938 349.53125 C 270.179688 351.722656 269.324219 353.933594 268.527344 356.167969 C 267.726562 358.402344 266.984375 360.652344 266.292969 362.925781 C 265.605469 365.195312 264.972656 367.480469 264.398438 369.78125 C 263.820312 372.082031 263.300781 374.394531 262.835938 376.722656 C 262.375 379.046875 261.96875 381.386719 261.621094 383.730469 C 261.273438 386.078125 260.984375 388.433594 260.75 390.792969 C 260.519531 393.152344 260.34375 395.519531 260.226562 397.886719 C 260.109375 400.257812 260.050781 402.628906 260.050781 405 C 260.050781 407.371094 260.109375 409.742188 260.226562 412.113281 C 260.34375 414.480469 260.519531 416.847656 260.75 419.207031 C 260.984375 421.566406 261.273438 423.921875 261.621094 426.269531 C 261.96875 428.613281 262.375 430.953125 262.835938 433.277344 C 263.300781 435.605469 263.820312 437.917969 264.398438 440.21875 C 264.972656 442.519531 265.605469 444.804688 266.292969 447.074219 C 266.984375 449.347656 267.726562 451.597656 268.527344 453.832031 C 269.324219 456.066406 270.179688 458.277344 271.085938 460.46875 C 271.992188 462.660156 272.953125 464.828125 273.96875 466.972656 C 274.984375 469.117188 276.050781 471.234375 277.167969 473.328125 C 278.285156 475.417969 279.453125 477.484375 280.675781 479.519531 C 281.894531 481.550781 283.164062 483.554688 284.480469 485.527344 C 285.796875 487.5 287.164062 489.441406 288.578125 491.34375 C 289.992188 493.25 291.449219 495.121094 292.953125 496.953125 C 294.460938 498.789062 296.007812 500.582031 297.601562 502.339844 C 299.195312 504.097656 300.828125 505.816406 302.507812 507.492188 C 304.183594 509.171875 305.902344 510.804688 307.660156 512.398438 C 309.417969 513.992188 311.210938 515.539062 313.046875 517.046875 C 314.878906 518.550781 316.75 520.007812 318.65625 521.421875 C 320.558594 522.835938 322.5 524.203125 324.472656 525.519531 C 326.445312 526.835938 328.449219 528.105469 330.480469 529.324219 C 332.515625 530.546875 334.582031 531.714844 336.671875 532.832031 C 338.765625 533.949219 340.882812 535.015625 343.027344 536.03125 C 345.171875 537.046875 347.339844 538.007812 349.53125 538.914062 C 351.722656 539.820312 353.933594 540.675781 356.167969 541.472656 C 358.402344 542.273438 360.652344 543.015625 362.925781 543.707031 C 365.195312 544.394531 367.480469 545.027344 369.78125 545.601562 C 372.082031 546.179688 374.394531 546.699219 376.722656 547.164062 C 379.046875 547.625 381.386719 548.03125 383.730469 548.378906 C 386.078125 548.726562 388.433594 549.015625 390.792969 549.25 C 393.152344 549.480469 395.519531 549.65625 397.886719 549.773438 C 400.257812 549.890625 402.628906 549.949219 405 549.949219 C 407.371094 549.949219 409.742188 549.890625 412.113281 549.773438 C 414.480469 549.65625 416.847656 549.480469 419.207031 549.25 C 421.566406 549.015625 423.921875 548.726562 426.269531 548.378906 C 428.613281 548.03125 430.953125 547.625 433.277344 547.164062 C 435.605469 546.699219 437.917969 546.179688 440.21875 545.601562 C 442.519531 545.027344 444.804688 544.394531 447.074219 543.707031 C 449.347656 543.015625 451.597656 542.273438 453.832031 541.472656 C 456.066406 540.675781 458.277344 539.820312 460.46875 538.914062 C 462.660156 538.007812 464.828125 537.046875 466.972656 536.03125 C 469.117188 535.015625 471.234375 533.949219 473.328125 532.832031 C 475.417969 531.714844 477.484375 530.546875 479.519531 529.324219 C 481.550781 528.105469 483.554688 526.835938 485.527344 525.519531 C 487.5 524.203125 489.441406 522.835938 491.34375 521.421875 C 493.25 520.007812 495.121094 518.550781 496.953125 517.046875 C 498.789062 515.539062 500.582031 513.992188 502.339844 512.398438 C 504.097656 510.804688 505.816406 509.171875 507.492188 507.492188 C 509.171875 505.816406 510.804688 504.097656 512.398438 502.339844 C 513.992188 500.582031 515.539062 498.789062 517.046875 496.953125 C 518.550781 495.121094 520.007812 493.25 521.421875 491.34375 C 522.835938 489.441406 524.203125 487.5 525.519531 485.527344 C 526.835938 483.554688 528.105469 481.550781 529.324219 479.519531 C 530.546875 477.484375 531.714844 475.417969 532.832031 473.328125 C 533.949219 471.234375 535.015625 469.117188 536.03125 466.972656 C 537.046875 464.828125 538.007812 462.660156 538.914062 460.46875 C 539.820312 458.277344 540.675781 456.066406 541.472656 453.832031 C 542.273438 451.597656 543.015625 449.347656 543.707031 447.074219 C 544.394531 444.804688 545.027344 442.519531 545.601562 440.21875 C 546.179688 437.917969 546.699219 435.605469 547.164062 433.277344 C 547.625 430.953125 548.03125 428.613281 548.378906 426.269531 C 548.726562 423.921875 549.015625 421.566406 549.25 419.207031 C 549.480469 416.847656 549.65625 414.480469 549.773438 412.113281 C 549.890625 409.742188 549.949219 407.371094 549.949219 405 C 549.945312 402.628906 549.882812 400.257812 549.765625 397.890625 C 549.644531 395.523438 549.46875 393.15625 549.234375 390.796875 C 549 388.4375 548.707031 386.085938 548.355469 383.738281 C 548.007812 381.394531 547.597656 379.058594 547.132812 376.734375 C 546.667969 374.410156 546.148438 372.097656 545.570312 369.796875 C 544.992188 367.496094 544.359375 365.210938 543.667969 362.941406 C 542.976562 360.675781 542.234375 358.421875 541.433594 356.191406 C 540.632812 353.960938 539.777344 351.746094 538.867188 349.558594 C 537.960938 347.367188 536.996094 345.199219 535.984375 343.058594 C 534.96875 340.914062 533.902344 338.796875 532.78125 336.707031 C 531.664062 334.613281 530.492188 332.554688 529.273438 330.519531 C 528.054688 328.484375 526.785156 326.484375 525.46875 324.511719 C 524.148438 322.539062 522.785156 320.601562 521.371094 318.699219 C 519.957031 316.792969 518.5 314.925781 516.992188 313.09375 C 515.488281 311.257812 513.941406 309.464844 512.347656 307.707031 C 510.753906 305.949219 509.121094 304.234375 507.445312 302.554688 C 505.765625 300.878906 504.050781 299.246094 502.292969 297.652344 C 500.535156 296.058594 498.742188 294.511719 496.90625 293.007812 C 495.074219 291.5 493.207031 290.042969 491.300781 288.628906 C 489.398438 287.214844 487.460938 285.851562 485.488281 284.53125 C 483.515625 283.214844 481.515625 281.945312 479.480469 280.726562 C 477.445312 279.507812 475.386719 278.335938 473.292969 277.21875 C 471.203125 276.097656 469.085938 275.03125 466.941406 274.015625 C 464.800781 273.003906 462.632812 272.039062 460.441406 271.132812 C 458.253906 270.222656 456.039062 269.367188 453.808594 268.566406 C 451.578125 267.765625 449.324219 267.023438 447.058594 266.332031 C 444.789062 265.640625 442.503906 265.007812 440.203125 264.429688 C 437.902344 263.851562 435.589844 263.332031 433.265625 262.867188 C 430.941406 262.402344 428.605469 261.992188 426.257812 261.644531 C 423.914062 261.292969 421.5625 261 419.203125 260.765625 C 416.84375 260.53125 414.476562 260.355469 412.109375 260.234375 C 409.742188 260.117188 407.371094 260.054688 405 260.050781 Z M 456.15625 464.683594 L 352.820312 464.683594 L 352.820312 481.738281 L 456.15625 481.738281 Z M 350.773438 345.316406 C 350.167969 345.316406 349.566406 345.34375 348.96875 345.40625 C 348.367188 345.464844 347.769531 345.550781 347.179688 345.667969 C 346.589844 345.789062 346.003906 345.933594 345.425781 346.109375 C 344.847656 346.285156 344.28125 346.488281 343.726562 346.71875 C 343.167969 346.949219 342.621094 347.207031 342.089844 347.492188 C 341.558594 347.773438 341.042969 348.085938 340.539062 348.417969 C 340.039062 348.753906 339.554688 349.113281 339.089844 349.496094 C 338.621094 349.878906 338.175781 350.285156 337.75 350.710938 C 337.324219 351.136719 336.917969 351.582031 336.535156 352.050781 C 336.152344 352.515625 335.792969 353 335.460938 353.5 C 335.125 354.003906 334.816406 354.519531 334.53125 355.050781 C 334.246094 355.582031 333.988281 356.128906 333.757812 356.683594 C 333.527344 357.242188 333.324219 357.808594 333.148438 358.386719 C 332.972656 358.964844 332.828125 359.546875 332.710938 360.140625 C 332.59375 360.730469 332.503906 361.328125 332.445312 361.925781 C 332.386719 362.527344 332.355469 363.128906 332.355469 363.734375 C 332.355469 364.335938 332.386719 364.9375 332.445312 365.539062 C 332.503906 366.136719 332.59375 366.734375 332.710938 367.324219 C 332.828125 367.917969 332.972656 368.5 333.148438 369.078125 C 333.324219 369.65625 333.527344 370.222656 333.757812 370.78125 C 333.988281 371.335938 334.246094 371.882812 334.53125 372.414062 C 334.816406 372.945312 335.125 373.464844 335.460938 373.964844 C 335.792969 374.464844 336.152344 374.949219 336.535156 375.417969 C 336.917969 375.882812 337.324219 376.328125 337.75 376.753906 C 338.175781 377.183594 338.621094 377.585938 339.089844 377.96875 C 339.554688 378.351562 340.039062 378.710938 340.539062 379.046875 C 341.042969 379.378906 341.558594 379.691406 342.089844 379.976562 C 342.621094 380.257812 343.167969 380.515625 343.726562 380.746094 C 344.28125 380.976562 344.847656 381.179688 345.425781 381.355469 C 346.003906 381.53125 346.589844 381.679688 347.179688 381.796875 C 347.769531 381.914062 348.367188 382 348.96875 382.0625 C 349.566406 382.121094 350.167969 382.148438 350.773438 382.148438 C 351.375 382.148438 351.976562 382.121094 352.578125 382.0625 C 353.179688 382 353.773438 381.914062 354.367188 381.796875 C 354.957031 381.679688 355.542969 381.53125 356.117188 381.355469 C 356.695312 381.179688 357.261719 380.976562 357.820312 380.746094 C 358.378906 380.515625 358.921875 380.257812 359.453125 379.976562 C 359.984375 379.691406 360.503906 379.378906 361.003906 379.046875 C 361.507812 378.710938 361.988281 378.351562 362.457031 377.96875 C 362.921875 377.585938 363.367188 377.183594 363.796875 376.753906 C 364.222656 376.328125 364.625 375.882812 365.007812 375.417969 C 365.390625 374.949219 365.75 374.464844 366.085938 373.964844 C 366.421875 373.464844 366.730469 372.945312 367.015625 372.414062 C 367.300781 371.882812 367.558594 371.335938 367.789062 370.78125 C 368.019531 370.222656 368.222656 369.65625 368.394531 369.078125 C 368.570312 368.5 368.71875 367.917969 368.835938 367.324219 C 368.953125 366.734375 369.042969 366.136719 369.101562 365.539062 C 369.160156 364.9375 369.191406 364.335938 369.1875 363.734375 C 369.191406 363.128906 369.160156 362.527344 369.101562 361.925781 C 369.042969 361.328125 368.953125 360.730469 368.835938 360.140625 C 368.71875 359.546875 368.570312 358.964844 368.394531 358.386719 C 368.222656 357.808594 368.019531 357.242188 367.789062 356.683594 C 367.558594 356.128906 367.300781 355.582031 367.015625 355.050781 C 366.730469 354.519531 366.421875 354.003906 366.085938 353.5 C 365.75 353 365.390625 352.515625 365.007812 352.050781 C 364.625 351.582031 364.222656 351.136719 363.796875 350.710938 C 363.367188 350.285156 362.921875 349.878906 362.457031 349.496094 C 361.988281 349.113281 361.507812 348.753906 361.003906 348.417969 C 360.503906 348.085938 359.984375 347.773438 359.453125 347.492188 C 358.921875 347.207031 358.378906 346.949219 357.820312 346.71875 C 357.261719 346.488281 356.695312 346.285156 356.117188 346.109375 C 355.542969 345.933594 354.957031 345.789062 354.367188 345.667969 C 353.773438 345.550781 353.179688 345.464844 352.578125 345.40625 C 351.976562 345.34375 351.375 345.316406 350.773438 345.316406 Z M 459.226562 345.316406 C 458.625 345.316406 458.023438 345.34375 457.421875 345.40625 C 456.820312 345.464844 456.226562 345.550781 455.632812 345.667969 C 455.042969 345.789062 454.457031 345.933594 453.882812 346.109375 C 453.304688 346.285156 452.738281 346.488281 452.179688 346.71875 C 451.621094 346.949219 451.078125 347.207031 450.546875 347.492188 C 450.015625 347.773438 449.496094 348.085938 448.996094 348.417969 C 448.492188 348.753906 448.011719 349.113281 447.542969 349.496094 C 447.078125 349.878906 446.632812 350.285156 446.203125 350.710938 C 445.777344 351.136719 445.375 351.582031 444.992188 352.050781 C 444.609375 352.515625 444.25 353 443.914062 353.5 C 443.578125 354.003906 443.269531 354.519531 442.984375 355.050781 C 442.699219 355.582031 442.441406 356.128906 442.210938 356.683594 C 441.980469 357.242188 441.777344 357.808594 441.605469 358.386719 C 441.429688 358.964844 441.28125 359.546875 441.164062 360.140625 C 441.046875 360.730469 440.957031 361.328125 440.898438 361.925781 C 440.839844 362.527344 440.808594 363.128906 440.808594 363.734375 C 440.808594 364.335938 440.839844 364.9375 440.898438 365.539062 C 440.957031 366.136719 441.046875 366.734375 441.164062 367.324219 C 441.28125 367.917969 441.429688 368.5 441.605469 369.078125 C 441.777344 369.65625 441.980469 370.222656 442.210938 370.78125 C 442.441406 371.335938 442.699219 371.882812 442.984375 372.414062 C 443.269531 372.945312 443.578125 373.464844 443.914062 373.964844 C 444.25 374.464844 444.609375 374.949219 444.992188 375.417969 C 445.375 375.882812 445.777344 376.328125 446.203125 376.753906 C 446.632812 377.183594 447.078125 377.585938 447.542969 377.96875 C 448.011719 378.351562 448.492188 378.710938 448.996094 379.046875 C 449.496094 379.378906 450.015625 379.691406 450.546875 379.976562 C 451.078125 380.257812 451.621094 380.515625 452.179688 380.746094 C 452.738281 380.976562 453.304688 381.179688 453.882812 381.355469 C 454.457031 381.53125 455.042969 381.679688 455.632812 381.796875 C 456.226562 381.914062 456.820312 382 457.421875 382.0625 C 458.023438 382.121094 458.625 382.148438 459.226562 382.148438 C 459.832031 382.148438 460.433594 382.121094 461.03125 382.0625 C 461.632812 382 462.230469 381.914062 462.820312 381.796875 C 463.410156 381.679688 463.996094 381.53125 464.574219 381.355469 C 465.152344 381.179688 465.71875 380.976562 466.273438 380.746094 C 466.832031 380.515625 467.378906 380.257812 467.910156 379.976562 C 468.441406 379.691406 468.957031 379.378906 469.460938 379.046875 C 469.960938 378.710938 470.445312 378.351562 470.910156 377.96875 C 471.378906 377.585938 471.824219 377.183594 472.25 376.753906 C 472.675781 376.328125 473.082031 375.882812 473.464844 375.417969 C 473.847656 374.949219 474.207031 374.464844 474.539062 373.964844 C 474.875 373.464844 475.183594 372.945312 475.46875 372.414062 C 475.753906 371.882812 476.011719 371.335938 476.242188 370.78125 C 476.472656 370.222656 476.675781 369.65625 476.851562 369.078125 C 477.027344 368.5 477.171875 367.917969 477.289062 367.324219 C 477.40625 366.734375 477.496094 366.136719 477.554688 365.539062 C 477.613281 364.9375 477.644531 364.335938 477.644531 363.734375 C 477.644531 363.128906 477.613281 362.527344 477.554688 361.925781 C 477.496094 361.328125 477.40625 360.730469 477.289062 360.140625 C 477.171875 359.546875 477.027344 358.964844 476.851562 358.386719 C 476.675781 357.808594 476.472656 357.242188 476.242188 356.683594 C 476.011719 356.128906 475.753906 355.582031 475.46875 355.050781 C 475.183594 354.519531 474.875 354.003906 474.539062 353.5 C 474.207031 353 473.847656 352.515625 473.464844 352.050781 C 473.082031 351.582031 472.675781 351.136719 472.25 350.710938 C 471.824219 350.285156 471.378906 349.878906 470.910156 349.496094 C 470.445312 349.113281 469.960938 348.753906 469.460938 348.417969 C 468.957031 348.085938 468.441406 347.773438 467.910156 347.492188 C 467.378906 347.207031 466.832031 346.949219 466.273438 346.71875 C 465.71875 346.488281 465.152344 346.285156 464.574219 346.109375 C 463.996094 345.933594 463.410156 345.789062 462.820312 345.667969 C 462.230469 345.550781 461.632812 345.464844 461.03125 345.40625 C 460.433594 345.34375 459.832031 345.316406 459.226562 345.316406 Z M 358.789062 325.875 L 346.851562 313.597656 L 311.722656 347.703125 L 323.488281 359.980469 Z M 496.230469 347.875 L 462.125 313.769531 L 450.191406 325.707031 L 484.292969 359.808594 Z M 496.230469 347.875 " fill-opacity="1" fill-rule="nonzero"/></svg>