<svg xmlns="http://www.w3.org/2000/svg" xmlns:xlink="http://www.w3.org/1999/xlink" width="120" zoomAndPan="magnify" viewBox="0 0 90 89.999999" height="120" preserveAspectRatio="xMidYMid meet" version="1.0"><path fill="#ff9999" d="M 45 27 C 35.070312 27 27 35.070312 27 45 C 27 54.929688 35.070312 63 45 63 C 54.929688 63 63 54.929688 63 45 C 63 35.070312 54.929688 27 45 27 Z M 45 61.609375 C 35.839844 61.609375 28.390625 54.160156 28.390625 45 C 28.390625 35.839844 35.839844 28.390625 45 28.390625 C 54.160156 28.390625 61.609375 35.839844 61.609375 45 C 61.609375 54.160156 54.160156 61.609375 45 61.609375 Z M 45 61.609375 " fill-opacity="1" fill-rule="nonzero"/><path fill="#ff9999" d="M 41.207031 36.417969 C 40.988281 35.792969 40.292969 35.453125 39.664062 35.667969 L 36.394531 36.804688 C 35.769531 37.023438 35.429688 37.722656 35.648438 38.347656 C 35.863281 38.972656 36.5625 39.3125 37.1875 39.097656 L 40.457031 37.957031 C 41.082031 37.742188 41.421875 37.050781 41.207031 36.417969 Z M 41.207031 36.417969 " fill-opacity="1" fill-rule="nonzero"/><path fill="#ff9999" d="M 53.609375 36.8125 L 50.34375 35.675781 C 49.714844 35.460938 49.019531 35.792969 48.800781 36.425781 C 48.585938 37.050781 48.917969 37.75 49.550781 37.964844 L 52.820312 39.101562 C 53.445312 39.320312 54.144531 38.988281 54.359375 38.355469 C 54.574219 37.722656 54.238281 37.03125 53.609375 36.8125 Z M 53.609375 36.8125 " fill-opacity="1" fill-rule="nonzero"/><path fill="#ff9999" d="M 50.347656 44.429688 C 49.320312 44.238281 47.554688 44.007812 45 44.007812 C 42.445312 44.007812 40.671875 44.238281 39.652344 44.429688 C 39.066406 44.539062 38.605469 44.847656 38.382812 45.289062 C 38.210938 45.625 38.203125 46.015625 38.367188 46.355469 C 39.296875 48.296875 41.671875 49.558594 44.574219 49.636719 L 44.605469 49.636719 C 44.617188 49.679688 44.640625 49.722656 44.65625 49.757812 C 44.699219 49.859375 44.742188 49.980469 44.804688 50.097656 C 44.828125 50.140625 44.847656 50.183594 44.871094 50.21875 C 45.007812 50.492188 45.289062 51.054688 45.964844 51.0625 C 45.964844 51.0625 45.972656 51.0625 45.972656 51.0625 C 46.527344 51.0625 46.851562 50.667969 47.042969 50.429688 C 47.066406 50.398438 47.089844 50.371094 47.109375 50.347656 C 47.175781 50.277344 47.230469 50.199219 47.289062 50.125 C 47.367188 50.027344 47.449219 49.925781 47.511719 49.859375 C 47.511719 49.875 47.503906 49.890625 47.5 49.902344 C 47.460938 50.019531 47.390625 50.15625 47.320312 50.300781 C 47.226562 50.472656 47.125 50.667969 47.050781 50.890625 C 46.945312 51.214844 46.648438 52.324219 47.320312 53.105469 C 47.714844 53.574219 48.246094 53.828125 48.792969 53.828125 C 48.996094 53.828125 49.199219 53.792969 49.390625 53.726562 C 50.25 53.429688 50.671875 52.421875 50.574219 51.652344 C 50.5 51.121094 50.320312 50.730469 49.9375 50.3125 C 49.773438 50.132812 49.585938 49.816406 49.796875 49.175781 C 49.808594 49.125 49.832031 49.066406 49.84375 49.011719 C 49.953125 48.65625 50.074219 48.253906 50.507812 47.824219 C 50.984375 47.398438 51.378906 46.878906 51.625 46.359375 C 51.78125 46.023438 51.78125 45.632812 51.609375 45.296875 C 51.402344 44.847656 50.941406 44.539062 50.347656 44.429688 Z M 48.945312 52.394531 C 48.664062 52.488281 48.457031 52.285156 48.375 52.191406 C 48.277344 52.070312 48.238281 51.710938 48.375 51.3125 C 48.414062 51.199219 48.484375 51.070312 48.558594 50.925781 C 48.578125 50.890625 48.59375 50.855469 48.613281 50.816406 C 48.695312 50.960938 48.792969 51.097656 48.910156 51.226562 C 49.097656 51.4375 49.160156 51.566406 49.199219 51.820312 C 49.226562 52.054688 49.074219 52.351562 48.945312 52.394531 Z M 49.570312 46.785156 L 49.542969 46.8125 C 48.867188 47.492188 48.652344 48.175781 48.527344 48.585938 C 48.511719 48.621094 48.507812 48.664062 48.492188 48.699219 C 48.425781 48.644531 48.363281 48.59375 48.289062 48.542969 C 47.765625 48.21875 47.089844 48.421875 46.671875 48.742188 C 46.460938 48.910156 46.308594 49.105469 46.179688 49.269531 C 46.136719 49.328125 46.09375 49.386719 46.042969 49.433594 C 46.035156 49.441406 46.035156 49.441406 46.03125 49.449219 C 46.023438 49.433594 46.015625 49.421875 46.007812 49.40625 C 45.992188 49.378906 45.964844 49.304688 45.9375 49.242188 C 45.828125 48.960938 45.621094 48.425781 45.027344 48.261719 L 44.933594 48.234375 L 44.589844 48.234375 C 42.320312 48.167969 40.414062 47.246094 39.671875 45.871094 C 39.722656 45.84375 39.789062 45.8125 39.886719 45.800781 C 40.859375 45.621094 42.53125 45.402344 44.984375 45.402344 C 47.441406 45.402344 49.109375 45.621094 50.082031 45.800781 C 50.183594 45.820312 50.257812 45.847656 50.300781 45.871094 C 50.140625 46.1875 49.875 46.511719 49.570312 46.785156 Z M 49.570312 46.785156 " fill-opacity="1" fill-rule="nonzero"/></svg>