<svg xmlns="http://www.w3.org/2000/svg" xmlns:xlink="http://www.w3.org/1999/xlink" width="120" zoomAndPan="magnify" viewBox="0 0 90 89.999999" height="120" preserveAspectRatio="xMidYMid meet" version="1.0"><path fill="#ff9999" d="M 45 47.554688 C 42.40625 47.554688 40.046875 48.980469 38.84375 51.285156 C 38.664062 51.625 38.800781 52.050781 39.140625 52.230469 C 39.476562 52.410156 39.902344 52.273438 40.082031 51.933594 C 41.046875 50.097656 42.933594 48.953125 45 48.953125 C 47.074219 48.953125 48.960938 50.097656 49.917969 51.933594 C 50.039062 52.171875 50.285156 52.308594 50.535156 52.308594 C 50.644531 52.308594 50.753906 52.277344 50.859375 52.230469 C 51.199219 52.050781 51.335938 51.632812 51.15625 51.285156 C 49.953125 48.988281 47.59375 47.554688 45 47.554688 Z M 45 47.554688 " fill-opacity="1" fill-rule="nonzero"/><path fill="#ff9999" d="M 45 27 C 35.070312 27 27 35.070312 27 45 C 27 54.929688 35.070312 63 45 63 C 54.929688 63 63 54.929688 63 45 C 63 35.070312 54.929688 27 45 27 Z M 45 61.609375 C 35.839844 61.609375 28.390625 54.160156 28.390625 45 C 28.390625 35.839844 35.839844 28.390625 45 28.390625 C 54.160156 28.390625 61.609375 35.839844 61.609375 45 C 61.609375 54.160156 54.160156 61.609375 45 61.609375 Z M 45 61.609375 " fill-opacity="1" fill-rule="nonzero"/><path fill="#ff9999" d="M 39.636719 41.710938 C 40.304688 41.710938 40.84375 41.164062 40.84375 40.5 L 40.84375 37.035156 C 40.84375 36.367188 40.296875 35.828125 39.636719 35.828125 C 38.972656 35.828125 38.425781 36.375 38.425781 37.035156 L 38.425781 40.5 C 38.425781 41.167969 38.964844 41.710938 39.636719 41.710938 Z M 39.636719 41.710938 " fill-opacity="1" fill-rule="nonzero"/><path fill="#ff9999" d="M 50.363281 35.828125 C 49.695312 35.828125 49.15625 36.375 49.15625 37.035156 L 49.15625 40.5 C 49.15625 41.167969 49.703125 41.710938 50.363281 41.710938 C 51.027344 41.710938 51.574219 41.164062 51.574219 40.5 L 51.574219 37.035156 C 51.574219 36.375 51.035156 35.828125 50.363281 35.828125 Z M 50.363281 35.828125 " fill-opacity="1" fill-rule="nonzero"/><path fill="#ff9999" d="M 37.632812 41.808594 L 36.957031 41.796875 C 36.847656 41.796875 34.34375 41.765625 32.507812 42.824219 C 31.199219 43.582031 30.3125 44.761719 30.152344 45.980469 C 30.03125 46.894531 30.332031 47.765625 31.011719 48.433594 C 31.585938 49.011719 32.304688 49.3125 33.078125 49.3125 C 33.207031 49.3125 33.335938 49.304688 33.464844 49.285156 C 34.683594 49.125 35.855469 48.238281 36.621094 46.929688 C 37.675781 45.085938 37.648438 42.582031 37.648438 42.480469 Z M 35.410156 46.238281 C 34.875 47.167969 34.0625 47.800781 33.285156 47.910156 C 32.796875 47.972656 32.363281 47.824219 31.996094 47.449219 C 31.628906 47.082031 31.472656 46.648438 31.535156 46.160156 C 31.636719 45.382812 32.277344 44.566406 33.207031 44.035156 C 34.179688 43.472656 35.445312 43.285156 36.222656 43.222656 C 36.160156 44.007812 35.972656 45.265625 35.410156 46.238281 Z M 35.410156 46.238281 " fill-opacity="1" fill-rule="nonzero"/></svg>