<svg xmlns="http://www.w3.org/2000/svg" xmlns:xlink="http://www.w3.org/1999/xlink" width="1080" zoomAndPan="magnify" viewBox="0 0 810 809.999993" height="1080" preserveAspectRatio="xMidYMid meet" version="1.0"><path fill="#ffffff" d="M 567 405 C 567 315.53125 494.46875 243 405 243 C 315.53125 243 243 315.53125 243 405 C 243 494.46875 315.53125 567 405 567 C 494.46875 567 567 494.46875 567 405 Z M 556.199219 405 C 556.199219 488.503906 488.503906 556.199219 405 556.199219 C 321.496094 556.199219 253.800781 488.503906 253.800781 405 C 253.800781 321.496094 321.496094 253.800781 405 253.800781 C 488.503906 253.800781 556.199219 321.496094 556.199219 405 " fill-opacity="1" fill-rule="nonzero"/><path fill="#ffffff" d="M 482.085938 350.792969 C 484.953125 349.972656 486.609375 346.984375 485.792969 344.117188 C 484.972656 341.25 481.984375 339.589844 479.117188 340.410156 L 441.316406 351.207031 C 436.09375 352.699219 436.09375 360.101562 441.316406 361.59375 L 479.117188 372.394531 C 481.984375 373.210938 484.972656 371.550781 485.792969 368.683594 C 486.609375 365.816406 484.953125 362.828125 482.085938 362.007812 L 462.457031 356.398438 L 482.085938 350.792969 " fill-opacity="1" fill-rule="nonzero"/><path fill="#ffffff" d="M 327.914062 362.007812 C 325.046875 362.828125 323.390625 365.816406 324.207031 368.683594 C 325.027344 371.550781 328.015625 373.210938 330.882812 372.394531 L 368.683594 361.59375 C 373.90625 360.101562 373.90625 352.699219 368.683594 351.207031 L 330.882812 340.410156 C 328.015625 339.589844 325.027344 341.25 324.207031 344.117188 C 323.390625 346.984375 325.046875 349.972656 327.914062 350.792969 L 347.542969 356.398438 L 327.914062 362.007812 " fill-opacity="1" fill-rule="nonzero"/><path fill="#ffffff" d="M 358.265625 462.304688 C 380.332031 430.382812 424.007812 422.414062 455.929688 444.476562 C 458.382812 446.171875 461.746094 445.558594 463.441406 443.105469 C 465.136719 440.652344 464.523438 437.289062 462.070312 435.59375 C 425.238281 410.136719 374.835938 419.335938 349.382812 456.167969 C 347.6875 458.617188 348.300781 461.984375 350.753906 463.679688 C 353.207031 465.375 356.570312 464.761719 358.265625 462.304688 " fill-opacity="1" fill-rule="nonzero"/><path fill="#ffffff" d="M 335.890625 324.453125 C 342.96875 322.992188 350.324219 325.128906 355.535156 330.339844 C 357.640625 332.453125 361.0625 332.453125 363.171875 330.34375 C 365.28125 328.238281 365.28125 324.816406 363.171875 322.707031 C 355.371094 314.898438 344.3125 311.691406 333.710938 313.875 C 330.789062 314.476562 328.910156 317.332031 329.511719 320.253906 C 330.113281 323.175781 332.96875 325.054688 335.890625 324.453125 " fill-opacity="1" fill-rule="nonzero"/><path fill="#ffffff" d="M 454.527344 330.332031 C 459.722656 325.136719 467.0625 323 474.128906 324.433594 C 477.050781 325.027344 479.902344 323.140625 480.496094 320.21875 C 481.089844 317.296875 479.203125 314.445312 476.277344 313.851562 C 465.699219 311.703125 454.671875 314.910156 446.890625 322.695312 C 444.78125 324.804688 444.78125 328.222656 446.890625 330.332031 C 449 332.441406 452.417969 332.441406 454.527344 330.332031 " fill-opacity="1" fill-rule="nonzero"/></svg>