<svg xmlns="http://www.w3.org/2000/svg" xmlns:xlink="http://www.w3.org/1999/xlink" width="120" zoomAndPan="magnify" viewBox="0 0 90 89.999999" height="120" preserveAspectRatio="xMidYMid meet" version="1.0"><defs><clipPath id="id1"><path d="M 27.382812 27 L 62.632812 27 L 62.632812 63 L 27.382812 63 Z M 27.382812 27 " clip-rule="nonzero"/></clipPath></defs><g clip-path="url(#id1)"><path fill="#ff9999" d="M 45.007812 27 C 35.300781 27 27.417969 34.878906 27.417969 44.578125 C 27.417969 47.453125 28.109375 50.171875 29.335938 52.570312 C 29.410156 52.71875 29.523438 52.832031 29.675781 52.90625 C 30.148438 55.140625 30.511719 58.160156 30.511719 62.160156 C 30.511719 62.371094 30.582031 62.554688 30.734375 62.707031 C 30.882812 62.859375 31.0625 62.933594 31.277344 62.933594 C 31.492188 62.933594 31.671875 62.859375 31.824219 62.707031 C 31.972656 62.554688 32.046875 62.371094 32.042969 62.160156 C 32.042969 56.660156 31.367188 52.90625 30.628906 50.4375 C 30.207031 49.027344 31.269531 47.636719 32.753906 47.636719 C 33.253906 47.636719 33.726562 47.792969 34.089844 48.082031 C 35.429688 49.15625 38.125 52.472656 38.125 62.160156 C 38.121094 62.371094 38.195312 62.554688 38.34375 62.707031 C 38.492188 62.859375 38.675781 62.933594 38.890625 62.933594 C 39.101562 62.933594 39.285156 62.859375 39.433594 62.707031 C 39.582031 62.554688 39.65625 62.371094 39.652344 62.160156 C 39.652344 61.863281 39.644531 61.59375 39.640625 61.308594 C 41.332031 61.851562 43.132812 62.160156 45.007812 62.160156 C 46.867188 62.160156 48.65625 61.855469 50.34375 61.320312 C 50.339844 61.601562 50.328125 61.867188 50.328125 62.160156 C 50.324219 62.371094 50.398438 62.554688 50.546875 62.707031 C 50.699219 62.859375 50.878906 62.933594 51.09375 62.933594 C 51.308594 62.933594 51.488281 62.859375 51.636719 62.707031 C 51.789062 62.554688 51.859375 62.371094 51.859375 62.160156 C 51.859375 61.539062 51.867188 60.945312 51.890625 60.378906 C 51.902344 60.316406 51.902344 60.253906 51.898438 60.191406 C 52.238281 52.019531 54.648438 49.082031 55.894531 48.082031 C 56.257812 47.792969 56.730469 47.636719 57.226562 47.636719 C 58.710938 47.636719 59.777344 49.027344 59.355469 50.4375 C 58.617188 52.90625 57.941406 56.660156 57.941406 62.160156 C 57.9375 62.371094 58.011719 62.554688 58.160156 62.707031 C 58.3125 62.859375 58.492188 62.933594 58.707031 62.933594 C 58.917969 62.933594 59.101562 62.859375 59.25 62.707031 C 59.398438 62.554688 59.472656 62.371094 59.472656 62.160156 C 59.472656 58.460938 59.785156 55.613281 60.207031 53.4375 C 61.726562 50.835938 62.597656 47.808594 62.597656 44.578125 C 62.597656 34.878906 54.714844 27 45.007812 27 Z M 45.007812 28.527344 C 53.886719 28.527344 61.070312 35.707031 61.070312 44.578125 C 61.070312 45.859375 60.910156 47.101562 60.628906 48.296875 C 60.039062 47.03125 58.753906 46.109375 57.226562 46.109375 C 56.414062 46.109375 55.597656 46.363281 54.9375 46.890625 C 53.324219 48.183594 50.824219 51.542969 50.398438 59.6875 C 48.714844 60.289062 46.902344 60.628906 45.007812 60.628906 C 43.101562 60.628906 41.277344 60.285156 39.582031 59.675781 C 39.152344 51.539062 36.660156 48.183594 35.046875 46.890625 C 34.386719 46.363281 33.570312 46.109375 32.753906 46.109375 C 31.242188 46.109375 29.96875 47.015625 29.375 48.261719 C 29.09375 47.078125 28.945312 45.847656 28.945312 44.578125 C 28.945312 35.707031 36.128906 28.527344 45.007812 28.527344 Z M 39.652344 36.171875 C 38.597656 36.171875 37.742188 37.539062 37.742188 39.230469 C 37.742188 40.917969 38.597656 42.285156 39.652344 42.285156 C 40.710938 42.285156 41.566406 40.917969 41.566406 39.230469 C 41.566406 37.539062 40.710938 36.171875 39.652344 36.171875 Z M 50.363281 36.171875 C 49.304688 36.171875 48.449219 37.539062 48.449219 39.230469 C 48.449219 40.917969 49.304688 42.285156 50.363281 42.285156 C 51.417969 42.285156 52.273438 40.917969 52.273438 39.230469 C 52.273438 37.539062 51.417969 36.171875 50.363281 36.171875 Z M 45.007812 43.816406 C 43.464844 43.816406 42.234375 44.675781 41.492188 45.84375 C 40.753906 47.007812 40.417969 48.472656 40.417969 49.929688 C 40.417969 51.390625 40.753906 52.851562 41.492188 54.015625 C 42.234375 55.183594 43.464844 56.042969 45.007812 56.042969 C 46.351562 56.042969 47.535156 55.277344 48.335938 54.15625 C 49.132812 53.039062 49.597656 51.554688 49.597656 49.929688 C 49.597656 48.304688 49.132812 46.820312 48.335938 45.703125 C 47.535156 44.585938 46.351562 43.816406 45.007812 43.816406 Z M 45.007812 45.34375 C 45.773438 45.34375 46.503906 45.773438 47.089844 46.589844 C 47.675781 47.410156 48.066406 48.601562 48.066406 49.929688 C 48.066406 51.261719 47.675781 52.449219 47.089844 53.269531 C 46.503906 54.089844 45.773438 54.515625 45.007812 54.515625 C 44 54.515625 43.320312 54.039062 42.785156 53.199219 C 42.25 52.359375 41.949219 51.144531 41.949219 49.929688 C 41.949219 48.714844 42.25 47.5 42.785156 46.660156 C 43.320312 45.820312 44 45.34375 45.007812 45.34375 Z M 45.007812 45.34375 " fill-opacity="1" fill-rule="nonzero"/></g></svg>