<svg xmlns="http://www.w3.org/2000/svg" xmlns:xlink="http://www.w3.org/1999/xlink" width="120" zoomAndPan="magnify" viewBox="0 0 90 89.999999" height="120" preserveAspectRatio="xMidYMid meet" version="1.0"><defs><clipPath id="id1"><path d="M 27 27 L 63 27 L 63 63 L 27 63 Z M 27 27 " clip-rule="nonzero"/></clipPath></defs><g clip-path="url(#id1)"><path fill="#ff9999" d="M 45.003906 63 C 35.242188 63 27 54.460938 27 44.355469 C 27 34.621094 34.90625 26.996094 45.003906 26.996094 C 55.097656 26.996094 63.003906 34.621094 63.003906 44.355469 C 63.003906 54.460938 54.761719 63 45.003906 63 Z M 45.003906 28.238281 C 35.605469 28.238281 28.242188 35.316406 28.242188 44.355469 C 28.242188 53.789062 35.917969 61.757812 45.003906 61.757812 C 54.085938 61.757812 61.761719 53.789062 61.761719 44.355469 C 61.761719 35.316406 54.402344 28.238281 45.003906 28.238281 Z M 45.003906 28.238281 " fill-opacity="1" fill-rule="nonzero"/></g><path fill="#ff9999" d="M 45.003906 46.238281 C 41.921875 46.238281 39.414062 48.746094 39.414062 51.828125 C 39.414062 52.167969 39.691406 52.445312 40.035156 52.445312 L 49.96875 52.445312 C 50.3125 52.445312 50.589844 52.167969 50.589844 51.828125 C 50.589844 48.746094 48.082031 46.238281 45.003906 46.238281 Z M 42.519531 51.207031 C 42.519531 49.835938 43.628906 48.722656 45.003906 48.722656 C 46.375 48.722656 47.484375 49.835938 47.484375 51.207031 Z M 42.519531 51.207031 " fill-opacity="1" fill-rule="nonzero"/><path fill="#ff9999" d="M 40.65625 40.652344 C 40.65625 41.679688 39.824219 42.515625 38.792969 42.515625 C 37.765625 42.515625 36.933594 41.679688 36.933594 40.652344 C 36.933594 39.625 37.765625 38.789062 38.792969 38.789062 C 39.824219 38.789062 40.65625 39.625 40.65625 40.652344 Z M 40.65625 40.652344 " fill-opacity="1" fill-rule="nonzero"/><path fill="#ff9999" d="M 53.070312 40.652344 C 53.070312 41.679688 52.238281 42.515625 51.210938 42.515625 C 50.179688 42.515625 49.347656 41.679688 49.347656 40.652344 C 49.347656 39.625 50.179688 38.789062 51.210938 38.789062 C 52.238281 38.789062 53.070312 39.625 53.070312 40.652344 Z M 53.070312 40.652344 " fill-opacity="1" fill-rule="nonzero"/><path fill="#ff9999" d="M 51.210938 40.03125 L 46.242188 40.03125 C 45.902344 40.03125 45.621094 39.753906 45.621094 39.410156 C 45.621094 39.066406 45.902344 38.789062 46.242188 38.789062 L 51.210938 38.789062 C 51.550781 38.789062 51.832031 39.066406 51.832031 39.410156 C 51.832031 39.753906 51.550781 40.03125 51.210938 40.03125 Z M 51.210938 40.03125 " fill-opacity="1" fill-rule="nonzero"/><path fill="#ff9999" d="M 38.792969 40.03125 L 33.828125 40.03125 C 33.484375 40.03125 33.207031 39.753906 33.207031 39.410156 C 33.207031 39.066406 33.484375 38.789062 33.828125 38.789062 L 38.792969 38.789062 C 39.136719 38.789062 39.414062 39.066406 39.414062 39.410156 C 39.414062 39.753906 39.136719 40.03125 38.792969 40.03125 Z M 38.792969 40.03125 " fill-opacity="1" fill-rule="nonzero"/></svg>