<svg xmlns="http://www.w3.org/2000/svg" xmlns:xlink="http://www.w3.org/1999/xlink" width="120" zoomAndPan="magnify" viewBox="0 0 90 89.999999" height="120" preserveAspectRatio="xMidYMid meet" version="1.0"><path fill="#ff9999" d="M 45 27 C 35.074219 27 27 35.074219 27 45 C 27 54.925781 35.074219 63 45 63 C 54.925781 63 63 54.925781 63 45 C 63 35.074219 54.925781 27 45 27 Z M 45 61.5 C 35.902344 61.5 28.5 54.097656 28.5 45 C 28.5 35.902344 35.902344 28.5 45 28.5 C 54.097656 28.5 61.5 35.902344 61.5 45 C 61.5 54.097656 54.097656 61.5 45 61.5 Z M 45 61.5 " fill-opacity="1" fill-rule="nonzero"/><path fill="#ff9999" d="M 54.660156 48.03125 C 54.253906 47.933594 53.851562 48.183594 53.757812 48.585938 C 52.789062 52.65625 49.1875 55.5 45 55.5 C 40.804688 55.5 37.203125 52.652344 36.242188 48.578125 C 36.144531 48.171875 35.738281 47.929688 35.339844 48.019531 C 34.933594 48.113281 34.683594 48.519531 34.78125 48.921875 C 35.902344 53.679688 40.105469 57 45 57 C 49.886719 57 54.089844 53.683594 55.214844 48.933594 C 55.3125 48.53125 55.0625 48.125 54.660156 48.03125 Z M 54.660156 48.03125 " fill-opacity="1" fill-rule="nonzero"/><path fill="#ff9999" d="M 40.5 40.5 C 40.5 41.328125 39.828125 42 39 42 C 38.171875 42 37.5 41.328125 37.5 40.5 C 37.5 39.671875 38.171875 39 39 39 C 39.828125 39 40.5 39.671875 40.5 40.5 Z M 40.5 40.5 " fill-opacity="1" fill-rule="nonzero"/><path fill="#ff9999" d="M 52.5 40.5 C 52.5 41.328125 51.828125 42 51 42 C 50.171875 42 49.5 41.328125 49.5 40.5 C 49.5 39.671875 50.171875 39 51 39 C 51.828125 39 52.5 39.671875 52.5 40.5 Z M 52.5 40.5 " fill-opacity="1" fill-rule="nonzero"/></svg>