<svg xmlns="http://www.w3.org/2000/svg" xmlns:xlink="http://www.w3.org/1999/xlink" width="1080" zoomAndPan="magnify" viewBox="0 0 810 809.999993" height="1080" preserveAspectRatio="xMidYMid meet" version="1.0"><defs><clipPath id="id1"><path d="M 243 294 L 567 294 L 567 516.867188 L 243 516.867188 Z M 243 294 " clip-rule="nonzero"/></clipPath></defs><g clip-path="url(#id1)"><path fill="#ffffff" d="M 424.566406 510.539062 C 431.445312 511.339844 437.980469 511.035156 444.453125 510.105469 C 479.757812 505.03125 508.34375 487.703125 531.886719 461.484375 C 545.105469 446.765625 554.785156 429.957031 560.183594 410.808594 C 561.238281 407.058594 562.003906 403.246094 562.671875 399.40625 C 562.898438 398.117188 562.550781 397.804688 561.363281 397.617188 C 551.433594 396.054688 541.480469 396.144531 531.550781 397.398438 C 510.253906 400.089844 490.285156 406.84375 471.65625 417.519531 C 462.402344 422.820312 453.847656 429.058594 446.34375 436.695312 C 445.285156 437.769531 444.796875 438.898438 444.625 440.402344 C 442.1875 461.773438 436.09375 481.828125 423.117188 499.339844 C 418.777344 505.199219 413.832031 510.496094 407.945312 514.859375 C 405.296875 516.824219 404.640625 516.863281 402.039062 514.871094 C 390.027344 505.675781 381.699219 493.660156 375.601562 479.988281 C 369.90625 467.222656 366.722656 453.78125 365.285156 439.90625 C 365.164062 438.707031 364.695312 437.816406 363.875 436.976562 C 353.566406 426.410156 341.375 418.558594 328.175781 412.171875 C 313.273438 404.960938 297.621094 400.121094 281.242188 397.761719 C 270.394531 396.199219 259.507812 395.90625 248.625 397.617188 C 247.480469 397.796875 247.066406 398.042969 247.285156 399.378906 C 250.464844 418.972656 258.648438 436.386719 270.46875 452.125 C 287.925781 475.363281 310.132812 492.480469 337.292969 502.96875 C 350.492188 508.066406 364.164062 510.90625 378.359375 510.960938 C 379.421875 510.964844 380.484375 510.925781 381.542969 510.867188 C 382.710938 510.804688 383.875 510.699219 385.402344 510.585938 C 384.648438 509.648438 384.078125 508.878906 383.445312 508.160156 C 375.945312 499.617188 367.484375 492.066406 358.941406 484.617188 C 339.757812 467.902344 319.886719 452.046875 299.066406 437.410156 C 294.582031 434.257812 290.050781 431.171875 285.296875 428.425781 C 283.589844 427.441406 283.070312 426.3125 283.761719 425.191406 C 284.429688 424.105469 285.730469 424.039062 287.332031 425.054688 C 299.394531 432.703125 310.933594 441.101562 322.261719 449.792969 C 340.714844 463.957031 358.628906 478.769531 375.550781 494.753906 C 380.1875 499.132812 384.773438 503.570312 388.671875 508.644531 C 389.609375 509.871094 391.058594 511.097656 390.320312 512.859375 C 389.570312 514.660156 387.699219 514.132812 386.246094 514.246094 C 360.140625 516.246094 336.316406 508.980469 314.070312 495.9375 C 287.886719 480.585938 267.578125 459.539062 253.953125 432.246094 C 248.785156 421.886719 245.332031 410.96875 243.574219 399.515625 C 243.492188 398.992188 243.460938 398.460938 243.429688 397.929688 C 243.277344 395.339844 243.660156 394.804688 246.164062 394.3125 C 254.796875 392.613281 263.523438 392.410156 272.246094 393.078125 C 294.953125 394.816406 316.253906 401.410156 336.308594 412.121094 C 346.070312 417.335938 355.144531 423.566406 363.257812 431.144531 C 363.574219 431.441406 363.8125 431.917969 364.511719 431.882812 C 364.511719 431.203125 364.5625 430.519531 364.503906 429.84375 C 364.214844 426.425781 364.050781 422.984375 364.308594 419.574219 C 364.570312 416.109375 363.566406 413.214844 361.878906 410.242188 C 354.246094 396.808594 346.359375 383.535156 338.011719 370.535156 C 337.695312 370.042969 337.359375 369.53125 337.195312 368.984375 C 336.949219 368.171875 337.238281 367.453125 337.964844 366.992188 C 338.699219 366.53125 339.453125 366.613281 340.078125 367.199219 C 340.457031 367.554688 340.757812 368.007812 341.046875 368.445312 C 349.007812 380.574219 356.367188 393.070312 363.558594 405.671875 C 363.839844 406.167969 364.125 406.664062 364.660156 407.597656 C 365 404.34375 365.277344 401.574219 365.578125 398.808594 C 367.355469 382.441406 371.0625 366.503906 376.316406 350.917969 C 382.824219 331.617188 391.515625 313.351562 402.402344 296.136719 C 404.144531 293.378906 405.824219 293.375 407.554688 296.128906 C 425.1875 324.210938 437.175781 354.492188 442.796875 387.226562 C 443.867188 393.449219 444.667969 399.71875 445.074219 406.027344 C 445.09375 406.371094 445.148438 406.714844 445.207031 407.234375 C 445.917969 406.820312 446.097656 406.207031 446.382812 405.699219 C 453.570312 393.097656 460.933594 380.605469 468.894531 368.472656 C 469.183594 368.035156 469.480469 367.578125 469.855469 367.21875 C 470.472656 366.628906 471.230469 366.519531 471.964844 366.976562 C 472.757812 367.46875 473.050781 368.242188 472.726562 369.121094 C 472.507812 369.71875 472.140625 370.269531 471.789062 370.8125 C 462.960938 384.484375 454.671875 398.480469 446.75 412.699219 C 445.976562 414.082031 445.605469 415.449219 445.648438 417.054688 C 445.765625 421.246094 445.804688 425.441406 445.464844 429.628906 C 445.40625 430.367188 445.457031 431.117188 445.457031 431.824219 C 445.910156 432.007812 446.09375 431.71875 446.289062 431.535156 C 460.664062 418.117188 477.523438 408.894531 495.859375 402.214844 C 511.53125 396.503906 527.679688 393.128906 544.394531 392.792969 C 550.949219 392.660156 557.484375 393.035156 563.933594 394.335938 C 566.230469 394.800781 566.75 395.363281 566.527344 397.714844 C 565.957031 403.726562 564.554688 409.574219 562.75 415.324219 C 556.480469 435.289062 545.578125 452.511719 531.351562 467.667969 C 514.105469 486.046875 493.6875 499.683594 469.84375 508 C 456.472656 512.660156 442.707031 515.015625 428.515625 514.578125 C 426.394531 514.511719 424.273438 514.324219 422.160156 514.148438 C 419.382812 513.921875 418.664062 512.480469 420.234375 510.109375 C 422.457031 506.742188 425.25 503.84375 428.066406 500.984375 C 439.027344 489.878906 450.804688 479.667969 462.789062 469.703125 C 480.625 454.871094 498.929688 440.664062 518.292969 427.859375 C 519.867188 426.816406 521.457031 425.804688 523.054688 424.800781 C 524.179688 424.09375 525.363281 423.949219 526.148438 425.183594 C 526.953125 426.441406 526.257812 427.445312 525.140625 428.140625 C 498.035156 445.070312 473.425781 465.277344 449.320312 486.132812 C 441.375 493.007812 433.601562 500.089844 426.652344 508.007812 C 425.996094 508.757812 425.382812 509.542969 424.566406 510.539062 Z M 406.484375 511.195312 C 407.050781 510.78125 407.292969 510.621094 407.515625 510.4375 C 414.082031 505.097656 419.457031 498.707031 423.964844 491.578125 C 433.980469 475.75 438.933594 458.222656 441.003906 439.789062 C 443.109375 421.042969 441.933594 402.410156 438.429688 383.917969 C 433.246094 356.558594 423.53125 330.875 409.625 306.773438 C 408.167969 304.242188 406.640625 301.753906 405.140625 299.234375 C 404.863281 299.410156 404.746094 299.449219 404.6875 299.535156 C 404.480469 299.820312 404.289062 300.117188 404.105469 300.421875 C 382.78125 335.574219 369.835938 373.378906 368.113281 414.710938 C 367.355469 432.789062 369.292969 450.550781 374.917969 467.804688 C 379.683594 482.421875 386.9375 495.59375 397.980469 506.46875 C 399.417969 507.886719 400.863281 509.320312 402.820312 510.59375 C 402.820312 509.617188 402.820312 508.925781 402.820312 508.238281 C 402.820312 457.730469 402.820312 407.226562 402.820312 356.71875 C 402.820312 356.011719 402.785156 355.289062 402.917969 354.601562 C 403.109375 353.605469 403.8125 353.070312 404.832031 353.15625 C 405.761719 353.234375 406.351562 353.792969 406.429688 354.75 C 406.492188 355.511719 406.480469 356.285156 406.480469 357.050781 C 406.484375 407.617188 406.484375 458.179688 406.484375 508.746094 C 406.484375 509.4375 406.484375 510.128906 406.484375 511.195312 Z M 310.085938 390.507812 C 310.476562 392.707031 310.992188 394.890625 311.558594 397.058594 C 311.851562 398.175781 312.609375 398.988281 313.898438 398.667969 C 315.199219 398.347656 315.398438 397.324219 315.164062 396.15625 C 315.09375 395.808594 315.019531 395.464844 314.925781 395.121094 C 313.46875 389.742188 312.789062 384.242188 312.632812 378.6875 C 312.234375 364.375 314.675781 350.507812 319.351562 337.007812 C 320.480469 333.738281 320.523438 333.625 323.949219 334.285156 C 339.597656 337.3125 354.195312 343.0625 367.753906 351.445312 C 368.503906 351.910156 369.179688 352.515625 369.960938 352.90625 C 370.816406 353.332031 371.730469 353.265625 372.332031 352.40625 C 372.917969 351.566406 372.769531 350.691406 372.046875 350 C 371.496094 349.476562 370.867188 349.023438 370.230469 348.601562 C 362.300781 343.292969 353.621094 339.515625 344.714844 336.230469 C 337.300781 333.492188 329.785156 331.125 321.859375 330.363281 C 318.6875 330.054688 317.730469 330.546875 316.761719 333.152344 C 311.703125 346.761719 308.9375 360.800781 308.890625 377.34375 C 308.820312 380.4375 309.199219 385.496094 310.085938 390.507812 Z M 500.257812 362.058594 C 499.058594 351.941406 496.589844 342.140625 493.007812 332.609375 C 492.371094 330.914062 491.179688 330.199219 489.464844 330.304688 C 487.878906 330.40625 486.285156 330.53125 484.722656 330.789062 C 474.191406 332.542969 464.285156 336.269531 454.578125 340.5625 C 448.972656 343.039062 443.507812 345.808594 438.53125 349.4375 C 437.488281 350.199219 436.757812 351.199219 437.671875 352.429688 C 438.511719 353.5625 439.640625 353.246094 440.652344 352.535156 C 448.960938 346.683594 458.21875 342.753906 467.683594 339.296875 C 473.992188 336.992188 480.410156 335.050781 487.105469 334.128906 C 488.960938 333.875 489.746094 334.390625 490.378906 336.203125 C 493.359375 344.75 495.457031 353.5 496.570312 362.472656 C 497.660156 371.296875 497.816406 380.132812 496.316406 388.9375 C 495.898438 391.371094 495.296875 393.777344 494.785156 396.195312 C 494.554688 397.292969 494.765625 398.277344 495.925781 398.640625 C 497.175781 399.027344 497.949219 398.316406 498.359375 397.183594 C 498.558594 396.632812 498.683594 396.050781 498.828125 395.480469 C 500.457031 388.914062 501.128906 382.242188 501.03125 375.328125 C 501.117188 370.988281 500.785156 366.519531 500.257812 362.058594 Z M 500.257812 362.058594 " fill-opacity="1" fill-rule="nonzero"/><path fill="#ffffff" d="M 424.566406 510.539062 C 431.445312 511.339844 437.980469 511.035156 444.453125 510.105469 C 479.757812 505.03125 508.34375 487.703125 531.886719 461.484375 C 545.105469 446.765625 554.785156 429.957031 560.183594 410.808594 C 561.238281 407.058594 562.003906 403.246094 562.671875 399.40625 C 562.898438 398.117188 562.550781 397.804688 561.363281 397.617188 C 551.433594 396.054688 541.480469 396.144531 531.550781 397.398438 C 510.253906 400.089844 490.285156 406.84375 471.65625 417.519531 C 462.402344 422.820312 453.847656 429.058594 446.34375 436.695312 C 445.285156 437.769531 444.796875 438.898438 444.625 440.402344 C 442.1875 461.773438 436.09375 481.828125 423.117188 499.339844 C 418.777344 505.199219 413.832031 510.496094 407.945312 514.859375 C 405.296875 516.824219 404.640625 516.863281 402.039062 514.871094 C 390.027344 505.675781 381.699219 493.660156 375.601562 479.988281 C 369.90625 467.222656 366.722656 453.78125 365.285156 439.90625 C 365.164062 438.707031 364.695312 437.816406 363.875 436.976562 C 353.566406 426.410156 341.375 418.558594 328.175781 412.171875 C 313.273438 404.960938 297.621094 400.121094 281.242188 397.761719 C 270.394531 396.199219 259.507812 395.90625 248.625 397.617188 C 247.480469 397.796875 247.066406 398.042969 247.285156 399.378906 C 250.464844 418.972656 258.648438 436.386719 270.46875 452.125 C 287.925781 475.363281 310.132812 492.480469 337.292969 502.96875 C 350.492188 508.066406 364.164062 510.90625 378.359375 510.960938 C 379.421875 510.964844 380.484375 510.925781 381.542969 510.867188 C 382.710938 510.804688 383.875 510.699219 385.402344 510.585938 C 384.648438 509.648438 384.078125 508.878906 383.445312 508.160156 C 375.945312 499.617188 367.484375 492.066406 358.941406 484.617188 C 339.757812 467.902344 319.886719 452.046875 299.066406 437.410156 C 294.582031 434.257812 290.050781 431.171875 285.296875 428.425781 C 283.589844 427.441406 283.070312 426.3125 283.761719 425.191406 C 284.429688 424.105469 285.730469 424.039062 287.332031 425.054688 C 299.394531 432.703125 310.933594 441.101562 322.261719 449.792969 C 340.714844 463.957031 358.628906 478.769531 375.550781 494.753906 C 380.1875 499.132812 384.773438 503.570312 388.671875 508.644531 C 389.609375 509.871094 391.058594 511.097656 390.320312 512.859375 C 389.570312 514.660156 387.699219 514.132812 386.246094 514.246094 C 360.140625 516.246094 336.316406 508.980469 314.070312 495.9375 C 287.886719 480.585938 267.578125 459.539062 253.953125 432.246094 C 248.785156 421.886719 245.332031 410.96875 243.574219 399.515625 C 243.492188 398.992188 243.460938 398.460938 243.429688 397.929688 C 243.277344 395.339844 243.660156 394.804688 246.164062 394.3125 C 254.796875 392.613281 263.523438 392.410156 272.246094 393.078125 C 294.953125 394.816406 316.253906 401.410156 336.308594 412.121094 C 346.070312 417.335938 355.144531 423.566406 363.257812 431.144531 C 363.574219 431.441406 363.8125 431.917969 364.511719 431.882812 C 364.511719 431.203125 364.5625 430.519531 364.503906 429.84375 C 364.214844 426.425781 364.050781 422.984375 364.308594 419.574219 C 364.570312 416.109375 363.566406 413.214844 361.878906 410.242188 C 354.246094 396.808594 346.359375 383.535156 338.011719 370.535156 C 337.695312 370.042969 337.359375 369.53125 337.195312 368.984375 C 336.949219 368.171875 337.238281 367.453125 337.964844 366.992188 C 338.699219 366.53125 339.453125 366.613281 340.078125 367.199219 C 340.457031 367.554688 340.757812 368.007812 341.046875 368.445312 C 349.007812 380.574219 356.367188 393.070312 363.558594 405.671875 C 363.839844 406.167969 364.125 406.664062 364.660156 407.597656 C 365 404.34375 365.277344 401.574219 365.578125 398.808594 C 367.355469 382.441406 371.0625 366.503906 376.316406 350.917969 C 382.824219 331.617188 391.515625 313.351562 402.402344 296.136719 C 404.144531 293.378906 405.824219 293.375 407.554688 296.128906 C 425.1875 324.210938 437.175781 354.492188 442.796875 387.226562 C 443.867188 393.449219 444.667969 399.71875 445.074219 406.027344 C 445.09375 406.371094 445.148438 406.714844 445.207031 407.234375 C 445.917969 406.820312 446.097656 406.207031 446.382812 405.699219 C 453.570312 393.097656 460.933594 380.605469 468.894531 368.472656 C 469.183594 368.035156 469.480469 367.578125 469.855469 367.21875 C 470.472656 366.628906 471.230469 366.519531 471.964844 366.976562 C 472.757812 367.46875 473.050781 368.242188 472.726562 369.121094 C 472.507812 369.71875 472.140625 370.269531 471.789062 370.8125 C 462.960938 384.484375 454.671875 398.480469 446.75 412.699219 C 445.976562 414.082031 445.605469 415.449219 445.648438 417.054688 C 445.765625 421.246094 445.804688 425.441406 445.464844 429.628906 C 445.40625 430.367188 445.457031 431.117188 445.457031 431.824219 C 445.910156 432.007812 446.09375 431.71875 446.289062 431.535156 C 460.664062 418.117188 477.523438 408.894531 495.859375 402.214844 C 511.53125 396.503906 527.679688 393.128906 544.394531 392.792969 C 550.949219 392.660156 557.484375 393.035156 563.933594 394.335938 C 566.230469 394.800781 566.75 395.363281 566.527344 397.714844 C 565.957031 403.726562 564.554688 409.574219 562.75 415.324219 C 556.480469 435.289062 545.578125 452.511719 531.351562 467.667969 C 514.105469 486.046875 493.6875 499.683594 469.84375 508 C 456.472656 512.660156 442.707031 515.015625 428.515625 514.578125 C 426.394531 514.511719 424.273438 514.324219 422.160156 514.148438 C 419.382812 513.921875 418.664062 512.480469 420.234375 510.109375 C 422.457031 506.742188 425.25 503.84375 428.066406 500.984375 C 439.027344 489.878906 450.804688 479.667969 462.789062 469.703125 C 480.625 454.871094 498.929688 440.664062 518.292969 427.859375 C 519.867188 426.816406 521.457031 425.804688 523.054688 424.800781 C 524.179688 424.09375 525.363281 423.949219 526.148438 425.183594 C 526.953125 426.441406 526.257812 427.445312 525.140625 428.140625 C 498.035156 445.070312 473.425781 465.277344 449.320312 486.132812 C 441.375 493.007812 433.601562 500.089844 426.652344 508.007812 C 425.996094 508.757812 425.382812 509.542969 424.566406 510.539062 Z M 406.484375 511.195312 C 407.050781 510.78125 407.292969 510.621094 407.515625 510.4375 C 414.082031 505.097656 419.457031 498.707031 423.964844 491.578125 C 433.980469 475.75 438.933594 458.222656 441.003906 439.789062 C 443.109375 421.042969 441.933594 402.410156 438.429688 383.917969 C 433.246094 356.558594 423.53125 330.875 409.625 306.773438 C 408.167969 304.242188 406.640625 301.753906 405.140625 299.234375 C 404.863281 299.410156 404.746094 299.449219 404.6875 299.535156 C 404.480469 299.820312 404.289062 300.117188 404.105469 300.421875 C 382.78125 335.574219 369.835938 373.378906 368.113281 414.710938 C 367.355469 432.789062 369.292969 450.550781 374.917969 467.804688 C 379.683594 482.421875 386.9375 495.59375 397.980469 506.46875 C 399.417969 507.886719 400.863281 509.320312 402.820312 510.59375 C 402.820312 509.617188 402.820312 508.925781 402.820312 508.238281 C 402.820312 457.730469 402.820312 407.226562 402.820312 356.71875 C 402.820312 356.011719 402.785156 355.289062 402.917969 354.601562 C 403.109375 353.605469 403.8125 353.070312 404.832031 353.15625 C 405.761719 353.234375 406.351562 353.792969 406.429688 354.75 C 406.492188 355.511719 406.480469 356.285156 406.480469 357.050781 C 406.484375 407.617188 406.484375 458.179688 406.484375 508.746094 C 406.484375 509.4375 406.484375 510.128906 406.484375 511.195312 Z M 310.085938 390.507812 C 310.476562 392.707031 310.992188 394.890625 311.558594 397.058594 C 311.851562 398.175781 312.609375 398.988281 313.898438 398.667969 C 315.199219 398.347656 315.398438 397.324219 315.164062 396.15625 C 315.09375 395.808594 315.019531 395.464844 314.925781 395.121094 C 313.46875 389.742188 312.789062 384.242188 312.632812 378.6875 C 312.234375 364.375 314.675781 350.507812 319.351562 337.007812 C 320.480469 333.738281 320.523438 333.625 323.949219 334.285156 C 339.597656 337.3125 354.195312 343.0625 367.753906 351.445312 C 368.503906 351.910156 369.179688 352.515625 369.960938 352.90625 C 370.816406 353.332031 371.730469 353.265625 372.332031 352.40625 C 372.917969 351.566406 372.769531 350.691406 372.046875 350 C 371.496094 349.476562 370.867188 349.023438 370.230469 348.601562 C 362.300781 343.292969 353.621094 339.515625 344.714844 336.230469 C 337.300781 333.492188 329.785156 331.125 321.859375 330.363281 C 318.6875 330.054688 317.730469 330.546875 316.761719 333.152344 C 311.703125 346.761719 308.9375 360.800781 308.890625 377.34375 C 308.820312 380.4375 309.199219 385.496094 310.085938 390.507812 Z M 500.257812 362.058594 C 499.058594 351.941406 496.589844 342.140625 493.007812 332.609375 C 492.371094 330.914062 491.179688 330.199219 489.464844 330.304688 C 487.878906 330.40625 486.285156 330.53125 484.722656 330.789062 C 474.191406 332.542969 464.285156 336.269531 454.578125 340.5625 C 448.972656 343.039062 443.507812 345.808594 438.53125 349.4375 C 437.488281 350.199219 436.757812 351.199219 437.671875 352.429688 C 438.511719 353.5625 439.640625 353.246094 440.652344 352.535156 C 448.960938 346.683594 458.21875 342.753906 467.683594 339.296875 C 473.992188 336.992188 480.410156 335.050781 487.105469 334.128906 C 488.960938 333.875 489.746094 334.390625 490.378906 336.203125 C 493.359375 344.75 495.457031 353.5 496.570312 362.472656 C 497.660156 371.296875 497.816406 380.132812 496.316406 388.9375 C 495.898438 391.371094 495.296875 393.777344 494.785156 396.195312 C 494.554688 397.292969 494.765625 398.277344 495.925781 398.640625 C 497.175781 399.027344 497.949219 398.316406 498.359375 397.183594 C 498.558594 396.632812 498.683594 396.050781 498.828125 395.480469 C 500.457031 388.914062 501.128906 382.242188 501.03125 375.328125 C 501.117188 370.988281 500.785156 366.519531 500.257812 362.058594 Z M 500.257812 362.058594 " fill-opacity="1" fill-rule="nonzero"/></g></svg>