<svg xmlns="http://www.w3.org/2000/svg" xmlns:xlink="http://www.w3.org/1999/xlink" width="1080" zoomAndPan="magnify" viewBox="0 0 810 809.999993" height="1080" preserveAspectRatio="xMidYMid meet" version="1.0"><defs><clipPath id="id1"><path d="M 243 255 L 555 255 L 555 567 L 243 567 Z M 243 255 " clip-rule="nonzero"/></clipPath></defs><g clip-path="url(#id1)"><path fill="#ffffff" d="M 398.714844 567.265625 C 401.269531 567.265625 403.820312 567.203125 406.367188 567.078125 C 408.917969 566.953125 411.464844 566.765625 414.003906 566.515625 C 416.542969 566.265625 419.078125 565.953125 421.601562 565.578125 C 424.128906 565.203125 426.640625 564.765625 429.144531 564.269531 C 431.648438 563.769531 434.140625 563.210938 436.617188 562.589844 C 439.09375 561.96875 441.550781 561.289062 443.992188 560.546875 C 446.4375 559.808594 448.859375 559.007812 451.261719 558.148438 C 453.667969 557.285156 456.046875 556.367188 458.40625 555.390625 C 460.765625 554.414062 463.097656 553.378906 465.40625 552.289062 C 467.714844 551.199219 469.992188 550.050781 472.242188 548.847656 C 474.496094 547.644531 476.714844 546.386719 478.90625 545.074219 C 481.09375 543.761719 483.25 542.394531 485.375 540.976562 C 487.496094 539.558594 489.582031 538.089844 491.632812 536.570312 C 493.683594 535.046875 495.695312 533.480469 497.667969 531.859375 C 499.640625 530.238281 501.574219 528.574219 503.464844 526.859375 C 505.355469 525.144531 507.203125 523.382812 509.011719 521.578125 C 510.816406 519.773438 512.574219 517.925781 514.289062 516.035156 C 516.003906 514.144531 517.671875 512.210938 519.289062 510.238281 C 520.910156 508.265625 522.480469 506.253906 524 504.203125 C 525.519531 502.152344 526.988281 500.066406 528.40625 497.941406 C 529.828125 495.820312 531.191406 493.664062 532.503906 491.476562 C 533.816406 489.285156 535.074219 487.066406 536.277344 484.8125 C 537.480469 482.5625 538.628906 480.28125 539.71875 477.976562 C 540.8125 475.667969 541.84375 473.335938 542.824219 470.976562 C 543.800781 468.617188 544.71875 466.238281 545.578125 463.832031 C 546.4375 461.429688 547.238281 459.007812 547.980469 456.5625 C 548.71875 454.121094 549.402344 451.660156 550.019531 449.183594 C 550.640625 446.707031 551.199219 444.21875 551.699219 441.714844 C 552.195312 439.210938 552.632812 436.695312 553.007812 434.171875 C 553.382812 431.648438 553.695312 429.113281 553.945312 426.574219 C 554.195312 424.035156 554.382812 421.488281 554.507812 418.9375 C 554.632812 416.390625 554.695312 413.835938 554.695312 411.285156 C 554.695312 408.730469 554.632812 406.179688 554.507812 403.632812 C 554.382812 401.082031 554.195312 398.535156 553.945312 395.996094 C 553.695312 393.457031 553.382812 390.921875 553.007812 388.398438 C 552.632812 385.871094 552.195312 383.359375 551.699219 380.855469 C 551.199219 378.351562 550.640625 375.859375 550.019531 373.386719 C 549.402344 370.910156 548.71875 368.449219 547.980469 366.007812 C 547.238281 363.5625 546.4375 361.140625 545.578125 358.738281 C 544.71875 356.332031 543.800781 353.953125 542.824219 351.59375 C 541.84375 349.234375 540.8125 346.902344 539.71875 344.59375 C 538.628906 342.289062 537.480469 340.007812 536.277344 337.757812 C 535.074219 335.503906 533.816406 333.285156 532.503906 331.09375 C 531.191406 328.90625 529.828125 326.75 528.40625 324.628906 C 526.988281 322.503906 525.519531 320.417969 524 318.367188 C 522.480469 316.316406 520.910156 314.304688 519.289062 312.332031 C 517.671875 310.359375 516.003906 308.425781 514.289062 306.535156 C 512.574219 304.644531 510.816406 302.796875 509.011719 300.992188 C 507.203125 299.183594 505.355469 297.425781 503.464844 295.710938 C 501.574219 293.996094 499.640625 292.332031 497.667969 290.710938 C 495.695312 289.089844 493.683594 287.519531 491.632812 286 C 489.582031 284.480469 487.496094 283.011719 485.375 281.59375 C 483.25 280.175781 481.09375 278.808594 478.90625 277.496094 C 476.714844 276.183594 474.496094 274.925781 472.242188 273.722656 C 469.992188 272.519531 467.714844 271.371094 465.40625 270.28125 C 463.097656 269.1875 460.765625 268.15625 458.40625 267.179688 C 456.046875 266.203125 453.667969 265.28125 451.261719 264.421875 C 448.859375 263.5625 446.4375 262.761719 443.992188 262.019531 C 441.550781 261.28125 439.09375 260.601562 436.617188 259.980469 C 434.140625 259.359375 431.648438 258.800781 429.144531 258.300781 C 426.640625 257.804688 424.128906 257.367188 421.601562 256.992188 C 419.078125 256.617188 416.542969 256.304688 414.003906 256.054688 C 411.464844 255.804688 408.917969 255.617188 406.367188 255.492188 C 403.820312 255.367188 401.269531 255.304688 398.714844 255.304688 C 396.164062 255.304688 393.613281 255.367188 391.0625 255.492188 C 388.511719 255.617188 385.96875 255.804688 383.425781 256.054688 C 380.886719 256.304688 378.355469 256.617188 375.828125 256.992188 C 373.304688 257.367188 370.789062 257.804688 368.285156 258.300781 C 365.78125 258.800781 363.292969 259.359375 360.816406 259.980469 C 358.339844 260.601562 355.878906 261.28125 353.4375 262.019531 C 350.992188 262.761719 348.570312 263.5625 346.167969 264.421875 C 343.765625 265.28125 341.382812 266.203125 339.023438 267.179688 C 336.667969 268.15625 334.332031 269.1875 332.027344 270.28125 C 329.71875 271.371094 327.4375 272.519531 325.1875 273.722656 C 322.9375 274.925781 320.714844 276.183594 318.527344 277.496094 C 316.335938 278.808594 314.179688 280.175781 312.058594 281.59375 C 309.933594 283.011719 307.847656 284.480469 305.796875 286 C 303.746094 287.519531 301.734375 289.089844 299.761719 290.710938 C 297.789062 292.332031 295.855469 293.996094 293.964844 295.710938 C 292.074219 297.425781 290.226562 299.183594 288.421875 300.992188 C 286.617188 302.796875 284.855469 304.644531 283.140625 306.535156 C 281.425781 308.425781 279.761719 310.359375 278.140625 312.332031 C 276.523438 314.304688 274.953125 316.316406 273.429688 318.367188 C 271.910156 320.417969 270.441406 322.503906 269.023438 324.628906 C 267.605469 326.75 266.238281 328.90625 264.925781 331.09375 C 263.613281 333.285156 262.355469 335.503906 261.152344 337.757812 C 259.949219 340.007812 258.800781 342.289062 257.710938 344.59375 C 256.621094 346.902344 255.585938 349.234375 254.609375 351.59375 C 253.632812 353.953125 252.714844 356.332031 251.851562 358.738281 C 250.992188 361.140625 250.191406 363.5625 249.453125 366.007812 C 248.710938 368.449219 248.03125 370.910156 247.410156 373.386719 C 246.789062 375.859375 246.230469 378.351562 245.734375 380.855469 C 245.234375 383.359375 244.796875 385.871094 244.421875 388.398438 C 244.050781 390.921875 243.738281 393.457031 243.488281 395.996094 C 243.234375 398.535156 243.046875 401.082031 242.921875 403.632812 C 242.796875 406.179688 242.734375 408.730469 242.734375 411.285156 C 242.738281 413.835938 242.804688 416.386719 242.929688 418.9375 C 243.058594 421.484375 243.25 424.027344 243.503906 426.566406 C 243.753906 429.109375 244.070312 431.640625 244.445312 434.164062 C 244.824219 436.6875 245.261719 439.199219 245.761719 441.703125 C 246.261719 444.207031 246.824219 446.695312 247.445312 449.167969 C 248.066406 451.644531 248.75 454.101562 249.492188 456.542969 C 250.234375 458.984375 251.035156 461.40625 251.898438 463.808594 C 252.757812 466.210938 253.675781 468.589844 254.65625 470.949219 C 255.632812 473.304688 256.667969 475.636719 257.761719 477.945312 C 258.851562 480.25 260 482.527344 261.203125 484.777344 C 262.410156 487.027344 263.667969 489.25 264.980469 491.4375 C 266.292969 493.625 267.65625 495.78125 269.078125 497.902344 C 270.496094 500.023438 271.964844 502.109375 273.484375 504.15625 C 275.003906 506.207031 276.574219 508.21875 278.195312 510.191406 C 279.8125 512.164062 281.480469 514.09375 283.195312 515.984375 C 284.910156 517.875 286.667969 519.722656 288.472656 521.527344 C 290.277344 523.332031 292.125 525.09375 294.015625 526.804688 C 295.90625 528.519531 297.835938 530.1875 299.808594 531.804688 C 301.78125 533.425781 303.792969 534.996094 305.84375 536.515625 C 307.890625 538.035156 309.976562 539.503906 312.097656 540.925781 C 314.21875 542.34375 316.375 543.707031 318.5625 545.019531 C 320.753906 546.332031 322.972656 547.589844 325.222656 548.796875 C 327.472656 550 329.75 551.148438 332.054688 552.238281 C 334.363281 553.332031 336.695312 554.367188 339.050781 555.34375 C 341.410156 556.324219 343.789062 557.242188 346.191406 558.105469 C 348.59375 558.964844 351.015625 559.765625 353.457031 560.507812 C 355.898438 561.25 358.355469 561.933594 360.832031 562.554688 C 363.304688 563.179688 365.792969 563.738281 368.296875 564.238281 C 370.800781 564.738281 373.3125 565.175781 375.835938 565.554688 C 378.359375 565.929688 380.894531 566.246094 383.433594 566.5 C 385.972656 566.75 388.515625 566.941406 391.066406 567.070312 C 393.613281 567.195312 396.164062 567.261719 398.714844 567.265625 Z M 398.714844 269.269531 C 401.039062 269.269531 403.363281 269.328125 405.683594 269.441406 C 408.003906 269.554688 410.324219 269.726562 412.636719 269.953125 C 414.949219 270.183594 417.253906 270.464844 419.554688 270.808594 C 421.851562 271.148438 424.140625 271.546875 426.421875 272 C 428.699219 272.453125 430.96875 272.960938 433.222656 273.527344 C 435.476562 274.089844 437.714844 274.710938 439.941406 275.386719 C 442.164062 276.058594 444.371094 276.789062 446.558594 277.570312 C 448.746094 278.355469 450.914062 279.191406 453.0625 280.082031 C 455.210938 280.96875 457.332031 281.910156 459.433594 282.90625 C 461.535156 283.898438 463.609375 284.945312 465.660156 286.039062 C 467.710938 287.136719 469.730469 288.28125 471.726562 289.476562 C 473.71875 290.667969 475.683594 291.914062 477.613281 293.203125 C 479.546875 294.496094 481.445312 295.832031 483.3125 297.21875 C 485.179688 298.601562 487.011719 300.03125 488.808594 301.507812 C 490.605469 302.980469 492.363281 304.5 494.085938 306.058594 C 495.808594 307.621094 497.492188 309.222656 499.136719 310.867188 C 500.777344 312.507812 502.378906 314.191406 503.941406 315.914062 C 505.503906 317.636719 507.019531 319.394531 508.496094 321.191406 C 509.96875 322.988281 511.398438 324.820312 512.78125 326.6875 C 514.167969 328.554688 515.503906 330.453125 516.796875 332.386719 C 518.085938 334.316406 519.332031 336.28125 520.527344 338.273438 C 521.71875 340.269531 522.867188 342.289062 523.960938 344.339844 C 525.058594 346.390625 526.101562 348.464844 527.09375 350.566406 C 528.089844 352.667969 529.03125 354.792969 529.917969 356.9375 C 530.808594 359.085938 531.644531 361.253906 532.429688 363.441406 C 533.210938 365.628906 533.941406 367.835938 534.613281 370.058594 C 535.289062 372.285156 535.910156 374.523438 536.472656 376.777344 C 537.039062 379.03125 537.546875 381.300781 538 383.578125 C 538.453125 385.859375 538.851562 388.148438 539.191406 390.445312 C 539.535156 392.746094 539.820312 395.050781 540.046875 397.363281 C 540.273438 399.679688 540.445312 401.996094 540.558594 404.316406 C 540.671875 406.636719 540.730469 408.960938 540.730469 411.285156 C 540.730469 413.609375 540.671875 415.933594 540.558594 418.253906 C 540.445312 420.574219 540.273438 422.890625 540.046875 425.203125 C 539.820312 427.519531 539.535156 429.824219 539.191406 432.121094 C 538.851562 434.421875 538.453125 436.710938 538 438.992188 C 537.546875 441.269531 537.039062 443.539062 536.472656 445.792969 C 535.910156 448.046875 535.289062 450.285156 534.613281 452.507812 C 533.941406 454.734375 533.210938 456.941406 532.429688 459.128906 C 531.644531 461.316406 530.808594 463.484375 529.917969 465.632812 C 529.03125 467.777344 528.089844 469.902344 527.09375 472.003906 C 526.101562 474.105469 525.058594 476.179688 523.960938 478.230469 C 522.867188 480.28125 521.71875 482.300781 520.527344 484.296875 C 519.332031 486.289062 518.085938 488.25 516.796875 490.183594 C 515.503906 492.117188 514.167969 494.015625 512.78125 495.882812 C 511.398438 497.75 509.96875 499.582031 508.496094 501.378906 C 507.019531 503.175781 505.503906 504.933594 503.941406 506.65625 C 502.378906 508.378906 500.777344 510.0625 499.136719 511.703125 C 497.492188 513.347656 495.808594 514.949219 494.085938 516.511719 C 492.363281 518.070312 490.605469 519.589844 488.808594 521.0625 C 487.011719 522.539062 485.179688 523.96875 483.3125 525.351562 C 481.445312 526.738281 479.546875 528.074219 477.613281 529.367188 C 475.683594 530.65625 473.71875 531.898438 471.726562 533.09375 C 469.730469 534.289062 467.710938 535.433594 465.660156 536.53125 C 463.609375 537.625 461.535156 538.671875 459.433594 539.664062 C 457.332031 540.660156 455.210938 541.601562 453.0625 542.488281 C 450.914062 543.378906 448.746094 544.214844 446.558594 544.996094 C 444.371094 545.78125 442.164062 546.507812 439.941406 547.183594 C 437.714844 547.859375 435.476562 548.480469 433.222656 549.042969 C 430.96875 549.609375 428.699219 550.117188 426.421875 550.570312 C 424.140625 551.023438 421.851562 551.421875 419.554688 551.761719 C 417.253906 552.101562 414.949219 552.386719 412.636719 552.617188 C 410.324219 552.84375 408.003906 553.015625 405.683594 553.128906 C 403.363281 553.242188 401.039062 553.300781 398.714844 553.300781 C 396.390625 553.300781 394.070312 553.242188 391.746094 553.128906 C 389.425781 553.015625 387.109375 552.84375 384.796875 552.617188 C 382.484375 552.386719 380.175781 552.101562 377.878906 551.761719 C 375.578125 551.421875 373.289062 551.023438 371.011719 550.570312 C 368.730469 550.117188 366.464844 549.609375 364.207031 549.042969 C 361.953125 548.480469 359.714844 547.859375 357.492188 547.183594 C 355.265625 546.507812 353.058594 545.78125 350.871094 544.996094 C 348.683594 544.214844 346.515625 543.378906 344.367188 542.488281 C 342.222656 541.601562 340.097656 540.660156 337.996094 539.664062 C 335.894531 538.671875 333.820312 537.625 331.769531 536.53125 C 329.71875 535.433594 327.699219 534.289062 325.707031 533.09375 C 323.710938 531.898438 321.75 530.65625 319.816406 529.367188 C 317.882812 528.074219 315.984375 526.738281 314.117188 525.351562 C 312.25 523.96875 310.417969 522.539062 308.621094 521.0625 C 306.824219 519.589844 305.066406 518.070312 303.34375 516.511719 C 301.621094 514.949219 299.941406 513.347656 298.296875 511.703125 C 296.652344 510.0625 295.050781 508.378906 293.488281 506.65625 C 291.929688 504.933594 290.410156 503.175781 288.9375 501.378906 C 287.460938 499.582031 286.03125 497.75 284.648438 495.882812 C 283.265625 494.015625 281.925781 492.117188 280.632812 490.183594 C 279.34375 488.25 278.101562 486.289062 276.90625 484.296875 C 275.710938 482.300781 274.566406 480.28125 273.46875 478.230469 C 272.375 476.179688 271.328125 474.105469 270.335938 472.003906 C 269.34375 469.902344 268.402344 467.777344 267.511719 465.632812 C 266.621094 463.484375 265.785156 461.316406 265.003906 459.128906 C 264.21875 456.941406 263.492188 454.734375 262.816406 452.507812 C 262.140625 450.285156 261.523438 448.046875 260.957031 445.792969 C 260.390625 443.539062 259.882812 441.269531 259.429688 438.992188 C 258.976562 436.710938 258.578125 434.421875 258.238281 432.121094 C 257.898438 429.824219 257.613281 427.519531 257.386719 425.203125 C 257.15625 422.890625 256.984375 420.574219 256.871094 418.253906 C 256.757812 415.933594 256.699219 413.609375 256.699219 411.285156 C 256.703125 408.960938 256.761719 406.640625 256.878906 404.320312 C 256.996094 402 257.167969 399.683594 257.398438 397.371094 C 257.628906 395.058594 257.917969 392.753906 258.257812 390.457031 C 258.601562 388.15625 259 385.867188 259.457031 383.589844 C 259.910156 381.3125 260.421875 379.046875 260.988281 376.792969 C 261.554688 374.539062 262.175781 372.300781 262.851562 370.078125 C 263.527344 367.855469 264.257812 365.652344 265.042969 363.464844 C 265.828125 361.277344 266.664062 359.109375 267.554688 356.964844 C 268.445312 354.816406 269.386719 352.695312 270.382812 350.59375 C 271.375 348.496094 272.421875 346.421875 273.519531 344.371094 C 274.613281 342.324219 275.757812 340.304688 276.953125 338.308594 C 278.148438 336.316406 279.394531 334.355469 280.683594 332.425781 C 281.976562 330.492188 283.3125 328.59375 284.699219 326.726562 C 286.082031 324.863281 287.511719 323.03125 288.988281 321.234375 C 290.460938 319.441406 291.976562 317.679688 293.539062 315.960938 C 295.097656 314.238281 296.699219 312.554688 298.34375 310.914062 C 299.988281 309.269531 301.667969 307.667969 303.390625 306.109375 C 305.113281 304.546875 306.871094 303.03125 308.667969 301.554688 C 310.460938 300.082031 312.292969 298.652344 314.160156 297.269531 C 316.023438 295.882812 317.921875 294.546875 319.855469 293.253906 C 321.785156 291.960938 323.75 290.71875 325.742188 289.523438 C 327.734375 288.328125 329.753906 287.183594 331.800781 286.085938 C 333.851562 284.992188 335.925781 283.945312 338.023438 282.953125 C 340.125 281.957031 342.25 281.015625 344.394531 280.125 C 346.539062 279.234375 348.707031 278.394531 350.894531 277.613281 C 353.082031 276.828125 355.285156 276.097656 357.507812 275.421875 C 359.730469 274.746094 361.96875 274.125 364.222656 273.558594 C 366.476562 272.992188 368.742188 272.480469 371.019531 272.027344 C 373.300781 271.570312 375.585938 271.171875 377.886719 270.828125 C 380.183594 270.484375 382.488281 270.199219 384.800781 269.96875 C 387.113281 269.738281 389.429688 269.566406 391.75 269.449219 C 394.070312 269.332031 396.390625 269.273438 398.714844 269.269531 Z M 398.714844 269.269531 " fill-opacity="1" fill-rule="nonzero"/></g><path fill="#ffffff" d="M 335.632812 394.890625 C 335.863281 395.289062 336.128906 395.660156 336.429688 396.003906 C 336.734375 396.347656 337.066406 396.660156 337.429688 396.9375 C 337.792969 397.21875 338.183594 397.457031 338.59375 397.660156 C 339.003906 397.863281 339.433594 398.023438 339.875 398.140625 C 340.316406 398.257812 340.769531 398.332031 341.226562 398.363281 C 341.683594 398.390625 342.140625 398.375 342.59375 398.316406 C 343.046875 398.253906 343.492188 398.152344 343.925781 398.003906 C 344.359375 397.855469 344.773438 397.664062 345.171875 397.433594 L 374.816406 380.273438 C 375.074219 380.121094 375.320312 379.957031 375.558594 379.773438 C 375.796875 379.59375 376.023438 379.398438 376.234375 379.1875 C 376.445312 378.976562 376.644531 378.75 376.828125 378.515625 C 377.011719 378.28125 377.179688 378.03125 377.332031 377.773438 C 377.484375 377.515625 377.621094 377.25 377.738281 376.976562 C 377.855469 376.699219 377.953125 376.417969 378.035156 376.132812 C 378.117188 375.84375 378.179688 375.550781 378.222656 375.257812 C 378.269531 374.960938 378.292969 374.664062 378.300781 374.363281 C 378.304688 374.066406 378.292969 373.765625 378.257812 373.46875 C 378.226562 373.171875 378.175781 372.878906 378.105469 372.585938 C 378.035156 372.296875 377.945312 372.011719 377.839844 371.730469 C 377.730469 371.453125 377.605469 371.179688 377.464844 370.917969 C 377.324219 370.652344 377.164062 370.402344 376.992188 370.15625 C 376.816406 369.914062 376.628906 369.683594 376.421875 369.464844 C 376.21875 369.246094 376 369.042969 375.769531 368.851562 C 375.542969 368.660156 375.300781 368.484375 375.046875 368.324219 L 345.402344 349.601562 C 345.015625 349.359375 344.609375 349.152344 344.179688 348.988281 C 343.75 348.824219 343.3125 348.703125 342.859375 348.625 C 342.40625 348.546875 341.953125 348.515625 341.496094 348.527344 C 341.035156 348.539062 340.582031 348.59375 340.136719 348.695312 C 339.6875 348.796875 339.253906 348.941406 338.835938 349.125 C 338.417969 349.3125 338.019531 349.539062 337.644531 349.800781 C 337.269531 350.066406 336.925781 350.363281 336.609375 350.699219 C 336.292969 351.03125 336.011719 351.390625 335.769531 351.777344 C 335.523438 352.164062 335.320312 352.574219 335.152344 353 C 334.988281 353.429688 334.867188 353.871094 334.789062 354.320312 C 334.710938 354.773438 334.679688 355.230469 334.691406 355.6875 C 334.703125 356.144531 334.757812 356.597656 334.859375 357.046875 C 334.960938 357.492188 335.105469 357.925781 335.292969 358.347656 C 335.476562 358.765625 335.703125 359.160156 335.96875 359.535156 C 336.230469 359.910156 336.53125 360.257812 336.863281 360.574219 C 337.195312 360.886719 337.554688 361.167969 337.945312 361.414062 L 357.828125 373.972656 L 338.175781 385.351562 C 337.777344 385.582031 337.40625 385.847656 337.0625 386.148438 C 336.71875 386.453125 336.40625 386.785156 336.128906 387.148438 C 335.847656 387.511719 335.609375 387.902344 335.40625 388.3125 C 335.203125 388.722656 335.042969 389.152344 334.925781 389.59375 C 334.804688 390.039062 334.734375 390.488281 334.703125 390.945312 C 334.675781 391.402344 334.691406 391.859375 334.75 392.3125 C 334.8125 392.769531 334.914062 393.210938 335.0625 393.644531 C 335.210938 394.078125 335.402344 394.496094 335.632812 394.890625 Z M 335.632812 394.890625 " fill-opacity="1" fill-rule="nonzero"/><path fill="#ffffff" d="M 422.617188 380.273438 L 452.257812 397.433594 C 452.65625 397.664062 453.070312 397.855469 453.503906 398.003906 C 453.9375 398.152344 454.382812 398.257812 454.839844 398.316406 C 455.292969 398.378906 455.75 398.394531 456.207031 398.363281 C 456.664062 398.335938 457.113281 398.261719 457.558594 398.144531 C 458 398.027344 458.429688 397.867188 458.839844 397.664062 C 459.253906 397.460938 459.640625 397.21875 460.003906 396.941406 C 460.371094 396.664062 460.703125 396.351562 461.003906 396.007812 C 461.308594 395.664062 461.574219 395.292969 461.804688 394.894531 C 462.035156 394.5 462.222656 394.082031 462.371094 393.648438 C 462.519531 393.214844 462.625 392.769531 462.683594 392.316406 C 462.746094 391.859375 462.757812 391.402344 462.730469 390.945312 C 462.699219 390.488281 462.625 390.039062 462.507812 389.59375 C 462.390625 389.152344 462.230469 388.726562 462.027344 388.3125 C 461.824219 387.902344 461.582031 387.515625 461.304688 387.148438 C 461.023438 386.785156 460.714844 386.453125 460.367188 386.148438 C 460.023438 385.847656 459.652344 385.582031 459.253906 385.351562 L 439.601562 373.972656 L 459.488281 361.414062 C 459.875 361.167969 460.234375 360.886719 460.566406 360.570312 C 460.898438 360.257812 461.199219 359.910156 461.460938 359.535156 C 461.726562 359.160156 461.953125 358.765625 462.136719 358.347656 C 462.324219 357.925781 462.46875 357.492188 462.566406 357.046875 C 462.667969 356.597656 462.726562 356.144531 462.738281 355.6875 C 462.75 355.230469 462.714844 354.773438 462.636719 354.324219 C 462.558594 353.871094 462.4375 353.429688 462.273438 353.003906 C 462.109375 352.574219 461.90625 352.167969 461.660156 351.78125 C 461.414062 351.390625 461.132812 351.03125 460.820312 350.699219 C 460.503906 350.367188 460.15625 350.070312 459.785156 349.804688 C 459.410156 349.539062 459.011719 349.316406 458.59375 349.128906 C 458.175781 348.941406 457.742188 348.796875 457.292969 348.695312 C 456.847656 348.597656 456.394531 348.539062 455.9375 348.527344 C 455.476562 348.515625 455.023438 348.546875 454.570312 348.625 C 454.117188 348.703125 453.679688 348.824219 453.25 348.988281 C 452.824219 349.152344 452.414062 349.359375 452.027344 349.601562 L 422.382812 368.324219 C 422.132812 368.484375 421.890625 368.660156 421.660156 368.851562 C 421.429688 369.042969 421.210938 369.246094 421.007812 369.464844 C 420.804688 369.683594 420.613281 369.914062 420.441406 370.15625 C 420.265625 370.402344 420.109375 370.652344 419.964844 370.917969 C 419.824219 371.179688 419.699219 371.453125 419.59375 371.730469 C 419.484375 372.011719 419.398438 372.296875 419.328125 372.585938 C 419.257812 372.878906 419.203125 373.171875 419.171875 373.46875 C 419.140625 373.765625 419.125 374.0625 419.132812 374.363281 C 419.136719 374.664062 419.164062 374.960938 419.207031 375.257812 C 419.25 375.550781 419.3125 375.84375 419.394531 376.132812 C 419.476562 376.417969 419.578125 376.699219 419.695312 376.976562 C 419.8125 377.25 419.945312 377.515625 420.097656 377.773438 C 420.25 378.03125 420.417969 378.28125 420.601562 378.515625 C 420.785156 378.75 420.984375 378.976562 421.195312 379.1875 C 421.410156 379.394531 421.632812 379.59375 421.871094 379.773438 C 422.109375 379.957031 422.359375 380.121094 422.617188 380.273438 Z M 422.617188 380.273438 " fill-opacity="1" fill-rule="nonzero"/><path fill="#ffffff" d="M 354.453125 467.0625 C 354.453125 467.519531 354.496094 467.972656 354.585938 468.425781 C 354.675781 468.875 354.808594 469.308594 354.984375 469.734375 C 355.160156 470.15625 355.375 470.558594 355.628906 470.941406 C 355.882812 471.324219 356.171875 471.675781 356.496094 472 C 356.820312 472.324219 357.175781 472.613281 357.554688 472.867188 C 357.9375 473.121094 358.339844 473.335938 358.761719 473.511719 C 359.1875 473.6875 359.625 473.820312 360.074219 473.910156 C 360.523438 474 360.976562 474.042969 361.433594 474.042969 C 361.894531 474.042969 362.347656 474 362.796875 473.910156 C 363.246094 473.820312 363.683594 473.6875 364.109375 473.511719 C 364.53125 473.335938 364.933594 473.121094 365.316406 472.867188 C 365.695312 472.613281 366.046875 472.324219 366.371094 472 C 366.695312 471.675781 366.988281 471.324219 367.242188 470.941406 C 367.496094 470.558594 367.710938 470.15625 367.886719 469.734375 C 368.0625 469.308594 368.195312 468.875 368.285156 468.425781 C 368.375 467.972656 368.417969 467.519531 368.417969 467.0625 C 368.417969 460.171875 380.890625 452.460938 397.578125 452.460938 C 414.269531 452.460938 426.742188 460.171875 426.742188 467.0625 C 426.742188 467.519531 426.785156 467.972656 426.875 468.425781 C 426.964844 468.875 427.097656 469.308594 427.273438 469.734375 C 427.449219 470.15625 427.664062 470.558594 427.917969 470.941406 C 428.171875 471.324219 428.464844 471.675781 428.789062 472 C 429.113281 472.324219 429.464844 472.613281 429.84375 472.867188 C 430.226562 473.121094 430.628906 473.335938 431.050781 473.511719 C 431.476562 473.6875 431.914062 473.820312 432.363281 473.910156 C 432.8125 474 433.265625 474.042969 433.726562 474.042969 C 434.183594 474.042969 434.636719 474 435.085938 473.910156 C 435.535156 473.820312 435.972656 473.6875 436.398438 473.511719 C 436.820312 473.335938 437.222656 473.121094 437.605469 472.867188 C 437.984375 472.613281 438.339844 472.324219 438.664062 472 C 438.988281 471.675781 439.277344 471.324219 439.53125 470.941406 C 439.785156 470.558594 440 470.15625 440.175781 469.734375 C 440.351562 469.308594 440.484375 468.875 440.574219 468.425781 C 440.664062 467.972656 440.707031 467.519531 440.707031 467.0625 C 440.707031 451.042969 421.765625 438.496094 397.578125 438.496094 C 373.394531 438.496094 354.453125 451.042969 354.453125 467.0625 Z M 354.453125 467.0625 " fill-opacity="1" fill-rule="nonzero"/></svg>