<svg xmlns="http://www.w3.org/2000/svg" xmlns:xlink="http://www.w3.org/1999/xlink" width="120" zoomAndPan="magnify" viewBox="0 0 90 89.999999" height="120" preserveAspectRatio="xMidYMid meet" version="1.0"><path fill="#ff9999" d="M 45 27 C 35.0625 27 27 35.0625 27 45 C 27 54.9375 35.0625 63 45 63 C 54.9375 63 63 54.9375 63 45 C 63 35.0625 54.9375 27 45 27 Z M 45 61.433594 C 35.921875 61.433594 28.566406 54.078125 28.566406 45 C 28.566406 35.921875 35.921875 28.566406 45 28.566406 C 54.078125 28.566406 61.433594 35.921875 61.433594 45 C 61.433594 54.078125 54.078125 61.433594 45 61.433594 Z M 45 61.433594 " fill-opacity="1" fill-rule="nonzero"/><path fill="#ff9999" d="M 43.433594 41.085938 C 43.433594 40.777344 43.40625 40.472656 43.34375 40.171875 C 43.285156 39.871094 43.195312 39.574219 43.078125 39.289062 C 42.960938 39.007812 42.816406 38.734375 42.644531 38.480469 C 42.472656 38.222656 42.277344 37.984375 42.058594 37.765625 C 41.84375 37.550781 41.605469 37.355469 41.347656 37.183594 C 41.09375 37.011719 40.820312 36.867188 40.535156 36.75 C 40.25 36.632812 39.957031 36.542969 39.65625 36.484375 C 39.351562 36.421875 39.046875 36.390625 38.738281 36.390625 C 38.429688 36.390625 38.125 36.421875 37.824219 36.484375 C 37.519531 36.542969 37.226562 36.632812 36.941406 36.75 C 36.65625 36.867188 36.386719 37.011719 36.132812 37.183594 C 35.875 37.355469 35.636719 37.550781 35.417969 37.765625 C 35.203125 37.984375 35.007812 38.222656 34.835938 38.480469 C 34.664062 38.734375 34.519531 39.007812 34.402344 39.289062 C 34.285156 39.574219 34.195312 39.871094 34.132812 40.171875 C 34.074219 40.472656 34.042969 40.777344 34.042969 41.085938 C 34.042969 41.394531 34.074219 41.703125 34.132812 42.003906 C 34.195312 42.304688 34.285156 42.597656 34.402344 42.882812 C 34.519531 43.167969 34.664062 43.441406 34.835938 43.695312 C 35.007812 43.953125 35.203125 44.191406 35.417969 44.40625 C 35.636719 44.625 35.875 44.820312 36.132812 44.992188 C 36.386719 45.164062 36.65625 45.308594 36.941406 45.425781 C 37.226562 45.542969 37.519531 45.632812 37.824219 45.691406 C 38.125 45.753906 38.429688 45.78125 38.738281 45.78125 C 39.046875 45.78125 39.351562 45.75 39.65625 45.691406 C 39.957031 45.628906 40.25 45.539062 40.535156 45.421875 C 40.820312 45.304688 41.089844 45.160156 41.34375 44.988281 C 41.601562 44.816406 41.839844 44.621094 42.054688 44.402344 C 42.273438 44.1875 42.46875 43.949219 42.640625 43.691406 C 42.8125 43.4375 42.957031 43.167969 43.074219 42.882812 C 43.191406 42.597656 43.28125 42.304688 43.34375 42.003906 C 43.402344 41.699219 43.433594 41.394531 43.433594 41.085938 Z M 39.523438 38.738281 C 39.523438 39.210938 39.210938 39.523438 38.738281 39.523438 C 38.269531 39.523438 37.957031 39.210938 37.957031 38.738281 C 37.957031 38.269531 38.269531 37.957031 38.738281 37.957031 C 39.210938 37.957031 39.523438 38.269531 39.523438 38.738281 Z M 35.609375 41.085938 C 35.617188 40.289062 35.878906 39.585938 36.390625 38.976562 C 36.546875 40.148438 37.488281 41.089844 38.738281 41.089844 C 39.992188 41.089844 40.929688 40.148438 41.085938 38.976562 C 41.617188 39.582031 41.875 40.285156 41.871094 41.089844 C 41.875 41.507812 41.800781 41.914062 41.644531 42.300781 C 41.488281 42.691406 41.265625 43.035156 40.972656 43.332031 C 40.675781 43.632812 40.335938 43.863281 39.949219 44.023438 C 39.5625 44.1875 39.160156 44.269531 38.738281 44.269531 C 38.320312 44.269531 37.917969 44.1875 37.53125 44.023438 C 37.144531 43.863281 36.804688 43.632812 36.507812 43.332031 C 36.214844 43.035156 35.992188 42.691406 35.835938 42.300781 C 35.679688 41.914062 35.605469 41.507812 35.609375 41.089844 Z M 35.609375 41.085938 " fill-opacity="1" fill-rule="nonzero"/><path fill="#ff9999" d="M 51.261719 36.390625 C 50.953125 36.390625 50.648438 36.421875 50.34375 36.484375 C 50.042969 36.542969 49.75 36.632812 49.464844 36.75 C 49.179688 36.867188 48.90625 37.011719 48.652344 37.183594 C 48.394531 37.355469 48.15625 37.550781 47.941406 37.765625 C 47.722656 37.984375 47.527344 38.222656 47.355469 38.480469 C 47.183594 38.734375 47.039062 39.007812 46.921875 39.289062 C 46.804688 39.574219 46.714844 39.871094 46.65625 40.171875 C 46.59375 40.472656 46.566406 40.777344 46.566406 41.085938 C 46.566406 41.394531 46.59375 41.703125 46.65625 42.003906 C 46.714844 42.304688 46.804688 42.597656 46.921875 42.882812 C 47.039062 43.167969 47.183594 43.441406 47.355469 43.695312 C 47.527344 43.953125 47.722656 44.191406 47.941406 44.40625 C 48.15625 44.625 48.394531 44.820312 48.652344 44.992188 C 48.90625 45.164062 49.179688 45.308594 49.464844 45.425781 C 49.75 45.542969 50.042969 45.632812 50.34375 45.691406 C 50.648438 45.753906 50.953125 45.78125 51.261719 45.78125 C 51.570312 45.78125 51.875 45.753906 52.175781 45.691406 C 52.480469 45.632812 52.773438 45.542969 53.058594 45.425781 C 53.34375 45.308594 53.613281 45.164062 53.867188 44.992188 C 54.125 44.820312 54.363281 44.625 54.582031 44.40625 C 54.796875 44.191406 54.992188 43.953125 55.164062 43.695312 C 55.335938 43.441406 55.480469 43.167969 55.597656 42.882812 C 55.714844 42.597656 55.804688 42.304688 55.867188 42.003906 C 55.925781 41.703125 55.957031 41.394531 55.957031 41.085938 C 55.953125 40.78125 55.921875 40.472656 55.863281 40.171875 C 55.800781 39.871094 55.710938 39.578125 55.59375 39.292969 C 55.476562 39.007812 55.332031 38.738281 55.160156 38.480469 C 54.988281 38.226562 54.792969 37.988281 54.578125 37.769531 C 54.359375 37.554688 54.121094 37.359375 53.867188 37.1875 C 53.609375 37.015625 53.339844 36.871094 53.054688 36.753906 C 52.769531 36.636719 52.476562 36.546875 52.175781 36.484375 C 51.875 36.425781 51.566406 36.394531 51.261719 36.390625 Z M 52.042969 38.738281 C 52.042969 39.210938 51.730469 39.523438 51.261719 39.523438 C 50.789062 39.523438 50.476562 39.210938 50.476562 38.738281 C 50.476562 38.269531 50.789062 37.957031 51.261719 37.957031 C 51.730469 37.957031 52.042969 38.269531 52.042969 38.738281 Z M 51.261719 44.21875 C 50.84375 44.21875 50.445312 44.136719 50.0625 43.976562 C 49.679688 43.816406 49.34375 43.589844 49.050781 43.296875 C 48.757812 43.003906 48.53125 42.667969 48.371094 42.285156 C 48.210938 41.902344 48.132812 41.503906 48.128906 41.085938 C 48.136719 40.289062 48.398438 39.585938 48.914062 38.976562 C 49.070312 40.148438 50.007812 41.089844 51.261719 41.089844 C 52.511719 41.089844 53.453125 40.148438 53.609375 38.976562 C 54.136719 39.582031 54.394531 40.285156 54.390625 41.085938 C 54.390625 41.503906 54.308594 41.902344 54.148438 42.285156 C 53.992188 42.667969 53.765625 43.003906 53.472656 43.296875 C 53.175781 43.589844 52.839844 43.816406 52.457031 43.976562 C 52.074219 44.136719 51.675781 44.214844 51.261719 44.21875 Z M 51.261719 44.21875 " fill-opacity="1" fill-rule="nonzero"/><path fill="#ff9999" d="M 52.042969 50.476562 L 37.957031 50.476562 C 37.488281 50.476562 37.175781 50.792969 37.175781 51.261719 C 37.175781 51.730469 37.488281 52.042969 37.957031 52.042969 L 52.042969 52.042969 C 52.511719 52.042969 52.824219 51.730469 52.824219 51.261719 C 52.824219 50.792969 52.511719 50.476562 52.042969 50.476562 Z M 52.042969 50.476562 " fill-opacity="1" fill-rule="nonzero"/></svg>