<svg xmlns="http://www.w3.org/2000/svg" xmlns:xlink="http://www.w3.org/1999/xlink" width="120" zoomAndPan="magnify" viewBox="0 0 90 89.999999" height="120" preserveAspectRatio="xMidYMid meet" version="1.0"><path fill="#ff9999" d="M 63 45 C 63 35.058594 54.941406 27 45 27 C 35.058594 27 27 35.058594 27 45 C 27 54.941406 35.058594 63 45 63 C 54.941406 63 63 54.941406 63 45 Z M 61.800781 45 C 61.800781 54.277344 54.277344 61.800781 45 61.800781 C 35.722656 61.800781 28.199219 54.277344 28.199219 45 C 28.199219 35.722656 35.722656 28.199219 45 28.199219 C 54.277344 28.199219 61.800781 35.722656 61.800781 45 " fill-opacity="1" fill-rule="nonzero"/><path fill="#ff9999" d="M 35.917969 38.230469 C 35.667969 38.449219 35.644531 38.828125 35.863281 39.078125 C 36.082031 39.328125 36.460938 39.351562 36.707031 39.132812 C 37.953125 38.035156 39.847656 38.15625 40.941406 39.402344 C 41.296875 39.804688 41.957031 39.578125 41.992188 39.042969 C 42.140625 36.726562 40.179688 34.5 37.863281 34.351562 C 37.53125 34.332031 37.246094 34.582031 37.226562 34.914062 C 37.207031 35.246094 37.457031 35.53125 37.789062 35.550781 C 38.980469 35.625 40.070312 36.507812 40.546875 37.613281 C 39.066406 36.886719 37.230469 37.074219 35.917969 38.230469 " fill-opacity="1" fill-rule="nonzero"/><path fill="#ff9999" d="M 52.210938 35.550781 C 52.542969 35.53125 52.792969 35.246094 52.773438 34.914062 C 52.753906 34.582031 52.46875 34.332031 52.136719 34.351562 C 49.820312 34.5 47.859375 36.726562 48.007812 39.042969 C 48.042969 39.578125 48.703125 39.804688 49.058594 39.402344 C 50.152344 38.15625 52.046875 38.035156 53.292969 39.132812 C 53.539062 39.351562 53.917969 39.328125 54.136719 39.078125 C 54.355469 38.828125 54.332031 38.449219 54.082031 38.230469 C 52.769531 37.074219 50.933594 36.886719 49.453125 37.613281 C 49.929688 36.507812 51.019531 35.625 52.210938 35.550781 " fill-opacity="1" fill-rule="nonzero"/><path fill="#ff9999" d="M 34.199219 54.601562 C 34.199219 54.929688 34.46875 55.199219 34.800781 55.199219 L 55.199219 55.199219 C 55.53125 55.199219 55.800781 54.929688 55.800781 54.601562 C 55.800781 48.636719 50.964844 43.800781 45 43.800781 C 39.035156 43.800781 34.199219 48.636719 34.199219 54.601562 Z M 45 45 C 50.101562 45 54.273438 48.976562 54.582031 54 L 35.417969 54 C 35.726562 48.976562 39.898438 45 45 45 " fill-opacity="1" fill-rule="nonzero"/><path fill="#ff9999" d="M 42 52.800781 L 48 52.800781 L 48 54 L 42 54 Z M 41.398438 55.199219 L 48.601562 55.199219 C 48.929688 55.199219 49.199219 54.929688 49.199219 54.601562 L 49.199219 52.199219 C 49.199219 51.867188 48.929688 51.601562 48.601562 51.601562 L 41.398438 51.601562 C 41.070312 51.601562 40.800781 51.867188 40.800781 52.199219 L 40.800781 54.601562 C 40.800781 54.929688 41.070312 55.199219 41.398438 55.199219 " fill-opacity="1" fill-rule="nonzero"/><path fill="#ff9999" d="M 49.199219 52.800781 L 51 52.800781 C 51.785156 52.800781 52.449219 53.300781 52.699219 54 L 49.199219 54 Z M 48 52.199219 L 48 54.601562 C 48 54.929688 48.269531 55.199219 48.601562 55.199219 L 53.398438 55.199219 C 53.730469 55.199219 54 54.929688 54 54.601562 C 54 52.941406 52.65625 51.601562 51 51.601562 L 48.601562 51.601562 C 48.269531 51.601562 48 51.867188 48 52.199219 " fill-opacity="1" fill-rule="nonzero"/><path fill="#ff9999" d="M 39.003906 52.800781 L 40.800781 52.800781 L 40.800781 54 L 37.304688 54 C 37.550781 53.300781 38.21875 52.800781 39.003906 52.800781 Z M 36.601562 55.199219 L 41.398438 55.199219 C 41.730469 55.199219 42 54.929688 42 54.601562 L 42 52.199219 C 42 51.867188 41.730469 51.601562 41.398438 51.601562 L 39.003906 51.601562 C 37.347656 51.601562 36.003906 52.941406 36 54.597656 C 36 54.929688 36.269531 55.199219 36.601562 55.199219 " fill-opacity="1" fill-rule="nonzero"/><path fill="#ff9999" d="M 40.605469 51.601562 C 41.289062 50.425781 41.925781 49.808594 42.601562 49.808594 C 43.203125 49.808594 43.839844 50.167969 44.597656 50.847656 C 44.828125 51.050781 45.171875 51.050781 45.402344 50.847656 C 46.160156 50.167969 46.796875 49.808594 47.398438 49.808594 C 48.074219 49.808594 48.710938 50.429688 49.394531 51.601562 Z M 42.601562 48.609375 C 41.113281 48.609375 40.148438 49.769531 39.0625 51.929688 C 38.863281 52.328125 39.152344 52.800781 39.601562 52.800781 L 50.398438 52.800781 C 50.847656 52.800781 51.136719 52.332031 50.9375 51.929688 C 49.855469 49.773438 48.886719 48.609375 47.398438 48.609375 C 46.5625 48.609375 45.804688 48.964844 45 49.613281 C 44.195312 48.964844 43.4375 48.609375 42.601562 48.609375 " fill-opacity="1" fill-rule="nonzero"/></svg>