<svg xmlns="http://www.w3.org/2000/svg" xmlns:xlink="http://www.w3.org/1999/xlink" width="1080" zoomAndPan="magnify" viewBox="0 0 810 809.999993" height="1080" preserveAspectRatio="xMidYMid meet" version="1.0"><path fill="#ffffff" d="M 519.550781 290.449219 C 488.953125 259.851562 448.273438 243 405 243 C 361.726562 243 321.046875 259.851562 290.449219 290.449219 C 259.851562 321.046875 243 361.726562 243 405 C 243 448.273438 259.851562 488.953125 290.449219 519.550781 C 321.046875 550.148438 361.726562 567 405 567 C 448.273438 567 488.953125 550.148438 519.550781 519.550781 C 550.148438 488.953125 567 448.273438 567 405 C 567 361.726562 550.148438 321.046875 519.550781 290.449219 Z M 506.128906 506.128906 C 479.113281 533.136719 443.199219 548.015625 405 548.015625 C 366.796875 548.015625 330.886719 533.136719 303.871094 506.128906 C 276.863281 479.113281 261.984375 443.199219 261.984375 405 C 261.984375 366.800781 276.863281 330.886719 303.871094 303.871094 C 330.886719 276.863281 366.796875 261.984375 405 261.984375 C 443.199219 261.984375 479.113281 276.863281 506.128906 303.871094 C 533.136719 330.886719 548.015625 366.800781 548.015625 405 C 548.015625 443.203125 533.136719 479.113281 506.128906 506.128906 Z M 506.128906 506.128906 " fill-opacity="1" fill-rule="nonzero"/><path fill="#ffffff" d="M 470.027344 458.34375 L 339.980469 458.34375 C 334.738281 458.34375 330.488281 462.59375 330.488281 467.835938 C 330.488281 473.078125 334.738281 477.328125 339.980469 477.328125 L 470.027344 477.328125 C 475.273438 477.328125 479.519531 473.078125 479.519531 467.835938 C 479.519531 462.59375 475.273438 458.34375 470.027344 458.34375 Z M 470.027344 458.34375 " fill-opacity="1" fill-rule="nonzero"/><path fill="#ffffff" d="M 380.625 393.882812 C 380.625 375.863281 365.964844 361.203125 347.945312 361.203125 C 329.925781 361.203125 315.265625 375.863281 315.265625 393.882812 C 315.265625 411.902344 329.925781 426.5625 347.945312 426.5625 C 365.964844 426.5625 380.625 411.902344 380.625 393.882812 Z M 334.253906 393.882812 C 334.253906 386.332031 340.394531 380.1875 347.949219 380.1875 C 355.5 380.1875 361.640625 386.332031 361.640625 393.882812 C 361.640625 401.433594 355.5 407.578125 347.949219 407.578125 C 340.394531 407.578125 334.253906 401.433594 334.253906 393.882812 Z M 334.253906 393.882812 " fill-opacity="1" fill-rule="nonzero"/><path fill="#ffffff" d="M 462.0625 348.492188 C 440.539062 348.492188 423.027344 366.003906 423.027344 387.527344 C 423.027344 409.050781 440.539062 426.5625 462.0625 426.5625 C 483.585938 426.5625 501.097656 409.050781 501.097656 387.527344 C 501.097656 366.003906 483.585938 348.492188 462.0625 348.492188 Z M 462.0625 407.578125 C 451.007812 407.578125 442.011719 398.582031 442.011719 387.523438 C 442.011719 376.472656 451.007812 367.476562 462.0625 367.476562 C 473.121094 367.476562 482.113281 376.472656 482.113281 387.523438 C 482.113281 398.582031 473.121094 407.578125 462.0625 407.578125 Z M 462.0625 407.578125 " fill-opacity="1" fill-rule="nonzero"/><path fill="#ffffff" d="M 425.433594 335.71875 C 426 335.820312 426.5625 335.867188 427.117188 335.867188 C 431.628906 335.867188 435.628906 332.636719 436.449219 328.042969 C 438.402344 317.097656 448.898438 309.785156 459.839844 311.738281 C 465 312.660156 469.933594 309.222656 470.851562 304.0625 C 471.773438 298.902344 468.335938 293.972656 463.175781 293.050781 C 441.917969 289.253906 421.550781 303.457031 417.757812 324.707031 C 416.839844 329.867188 420.277344 334.796875 425.433594 335.71875 Z M 425.433594 335.71875 " fill-opacity="1" fill-rule="nonzero"/><path fill="#ffffff" d="M 322.5 337.886719 C 322.503906 337.863281 323.148438 335.503906 324.660156 334.609375 C 326.132812 333.738281 329.019531 333.957031 332.582031 335.207031 C 355.082031 343.101562 363.761719 347.917969 363.8125 347.949219 C 365.300781 348.796875 366.914062 349.199219 368.515625 349.199219 C 371.808594 349.199219 375.015625 347.484375 376.765625 344.414062 C 379.363281 339.863281 377.785156 334.066406 373.234375 331.464844 C 372.84375 331.242188 363.371094 325.886719 338.867188 317.292969 C 332.511719 315.0625 323.207031 313.421875 315.007812 318.261719 C 305.878906 323.652344 303.96875 333.617188 303.78125 334.738281 C 302.910156 339.90625 306.398438 344.804688 311.566406 345.671875 C 316.734375 346.542969 321.628906 343.054688 322.5 337.886719 Z M 322.5 337.886719 " fill-opacity="1" fill-rule="nonzero"/></svg>