<svg xmlns="http://www.w3.org/2000/svg" xmlns:xlink="http://www.w3.org/1999/xlink" width="120" zoomAndPan="magnify" viewBox="0 0 90 89.999999" height="120" preserveAspectRatio="xMidYMid meet" version="1.0"><path fill="#ff9999" d="M 63 45 C 63 35.0625 54.9375 27 45 27 C 35.0625 27 27 35.0625 27 45 C 27 54.9375 35.0625 63 45 63 C 54.9375 63 63 54.9375 63 45 Z M 28.636719 45 C 28.636719 35.964844 35.964844 28.636719 45 28.636719 C 54.035156 28.636719 61.363281 35.964844 61.363281 45 C 61.363281 54.035156 54.035156 61.363281 45 61.363281 C 35.964844 61.363281 28.636719 54.035156 28.636719 45 Z M 28.636719 45 " fill-opacity="1" fill-rule="nonzero"/><path fill="#ff9999" d="M 40.089844 45 C 40.089844 45.902344 39.359375 46.636719 38.453125 46.636719 C 37.550781 46.636719 36.816406 45.902344 36.816406 45 C 36.816406 44.097656 37.550781 43.363281 38.453125 43.363281 C 39.359375 43.363281 40.089844 44.097656 40.089844 45 Z M 40.089844 45 " fill-opacity="1" fill-rule="evenodd"/><path fill="#ff9999" d="M 53.183594 45 C 53.183594 45.902344 52.449219 46.636719 51.546875 46.636719 C 50.640625 46.636719 49.910156 45.902344 49.910156 45 C 49.910156 44.097656 50.640625 43.363281 51.546875 43.363281 C 52.449219 43.363281 53.183594 44.097656 53.183594 45 Z M 53.183594 45 " fill-opacity="1" fill-rule="evenodd"/><path fill="#ff9999" d="M 49.089844 54.816406 C 49.542969 54.816406 49.910156 54.453125 49.910156 54 C 49.910156 53.546875 49.542969 53.183594 49.089844 53.183594 L 40.910156 53.183594 C 40.457031 53.183594 40.089844 53.546875 40.089844 54 C 40.089844 54.453125 40.457031 54.816406 40.910156 54.816406 Z M 49.089844 54.816406 " fill-opacity="1" fill-rule="nonzero"/></svg>