<svg xmlns="http://www.w3.org/2000/svg" xmlns:xlink="http://www.w3.org/1999/xlink" width="120" zoomAndPan="magnify" viewBox="0 0 90 89.999999" height="120" preserveAspectRatio="xMidYMid meet" version="1.0"><path fill="#ff9999" d="M 63 45 C 63 35.058594 54.941406 27 45 27 C 35.058594 27 27 35.058594 27 45 C 27 54.941406 35.058594 63 45 63 C 54.941406 63 63 54.941406 63 45 Z M 61.800781 45 C 61.800781 54.277344 54.277344 61.800781 45 61.800781 C 35.722656 61.800781 28.199219 54.277344 28.199219 45 C 28.199219 35.722656 35.722656 28.199219 45 28.199219 C 54.277344 28.199219 61.800781 35.722656 61.800781 45 " fill-opacity="1" fill-rule="nonzero"/><path fill="#ff9999" d="M 53.566406 38.976562 C 53.882812 38.886719 54.066406 38.554688 53.976562 38.234375 C 53.886719 37.917969 53.554688 37.730469 53.234375 37.824219 L 49.035156 39.023438 C 48.453125 39.1875 48.453125 40.011719 49.035156 40.175781 L 53.234375 41.378906 C 53.554688 41.46875 53.886719 41.285156 53.976562 40.964844 C 54.066406 40.644531 53.882812 40.3125 53.566406 40.222656 L 51.382812 39.601562 L 53.566406 38.976562 " fill-opacity="1" fill-rule="nonzero"/><path fill="#ff9999" d="M 36.433594 40.222656 C 36.117188 40.3125 35.933594 40.644531 36.023438 40.964844 C 36.113281 41.285156 36.445312 41.46875 36.765625 41.378906 L 40.964844 40.175781 C 41.546875 40.011719 41.546875 39.1875 40.964844 39.023438 L 36.765625 37.824219 C 36.445312 37.730469 36.113281 37.917969 36.023438 38.234375 C 35.933594 38.554688 36.117188 38.886719 36.433594 38.976562 L 38.617188 39.601562 L 36.433594 40.222656 " fill-opacity="1" fill-rule="nonzero"/><path fill="#ff9999" d="M 39.808594 51.367188 C 42.257812 47.820312 47.113281 46.933594 50.660156 49.386719 C 50.929688 49.574219 51.304688 49.507812 51.492188 49.234375 C 51.683594 48.960938 51.613281 48.585938 51.339844 48.398438 C 47.25 45.570312 41.648438 46.59375 38.820312 50.683594 C 38.632812 50.957031 38.699219 51.332031 38.972656 51.519531 C 39.246094 51.707031 39.617188 51.640625 39.808594 51.367188 " fill-opacity="1" fill-rule="nonzero"/><path fill="#ff9999" d="M 37.320312 36.050781 C 38.109375 35.886719 38.925781 36.125 39.503906 36.703125 C 39.738281 36.9375 40.117188 36.9375 40.351562 36.703125 C 40.585938 36.472656 40.585938 36.089844 40.351562 35.855469 C 39.484375 34.988281 38.257812 34.632812 37.078125 34.875 C 36.753906 34.941406 36.546875 35.257812 36.613281 35.582031 C 36.679688 35.910156 36.996094 36.117188 37.320312 36.050781 " fill-opacity="1" fill-rule="nonzero"/><path fill="#ff9999" d="M 50.503906 36.703125 C 51.082031 36.125 51.894531 35.890625 52.679688 36.046875 C 53.003906 36.113281 53.324219 35.90625 53.386719 35.578125 C 53.453125 35.253906 53.246094 34.9375 52.917969 34.871094 C 51.746094 34.632812 50.519531 34.988281 49.65625 35.855469 C 49.421875 36.089844 49.421875 36.46875 49.65625 36.703125 C 49.890625 36.9375 50.269531 36.9375 50.503906 36.703125 " fill-opacity="1" fill-rule="nonzero"/></svg>