<svg xmlns="http://www.w3.org/2000/svg" xmlns:xlink="http://www.w3.org/1999/xlink" width="1080" zoomAndPan="magnify" viewBox="0 0 810 809.999993" height="1080" preserveAspectRatio="xMidYMid meet" version="1.0"><path fill="#ffffff" d="M 405 423.53125 C 377.589844 423.53125 352.640625 438.632812 339.875 462.996094 C 338.257812 466.042969 339.488281 469.863281 342.53125 471.484375 C 345.578125 473.105469 349.402344 471.875 351.023438 468.828125 C 361.585938 448.609375 382.253906 436.105469 405.066406 436.105469 C 427.875 436.105469 448.480469 448.675781 459.109375 468.828125 C 460.210938 470.964844 462.414062 472.199219 464.679688 472.199219 C 465.652344 472.199219 466.625 471.9375 467.597656 471.484375 C 470.640625 469.863281 471.875 466.105469 470.253906 462.996094 C 457.359375 438.632812 432.410156 423.53125 405 423.53125 Z M 405 423.53125 " fill-opacity="1" fill-rule="nonzero"/><path fill="#ffffff" d="M 405 243 C 315.640625 243 243 315.640625 243 405 C 243 494.359375 315.640625 567 405 567 C 494.359375 567 567 494.359375 567 405 C 567 315.640625 494.359375 243 405 243 Z M 405 554.492188 C 322.574219 554.492188 255.507812 487.425781 255.507812 405 C 255.507812 322.574219 322.574219 255.507812 405 255.507812 C 487.425781 255.507812 554.492188 322.574219 554.492188 405 C 554.492188 487.425781 487.425781 554.492188 405 554.492188 Z M 405 554.492188 " fill-opacity="1" fill-rule="nonzero"/><path fill="#ffffff" d="M 471.097656 336.636719 L 441.675781 346.875 C 436.039062 348.820312 432.992188 355.105469 434.9375 360.742188 C 436.882812 366.378906 443.167969 369.425781 448.804688 367.480469 L 478.222656 357.242188 C 483.863281 355.296875 486.90625 349.011719 484.964844 343.375 C 483.019531 337.671875 476.796875 334.691406 471.097656 336.636719 Z M 471.097656 336.636719 " fill-opacity="1" fill-rule="nonzero"/><path fill="#ffffff" d="M 374.996094 360.742188 C 376.941406 355.105469 373.960938 348.820312 368.257812 346.875 L 338.902344 336.636719 C 333.265625 334.691406 326.980469 337.671875 325.035156 343.375 C 323.09375 349.011719 326.074219 355.296875 331.777344 357.242188 L 361.195312 367.480469 C 366.769531 369.425781 373.054688 366.445312 374.996094 360.742188 Z M 374.996094 360.742188 " fill-opacity="1" fill-rule="nonzero"/></svg>