<svg xmlns="http://www.w3.org/2000/svg" xmlns:xlink="http://www.w3.org/1999/xlink" width="1080" zoomAndPan="magnify" viewBox="0 0 810 809.999993" height="1080" preserveAspectRatio="xMidYMid meet" version="1.0"><path fill="#ffffff" d="M 405 404.027344 C 375.191406 404.027344 349.207031 423.144531 340.328125 451.59375 C 338.96875 456 339.421875 460.730469 341.625 464.875 C 343.828125 469.023438 347.714844 472.132812 352.1875 473.363281 C 362.296875 476.28125 379.726562 479.714844 404.933594 479.714844 C 430.207031 479.714844 447.574219 476.28125 457.683594 473.363281 C 462.152344 472.070312 466.042969 468.957031 468.246094 464.8125 C 470.449219 460.664062 470.964844 455.933594 469.539062 451.527344 C 460.792969 423.144531 434.808594 404.027344 405 404.027344 Z M 457.359375 458.914062 C 456.710938 460.082031 455.671875 460.988281 454.378906 461.3125 C 444.980469 463.96875 428.847656 467.207031 405.066406 467.207031 C 381.28125 467.207031 365.082031 464.035156 355.753906 461.3125 C 354.457031 460.921875 353.417969 460.082031 352.769531 458.914062 C 352.1875 457.8125 352.058594 456.515625 352.382812 455.351562 C 359.640625 432.152344 380.828125 416.601562 405.066406 416.601562 C 429.363281 416.601562 450.554688 432.152344 457.746094 455.351562 C 458.070312 456.515625 457.941406 457.75 457.359375 458.914062 Z M 457.359375 458.914062 " fill-opacity="1" fill-rule="nonzero"/><path fill="#ffffff" d="M 405 243 C 315.640625 243 243 315.640625 243 405 C 243 494.359375 315.640625 567 405 567 C 494.359375 567 567 494.359375 567 405 C 567 315.640625 494.359375 243 405 243 Z M 405 554.496094 C 322.574219 554.496094 255.507812 487.425781 255.507812 405 C 255.507812 322.574219 322.574219 255.507812 405 255.507812 C 487.425781 255.507812 554.492188 322.574219 554.492188 405 C 554.492188 487.425781 487.425781 554.496094 405 554.496094 Z M 405 554.496094 " fill-opacity="1" fill-rule="nonzero"/><path fill="#ffffff" d="M 370.851562 321.539062 C 368.90625 315.902344 362.621094 312.855469 356.984375 314.800781 L 327.5625 325.039062 C 321.925781 326.980469 318.878906 333.265625 320.824219 338.90625 C 322.769531 344.542969 329.054688 347.589844 334.691406 345.644531 L 364.109375 335.40625 C 369.75 333.460938 372.792969 327.242188 370.851562 321.539062 Z M 370.851562 321.539062 " fill-opacity="1" fill-rule="nonzero"/><path fill="#ffffff" d="M 482.5 325.101562 L 453.082031 314.863281 C 447.445312 312.921875 441.160156 315.902344 439.214844 321.601562 C 437.269531 327.242188 440.25 333.527344 445.953125 335.46875 L 475.371094 345.707031 C 481.011719 347.652344 487.296875 344.671875 489.238281 338.96875 C 491.183594 333.265625 488.136719 327.046875 482.5 325.101562 Z M 482.5 325.101562 " fill-opacity="1" fill-rule="nonzero"/></svg>