<svg xmlns="http://www.w3.org/2000/svg" xmlns:xlink="http://www.w3.org/1999/xlink" width="120" zoomAndPan="magnify" viewBox="0 0 90 89.999999" height="120" preserveAspectRatio="xMidYMid meet" version="1.0"><path fill="#ff9999" d="M 45 27 C 35.074219 27 27 35.074219 27 45 C 27 54.925781 35.074219 63 45 63 C 54.925781 63 63 54.925781 63 45 C 63 35.074219 54.925781 27 45 27 Z M 45 61.5 C 35.902344 61.5 28.5 54.097656 28.5 45 C 28.5 35.902344 35.902344 28.5 45 28.5 C 54.097656 28.5 61.5 35.902344 61.5 45 C 61.5 54.097656 54.097656 61.5 45 61.5 Z M 45 61.5 " fill-opacity="1" fill-rule="nonzero"/><path fill="#ff9999" d="M 40.5 40.5 C 40.5 41.328125 39.828125 42 39 42 C 38.171875 42 37.5 41.328125 37.5 40.5 C 37.5 39.671875 38.171875 39 39 39 C 39.828125 39 40.5 39.671875 40.5 40.5 Z M 40.5 40.5 " fill-opacity="1" fill-rule="nonzero"/><path fill="#ff9999" d="M 52.5 40.5 C 52.5 41.328125 51.828125 42 51 42 C 50.171875 42 49.5 41.328125 49.5 40.5 C 49.5 39.671875 50.171875 39 51 39 C 51.828125 39 52.5 39.671875 52.5 40.5 Z M 52.5 40.5 " fill-opacity="1" fill-rule="nonzero"/><path fill="#ff9999" d="M 56.25 42 C 55.007812 42 54 43.007812 54 44.25 C 54 44.597656 54.085938 44.921875 54.226562 45.214844 L 49.257812 50.179688 C 48.050781 49.789062 46.644531 49.5 45 49.5 L 44.996094 49.5 C 39.5 49.5 36.351562 52.589844 36.21875 52.71875 C 35.925781 53.011719 35.925781 53.484375 36.21875 53.777344 C 36.367188 53.925781 36.558594 54 36.75 54 C 36.941406 54 37.132812 53.925781 37.277344 53.78125 C 37.308594 53.753906 40.148438 51 44.996094 51 L 45 51 C 49.851562 51 52.691406 53.753906 52.722656 53.78125 C 53.015625 54.074219 53.488281 54.070312 53.78125 53.777344 C 54.074219 53.484375 54.074219 53.011719 53.78125 52.71875 C 53.707031 52.644531 52.648438 51.644531 50.785156 50.773438 L 55.285156 46.273438 C 55.578125 46.414062 55.902344 46.5 56.25 46.5 C 57.492188 46.5 58.5 45.492188 58.5 44.25 C 58.5 43.007812 57.492188 42 56.25 42 Z M 56.25 45 C 55.835938 45 55.5 44.664062 55.5 44.25 C 55.5 43.835938 55.835938 43.5 56.25 43.5 C 56.664062 43.5 57 43.835938 57 44.25 C 57 44.664062 56.664062 45 56.25 45 Z M 56.25 45 " fill-opacity="1" fill-rule="nonzero"/></svg>