<svg xmlns="http://www.w3.org/2000/svg" xmlns:xlink="http://www.w3.org/1999/xlink" width="1080" zoomAndPan="magnify" viewBox="0 0 810 809.999993" height="1080" preserveAspectRatio="xMidYMid meet" version="1.0"><path fill="#ffffff" d="M 405 243.011719 C 315.554688 243.011719 243.011719 315.554688 243.011719 405 C 243.011719 494.445312 315.554688 566.988281 405 566.988281 C 494.445312 566.988281 566.988281 494.445312 566.988281 405 C 566.988281 315.554688 494.445312 243.011719 405 243.011719 Z M 405 552.902344 C 323.304688 552.902344 257.097656 486.695312 257.097656 405 C 257.097656 323.304688 323.304688 257.097656 405 257.097656 C 486.695312 257.097656 552.902344 323.304688 552.902344 405 C 552.902344 486.695312 486.695312 552.902344 405 552.902344 Z M 405 552.902344 " fill-opacity="1" fill-rule="nonzero"/><path fill="#ffffff" d="M 359.21875 376.824219 C 372.601562 376.824219 383.871094 365.554688 383.871094 352.175781 C 383.871094 338.792969 372.601562 327.523438 359.21875 327.523438 C 345.839844 327.523438 334.566406 338.792969 334.566406 352.175781 C 334.566406 365.554688 345.839844 376.824219 359.21875 376.824219 Z M 359.21875 341.613281 C 359.914062 341.613281 360.601562 341.679688 361.28125 341.816406 C 361.960938 341.949219 362.625 342.148438 363.265625 342.414062 C 363.90625 342.679688 364.515625 343.003906 365.09375 343.390625 C 365.667969 343.777344 366.203125 344.214844 366.695312 344.703125 C 367.1875 345.195312 367.625 345.726562 368.011719 346.304688 C 368.394531 346.882812 368.722656 347.492188 368.988281 348.132812 C 369.253906 348.773438 369.453125 349.433594 369.589844 350.113281 C 369.726562 350.796875 369.792969 351.484375 369.792969 352.175781 C 369.792969 352.871094 369.726562 353.558594 369.589844 354.238281 C 369.457031 354.917969 369.253906 355.582031 368.992188 356.222656 C 368.726562 356.863281 368.398438 357.472656 368.015625 358.050781 C 367.628906 358.628906 367.191406 359.160156 366.699219 359.652344 C 366.207031 360.144531 365.675781 360.582031 365.097656 360.96875 C 364.519531 361.351562 363.910156 361.679688 363.269531 361.945312 C 362.628906 362.210938 361.96875 362.410156 361.289062 362.546875 C 360.609375 362.679688 359.921875 362.75 359.226562 362.75 C 358.53125 362.75 357.84375 362.679688 357.164062 362.546875 C 356.484375 362.410156 355.824219 362.210938 355.183594 361.945312 C 354.542969 361.679688 353.933594 361.355469 353.355469 360.96875 C 352.777344 360.582031 352.246094 360.144531 351.753906 359.65625 C 351.261719 359.164062 350.824219 358.628906 350.4375 358.054688 C 350.054688 357.476562 349.726562 356.867188 349.460938 356.226562 C 349.195312 355.585938 348.996094 354.921875 348.863281 354.242188 C 348.726562 353.5625 348.660156 352.875 348.660156 352.179688 C 348.675781 351.492188 348.753906 350.8125 348.902344 350.136719 C 349.046875 349.464844 349.253906 348.808594 349.527344 348.175781 C 349.796875 347.542969 350.125 346.941406 350.511719 346.367188 C 350.898438 345.796875 351.335938 345.269531 351.820312 344.78125 C 352.308594 344.292969 352.835938 343.855469 353.410156 343.46875 C 353.980469 343.082031 354.582031 342.753906 355.214844 342.484375 C 355.847656 342.210938 356.503906 342.003906 357.175781 341.855469 C 357.847656 341.710938 358.53125 341.628906 359.21875 341.613281 Z M 359.21875 341.613281 " fill-opacity="1" fill-rule="nonzero"/><path fill="#ffffff" d="M 450.78125 327.53125 C 437.398438 327.53125 426.128906 338.800781 426.128906 352.179688 C 426.128906 365.5625 437.398438 376.832031 450.78125 376.832031 C 464.160156 376.832031 475.433594 365.5625 475.433594 352.179688 C 475.433594 338.800781 464.160156 327.53125 450.78125 327.53125 Z M 450.78125 362.742188 C 450.085938 362.742188 449.398438 362.675781 448.71875 362.539062 C 448.039062 362.402344 447.378906 362.203125 446.738281 361.9375 C 446.09375 361.671875 445.488281 361.347656 444.910156 360.960938 C 444.332031 360.578125 443.796875 360.136719 443.308594 359.648438 C 442.816406 359.15625 442.378906 358.625 441.992188 358.046875 C 441.609375 357.46875 441.28125 356.859375 441.015625 356.21875 C 440.75 355.578125 440.550781 354.917969 440.414062 354.234375 C 440.28125 353.554688 440.210938 352.867188 440.210938 352.175781 C 440.210938 351.480469 440.28125 350.792969 440.417969 350.113281 C 440.550781 349.429688 440.753906 348.769531 441.019531 348.128906 C 441.285156 347.488281 441.609375 346.878906 441.996094 346.300781 C 442.382812 345.722656 442.820312 345.191406 443.308594 344.699219 C 443.800781 344.210938 444.335938 343.769531 444.914062 343.386719 C 445.488281 343 446.097656 342.675781 446.738281 342.410156 C 447.382812 342.144531 448.042969 341.945312 448.722656 341.808594 C 449.402344 341.671875 450.089844 341.605469 450.785156 341.605469 C 451.480469 341.605469 452.167969 341.675781 452.847656 341.808594 C 453.527344 341.945312 454.1875 342.148438 454.828125 342.414062 C 455.46875 342.679688 456.078125 343.003906 456.65625 343.390625 C 457.234375 343.777344 457.765625 344.214844 458.257812 344.707031 C 458.746094 345.195312 459.183594 345.730469 459.570312 346.308594 C 459.957031 346.886719 460.28125 347.496094 460.546875 348.136719 C 460.8125 348.777344 461.011719 349.4375 461.148438 350.117188 C 461.28125 350.800781 461.347656 351.488281 461.347656 352.179688 C 461.332031 352.871094 461.25 353.550781 461.105469 354.226562 C 460.957031 354.898438 460.75 355.550781 460.476562 356.183594 C 460.207031 356.820312 459.878906 357.421875 459.492188 357.992188 C 459.105469 358.5625 458.667969 359.089844 458.179688 359.578125 C 457.691406 360.066406 457.164062 360.503906 456.59375 360.890625 C 456.023438 361.273438 455.417969 361.601562 454.785156 361.875 C 454.152344 362.144531 453.5 362.351562 452.824219 362.5 C 452.152344 362.644531 451.46875 362.726562 450.78125 362.742188 Z M 450.78125 362.742188 " fill-opacity="1" fill-rule="nonzero"/><path fill="#ffffff" d="M 466.277344 426.128906 L 339.503906 461.339844 C 335.980469 462.019531 333.871094 466.269531 334.574219 469.792969 C 335.25 472.613281 338.097656 474.722656 341.621094 474.722656 L 343.734375 474.722656 L 470.503906 439.484375 C 474.027344 438.804688 476.136719 434.554688 475.433594 431.03125 C 474.019531 427.535156 470.503906 425.425781 466.277344 426.128906 Z M 466.277344 426.128906 " fill-opacity="1" fill-rule="nonzero"/></svg>