<svg xmlns="http://www.w3.org/2000/svg" xmlns:xlink="http://www.w3.org/1999/xlink" width="120" zoomAndPan="magnify" viewBox="0 0 90 89.999999" height="120" preserveAspectRatio="xMidYMid meet" version="1.0"><path fill="#ff9999" d="M 45 27 C 35.074219 27 27 35.074219 27 45 C 27 54.925781 35.074219 63 45 63 C 54.925781 63 63 54.925781 63 45 C 63 35.074219 54.925781 27 45 27 Z M 45 61.5 C 35.902344 61.5 28.5 54.097656 28.5 45 C 28.5 35.902344 35.902344 28.5 45 28.5 C 54.097656 28.5 61.5 35.902344 61.5 45 C 61.5 54.097656 54.097656 61.5 45 61.5 Z M 45 61.5 " fill-opacity="1" fill-rule="nonzero"/><path fill="#ff9999" d="M 53.25 40.5 L 48.75 40.5 C 48.335938 40.5 48 40.835938 48 41.25 C 48 41.664062 48.335938 42 48.75 42 L 49.5 42 C 49.5 42.828125 50.171875 43.5 51 43.5 C 51.828125 43.5 52.5 42.828125 52.5 42 L 53.25 42 C 53.664062 42 54 41.664062 54 41.25 C 54 40.835938 53.664062 40.5 53.25 40.5 Z M 53.25 40.5 " fill-opacity="1" fill-rule="nonzero"/><path fill="#ff9999" d="M 40.5 42 L 41.25 42 C 41.664062 42 42 41.664062 42 41.25 C 42 40.835938 41.664062 40.5 41.25 40.5 L 36.75 40.5 C 36.335938 40.5 36 40.835938 36 41.25 C 36 41.664062 36.335938 42 36.75 42 L 37.5 42 C 37.5 42.828125 38.171875 43.5 39 43.5 C 39.828125 43.5 40.5 42.828125 40.5 42 Z M 40.5 42 " fill-opacity="1" fill-rule="nonzero"/><path fill="#ff9999" d="M 50.25 52.5 L 39.75 52.5 C 39.335938 52.5 39 52.835938 39 53.25 C 39 53.664062 39.335938 54 39.75 54 L 50.25 54 C 50.664062 54 51 53.664062 51 53.25 C 51 52.835938 50.664062 52.5 50.25 52.5 Z M 50.25 52.5 " fill-opacity="1" fill-rule="nonzero"/></svg>