<svg xmlns="http://www.w3.org/2000/svg" xmlns:xlink="http://www.w3.org/1999/xlink" width="1080" zoomAndPan="magnify" viewBox="0 0 810 809.999993" height="1080" preserveAspectRatio="xMidYMid meet" version="1.0"><path fill="#ffffff" d="M 405 243 C 315.640625 243 243 315.640625 243 405 C 243 494.359375 315.640625 567 405 567 C 494.359375 567 567 494.359375 567 405 C 567 315.640625 494.359375 243 405 243 Z M 405 554.492188 C 322.574219 554.492188 255.507812 487.425781 255.507812 405 C 255.507812 322.574219 322.574219 255.507812 405 255.507812 C 487.425781 255.507812 554.492188 322.574219 554.492188 405 C 554.492188 487.425781 487.425781 554.492188 405 554.492188 Z M 405 554.492188 " fill-opacity="1" fill-rule="nonzero"/><path fill="#ffffff" d="M 389.449219 338.0625 C 389.449219 334.628906 386.660156 331.777344 383.164062 331.777344 L 305.335938 331.777344 C 301.902344 331.777344 299.050781 334.5625 299.050781 338.0625 C 299.050781 341.5625 301.839844 344.347656 305.335938 344.347656 L 383.226562 344.347656 C 386.660156 344.28125 389.449219 341.496094 389.449219 338.0625 Z M 389.449219 338.0625 " fill-opacity="1" fill-rule="nonzero"/><path fill="#ffffff" d="M 504.664062 331.777344 L 426.773438 331.777344 C 423.339844 331.777344 420.488281 334.5625 420.488281 338.0625 C 420.488281 341.5625 423.273438 344.347656 426.773438 344.347656 L 504.664062 344.347656 C 508.097656 344.347656 510.949219 341.5625 510.949219 338.0625 C 510.949219 334.5625 508.160156 331.777344 504.664062 331.777344 Z M 504.664062 331.777344 " fill-opacity="1" fill-rule="nonzero"/><path fill="#ffffff" d="M 428.328125 493.710938 L 381.671875 493.710938 C 378.238281 493.710938 375.386719 496.496094 375.386719 499.996094 C 375.386719 503.496094 378.171875 506.28125 381.671875 506.28125 L 428.328125 506.28125 C 431.761719 506.28125 434.613281 503.496094 434.613281 499.996094 C 434.613281 496.496094 431.828125 493.710938 428.328125 493.710938 Z M 428.328125 493.710938 " fill-opacity="1" fill-rule="nonzero"/></svg>