<svg xmlns="http://www.w3.org/2000/svg" xmlns:xlink="http://www.w3.org/1999/xlink" width="120" zoomAndPan="magnify" viewBox="0 0 90 89.999999" height="120" preserveAspectRatio="xMidYMid meet" version="1.0"><path fill="#ff9999" d="M 48.234375 54.160156 C 46.136719 55.910156 43.804688 55.910156 41.707031 54.160156 C 41.390625 53.898438 40.917969 53.9375 40.652344 54.257812 C 40.386719 54.574219 40.429688 55.046875 40.746094 55.308594 C 42.070312 56.417969 43.492188 56.976562 44.96875 56.976562 C 46.449219 56.976562 47.871094 56.414062 49.195312 55.308594 C 49.511719 55.042969 49.554688 54.570312 49.289062 54.253906 C 49.023438 53.933594 48.546875 53.894531 48.234375 54.160156 Z M 48.234375 54.160156 " fill-opacity="1" fill-rule="nonzero"/><path fill="#ff9999" d="M 54.703125 39.757812 C 54.289062 39.757812 53.953125 40.09375 53.953125 40.507812 C 53.953125 42.160156 52.609375 43.503906 50.960938 43.503906 C 49.308594 43.503906 47.964844 42.160156 47.964844 40.507812 C 47.964844 40.09375 47.628906 39.757812 47.214844 39.757812 C 46.800781 39.757812 46.464844 40.09375 46.464844 40.507812 C 46.464844 42.984375 48.480469 45 50.960938 45 C 53.4375 45 55.453125 42.984375 55.453125 40.507812 C 55.453125 40.09375 55.117188 39.757812 54.703125 39.757812 Z M 54.703125 39.757812 " fill-opacity="1" fill-rule="nonzero"/><path fill="#ff9999" d="M 43.472656 40.507812 C 43.472656 40.09375 43.136719 39.757812 42.722656 39.757812 C 42.308594 39.757812 41.972656 40.09375 41.972656 40.507812 C 41.972656 42.160156 40.628906 43.503906 38.980469 43.503906 C 37.328125 43.503906 35.984375 42.160156 35.984375 40.507812 C 35.984375 40.09375 35.648438 39.757812 35.234375 39.757812 C 34.820312 39.757812 34.488281 40.09375 34.488281 40.507812 C 34.488281 42.984375 36.503906 45 38.980469 45 C 41.457031 45 43.472656 42.984375 43.472656 40.507812 Z M 43.472656 40.507812 " fill-opacity="1" fill-rule="nonzero"/><path fill="#ff9999" d="M 59.195312 30.027344 L 60.382812 30.027344 L 58.664062 31.742188 C 58.453125 31.957031 58.386719 32.277344 58.503906 32.558594 C 58.617188 32.839844 58.890625 33.019531 59.195312 33.019531 L 62.191406 33.019531 C 62.605469 33.019531 62.9375 32.683594 62.9375 32.273438 C 62.9375 31.859375 62.605469 31.523438 62.191406 31.523438 L 61.003906 31.523438 L 62.71875 29.804688 C 62.933594 29.59375 62.996094 29.269531 62.882812 28.988281 C 62.765625 28.710938 62.492188 28.527344 62.191406 28.527344 L 59.195312 28.527344 C 58.78125 28.527344 58.445312 28.863281 58.445312 29.277344 C 58.445312 29.691406 58.78125 30.027344 59.195312 30.027344 Z M 59.195312 30.027344 " fill-opacity="1" fill-rule="nonzero"/><path fill="#ff9999" d="M 57.441406 32.089844 L 58.226562 31.304688 C 58.441406 31.089844 58.503906 30.769531 58.390625 30.488281 C 58.273438 30.207031 58 30.027344 57.699219 30.027344 L 54.878906 30.027344 C 52.039062 28.136719 48.632812 27.03125 44.96875 27.03125 C 35.058594 27.03125 27 35.089844 27 45 C 27 54.910156 35.058594 62.96875 44.96875 62.96875 C 54.878906 62.96875 62.9375 54.910156 62.9375 45 C 62.9375 39.933594 60.824219 35.359375 57.441406 32.089844 Z M 44.96875 61.472656 C 35.886719 61.472656 28.496094 54.082031 28.496094 45 C 28.496094 35.917969 35.886719 28.527344 44.96875 28.527344 C 47.402344 28.527344 49.710938 29.074219 51.792969 30.027344 L 51.707031 30.027344 C 51.292969 30.027344 50.960938 30.359375 50.960938 30.773438 C 50.960938 31.1875 51.292969 31.523438 51.707031 31.523438 L 54.410156 31.523438 C 54.699219 31.726562 54.980469 31.9375 55.257812 32.15625 L 51.179688 36.234375 C 50.964844 36.449219 50.902344 36.769531 51.015625 37.050781 C 51.132812 37.332031 51.40625 37.511719 51.707031 37.511719 L 57.699219 37.511719 C 58.109375 37.511719 58.445312 37.175781 58.445312 36.765625 C 58.445312 36.351562 58.109375 36.015625 57.699219 36.015625 L 53.515625 36.015625 L 56.382812 33.148438 C 59.492188 36.148438 61.441406 40.347656 61.441406 45 C 61.441406 54.082031 54.050781 61.472656 44.96875 61.472656 Z M 44.96875 61.472656 " fill-opacity="1" fill-rule="nonzero"/></svg>