<svg xmlns="http://www.w3.org/2000/svg" xmlns:xlink="http://www.w3.org/1999/xlink" width="1080" zoomAndPan="magnify" viewBox="0 0 810 809.999993" height="1080" preserveAspectRatio="xMidYMid meet" version="1.0"><path fill="#ffffff" d="M 405 243 C 315.640625 243 243 315.640625 243 405 C 243 494.359375 315.640625 567 405 567 C 494.359375 567 567 494.359375 567 405 C 567 315.640625 494.359375 243 405 243 Z M 405 554.492188 C 322.574219 554.492188 255.507812 487.425781 255.507812 405 C 255.507812 322.574219 322.574219 255.507812 405 255.507812 C 487.425781 255.507812 554.492188 322.574219 554.492188 405 C 554.492188 487.425781 487.425781 554.492188 405 554.492188 Z M 405 554.492188 " fill-opacity="1" fill-rule="nonzero"/><path fill="#ffffff" d="M 370.851562 327.757812 C 368.90625 322.121094 362.621094 319.074219 356.984375 321.019531 L 327.5625 331.257812 C 321.925781 333.203125 318.878906 339.488281 320.824219 345.125 C 322.769531 350.761719 329.054688 353.808594 334.691406 351.863281 L 364.109375 341.625 C 369.75 339.679688 372.792969 333.460938 370.851562 327.757812 Z M 370.851562 327.757812 " fill-opacity="1" fill-rule="nonzero"/><path fill="#ffffff" d="M 482.5 331.324219 L 453.082031 321.085938 C 447.445312 319.140625 441.160156 322.121094 439.214844 327.824219 C 437.269531 333.460938 440.25 339.746094 445.953125 341.691406 L 475.371094 351.929688 C 481.011719 353.871094 487.296875 350.890625 489.238281 345.191406 C 491.183594 339.488281 488.136719 333.265625 482.5 331.324219 Z M 482.5 331.324219 " fill-opacity="1" fill-rule="nonzero"/><path fill="#ffffff" d="M 453.144531 399.878906 C 443.878906 398.132812 428.003906 396.058594 405 396.058594 C 381.996094 396.058594 366.054688 398.132812 356.855469 399.878906 C 351.605469 400.851562 347.457031 403.640625 345.449219 407.59375 C 343.894531 410.636719 343.828125 414.136719 345.320312 417.183594 C 353.679688 434.679688 375.0625 446.019531 401.175781 446.730469 L 401.4375 446.730469 C 401.566406 447.121094 401.761719 447.507812 401.890625 447.832031 C 402.277344 448.738281 402.667969 449.839844 403.25 450.878906 C 403.445312 451.265625 403.640625 451.65625 403.832031 451.980469 C 405.066406 454.441406 407.59375 459.496094 413.683594 459.5625 C 413.683594 459.5625 413.746094 459.5625 413.746094 459.5625 C 418.738281 459.5625 421.652344 455.996094 423.402344 453.859375 C 423.597656 453.601562 423.792969 453.339844 423.988281 453.144531 C 424.570312 452.5 425.089844 451.785156 425.605469 451.136719 C 426.320312 450.230469 427.03125 449.324219 427.613281 448.738281 C 427.613281 448.871094 427.550781 449 427.484375 449.128906 C 427.160156 450.164062 426.511719 451.398438 425.867188 452.691406 C 425.023438 454.246094 424.117188 455.996094 423.46875 458.007812 C 422.496094 460.921875 419.839844 470.902344 425.867188 477.964844 C 429.429688 482.175781 434.226562 484.445312 439.148438 484.445312 C 440.964844 484.445312 442.777344 484.121094 444.527344 483.539062 C 452.238281 480.878906 456.0625 471.808594 455.15625 464.875 C 454.507812 460.078125 452.886719 456.582031 449.453125 452.824219 C 447.960938 451.203125 446.277344 448.351562 448.15625 442.585938 C 448.285156 442.128906 448.480469 441.613281 448.609375 441.09375 C 449.582031 437.917969 450.683594 434.289062 454.570312 430.402344 C 458.847656 426.578125 462.414062 421.914062 464.617188 417.246094 C 466.042969 414.203125 466.042969 410.703125 464.488281 407.65625 C 462.605469 403.640625 458.460938 400.851562 453.144531 399.878906 Z M 440.511719 471.550781 C 437.984375 472.390625 436.105469 470.578125 435.390625 469.734375 C 434.484375 468.632812 434.160156 465.394531 435.390625 461.828125 C 435.714844 460.792969 436.363281 459.625 437.011719 458.332031 C 437.207031 458.007812 437.335938 457.683594 437.53125 457.359375 C 438.242188 458.65625 439.148438 459.886719 440.1875 461.050781 C 441.871094 462.929688 442.453125 464.097656 442.777344 466.367188 C 443.039062 468.503906 441.675781 471.160156 440.511719 471.550781 Z M 446.148438 421.070312 L 445.890625 421.328125 C 439.796875 427.421875 437.855469 433.578125 436.753906 437.269531 C 436.621094 437.59375 436.558594 437.984375 436.429688 438.308594 C 435.84375 437.789062 435.261719 437.335938 434.613281 436.882812 C 429.882812 433.964844 423.792969 435.78125 420.035156 438.695312 C 418.15625 440.1875 416.792969 441.9375 415.628906 443.425781 C 415.238281 443.945312 414.847656 444.464844 414.394531 444.917969 C 414.332031 444.980469 414.332031 444.980469 414.265625 445.046875 C 414.203125 444.917969 414.136719 444.789062 414.070312 444.65625 C 413.941406 444.398438 413.683594 443.75 413.425781 443.167969 C 412.453125 440.640625 410.574219 435.84375 405.257812 434.355469 L 404.417969 434.09375 L 401.304688 434.09375 C 380.894531 433.511719 363.722656 425.21875 357.046875 412.839844 C 357.5 412.582031 358.085938 412.324219 358.992188 412.191406 C 367.738281 410.574219 382.773438 408.628906 404.871094 408.628906 C 426.96875 408.628906 442 410.574219 450.75 412.191406 C 451.65625 412.386719 452.304688 412.644531 452.691406 412.839844 C 451.265625 415.691406 448.871094 418.609375 446.148438 421.070312 Z M 446.148438 421.070312 " fill-opacity="1" fill-rule="nonzero"/></svg>