<svg xmlns="http://www.w3.org/2000/svg" xmlns:xlink="http://www.w3.org/1999/xlink" width="1080" zoomAndPan="magnify" viewBox="0 0 810 809.999993" height="1080" preserveAspectRatio="xMidYMid meet" version="1.0"><path fill="#ffffff" d="M 467.144531 468.375 C 456.773438 464.097656 445.371094 464.097656 435.003906 468.375 C 424.632812 472.652344 416.597656 480.75 412.324219 491.121094 C 411.027344 494.292969 412.515625 497.988281 415.691406 499.285156 C 416.46875 499.609375 417.3125 499.738281 418.089844 499.738281 C 420.550781 499.738281 422.886719 498.246094 423.855469 495.847656 C 426.835938 488.59375 432.539062 482.890625 439.796875 479.910156 C 447.054688 476.929688 455.027344 476.929688 462.347656 479.910156 C 465.523438 481.203125 469.214844 479.714844 470.511719 476.539062 C 471.875 473.363281 470.320312 469.734375 467.144531 468.375 Z M 467.144531 468.375 " fill-opacity="1" fill-rule="nonzero"/><path fill="#ffffff" d="M 405 243 C 315.640625 243 243 315.640625 243 405 C 243 494.359375 315.640625 567 405 567 C 494.359375 567 567 494.359375 567 405 C 567 315.640625 494.359375 243 405 243 Z M 405 554.492188 C 322.574219 554.492188 255.507812 487.425781 255.507812 405 C 255.507812 322.574219 322.574219 255.507812 405 255.507812 C 487.425781 255.507812 554.492188 322.574219 554.492188 405 C 554.492188 487.425781 487.425781 554.492188 405 554.492188 Z M 405 554.492188 " fill-opacity="1" fill-rule="nonzero"/><path fill="#ffffff" d="M 453.277344 299.050781 C 433.578125 299.050781 415.496094 309.226562 405 325.296875 C 394.503906 309.226562 376.421875 299.050781 356.722656 299.050781 C 324.90625 299.050781 299.050781 324.90625 299.050781 356.722656 C 299.050781 388.539062 324.90625 414.394531 356.722656 414.394531 C 376.421875 414.394531 394.503906 404.222656 405 388.152344 C 415.496094 404.222656 433.578125 414.394531 453.277344 414.394531 C 485.09375 414.394531 510.949219 388.539062 510.949219 356.722656 C 510.949219 324.90625 485.09375 299.050781 453.277344 299.050781 Z M 453.277344 401.824219 C 434.355469 401.824219 417.3125 389.835938 410.898438 372.015625 C 409.988281 369.554688 407.65625 367.871094 405 367.871094 C 402.34375 367.871094 400.011719 369.488281 399.101562 372.015625 C 392.625 389.835938 375.644531 401.824219 356.722656 401.824219 C 331.839844 401.824219 311.625 381.605469 311.625 356.722656 C 311.625 334.433594 327.886719 315.835938 349.207031 312.269531 C 346.746094 314.410156 345.125 317.585938 345.125 321.085938 C 345.125 327.5 350.308594 332.683594 356.722656 332.683594 C 363.140625 332.683594 368.324219 327.5 368.324219 321.085938 C 368.324219 317.585938 366.769531 314.410156 364.304688 312.269531 C 380.050781 314.992188 393.53125 326.007812 399.101562 341.367188 C 400.011719 343.828125 402.34375 345.511719 405 345.511719 C 407.65625 345.511719 409.988281 343.894531 410.898438 341.367188 C 416.46875 325.945312 429.949219 314.929688 445.695312 312.269531 C 443.230469 314.410156 441.675781 317.519531 441.675781 321.085938 C 441.675781 327.5 446.859375 332.683594 453.277344 332.683594 C 459.691406 332.683594 464.875 327.5 464.875 321.085938 C 464.875 317.585938 463.320312 314.410156 460.792969 312.269531 C 482.113281 315.898438 498.375 334.433594 498.375 356.722656 C 498.375 381.605469 478.160156 401.824219 453.277344 401.824219 Z M 453.277344 401.824219 " fill-opacity="1" fill-rule="nonzero"/></svg>