<svg xmlns="http://www.w3.org/2000/svg" xmlns:xlink="http://www.w3.org/1999/xlink" width="1080" zoomAndPan="magnify" viewBox="0 0 810 809.999993" height="1080" preserveAspectRatio="xMidYMid meet" version="1.0"><path fill="#ffffff" d="M 566.953125 404.964844 C 566.953125 315.539062 494.425781 243.015625 405 243.015625 C 315.574219 243.015625 243.046875 315.539062 243.046875 404.964844 C 243.046875 409.648438 243.25 414.320312 243.65625 418.980469 C 244.058594 423.644531 244.664062 428.28125 245.472656 432.890625 C 246.277344 437.5 247.28125 442.070312 248.480469 446.59375 C 249.683594 451.117188 251.078125 455.578125 252.664062 459.984375 C 254.25 464.386719 256.023438 468.710938 257.988281 472.960938 C 259.949219 477.210938 262.089844 481.367188 264.410156 485.433594 C 266.730469 489.496094 269.222656 493.453125 271.886719 497.300781 C 274.550781 501.148438 277.375 504.875 280.363281 508.480469 C 274.730469 514.113281 271.207031 522.589844 271.207031 531.714844 C 271.199219 532.871094 271.242188 534.023438 271.347656 535.175781 C 271.449219 536.328125 271.609375 537.46875 271.828125 538.605469 C 272.046875 539.742188 272.320312 540.863281 272.648438 541.972656 C 272.976562 543.082031 273.359375 544.167969 273.796875 545.238281 C 274.234375 546.308594 274.722656 547.355469 275.265625 548.378906 C 275.804688 549.398438 276.394531 550.390625 277.035156 551.355469 C 277.675781 552.316406 278.363281 553.246094 279.09375 554.140625 C 279.828125 555.035156 280.601562 555.890625 281.417969 556.707031 C 282.238281 557.527344 283.09375 558.300781 283.988281 559.035156 C 284.882812 559.765625 285.8125 560.453125 286.773438 561.09375 C 287.738281 561.730469 288.730469 562.324219 289.75 562.863281 C 290.773438 563.40625 291.816406 563.894531 292.886719 564.332031 C 293.957031 564.769531 295.046875 565.152344 296.15625 565.480469 C 297.265625 565.808594 298.386719 566.082031 299.523438 566.300781 C 300.65625 566.515625 301.800781 566.675781 302.953125 566.78125 C 304.105469 566.882812 305.257812 566.929688 306.414062 566.917969 L 503.578125 566.917969 C 504.734375 566.929688 505.890625 566.882812 507.039062 566.78125 C 508.191406 566.675781 509.335938 566.515625 510.472656 566.300781 C 511.605469 566.082031 512.726562 565.808594 513.835938 565.480469 C 514.945312 565.152344 516.035156 564.769531 517.105469 564.332031 C 518.175781 563.894531 519.222656 563.40625 520.242188 562.863281 C 521.265625 562.324219 522.257812 561.730469 523.21875 561.09375 C 524.183594 560.453125 525.109375 559.765625 526.003906 559.035156 C 526.898438 558.300781 527.757812 557.527344 528.574219 556.707031 C 529.390625 555.890625 530.164062 555.035156 530.898438 554.140625 C 531.628906 553.246094 532.316406 552.316406 532.957031 551.355469 C 533.597656 550.390625 534.1875 549.398438 534.730469 548.378906 C 535.269531 547.355469 535.757812 546.308594 536.195312 545.238281 C 536.632812 544.167969 537.015625 543.082031 537.34375 541.972656 C 537.675781 540.863281 537.949219 539.742188 538.164062 538.605469 C 538.382812 537.46875 538.542969 536.328125 538.644531 535.175781 C 538.75 534.023438 538.796875 532.871094 538.785156 531.714844 C 538.785156 522.5625 535.261719 514.136719 529.632812 508.480469 C 532.617188 504.875 535.445312 501.144531 538.109375 497.296875 C 540.773438 493.445312 543.265625 489.488281 545.585938 485.421875 C 547.910156 481.359375 550.050781 477.199219 552.011719 472.949219 C 553.976562 468.699219 555.75 464.375 557.335938 459.972656 C 558.925781 455.566406 560.320312 451.105469 561.519531 446.582031 C 562.722656 442.058594 563.726562 437.492188 564.53125 432.882812 C 565.335938 428.273438 565.941406 423.636719 566.347656 418.976562 C 566.75 414.316406 566.953125 409.644531 566.953125 404.964844 Z M 405 257.09375 C 486.679688 257.09375 552.871094 323.289062 552.871094 404.964844 C 552.871094 440.171875 540.195312 473.242188 518.398438 500.03125 C 516.105469 498.875 513.707031 497.996094 511.210938 497.402344 C 508.710938 496.808594 506.179688 496.507812 503.609375 496.507812 C 501.042969 496.507812 498.507812 496.808594 496.007812 497.402344 C 493.511719 497.996094 491.113281 498.875 488.820312 500.03125 C 487.660156 498.4375 486.394531 496.933594 485.023438 495.515625 C 483.65625 494.097656 482.191406 492.78125 480.640625 491.566406 C 479.085938 490.355469 477.457031 489.253906 475.753906 488.265625 C 474.046875 487.277344 472.28125 486.410156 470.453125 485.667969 C 468.628906 484.925781 466.757812 484.3125 464.847656 483.828125 C 462.9375 483.347656 461 482.996094 459.042969 482.78125 C 457.082031 482.566406 455.117188 482.488281 453.148438 482.546875 C 451.175781 482.605469 449.21875 482.800781 447.277344 483.132812 L 447.277344 440.171875 L 461.355469 440.171875 C 465.582031 440.171875 468.402344 437.351562 468.402344 433.128906 C 468.402344 428.902344 465.582031 426.085938 461.355469 426.085938 L 348.671875 426.085938 C 344.445312 426.085938 341.625 428.902344 341.625 433.128906 C 341.625 437.351562 344.445312 440.171875 348.671875 440.171875 L 362.75 440.171875 L 362.75 483.125 C 360.640625 482.449219 357.824219 482.449219 355.707031 482.449219 C 342.328125 482.449219 329.65625 489.492188 321.230469 500.023438 C 316.304688 497.914062 311.375 496.5 306.449219 496.5 C 301.257812 496.582031 296.328125 497.757812 291.65625 500.023438 C 269.804688 473.242188 257.128906 440.171875 257.128906 404.964844 C 257.128906 323.289062 323.320312 257.09375 405 257.09375 Z M 503.578125 552.839844 L 306.421875 552.839844 C 294.449219 552.839844 285.296875 543.6875 285.296875 531.714844 C 285.296875 519.742188 294.449219 510.589844 306.421875 510.589844 C 308.882812 510.546875 311.273438 510.949219 313.585938 511.800781 C 315.898438 512.648438 317.976562 513.890625 319.824219 515.515625 C 320.695312 516.277344 321.691406 516.78125 322.816406 517.03125 C 323.941406 517.28125 325.058594 517.246094 326.167969 516.921875 C 328.28125 516.246094 329.6875 514.8125 331.09375 513.402344 C 336.023438 503.546875 345.886719 497.179688 356.445312 497.179688 C 360.328125 497.195312 364.085938 497.902344 367.710938 499.292969 C 369.828125 499.96875 372.640625 499.96875 374.054688 498.617188 C 376.167969 497.210938 377.574219 495.097656 377.574219 492.988281 L 377.574219 440.882812 L 433.90625 440.882812 L 433.90625 492.988281 C 433.90625 495.101562 435.3125 497.914062 437.425781 498.617188 C 438.363281 499.246094 439.394531 499.621094 440.515625 499.738281 C 441.636719 499.859375 442.71875 499.710938 443.769531 499.292969 C 447.394531 497.914062 451.144531 497.222656 455.023438 497.210938 C 465.589844 497.210938 476.148438 503.550781 480.371094 513.433594 C 480.554688 513.945312 480.808594 514.417969 481.132812 514.851562 C 481.457031 515.28125 481.84375 515.65625 482.28125 515.972656 C 482.722656 516.285156 483.199219 516.527344 483.714844 516.695312 C 484.230469 516.863281 484.757812 516.949219 485.300781 516.957031 C 487.417969 517.632812 489.523438 516.957031 491.640625 515.550781 C 493.539062 514.019531 495.632812 512.828125 497.925781 511.984375 C 500.214844 511.140625 502.578125 510.6875 505.019531 510.625 C 516.992188 510.625 526.144531 519.777344 526.144531 531.746094 C 526.144531 543.71875 515.550781 552.839844 503.578125 552.839844 Z M 503.578125 552.839844 " fill-opacity="1" fill-rule="nonzero"/><path fill="#ffffff" d="M 335.996094 381.023438 C 336.304688 381.480469 336.664062 381.890625 337.078125 382.257812 C 337.492188 382.621094 337.945312 382.925781 338.441406 383.171875 C 338.933594 383.417969 339.449219 383.601562 339.988281 383.714844 C 340.53125 383.828125 341.074219 383.871094 341.625 383.84375 C 343.03125 383.84375 344.445312 383.167969 345.851562 382.4375 L 374.019531 361.3125 C 374.457031 360.984375 374.851562 360.609375 375.199219 360.191406 C 375.550781 359.769531 375.847656 359.316406 376.09375 358.828125 C 376.335938 358.335938 376.523438 357.828125 376.648438 357.296875 C 376.773438 356.761719 376.835938 356.222656 376.835938 355.675781 C 376.835938 355.128906 376.773438 354.589844 376.648438 354.058594 C 376.523438 353.527344 376.335938 353.015625 376.09375 352.527344 C 375.847656 352.039062 375.550781 351.585938 375.199219 351.164062 C 374.851562 350.746094 374.457031 350.371094 374.019531 350.042969 L 345.851562 328.917969 C 343.03125 326.808594 338.105469 327.511719 335.996094 330.324219 C 333.886719 333.136719 334.582031 338.042969 337.402344 340.1875 L 357.824219 355.679688 L 337.402344 371.167969 C 334.582031 373.277344 333.878906 378.210938 335.996094 381.023438 Z M 335.996094 381.023438 " fill-opacity="1" fill-rule="nonzero"/><path fill="#ffffff" d="M 464.148438 382.4375 C 465.554688 383.113281 466.96875 383.84375 468.375 383.84375 C 468.925781 383.871094 469.46875 383.828125 470.011719 383.714844 C 470.550781 383.601562 471.066406 383.417969 471.558594 383.171875 C 472.054688 382.925781 472.507812 382.621094 472.921875 382.257812 C 473.335938 381.890625 473.695312 381.480469 474.003906 381.023438 C 476.121094 378.203125 475.410156 373.277344 472.597656 371.167969 L 452.175781 355.671875 L 472.597656 340.1875 C 475.417969 338.078125 476.121094 333.144531 474.003906 330.332031 C 471.890625 327.519531 466.960938 326.808594 464.148438 328.925781 L 435.980469 350.050781 C 435.542969 350.378906 435.148438 350.75 434.800781 351.171875 C 434.449219 351.589844 434.152344 352.046875 433.90625 352.535156 C 433.664062 353.023438 433.476562 353.535156 433.351562 354.066406 C 433.226562 354.597656 433.164062 355.136719 433.164062 355.683594 C 433.164062 356.230469 433.226562 356.769531 433.351562 357.300781 C 433.476562 357.835938 433.664062 358.34375 433.90625 358.832031 C 434.152344 359.324219 434.449219 359.777344 434.800781 360.195312 C 435.148438 360.617188 435.542969 360.988281 435.980469 361.316406 Z M 464.148438 382.4375 " fill-opacity="1" fill-rule="nonzero"/></svg>