<svg xmlns="http://www.w3.org/2000/svg" xmlns:xlink="http://www.w3.org/1999/xlink" width="120" zoomAndPan="magnify" viewBox="0 0 90 89.999999" height="120" preserveAspectRatio="xMidYMid meet" version="1.0"><path fill="#ff9999" d="M 45 46.117188 C 40.890625 46.117188 37.152344 48.382812 35.242188 52.027344 C 35.0625 52.367188 35.199219 52.789062 35.539062 52.96875 C 35.878906 53.152344 36.300781 53.011719 36.480469 52.675781 C 38.152344 49.484375 41.414062 47.503906 45.007812 47.503906 C 48.601562 47.503906 51.863281 49.484375 53.53125 52.675781 C 53.65625 52.914062 53.898438 53.050781 54.152344 53.050781 C 54.257812 53.050781 54.367188 53.019531 54.476562 52.96875 C 54.8125 52.789062 54.949219 52.371094 54.769531 52.027344 C 52.847656 48.382812 49.109375 46.117188 45 46.117188 Z M 45 46.117188 " fill-opacity="1" fill-rule="nonzero"/><path fill="#ff9999" d="M 45 27 C 35.070312 27 27 35.070312 27 45 C 27 54.929688 35.070312 63 45 63 C 54.929688 63 63 54.929688 63 45 C 63 35.070312 54.929688 27 45 27 Z M 45 61.609375 C 35.839844 61.609375 28.390625 54.160156 28.390625 45 C 28.390625 35.839844 35.839844 28.390625 45 28.390625 C 54.160156 28.390625 61.609375 35.839844 61.609375 45 C 61.609375 54.160156 54.160156 61.609375 45 61.609375 Z M 45 61.609375 " fill-opacity="1" fill-rule="nonzero"/><path fill="#ff9999" d="M 39.636719 41.710938 C 40.304688 41.710938 40.84375 41.164062 40.84375 40.5 L 40.84375 37.035156 C 40.84375 36.367188 40.296875 35.828125 39.636719 35.828125 C 38.972656 35.828125 38.425781 36.375 38.425781 37.035156 L 38.425781 40.5 C 38.425781 41.167969 38.964844 41.710938 39.636719 41.710938 Z M 39.636719 41.710938 " fill-opacity="1" fill-rule="nonzero"/><path fill="#ff9999" d="M 50.363281 41.710938 C 51.035156 41.710938 51.574219 41.164062 51.574219 40.5 L 51.574219 37.035156 C 51.574219 36.367188 51.027344 35.828125 50.363281 35.828125 C 49.703125 35.828125 49.15625 36.375 49.15625 37.035156 L 49.15625 40.5 C 49.15625 41.167969 49.695312 41.710938 50.363281 41.710938 Z M 50.363281 41.710938 " fill-opacity="1" fill-rule="nonzero"/></svg>