<svg xmlns="http://www.w3.org/2000/svg" xmlns:xlink="http://www.w3.org/1999/xlink" width="1080" zoomAndPan="magnify" viewBox="0 0 810 809.999993" height="1080" preserveAspectRatio="xMidYMid meet" version="1.0"><path fill="#ffffff" d="M 405 442.324219 C 379.339844 442.324219 357.113281 460.726562 349.53125 488.140625 C 347.070312 497.015625 351.800781 506.414062 360.09375 509.070312 C 368.710938 511.855469 383.550781 515.226562 405 515.226562 C 426.449219 515.226562 441.289062 511.855469 449.90625 509.070312 C 458.136719 506.414062 462.867188 497.015625 460.46875 488.140625 C 452.886719 460.726562 430.597656 442.324219 405 442.324219 Z M 446.082031 497.144531 C 438.308594 499.671875 424.828125 502.652344 405 502.652344 C 385.171875 502.652344 371.757812 499.671875 363.917969 497.144531 C 362.296875 496.628906 360.871094 494.035156 361.585938 491.445312 C 367.609375 469.542969 385.042969 454.832031 404.933594 454.832031 C 424.828125 454.832031 442.261719 469.542969 448.285156 491.445312 C 449.0625 494.035156 447.703125 496.628906 446.082031 497.144531 Z M 446.082031 497.144531 " fill-opacity="1" fill-rule="nonzero"/><path fill="#ffffff" d="M 405 243 C 315.640625 243 243 315.640625 243 405 C 243 494.359375 315.640625 567 405 567 C 494.359375 567 567 494.359375 567 405 C 567 315.640625 494.359375 243 405 243 Z M 405 554.492188 C 322.574219 554.492188 255.507812 487.425781 255.507812 405 C 255.507812 322.574219 322.574219 255.507812 405 255.507812 C 487.425781 255.507812 554.492188 322.574219 554.492188 405 C 554.492188 487.425781 487.425781 554.492188 405 554.492188 Z M 405 554.492188 " fill-opacity="1" fill-rule="nonzero"/><path fill="#ffffff" d="M 453.277344 299.050781 C 433.578125 299.050781 415.496094 309.226562 405 325.296875 C 394.503906 309.226562 376.421875 299.050781 356.722656 299.050781 C 324.90625 299.050781 299.050781 324.90625 299.050781 356.722656 C 299.050781 388.542969 324.90625 414.394531 356.722656 414.394531 C 376.421875 414.394531 394.503906 404.222656 405 388.152344 C 415.496094 404.222656 433.578125 414.394531 453.277344 414.394531 C 485.09375 414.394531 510.949219 388.542969 510.949219 356.722656 C 510.949219 324.90625 485.09375 299.050781 453.277344 299.050781 Z M 453.277344 401.824219 C 434.355469 401.824219 417.3125 389.835938 410.898438 372.015625 C 409.988281 369.554688 407.65625 367.871094 405 367.871094 C 402.34375 367.871094 400.011719 369.488281 399.101562 372.015625 C 392.625 389.835938 375.644531 401.824219 356.722656 401.824219 C 331.839844 401.824219 311.625 381.609375 311.625 356.722656 C 311.625 331.839844 331.839844 311.625 356.722656 311.625 C 375.644531 311.625 392.625 323.613281 399.101562 341.433594 C 400.011719 343.894531 402.34375 345.578125 405 345.578125 C 407.65625 345.578125 409.988281 343.957031 410.898438 341.433594 C 417.375 323.613281 434.355469 311.625 453.277344 311.625 C 478.160156 311.625 498.375 331.839844 498.375 356.722656 C 498.375 381.609375 478.160156 401.824219 453.277344 401.824219 Z M 453.277344 401.824219 " fill-opacity="1" fill-rule="nonzero"/><path fill="#ffffff" d="M 368.324219 356.722656 C 368.324219 357.484375 368.25 358.242188 368.101562 358.988281 C 367.953125 359.734375 367.730469 360.460938 367.441406 361.164062 C 367.148438 361.867188 366.792969 362.535156 366.367188 363.167969 C 365.945312 363.800781 365.464844 364.386719 364.925781 364.925781 C 364.386719 365.464844 363.800781 365.945312 363.167969 366.367188 C 362.535156 366.792969 361.867188 367.148438 361.164062 367.441406 C 360.460938 367.730469 359.734375 367.953125 358.988281 368.101562 C 358.238281 368.25 357.484375 368.324219 356.722656 368.324219 C 355.960938 368.324219 355.207031 368.25 354.460938 368.101562 C 353.714844 367.953125 352.988281 367.730469 352.285156 367.441406 C 351.582031 367.148438 350.914062 366.792969 350.28125 366.367188 C 349.648438 365.945312 349.0625 365.464844 348.523438 364.925781 C 347.984375 364.386719 347.503906 363.800781 347.078125 363.167969 C 346.65625 362.535156 346.300781 361.867188 346.007812 361.164062 C 345.714844 360.460938 345.496094 359.734375 345.347656 358.988281 C 345.199219 358.242188 345.125 357.484375 345.125 356.722656 C 345.125 355.960938 345.199219 355.207031 345.347656 354.460938 C 345.496094 353.714844 345.714844 352.988281 346.007812 352.285156 C 346.300781 351.582031 346.65625 350.914062 347.078125 350.28125 C 347.503906 349.648438 347.984375 349.0625 348.523438 348.523438 C 349.0625 347.984375 349.648438 347.503906 350.28125 347.082031 C 350.914062 346.65625 351.582031 346.300781 352.285156 346.007812 C 352.988281 345.714844 353.714844 345.496094 354.460938 345.347656 C 355.207031 345.199219 355.960938 345.125 356.722656 345.125 C 357.484375 345.125 358.238281 345.199219 358.988281 345.347656 C 359.734375 345.496094 360.460938 345.714844 361.164062 346.007812 C 361.867188 346.300781 362.535156 346.65625 363.167969 347.082031 C 363.800781 347.503906 364.386719 347.984375 364.925781 348.523438 C 365.464844 349.0625 365.945312 349.648438 366.367188 350.28125 C 366.792969 350.914062 367.148438 351.582031 367.441406 352.285156 C 367.730469 352.988281 367.953125 353.714844 368.101562 354.460938 C 368.25 355.207031 368.324219 355.960938 368.324219 356.722656 Z M 368.324219 356.722656 " fill-opacity="1" fill-rule="nonzero"/><path fill="#ffffff" d="M 464.875 356.722656 C 464.875 357.484375 464.800781 358.242188 464.652344 358.988281 C 464.503906 359.734375 464.285156 360.460938 463.992188 361.164062 C 463.699219 361.867188 463.34375 362.535156 462.921875 363.167969 C 462.496094 363.800781 462.015625 364.386719 461.476562 364.925781 C 460.9375 365.464844 460.351562 365.945312 459.71875 366.367188 C 459.085938 366.792969 458.417969 367.148438 457.714844 367.441406 C 457.011719 367.730469 456.285156 367.953125 455.539062 368.101562 C 454.792969 368.25 454.039062 368.324219 453.277344 368.324219 C 452.515625 368.324219 451.761719 368.25 451.011719 368.101562 C 450.265625 367.953125 449.539062 367.730469 448.835938 367.441406 C 448.132812 367.148438 447.464844 366.792969 446.832031 366.367188 C 446.199219 365.945312 445.613281 365.464844 445.074219 364.925781 C 444.535156 364.386719 444.054688 363.800781 443.632812 363.167969 C 443.207031 362.535156 442.851562 361.867188 442.558594 361.164062 C 442.269531 360.460938 442.046875 359.734375 441.898438 358.988281 C 441.75 358.242188 441.675781 357.484375 441.675781 356.722656 C 441.675781 355.960938 441.75 355.207031 441.898438 354.460938 C 442.046875 353.714844 442.269531 352.988281 442.558594 352.285156 C 442.851562 351.582031 443.207031 350.914062 443.632812 350.28125 C 444.054688 349.648438 444.535156 349.0625 445.074219 348.523438 C 445.613281 347.984375 446.199219 347.503906 446.832031 347.082031 C 447.464844 346.65625 448.132812 346.300781 448.835938 346.007812 C 449.539062 345.714844 450.265625 345.496094 451.011719 345.347656 C 451.761719 345.199219 452.515625 345.125 453.277344 345.125 C 454.039062 345.125 454.792969 345.199219 455.539062 345.347656 C 456.285156 345.496094 457.011719 345.714844 457.714844 346.007812 C 458.417969 346.300781 459.085938 346.65625 459.71875 347.082031 C 460.351562 347.503906 460.9375 347.984375 461.476562 348.523438 C 462.015625 349.0625 462.496094 349.648438 462.921875 350.28125 C 463.34375 350.914062 463.699219 351.582031 463.992188 352.285156 C 464.285156 352.988281 464.503906 353.714844 464.652344 354.460938 C 464.800781 355.207031 464.875 355.960938 464.875 356.722656 Z M 464.875 356.722656 " fill-opacity="1" fill-rule="nonzero"/></svg>