<svg xmlns="http://www.w3.org/2000/svg" xmlns:xlink="http://www.w3.org/1999/xlink" width="120" zoomAndPan="magnify" viewBox="0 0 90 89.999999" height="120" preserveAspectRatio="xMidYMid meet" version="1.0"><path fill="#ff9999" d="M 62.996094 44.996094 C 62.996094 35.058594 54.9375 27 45 27 C 35.0625 27 27.003906 35.058594 27.003906 44.996094 C 27.003906 47.097656 27.363281 49.132812 28.074219 51.109375 C 28.785156 53.085938 29.8125 54.878906 31.152344 56.496094 C 30.527344 57.125 30.132812 58.066406 30.132812 59.078125 C 30.132812 59.335938 30.15625 59.59375 30.203125 59.84375 C 30.25 60.097656 30.324219 60.34375 30.421875 60.582031 C 30.519531 60.820312 30.640625 61.046875 30.78125 61.261719 C 30.925781 61.476562 31.085938 61.675781 31.269531 61.855469 C 31.449219 62.039062 31.648438 62.199219 31.863281 62.34375 C 32.078125 62.484375 32.304688 62.605469 32.542969 62.703125 C 32.78125 62.800781 33.027344 62.875 33.28125 62.921875 C 33.535156 62.96875 33.789062 62.992188 34.046875 62.992188 L 55.953125 62.992188 C 56.210938 62.992188 56.464844 62.96875 56.71875 62.921875 C 56.972656 62.875 57.21875 62.800781 57.457031 62.703125 C 57.695312 62.605469 57.921875 62.484375 58.136719 62.34375 C 58.351562 62.199219 58.546875 62.039062 58.730469 61.855469 C 58.914062 61.675781 59.074219 61.476562 59.21875 61.261719 C 59.359375 61.046875 59.480469 60.820312 59.578125 60.582031 C 59.675781 60.34375 59.746094 60.097656 59.796875 59.84375 C 59.84375 59.59375 59.867188 59.335938 59.863281 59.078125 C 59.863281 58.0625 59.472656 57.125 58.847656 56.496094 C 60.1875 54.878906 61.214844 53.082031 61.925781 51.109375 C 62.636719 49.132812 62.996094 47.09375 62.996094 44.996094 Z M 45 28.566406 C 54.074219 28.566406 61.429688 35.921875 61.429688 44.996094 C 61.429688 48.90625 60.023438 52.582031 57.601562 55.558594 C 57.082031 55.296875 56.535156 55.167969 55.957031 55.167969 C 55.378906 55.167969 54.832031 55.296875 54.3125 55.558594 C 54.054688 55.203125 53.75 54.890625 53.40625 54.617188 C 53.058594 54.347656 52.679688 54.128906 52.273438 53.964844 C 51.863281 53.796875 51.441406 53.691406 51.003906 53.640625 C 50.566406 53.59375 50.132812 53.609375 49.699219 53.679688 L 49.699219 48.90625 L 51.261719 48.90625 C 51.730469 48.90625 52.042969 48.59375 52.042969 48.125 C 52.042969 47.65625 51.730469 47.34375 51.261719 47.34375 L 38.742188 47.34375 C 38.273438 47.34375 37.957031 47.65625 37.957031 48.125 C 37.957031 48.59375 38.273438 48.90625 38.742188 48.90625 L 40.304688 48.90625 L 40.304688 53.679688 C 40.070312 53.605469 39.757812 53.605469 39.523438 53.605469 C 38.035156 53.605469 36.628906 54.386719 35.691406 55.558594 C 35.144531 55.324219 34.597656 55.167969 34.050781 55.167969 C 33.472656 55.175781 32.925781 55.304688 32.40625 55.558594 C 29.976562 52.582031 28.570312 48.90625 28.570312 44.996094 C 28.570312 35.921875 35.925781 28.566406 45 28.566406 Z M 55.953125 61.425781 L 34.046875 61.425781 C 32.714844 61.425781 31.699219 60.410156 31.699219 59.078125 C 31.699219 57.75 32.714844 56.730469 34.046875 56.730469 C 34.613281 56.722656 35.109375 56.90625 35.535156 57.28125 C 35.742188 57.460938 35.976562 57.511719 36.242188 57.4375 C 36.476562 57.359375 36.632812 57.203125 36.789062 57.042969 C 37.335938 55.949219 38.433594 55.242188 39.605469 55.242188 C 40.035156 55.242188 40.453125 55.324219 40.855469 55.476562 C 41.09375 55.550781 41.40625 55.550781 41.5625 55.402344 C 41.796875 55.246094 41.953125 55.011719 41.953125 54.777344 L 41.953125 48.988281 L 48.210938 48.988281 L 48.210938 54.777344 C 48.210938 55.011719 48.367188 55.324219 48.601562 55.402344 C 48.824219 55.550781 49.058594 55.574219 49.308594 55.476562 C 49.710938 55.324219 50.128906 55.246094 50.558594 55.246094 C 51.730469 55.246094 52.90625 55.949219 53.375 57.046875 C 53.464844 57.304688 53.648438 57.4375 53.921875 57.441406 C 54.15625 57.515625 54.390625 57.441406 54.625 57.285156 C 55.058594 56.933594 55.554688 56.75 56.113281 56.734375 C 57.445312 56.734375 58.460938 57.753906 58.460938 59.082031 C 58.460938 60.414062 57.285156 61.425781 55.953125 61.425781 Z M 55.953125 61.425781 " fill-opacity="1" fill-rule="nonzero"/><path fill="#ff9999" d="M 37.332031 42.335938 C 37.480469 42.558594 37.691406 42.664062 37.957031 42.648438 C 38.113281 42.648438 38.273438 42.574219 38.429688 42.492188 L 41.558594 40.144531 C 41.65625 40.070312 41.734375 39.980469 41.789062 39.871094 C 41.84375 39.757812 41.871094 39.644531 41.871094 39.519531 C 41.871094 39.398438 41.84375 39.28125 41.789062 39.167969 C 41.734375 39.058594 41.65625 38.96875 41.558594 38.894531 L 38.429688 36.546875 C 38.113281 36.3125 37.566406 36.390625 37.332031 36.703125 C 37.097656 37.015625 37.175781 37.558594 37.488281 37.796875 L 39.757812 39.519531 L 37.488281 41.242188 C 37.175781 41.476562 37.097656 42.023438 37.332031 42.335938 Z M 37.332031 42.335938 " fill-opacity="1" fill-rule="nonzero"/><path fill="#ff9999" d="M 51.570312 42.492188 C 51.726562 42.566406 51.886719 42.648438 52.042969 42.648438 C 52.308594 42.664062 52.519531 42.558594 52.667969 42.335938 C 52.902344 42.023438 52.824219 41.476562 52.511719 41.242188 L 50.242188 39.519531 L 52.511719 37.796875 C 52.824219 37.5625 52.902344 37.015625 52.667969 36.703125 C 52.433594 36.390625 51.882812 36.3125 51.570312 36.546875 L 48.441406 38.894531 C 48.34375 38.96875 48.265625 39.058594 48.210938 39.171875 C 48.15625 39.28125 48.128906 39.398438 48.128906 39.519531 C 48.128906 39.644531 48.15625 39.761719 48.210938 39.871094 C 48.265625 39.980469 48.34375 40.074219 48.441406 40.144531 Z M 51.570312 42.492188 " fill-opacity="1" fill-rule="nonzero"/></svg>