<svg xmlns="http://www.w3.org/2000/svg" xmlns:xlink="http://www.w3.org/1999/xlink" width="120" zoomAndPan="magnify" viewBox="0 0 90 89.999999" height="120" preserveAspectRatio="xMidYMid meet" version="1.0"><path fill="#ff9999" d="M 45 27 C 35.070312 27 27 35.070312 27 45 C 27 54.929688 35.070312 63 45 63 C 54.929688 63 63 54.929688 63 45 C 63 35.070312 54.929688 27 45 27 Z M 45 61.609375 C 35.839844 61.609375 28.390625 54.160156 28.390625 45 C 28.390625 35.839844 35.839844 28.390625 45 28.390625 C 54.160156 28.390625 61.609375 35.839844 61.609375 45 C 61.609375 54.160156 54.160156 61.609375 45 61.609375 Z M 45 61.609375 " fill-opacity="1" fill-rule="nonzero"/><path fill="#ff9999" d="M 43.273438 37.5625 C 43.273438 37.179688 42.960938 36.863281 42.574219 36.863281 L 33.925781 36.863281 C 33.542969 36.863281 33.226562 37.171875 33.226562 37.5625 C 33.226562 37.953125 33.539062 38.261719 33.925781 38.261719 L 42.582031 38.261719 C 42.960938 38.253906 43.273438 37.945312 43.273438 37.5625 Z M 43.273438 37.5625 " fill-opacity="1" fill-rule="nonzero"/><path fill="#ff9999" d="M 56.074219 36.863281 L 47.417969 36.863281 C 47.039062 36.863281 46.722656 37.171875 46.722656 37.5625 C 46.722656 37.953125 47.03125 38.261719 47.417969 38.261719 L 56.074219 38.261719 C 56.457031 38.261719 56.773438 37.953125 56.773438 37.5625 C 56.773438 37.171875 56.460938 36.863281 56.074219 36.863281 Z M 56.074219 36.863281 " fill-opacity="1" fill-rule="nonzero"/><path fill="#ff9999" d="M 47.59375 54.855469 L 42.40625 54.855469 C 42.027344 54.855469 41.710938 55.167969 41.710938 55.554688 C 41.710938 55.945312 42.019531 56.253906 42.40625 56.253906 L 47.59375 56.253906 C 47.972656 56.253906 48.289062 55.945312 48.289062 55.554688 C 48.289062 55.167969 47.980469 54.855469 47.59375 54.855469 Z M 47.59375 54.855469 " fill-opacity="1" fill-rule="nonzero"/></svg>