<svg xmlns="http://www.w3.org/2000/svg" xmlns:xlink="http://www.w3.org/1999/xlink" width="120" zoomAndPan="magnify" viewBox="0 0 90 89.999999" height="120" preserveAspectRatio="xMidYMid meet" version="1.0"><path fill="#ff9999" d="M 45 44.890625 C 41.6875 44.890625 38.800781 47.015625 37.8125 50.175781 C 37.664062 50.667969 37.714844 51.191406 37.957031 51.652344 C 38.203125 52.113281 38.636719 52.460938 39.132812 52.597656 C 40.253906 52.921875 42.191406 53.300781 44.992188 53.300781 C 47.800781 53.300781 49.730469 52.921875 50.855469 52.597656 C 51.351562 52.453125 51.78125 52.105469 52.027344 51.644531 C 52.273438 51.183594 52.328125 50.660156 52.171875 50.167969 C 51.199219 47.015625 48.3125 44.890625 45 44.890625 Z M 50.816406 50.992188 C 50.746094 51.121094 50.628906 51.222656 50.488281 51.257812 C 49.441406 51.550781 47.648438 51.914062 45.007812 51.914062 C 42.363281 51.914062 40.566406 51.558594 39.527344 51.257812 C 39.382812 51.214844 39.269531 51.121094 39.195312 50.992188 C 39.132812 50.867188 39.117188 50.722656 39.152344 50.59375 C 39.960938 48.015625 42.3125 46.289062 45.007812 46.289062 C 47.707031 46.289062 50.0625 48.015625 50.859375 50.59375 C 50.898438 50.722656 50.882812 50.859375 50.816406 50.992188 Z M 50.816406 50.992188 " fill-opacity="1" fill-rule="nonzero"/><path fill="#ff9999" d="M 45 27 C 35.070312 27 27 35.070312 27 45 C 27 54.929688 35.070312 63 45 63 C 54.929688 63 63 54.929688 63 45 C 63 35.070312 54.929688 27 45 27 Z M 45 61.609375 C 35.839844 61.609375 28.390625 54.160156 28.390625 45 C 28.390625 35.839844 35.839844 28.390625 45 28.390625 C 54.160156 28.390625 61.609375 35.839844 61.609375 45 C 61.609375 54.160156 54.160156 61.609375 45 61.609375 Z M 45 61.609375 " fill-opacity="1" fill-rule="nonzero"/><path fill="#ff9999" d="M 41.207031 35.726562 C 40.988281 35.101562 40.292969 34.761719 39.664062 34.976562 L 36.394531 36.117188 C 35.769531 36.332031 35.429688 37.03125 35.648438 37.65625 C 35.863281 38.28125 36.5625 38.621094 37.1875 38.40625 L 40.457031 37.265625 C 41.082031 37.050781 41.421875 36.359375 41.207031 35.726562 Z M 41.207031 35.726562 " fill-opacity="1" fill-rule="nonzero"/><path fill="#ff9999" d="M 53.609375 36.121094 L 50.34375 34.984375 C 49.714844 34.769531 49.019531 35.101562 48.800781 35.734375 C 48.585938 36.359375 48.917969 37.058594 49.550781 37.273438 L 52.820312 38.414062 C 53.445312 38.628906 54.144531 38.296875 54.359375 37.664062 C 54.574219 37.03125 54.238281 36.339844 53.609375 36.121094 Z M 53.609375 36.121094 " fill-opacity="1" fill-rule="nonzero"/></svg>