<svg xmlns="http://www.w3.org/2000/svg" xmlns:xlink="http://www.w3.org/1999/xlink" width="120" zoomAndPan="magnify" viewBox="0 0 90 89.999999" height="120" preserveAspectRatio="xMidYMid meet" version="1.0"><path fill="#ff9999" d="M 45 27 C 35.074219 27 27 35.074219 27 45 C 27 54.925781 35.074219 63 45 63 C 54.925781 63 63 54.925781 63 45 C 63 35.074219 54.925781 27 45 27 Z M 45 61.5 C 35.902344 61.5 28.5 54.097656 28.5 45 C 28.5 35.902344 35.902344 28.5 45 28.5 C 54.097656 28.5 61.5 35.902344 61.5 45 C 61.5 54.097656 54.097656 61.5 45 61.5 Z M 45 61.5 " fill-opacity="1" fill-rule="nonzero"/><path fill="#ff9999" d="M 40.5 40.5 C 40.5 41.328125 39.828125 42 39 42 C 38.171875 42 37.5 41.328125 37.5 40.5 C 37.5 39.671875 38.171875 39 39 39 C 39.828125 39 40.5 39.671875 40.5 40.5 Z M 40.5 40.5 " fill-opacity="1" fill-rule="nonzero"/><path fill="#ff9999" d="M 52.5 40.5 C 52.5 41.328125 51.828125 42 51 42 C 50.171875 42 49.5 41.328125 49.5 40.5 C 49.5 39.671875 50.171875 39 51 39 C 51.828125 39 52.5 39.671875 52.5 40.5 Z M 52.5 40.5 " fill-opacity="1" fill-rule="nonzero"/><path fill="#ff9999" d="M 53.382812 52.511719 L 36.882812 49.511719 C 36.480469 49.433594 36.085938 49.707031 36.011719 50.117188 C 35.9375 50.523438 36.207031 50.914062 36.617188 50.988281 L 53.117188 53.988281 C 53.160156 53.996094 53.207031 54 53.25 54 C 53.605469 54 53.921875 53.746094 53.988281 53.382812 C 54.0625 52.976562 53.792969 52.585938 53.382812 52.511719 Z M 53.382812 52.511719 " fill-opacity="1" fill-rule="nonzero"/></svg>