<svg xmlns="http://www.w3.org/2000/svg" xmlns:xlink="http://www.w3.org/1999/xlink" width="120" zoomAndPan="magnify" viewBox="0 0 90 89.999999" height="120" preserveAspectRatio="xMidYMid meet" version="1.0"><defs><clipPath id="id1"><path d="M 27 28 L 62 28 L 62 63 L 27 63 Z M 27 28 " clip-rule="nonzero"/></clipPath></defs><g clip-path="url(#id1)"><path fill="#ff9999" d="M 44.300781 63.03125 C 44.871094 63.03125 45.4375 63 46 62.945312 C 46.566406 62.890625 47.125 62.808594 47.683594 62.695312 C 48.238281 62.585938 48.789062 62.449219 49.332031 62.28125 C 49.875 62.117188 50.410156 61.925781 50.933594 61.710938 C 51.457031 61.492188 51.972656 61.25 52.472656 60.984375 C 52.972656 60.714844 53.457031 60.425781 53.929688 60.109375 C 54.402344 59.792969 54.859375 59.457031 55.296875 59.09375 C 55.734375 58.734375 56.15625 58.355469 56.558594 57.953125 C 56.957031 57.550781 57.339844 57.132812 57.699219 56.691406 C 58.058594 56.253906 58.398438 55.800781 58.710938 55.328125 C 59.027344 54.855469 59.320312 54.367188 59.585938 53.867188 C 59.855469 53.367188 60.097656 52.855469 60.3125 52.332031 C 60.53125 51.804688 60.722656 51.273438 60.886719 50.730469 C 61.050781 50.1875 61.1875 49.636719 61.300781 49.078125 C 61.410156 48.523438 61.492188 47.960938 61.550781 47.398438 C 61.605469 46.832031 61.632812 46.265625 61.632812 45.699219 C 61.632812 45.128906 61.605469 44.566406 61.550781 44 C 61.492188 43.433594 61.410156 42.875 61.300781 42.316406 C 61.1875 41.761719 61.050781 41.210938 60.886719 40.667969 C 60.722656 40.125 60.53125 39.589844 60.3125 39.066406 C 60.097656 38.542969 59.855469 38.027344 59.585938 37.527344 C 59.320312 37.027344 59.027344 36.542969 58.710938 36.070312 C 58.398438 35.597656 58.058594 35.140625 57.699219 34.703125 C 57.339844 34.265625 56.957031 33.84375 56.558594 33.445312 C 56.15625 33.042969 55.734375 32.660156 55.296875 32.300781 C 54.859375 31.941406 54.402344 31.601562 53.929688 31.289062 C 53.457031 30.972656 52.972656 30.679688 52.472656 30.414062 C 51.972656 30.144531 51.457031 29.902344 50.933594 29.6875 C 50.410156 29.46875 49.875 29.277344 49.332031 29.113281 C 48.789062 28.949219 48.238281 28.8125 47.683594 28.699219 C 47.125 28.589844 46.566406 28.507812 46 28.449219 C 45.4375 28.394531 44.871094 28.367188 44.300781 28.367188 C 43.734375 28.367188 43.167969 28.394531 42.601562 28.449219 C 42.039062 28.507812 41.476562 28.589844 40.921875 28.699219 C 40.363281 28.8125 39.8125 28.949219 39.269531 29.113281 C 38.726562 29.277344 38.195312 29.46875 37.667969 29.6875 C 37.144531 29.902344 36.632812 30.144531 36.132812 30.414062 C 35.632812 30.679688 35.144531 30.972656 34.671875 31.289062 C 34.199219 31.601562 33.746094 31.941406 33.308594 32.300781 C 32.867188 32.660156 32.449219 33.042969 32.046875 33.445312 C 31.644531 33.84375 31.265625 34.265625 30.90625 34.703125 C 30.542969 35.140625 30.207031 35.597656 29.890625 36.070312 C 29.574219 36.542969 29.285156 37.027344 29.015625 37.527344 C 28.75 38.027344 28.507812 38.542969 28.289062 39.066406 C 28.074219 39.589844 27.882812 40.125 27.71875 40.667969 C 27.550781 41.210938 27.414062 41.761719 27.304688 42.316406 C 27.191406 42.875 27.109375 43.433594 27.054688 44 C 27 44.566406 26.96875 45.128906 26.96875 45.699219 C 26.972656 46.265625 27 46.832031 27.054688 47.394531 C 27.113281 47.960938 27.195312 48.523438 27.308594 49.078125 C 27.417969 49.632812 27.554688 50.183594 27.722656 50.726562 C 27.886719 51.269531 28.078125 51.804688 28.296875 52.328125 C 28.511719 52.851562 28.753906 53.363281 29.023438 53.863281 C 29.289062 54.363281 29.582031 54.851562 29.898438 55.324219 C 30.210938 55.792969 30.550781 56.25 30.910156 56.6875 C 31.269531 57.125 31.652344 57.546875 32.050781 57.949219 C 32.453125 58.347656 32.875 58.730469 33.3125 59.089844 C 33.75 59.449219 34.207031 59.789062 34.675781 60.101562 C 35.148438 60.417969 35.636719 60.710938 36.136719 60.976562 C 36.636719 61.246094 37.148438 61.488281 37.671875 61.703125 C 38.195312 61.921875 38.730469 62.113281 39.273438 62.277344 C 39.816406 62.445312 40.367188 62.582031 40.921875 62.691406 C 41.476562 62.804688 42.039062 62.886719 42.605469 62.945312 C 43.167969 63 43.734375 63.027344 44.300781 63.03125 Z M 44.300781 29.917969 C 45.335938 29.917969 46.363281 30.019531 47.378906 30.222656 C 48.394531 30.425781 49.382812 30.722656 50.339844 31.121094 C 51.296875 31.515625 52.207031 32.003906 53.066406 32.578125 C 53.929688 33.152344 54.726562 33.808594 55.460938 34.539062 C 56.191406 35.273438 56.847656 36.070312 57.421875 36.933594 C 57.996094 37.792969 58.484375 38.703125 58.878906 39.660156 C 59.277344 40.617188 59.574219 41.605469 59.777344 42.621094 C 59.980469 43.636719 60.082031 44.664062 60.082031 45.699219 C 60.082031 46.734375 59.980469 47.761719 59.777344 48.777344 C 59.574219 49.792969 59.277344 50.78125 58.878906 51.738281 C 58.484375 52.695312 57.996094 53.601562 57.421875 54.464844 C 56.847656 55.328125 56.191406 56.125 55.460938 56.855469 C 54.726562 57.589844 53.929688 58.242188 53.066406 58.820312 C 52.207031 59.394531 51.296875 59.878906 50.339844 60.277344 C 49.382812 60.671875 48.394531 60.972656 47.378906 61.175781 C 46.363281 61.375 45.335938 61.476562 44.300781 61.476562 C 43.265625 61.476562 42.238281 61.375 41.222656 61.175781 C 40.207031 60.972656 39.21875 60.671875 38.261719 60.277344 C 37.304688 59.878906 36.398438 59.394531 35.535156 58.820312 C 34.671875 58.242188 33.875 57.589844 33.144531 56.855469 C 32.410156 56.125 31.757812 55.328125 31.179688 54.464844 C 30.605469 53.601562 30.121094 52.695312 29.722656 51.738281 C 29.328125 50.78125 29.027344 49.792969 28.824219 48.777344 C 28.625 47.761719 28.523438 46.734375 28.523438 45.699219 C 28.523438 44.664062 28.625 43.636719 28.828125 42.621094 C 29.03125 41.605469 29.332031 40.621094 29.726562 39.664062 C 30.125 38.707031 30.613281 37.796875 31.1875 36.9375 C 31.761719 36.074219 32.417969 35.277344 33.148438 34.546875 C 33.882812 33.8125 34.679688 33.160156 35.539062 32.582031 C 36.402344 32.007812 37.308594 31.523438 38.265625 31.125 C 39.222656 30.726562 40.207031 30.429688 41.222656 30.226562 C 42.242188 30.023438 43.265625 29.921875 44.300781 29.917969 Z M 44.300781 29.917969 " fill-opacity="1" fill-rule="nonzero"/></g><path fill="#ff9999" d="M 37.292969 43.875 C 37.398438 44.0625 37.558594 44.183594 37.765625 44.238281 C 37.972656 44.292969 38.167969 44.265625 38.351562 44.160156 L 41.644531 42.253906 C 41.761719 42.183594 41.855469 42.09375 41.925781 41.976562 C 41.996094 41.859375 42.03125 41.730469 42.035156 41.597656 C 42.035156 41.460938 42.003906 41.332031 41.941406 41.214844 C 41.875 41.09375 41.785156 40.996094 41.671875 40.925781 L 38.378906 38.84375 C 38.195312 38.730469 38 38.695312 37.792969 38.742188 C 37.582031 38.792969 37.421875 38.90625 37.308594 39.085938 C 37.191406 39.269531 37.160156 39.460938 37.207031 39.671875 C 37.253906 39.882812 37.367188 40.042969 37.550781 40.15625 L 39.757812 41.550781 L 37.574219 42.816406 C 37.390625 42.925781 37.269531 43.082031 37.214844 43.289062 C 37.160156 43.496094 37.183594 43.691406 37.292969 43.875 Z M 37.292969 43.875 " fill-opacity="1" fill-rule="nonzero"/><path fill="#ff9999" d="M 46.957031 42.253906 L 50.25 44.160156 C 50.4375 44.265625 50.632812 44.292969 50.839844 44.238281 C 51.046875 44.183594 51.203125 44.0625 51.3125 43.878906 C 51.417969 43.691406 51.445312 43.496094 51.390625 43.289062 C 51.335938 43.082031 51.214844 42.925781 51.027344 42.816406 L 48.84375 41.550781 L 51.054688 40.15625 C 51.234375 40.042969 51.347656 39.878906 51.394531 39.671875 C 51.445312 39.460938 51.410156 39.269531 51.296875 39.085938 C 51.179688 38.90625 51.019531 38.792969 50.808594 38.742188 C 50.601562 38.695312 50.40625 38.730469 50.226562 38.84375 L 46.929688 40.925781 C 46.816406 40.996094 46.726562 41.09375 46.664062 41.214844 C 46.597656 41.332031 46.566406 41.460938 46.570312 41.597656 C 46.574219 41.730469 46.609375 41.859375 46.675781 41.976562 C 46.746094 42.09375 46.839844 42.183594 46.957031 42.253906 Z M 46.957031 42.253906 " fill-opacity="1" fill-rule="nonzero"/><path fill="#ff9999" d="M 39.382812 51.894531 C 39.382812 52.109375 39.460938 52.292969 39.609375 52.445312 C 39.761719 52.597656 39.945312 52.671875 40.160156 52.671875 C 40.375 52.671875 40.554688 52.597656 40.707031 52.445312 C 40.859375 52.292969 40.933594 52.109375 40.933594 51.894531 C 40.933594 51.128906 42.320312 50.273438 44.175781 50.273438 C 46.03125 50.273438 47.414062 51.128906 47.414062 51.894531 C 47.414062 52.109375 47.492188 52.292969 47.644531 52.445312 C 47.792969 52.597656 47.976562 52.671875 48.191406 52.671875 C 48.40625 52.671875 48.589844 52.597656 48.742188 52.445312 C 48.890625 52.292969 48.96875 52.109375 48.96875 51.894531 C 48.96875 50.117188 46.863281 48.722656 44.175781 48.722656 C 41.488281 48.722656 39.382812 50.117188 39.382812 51.894531 Z M 39.382812 51.894531 " fill-opacity="1" fill-rule="nonzero"/></svg>