<svg xmlns="http://www.w3.org/2000/svg" xmlns:xlink="http://www.w3.org/1999/xlink" width="1080" zoomAndPan="magnify" viewBox="0 0 810 809.999993" height="1080" preserveAspectRatio="xMidYMid meet" version="1.0"><rect x="-81" width="972" fill="#ffffff" y="-80.999999" height="971.999992" fill-opacity="1"/><rect x="-81" width="972" fill="#ffffff" y="-80.999999" height="971.999992" fill-opacity="1"/><rect x="-81" width="972" fill="#ffffff" y="-80.999999" height="971.999992" fill-opacity="1"/><path fill="#ffffff" d="M 312.140625 393.140625 C 312.140625 444.332031 353.808594 486 405 486 C 456.191406 486 497.859375 444.332031 497.859375 393.140625 L 497.859375 381.542969 L 312.140625 381.542969 Z M 367.414062 464.097656 C 375.582031 453.082031 389.640625 446.34375 405 446.34375 C 420.359375 446.34375 434.355469 453.082031 442.582031 464.097656 C 431.375 470.058594 418.542969 473.429688 405 473.429688 C 391.457031 473.492188 378.625 470.125 367.414062 464.097656 Z M 485.289062 394.113281 C 484.964844 419.96875 472.390625 442.84375 453.144531 457.359375 C 442.648438 442.714844 424.632812 433.769531 405 433.769531 C 385.367188 433.769531 367.285156 442.714844 356.855469 457.359375 C 337.609375 442.84375 325.035156 419.96875 324.710938 394.113281 Z M 485.289062 394.113281 " fill-opacity="1" fill-rule="nonzero"/><path fill="#ffffff" d="M 325.359375 341.105469 C 325.621094 341.171875 325.878906 341.171875 326.203125 341.171875 C 329.3125 341.171875 331.96875 338.839844 332.425781 335.730469 C 334.042969 323.417969 344.542969 314.152344 356.984375 314.152344 C 369.425781 314.152344 379.921875 323.417969 381.542969 335.730469 C 381.996094 339.164062 385.105469 341.5625 388.539062 341.105469 C 391.976562 340.652344 394.371094 337.542969 393.917969 334.109375 C 391.523438 315.574219 375.644531 301.644531 356.917969 301.644531 C 338.257812 301.644531 322.316406 315.574219 319.917969 334.109375 C 319.527344 337.542969 321.925781 340.71875 325.359375 341.105469 Z M 325.359375 341.105469 " fill-opacity="1" fill-rule="nonzero"/><path fill="#ffffff" d="M 421.460938 341.105469 C 421.71875 341.171875 421.976562 341.171875 422.300781 341.171875 C 425.410156 341.171875 428.070312 338.839844 428.523438 335.730469 C 430.140625 323.417969 440.640625 314.152344 453.082031 314.152344 C 465.457031 314.152344 476.019531 323.417969 477.640625 335.730469 C 478.09375 339.164062 481.203125 341.5625 484.640625 341.105469 C 488.074219 340.652344 490.472656 337.542969 490.015625 334.109375 C 487.621094 315.574219 471.742188 301.644531 453.015625 301.644531 C 434.355469 301.644531 418.414062 315.574219 416.015625 334.109375 C 415.628906 337.542969 418.023438 340.71875 421.460938 341.105469 Z M 421.460938 341.105469 " fill-opacity="1" fill-rule="nonzero"/><path fill="#ffffff" d="M 405 243 C 315.640625 243 243 315.640625 243 405 C 243 494.359375 315.640625 567 405 567 C 494.359375 567 567 494.359375 567 405 C 567 315.640625 494.359375 243 405 243 Z M 405 554.492188 C 322.574219 554.492188 255.507812 487.425781 255.507812 405 C 255.507812 322.574219 322.574219 255.507812 405 255.507812 C 487.425781 255.507812 554.492188 322.574219 554.492188 405 C 554.492188 487.425781 487.425781 554.492188 405 554.492188 Z M 405 554.492188 " fill-opacity="1" fill-rule="nonzero"/></svg>