<svg xmlns="http://www.w3.org/2000/svg" xmlns:xlink="http://www.w3.org/1999/xlink" width="120" zoomAndPan="magnify" viewBox="0 0 90 89.999999" height="120" preserveAspectRatio="xMidYMid meet" version="1.0"><path fill="#ff9999" d="M 43.097656 40.695312 C 43.097656 40.363281 43.0625 40.035156 43 39.707031 C 42.933594 39.378906 42.835938 39.0625 42.710938 38.753906 C 42.582031 38.445312 42.425781 38.152344 42.242188 37.875 C 42.054688 37.597656 41.84375 37.34375 41.609375 37.105469 C 41.375 36.871094 41.117188 36.660156 40.839844 36.476562 C 40.5625 36.289062 40.269531 36.132812 39.960938 36.003906 C 39.652344 35.878906 39.335938 35.78125 39.007812 35.714844 C 38.683594 35.652344 38.351562 35.617188 38.019531 35.617188 C 37.683594 35.617188 37.355469 35.652344 37.027344 35.714844 C 36.699219 35.78125 36.382812 35.878906 36.074219 36.003906 C 35.765625 36.132812 35.472656 36.289062 35.195312 36.476562 C 34.917969 36.660156 34.664062 36.871094 34.425781 37.105469 C 34.191406 37.34375 33.980469 37.597656 33.796875 37.875 C 33.609375 38.152344 33.453125 38.445312 33.328125 38.753906 C 33.199219 39.0625 33.101562 39.378906 33.039062 39.707031 C 32.972656 40.035156 32.941406 40.363281 32.941406 40.699219 C 32.941406 41.03125 32.972656 41.359375 33.039062 41.6875 C 33.101562 42.015625 33.199219 42.332031 33.328125 42.640625 C 33.453125 42.949219 33.609375 43.242188 33.796875 43.519531 C 33.980469 43.796875 34.191406 44.050781 34.425781 44.289062 C 34.664062 44.523438 34.917969 44.734375 35.195312 44.921875 C 35.472656 45.105469 35.765625 45.261719 36.074219 45.390625 C 36.382812 45.515625 36.699219 45.613281 37.027344 45.679688 C 37.355469 45.742188 37.683594 45.777344 38.019531 45.777344 C 38.351562 45.777344 38.679688 45.742188 39.007812 45.675781 C 39.335938 45.613281 39.652344 45.515625 39.960938 45.386719 C 40.269531 45.261719 40.5625 45.105469 40.839844 44.917969 C 41.117188 44.734375 41.371094 44.523438 41.609375 44.285156 C 41.84375 44.050781 42.054688 43.792969 42.238281 43.515625 C 42.425781 43.242188 42.582031 42.949219 42.707031 42.640625 C 42.835938 42.332031 42.933594 42.015625 43 41.6875 C 43.0625 41.359375 43.097656 41.03125 43.097656 40.695312 Z M 34.492188 40.695312 C 34.492188 40.230469 34.582031 39.78125 34.761719 39.347656 C 34.9375 38.914062 35.195312 38.535156 35.523438 38.203125 C 35.855469 37.871094 36.238281 37.617188 36.667969 37.4375 C 37.101562 37.261719 37.550781 37.171875 38.019531 37.171875 C 38.484375 37.171875 38.9375 37.261719 39.367188 37.4375 C 39.800781 37.617188 40.179688 37.871094 40.511719 38.203125 C 40.84375 38.535156 41.097656 38.914062 41.277344 39.347656 C 41.457031 39.78125 41.546875 40.230469 41.546875 40.699219 C 41.546875 41.164062 41.457031 41.613281 41.277344 42.046875 C 41.097656 42.480469 40.84375 42.859375 40.511719 43.191406 C 40.179688 43.523438 39.800781 43.777344 39.367188 43.957031 C 38.9375 44.132812 38.484375 44.222656 38.019531 44.222656 C 37.550781 44.222656 37.101562 44.132812 36.667969 43.953125 C 36.238281 43.777344 35.855469 43.519531 35.523438 43.191406 C 35.195312 42.859375 34.941406 42.476562 34.761719 42.046875 C 34.582031 41.613281 34.492188 41.164062 34.492188 40.695312 Z M 34.492188 40.695312 " fill-opacity="1" fill-rule="nonzero"/><path fill="#ff9999" d="M 39.929688 40.695312 C 39.929688 40.445312 39.882812 40.199219 39.785156 39.964844 C 39.6875 39.730469 39.550781 39.523438 39.371094 39.34375 C 39.191406 39.164062 38.984375 39.027344 38.75 38.929688 C 38.515625 38.832031 38.273438 38.785156 38.019531 38.785156 C 37.765625 38.785156 37.519531 38.832031 37.285156 38.929688 C 37.050781 39.027344 36.84375 39.164062 36.664062 39.34375 C 36.488281 39.523438 36.347656 39.730469 36.25 39.964844 C 36.152344 40.199219 36.105469 40.445312 36.105469 40.695312 C 36.105469 40.949219 36.152344 41.195312 36.25 41.429688 C 36.347656 41.664062 36.488281 41.871094 36.664062 42.050781 C 36.84375 42.230469 37.050781 42.367188 37.285156 42.464844 C 37.519531 42.5625 37.765625 42.609375 38.019531 42.609375 C 38.273438 42.609375 38.515625 42.5625 38.75 42.464844 C 38.984375 42.367188 39.191406 42.226562 39.371094 42.050781 C 39.550781 41.871094 39.6875 41.664062 39.785156 41.429688 C 39.882812 41.195312 39.929688 40.949219 39.929688 40.695312 Z M 37.65625 40.695312 C 37.65625 40.597656 37.691406 40.511719 37.761719 40.441406 C 37.832031 40.371094 37.917969 40.335938 38.019531 40.335938 C 38.117188 40.335938 38.203125 40.371094 38.273438 40.441406 C 38.34375 40.511719 38.378906 40.597656 38.378906 40.695312 C 38.378906 40.796875 38.34375 40.882812 38.273438 40.953125 C 38.203125 41.023438 38.117188 41.058594 38.019531 41.058594 C 37.917969 41.058594 37.832031 41.023438 37.761719 40.953125 C 37.691406 40.882812 37.65625 40.796875 37.65625 40.695312 Z M 37.65625 40.695312 " fill-opacity="1" fill-rule="nonzero"/><path fill="#ff9999" d="M 51.0625 35.617188 C 50.726562 35.617188 50.398438 35.652344 50.070312 35.714844 C 49.742188 35.78125 49.425781 35.878906 49.117188 36.003906 C 48.808594 36.132812 48.519531 36.289062 48.242188 36.476562 C 47.964844 36.660156 47.707031 36.871094 47.472656 37.105469 C 47.234375 37.34375 47.023438 37.597656 46.839844 37.875 C 46.652344 38.152344 46.496094 38.445312 46.371094 38.753906 C 46.242188 39.0625 46.144531 39.378906 46.082031 39.707031 C 46.015625 40.035156 45.984375 40.363281 45.984375 40.699219 C 45.984375 41.03125 46.015625 41.359375 46.082031 41.6875 C 46.144531 42.015625 46.242188 42.332031 46.371094 42.640625 C 46.496094 42.949219 46.652344 43.242188 46.839844 43.519531 C 47.023438 43.796875 47.234375 44.050781 47.472656 44.289062 C 47.707031 44.523438 47.964844 44.734375 48.242188 44.921875 C 48.519531 45.105469 48.808594 45.261719 49.117188 45.390625 C 49.425781 45.515625 49.746094 45.613281 50.070312 45.679688 C 50.398438 45.742188 50.730469 45.777344 51.0625 45.777344 C 51.394531 45.777344 51.726562 45.742188 52.054688 45.679688 C 52.378906 45.613281 52.699219 45.515625 53.003906 45.390625 C 53.3125 45.261719 53.605469 45.105469 53.882812 44.921875 C 54.160156 44.734375 54.417969 44.523438 54.652344 44.289062 C 54.890625 44.050781 55.097656 43.796875 55.285156 43.519531 C 55.46875 43.242188 55.625 42.949219 55.753906 42.640625 C 55.882812 42.332031 55.976562 42.015625 56.042969 41.6875 C 56.109375 41.359375 56.140625 41.03125 56.140625 40.695312 C 56.140625 40.363281 56.105469 40.035156 56.042969 39.707031 C 55.976562 39.378906 55.878906 39.0625 55.753906 38.753906 C 55.625 38.445312 55.46875 38.152344 55.28125 37.878906 C 55.097656 37.601562 54.886719 37.34375 54.652344 37.109375 C 54.414062 36.871094 54.160156 36.660156 53.882812 36.476562 C 53.605469 36.292969 53.3125 36.132812 53.003906 36.007812 C 52.695312 35.878906 52.378906 35.78125 52.050781 35.71875 C 51.726562 35.652344 51.394531 35.621094 51.0625 35.617188 Z M 51.0625 44.222656 C 50.59375 44.222656 50.144531 44.132812 49.710938 43.957031 C 49.28125 43.777344 48.898438 43.523438 48.566406 43.191406 C 48.238281 42.859375 47.984375 42.480469 47.804688 42.046875 C 47.625 41.613281 47.535156 41.164062 47.535156 40.699219 C 47.535156 40.230469 47.625 39.78125 47.804688 39.347656 C 47.984375 38.914062 48.238281 38.535156 48.566406 38.203125 C 48.898438 37.871094 49.28125 37.617188 49.710938 37.4375 C 50.144531 37.261719 50.59375 37.171875 51.0625 37.171875 C 51.53125 37.171875 51.980469 37.261719 52.410156 37.4375 C 52.84375 37.617188 53.226562 37.871094 53.554688 38.203125 C 53.886719 38.535156 54.140625 38.914062 54.320312 39.347656 C 54.5 39.78125 54.589844 40.230469 54.589844 40.695312 C 54.589844 41.164062 54.5 41.613281 54.320312 42.046875 C 54.140625 42.476562 53.886719 42.859375 53.554688 43.191406 C 53.222656 43.519531 52.84375 43.777344 52.410156 43.953125 C 51.980469 44.132812 51.53125 44.222656 51.0625 44.222656 Z M 51.0625 44.222656 " fill-opacity="1" fill-rule="nonzero"/><path fill="#ff9999" d="M 51.0625 38.785156 C 50.808594 38.785156 50.5625 38.832031 50.328125 38.929688 C 50.09375 39.027344 49.890625 39.164062 49.710938 39.34375 C 49.53125 39.523438 49.390625 39.730469 49.296875 39.964844 C 49.199219 40.199219 49.148438 40.445312 49.148438 40.695312 C 49.148438 40.949219 49.199219 41.195312 49.296875 41.429688 C 49.390625 41.664062 49.53125 41.871094 49.710938 42.050781 C 49.890625 42.230469 50.09375 42.367188 50.328125 42.464844 C 50.5625 42.5625 50.808594 42.609375 51.0625 42.609375 C 51.316406 42.609375 51.558594 42.5625 51.792969 42.464844 C 52.027344 42.367188 52.234375 42.230469 52.414062 42.050781 C 52.59375 41.871094 52.730469 41.664062 52.828125 41.429688 C 52.925781 41.195312 52.972656 40.949219 52.972656 40.695312 C 52.972656 40.445312 52.925781 40.199219 52.828125 39.964844 C 52.730469 39.730469 52.59375 39.523438 52.414062 39.34375 C 52.234375 39.167969 52.027344 39.027344 51.792969 38.929688 C 51.558594 38.832031 51.316406 38.785156 51.0625 38.785156 Z M 51.0625 41.058594 C 50.960938 41.058594 50.878906 41.023438 50.808594 40.953125 C 50.738281 40.882812 50.699219 40.796875 50.699219 40.695312 C 50.699219 40.597656 50.738281 40.511719 50.808594 40.441406 C 50.878906 40.371094 50.960938 40.335938 51.0625 40.335938 C 51.160156 40.335938 51.246094 40.371094 51.316406 40.441406 C 51.386719 40.511719 51.421875 40.597656 51.421875 40.695312 C 51.421875 40.796875 51.386719 40.882812 51.316406 40.953125 C 51.246094 41.023438 51.160156 41.058594 51.0625 41.058594 Z M 51.0625 41.058594 " fill-opacity="1" fill-rule="nonzero"/><path fill="#ff9999" d="M 45.933594 48.214844 L 44.066406 48.214844 C 43.664062 48.214844 43.265625 48.253906 42.875 48.332031 C 42.480469 48.414062 42.097656 48.527344 41.726562 48.683594 C 41.355469 48.835938 41.003906 49.023438 40.667969 49.25 C 40.335938 49.472656 40.023438 49.726562 39.742188 50.007812 C 39.457031 50.292969 39.203125 50.601562 38.980469 50.9375 C 38.757812 51.269531 38.566406 51.625 38.414062 51.996094 C 38.261719 52.367188 38.144531 52.75 38.066406 53.140625 C 37.984375 53.535156 37.945312 53.933594 37.945312 54.335938 C 37.945312 54.550781 38.023438 54.734375 38.171875 54.886719 C 38.324219 55.035156 38.507812 55.113281 38.722656 55.113281 L 51.277344 55.113281 C 51.492188 55.113281 51.675781 55.035156 51.828125 54.882812 C 51.976562 54.734375 52.054688 54.550781 52.054688 54.335938 C 52.054688 53.933594 52.015625 53.535156 51.933594 53.140625 C 51.855469 52.75 51.738281 52.367188 51.585938 51.996094 C 51.433594 51.625 51.242188 51.269531 51.019531 50.9375 C 50.796875 50.601562 50.542969 50.292969 50.257812 50.007812 C 49.976562 49.726562 49.664062 49.472656 49.332031 49.25 C 48.996094 49.023438 48.644531 48.835938 48.273438 48.683594 C 47.902344 48.527344 47.519531 48.414062 47.125 48.332031 C 46.730469 48.253906 46.335938 48.214844 45.933594 48.214844 Z M 39.5625 53.558594 C 39.65625 53.03125 39.835938 52.53125 40.105469 52.0625 C 40.371094 51.597656 40.710938 51.191406 41.125 50.84375 C 41.535156 50.496094 41.996094 50.230469 42.5 50.046875 C 43.007812 49.859375 43.527344 49.765625 44.066406 49.765625 L 45.933594 49.765625 C 46.472656 49.765625 46.992188 49.859375 47.5 50.046875 C 48.003906 50.230469 48.464844 50.496094 48.875 50.84375 C 49.289062 51.191406 49.628906 51.597656 49.894531 52.0625 C 50.164062 52.53125 50.34375 53.03125 50.4375 53.558594 Z M 39.5625 53.558594 " fill-opacity="1" fill-rule="nonzero"/><path fill="#ff9999" d="M 45 27.011719 C 44.410156 27.011719 43.824219 27.042969 43.238281 27.101562 C 42.652344 27.15625 42.070312 27.242188 41.492188 27.359375 C 40.914062 27.472656 40.34375 27.617188 39.777344 27.789062 C 39.214844 27.957031 38.660156 28.15625 38.117188 28.382812 C 37.574219 28.609375 37.039062 28.859375 36.519531 29.136719 C 36 29.414062 35.496094 29.71875 35.007812 30.042969 C 34.515625 30.371094 34.042969 30.722656 33.589844 31.097656 C 33.132812 31.46875 32.699219 31.863281 32.28125 32.28125 C 31.863281 32.699219 31.46875 33.132812 31.097656 33.589844 C 30.722656 34.042969 30.371094 34.515625 30.042969 35.007812 C 29.71875 35.496094 29.414062 36 29.136719 36.519531 C 28.859375 37.039062 28.609375 37.574219 28.382812 38.117188 C 28.15625 38.660156 27.957031 39.214844 27.789062 39.777344 C 27.617188 40.34375 27.472656 40.914062 27.359375 41.492188 C 27.242188 42.070312 27.15625 42.652344 27.101562 43.238281 C 27.042969 43.824219 27.011719 44.410156 27.011719 45 C 27.011719 45.589844 27.042969 46.175781 27.101562 46.761719 C 27.15625 47.347656 27.242188 47.929688 27.359375 48.507812 C 27.472656 49.085938 27.617188 49.65625 27.789062 50.222656 C 27.957031 50.785156 28.15625 51.339844 28.382812 51.882812 C 28.609375 52.425781 28.859375 52.960938 29.136719 53.480469 C 29.414062 54 29.71875 54.503906 30.042969 54.992188 C 30.371094 55.484375 30.722656 55.957031 31.097656 56.410156 C 31.46875 56.867188 31.863281 57.300781 32.28125 57.71875 C 32.699219 58.136719 33.132812 58.53125 33.589844 58.902344 C 34.042969 59.277344 34.515625 59.628906 35.007812 59.957031 C 35.496094 60.28125 36 60.585938 36.519531 60.863281 C 37.039062 61.140625 37.574219 61.390625 38.117188 61.617188 C 38.660156 61.84375 39.214844 62.042969 39.777344 62.210938 C 40.34375 62.382812 40.914062 62.527344 41.492188 62.640625 C 42.070312 62.757812 42.652344 62.84375 43.238281 62.898438 C 43.824219 62.957031 44.410156 62.988281 45 62.988281 C 45.589844 62.988281 46.175781 62.957031 46.761719 62.898438 C 47.347656 62.84375 47.929688 62.757812 48.507812 62.640625 C 49.085938 62.527344 49.65625 62.382812 50.222656 62.210938 C 50.785156 62.042969 51.339844 61.84375 51.882812 61.617188 C 52.425781 61.390625 52.960938 61.140625 53.480469 60.863281 C 54 60.585938 54.503906 60.28125 54.992188 59.957031 C 55.484375 59.628906 55.957031 59.277344 56.410156 58.902344 C 56.867188 58.53125 57.300781 58.136719 57.71875 57.71875 C 58.136719 57.300781 58.53125 56.867188 58.902344 56.410156 C 59.277344 55.957031 59.628906 55.484375 59.957031 54.992188 C 60.28125 54.503906 60.585938 54 60.863281 53.480469 C 61.140625 52.960938 61.390625 52.425781 61.617188 51.882812 C 61.84375 51.339844 62.042969 50.785156 62.210938 50.222656 C 62.382812 49.65625 62.527344 49.085938 62.640625 48.507812 C 62.757812 47.929688 62.84375 47.347656 62.898438 46.761719 C 62.957031 46.175781 62.988281 45.589844 62.988281 45 C 62.984375 44.410156 62.957031 43.824219 62.898438 43.238281 C 62.839844 42.652344 62.753906 42.070312 62.636719 41.492188 C 62.523438 40.914062 62.378906 40.34375 62.207031 39.78125 C 62.035156 39.21875 61.839844 38.664062 61.613281 38.121094 C 61.386719 37.574219 61.136719 37.042969 60.855469 36.523438 C 60.578125 36.007812 60.277344 35.5 59.949219 35.011719 C 59.621094 34.523438 59.273438 34.050781 58.898438 33.59375 C 58.523438 33.140625 58.128906 32.703125 57.710938 32.289062 C 57.296875 31.871094 56.859375 31.476562 56.40625 31.101562 C 55.949219 30.730469 55.476562 30.378906 54.988281 30.050781 C 54.5 29.722656 53.996094 29.421875 53.476562 29.144531 C 52.957031 28.863281 52.425781 28.613281 51.878906 28.386719 C 51.335938 28.160156 50.78125 27.964844 50.21875 27.792969 C 49.65625 27.621094 49.085938 27.476562 48.507812 27.363281 C 47.929688 27.246094 47.347656 27.160156 46.761719 27.101562 C 46.175781 27.042969 45.589844 27.015625 45 27.011719 Z M 45 61.433594 C 44.460938 61.433594 43.925781 61.410156 43.390625 61.355469 C 42.851562 61.304688 42.320312 61.222656 41.792969 61.121094 C 41.265625 61.015625 40.746094 60.882812 40.230469 60.726562 C 39.714844 60.570312 39.207031 60.390625 38.710938 60.183594 C 38.214844 59.976562 37.726562 59.75 37.253906 59.496094 C 36.777344 59.242188 36.316406 58.964844 35.867188 58.664062 C 35.421875 58.367188 34.988281 58.046875 34.574219 57.703125 C 34.15625 57.363281 33.757812 57.003906 33.378906 56.621094 C 32.996094 56.242188 32.636719 55.84375 32.296875 55.425781 C 31.953125 55.011719 31.632812 54.578125 31.335938 54.132812 C 31.035156 53.683594 30.757812 53.222656 30.503906 52.746094 C 30.25 52.273438 30.023438 51.785156 29.816406 51.289062 C 29.609375 50.792969 29.429688 50.285156 29.273438 49.769531 C 29.117188 49.253906 28.984375 48.734375 28.878906 48.207031 C 28.777344 47.679688 28.695312 47.148438 28.644531 46.609375 C 28.589844 46.074219 28.566406 45.539062 28.566406 45 C 28.566406 44.460938 28.589844 43.925781 28.644531 43.390625 C 28.695312 42.851562 28.777344 42.320312 28.878906 41.792969 C 28.984375 41.265625 29.117188 40.746094 29.273438 40.230469 C 29.429688 39.714844 29.609375 39.207031 29.816406 38.710938 C 30.023438 38.214844 30.25 37.726562 30.503906 37.253906 C 30.757812 36.777344 31.035156 36.316406 31.335938 35.871094 C 31.632812 35.421875 31.953125 34.988281 32.296875 34.574219 C 32.636719 34.15625 32.996094 33.757812 33.378906 33.378906 C 33.757812 32.996094 34.15625 32.636719 34.574219 32.296875 C 34.988281 31.953125 35.421875 31.632812 35.867188 31.335938 C 36.316406 31.035156 36.777344 30.757812 37.253906 30.503906 C 37.726562 30.25 38.214844 30.023438 38.710938 29.816406 C 39.207031 29.609375 39.714844 29.429688 40.230469 29.273438 C 40.746094 29.117188 41.265625 28.984375 41.792969 28.878906 C 42.320312 28.777344 42.851562 28.695312 43.390625 28.644531 C 43.925781 28.589844 44.460938 28.566406 45 28.566406 C 45.539062 28.566406 46.074219 28.589844 46.609375 28.644531 C 47.148438 28.695312 47.679688 28.777344 48.207031 28.878906 C 48.734375 28.984375 49.253906 29.117188 49.769531 29.273438 C 50.285156 29.429688 50.792969 29.609375 51.289062 29.816406 C 51.785156 30.023438 52.273438 30.25 52.746094 30.503906 C 53.222656 30.757812 53.683594 31.035156 54.132812 31.335938 C 54.578125 31.632812 55.011719 31.953125 55.425781 32.296875 C 55.84375 32.636719 56.242188 32.996094 56.621094 33.378906 C 57.003906 33.757812 57.363281 34.15625 57.703125 34.574219 C 58.046875 34.988281 58.367188 35.421875 58.664062 35.871094 C 58.964844 36.316406 59.242188 36.777344 59.496094 37.253906 C 59.75 37.726562 59.976562 38.214844 60.183594 38.710938 C 60.390625 39.207031 60.570312 39.714844 60.726562 40.230469 C 60.882812 40.746094 61.015625 41.265625 61.121094 41.792969 C 61.222656 42.320312 61.304688 42.851562 61.355469 43.390625 C 61.410156 43.925781 61.433594 44.460938 61.433594 45 C 61.433594 45.539062 61.40625 46.074219 61.355469 46.609375 C 61.300781 47.144531 61.222656 47.675781 61.117188 48.207031 C 61.011719 48.734375 60.878906 49.253906 60.722656 49.769531 C 60.566406 50.285156 60.386719 50.789062 60.179688 51.285156 C 59.972656 51.785156 59.742188 52.269531 59.488281 52.742188 C 59.234375 53.21875 58.957031 53.679688 58.660156 54.125 C 58.359375 54.574219 58.039062 55.003906 57.699219 55.421875 C 57.355469 55.835938 56.996094 56.234375 56.617188 56.617188 C 56.234375 56.996094 55.835938 57.359375 55.421875 57.699219 C 55.003906 58.039062 54.574219 58.359375 54.125 58.660156 C 53.679688 58.957031 53.21875 59.234375 52.742188 59.488281 C 52.269531 59.742188 51.785156 59.972656 51.285156 60.179688 C 50.789062 60.386719 50.285156 60.566406 49.769531 60.722656 C 49.253906 60.878906 48.734375 61.011719 48.203125 61.117188 C 47.675781 61.222656 47.144531 61.300781 46.609375 61.355469 C 46.074219 61.40625 45.539062 61.433594 45 61.433594 Z M 45 61.433594 " fill-opacity="1" fill-rule="nonzero"/></svg>