<svg xmlns="http://www.w3.org/2000/svg" xmlns:xlink="http://www.w3.org/1999/xlink" width="120" zoomAndPan="magnify" viewBox="0 0 90 89.999999" height="120" preserveAspectRatio="xMidYMid meet" version="1.0"><defs><clipPath id="id1"><path d="M 27 27 L 63 27 L 63 63 L 27 63 Z M 27 27 " clip-rule="nonzero"/></clipPath></defs><g clip-path="url(#id1)"><path fill="#ff9999" d="M 45 27.015625 C 43.117188 27.007812 41.28125 27.292969 39.492188 27.867188 C 37.699219 28.441406 36.042969 29.28125 34.515625 30.378906 C 33.578125 28.894531 32.246094 27.640625 31.855469 27.25 C 31.707031 27.09375 31.523438 27.015625 31.308594 27.015625 C 31.09375 27.015625 30.910156 27.09375 30.761719 27.25 C 30.136719 27.875 27.003906 31.007812 27.003906 33.039062 C 27.003906 34.527344 27.867188 35.855469 29.117188 36.5625 C 27.789062 39.144531 27.003906 42.039062 27.003906 45.011719 C 27.003906 54.949219 35.0625 63.007812 45 63.007812 C 54.9375 63.007812 62.996094 54.949219 62.996094 45.011719 C 62.996094 35.074219 54.9375 27.015625 45 27.015625 Z M 31.308594 28.894531 C 32.558594 30.222656 34.046875 32.101562 34.046875 33.042969 C 34.046875 34.449219 32.792969 35.625 31.308594 35.625 C 29.820312 35.625 28.570312 34.449219 28.570312 33.042969 C 28.570312 32.179688 30.054688 30.222656 31.308594 28.894531 Z M 45 61.441406 C 35.925781 61.441406 28.570312 54.085938 28.570312 45.011719 C 28.574219 42.203125 29.253906 39.570312 30.605469 37.109375 C 30.839844 37.109375 31.074219 37.183594 31.308594 37.183594 C 33.65625 37.183594 35.609375 35.304688 35.609375 33.039062 C 35.609375 32.644531 35.453125 32.175781 35.296875 31.707031 C 38.113281 29.597656 41.480469 28.503906 45 28.503906 C 54.074219 28.503906 61.429688 35.859375 61.429688 44.933594 C 61.429688 54.007812 54.074219 61.441406 45 61.441406 Z M 45 61.441406 " fill-opacity="1" fill-rule="nonzero"/></g><path fill="#ff9999" d="M 51.257812 37.96875 C 50.84375 37.972656 50.445312 38.050781 50.0625 38.210938 C 49.679688 38.371094 49.339844 38.597656 49.046875 38.890625 C 48.753906 39.183594 48.527344 39.519531 48.371094 39.902344 C 48.210938 40.285156 48.128906 40.683594 48.128906 41.097656 C 48.128906 41.570312 48.441406 41.882812 48.910156 41.882812 C 49.382812 41.882812 49.695312 41.570312 49.695312 41.097656 C 49.695312 40.890625 49.734375 40.691406 49.8125 40.5 C 49.894531 40.308594 50.007812 40.140625 50.152344 39.992188 C 50.300781 39.847656 50.46875 39.734375 50.660156 39.652344 C 50.851562 39.574219 51.050781 39.535156 51.257812 39.535156 C 51.464844 39.535156 51.667969 39.574219 51.859375 39.652344 C 52.050781 39.734375 52.21875 39.847656 52.367188 39.992188 C 52.511719 40.140625 52.625 40.308594 52.703125 40.5 C 52.785156 40.691406 52.824219 40.890625 52.824219 41.097656 C 52.824219 41.570312 53.136719 41.882812 53.605469 41.882812 C 54.078125 41.882812 54.390625 41.570312 54.390625 41.097656 C 54.386719 40.683594 54.308594 40.285156 54.148438 39.902344 C 53.988281 39.519531 53.761719 39.183594 53.46875 38.890625 C 53.175781 38.597656 52.839844 38.371094 52.457031 38.210938 C 52.074219 38.050781 51.671875 37.972656 51.257812 37.96875 Z M 51.257812 37.96875 " fill-opacity="1" fill-rule="nonzero"/><path fill="#ff9999" d="M 37.175781 41.097656 C 37.175781 40.890625 37.214844 40.691406 37.296875 40.5 C 37.375 40.308594 37.488281 40.140625 37.632812 39.992188 C 37.78125 39.847656 37.949219 39.734375 38.140625 39.652344 C 38.332031 39.574219 38.535156 39.535156 38.742188 39.535156 C 38.949219 39.535156 39.148438 39.574219 39.339844 39.652344 C 39.53125 39.734375 39.699219 39.847656 39.847656 39.992188 C 39.992188 40.140625 40.105469 40.308594 40.1875 40.5 C 40.265625 40.691406 40.304688 40.890625 40.304688 41.097656 C 40.304688 41.570312 40.617188 41.882812 41.089844 41.882812 C 41.558594 41.882812 41.871094 41.570312 41.871094 41.097656 C 41.878906 40.679688 41.800781 40.277344 41.648438 39.886719 C 41.492188 39.496094 41.265625 39.152344 40.972656 38.855469 C 40.675781 38.554688 40.335938 38.324219 39.949219 38.164062 C 39.5625 38.003906 39.160156 37.921875 38.742188 37.921875 C 38.320312 37.921875 37.917969 38.003906 37.53125 38.164062 C 37.144531 38.324219 36.804688 38.554688 36.511719 38.855469 C 36.21875 39.152344 35.992188 39.496094 35.835938 39.886719 C 35.679688 40.277344 35.605469 40.679688 35.613281 41.097656 C 35.613281 41.570312 35.925781 41.882812 36.394531 41.882812 C 36.863281 41.882812 37.175781 41.570312 37.175781 41.097656 Z M 37.175781 41.097656 " fill-opacity="1" fill-rule="nonzero"/><path fill="#ff9999" d="M 45 48.921875 C 39.210938 48.921875 36.628906 52.210938 36.550781 52.367188 C 36.316406 52.679688 36.394531 53.226562 36.707031 53.460938 C 37.019531 53.695312 37.566406 53.617188 37.800781 53.304688 C 37.800781 53.304688 39.992188 50.488281 45 50.488281 C 50.007812 50.488281 52.117188 53.226562 52.195312 53.304688 C 52.347656 53.527344 52.554688 53.628906 52.824219 53.617188 C 52.980469 53.617188 53.136719 53.542969 53.292969 53.460938 C 53.605469 53.226562 53.683594 52.679688 53.449219 52.367188 C 53.371094 52.210938 50.789062 48.921875 45 48.921875 Z M 45 48.921875 " fill-opacity="1" fill-rule="nonzero"/></svg>