<svg xmlns="http://www.w3.org/2000/svg" xmlns:xlink="http://www.w3.org/1999/xlink" width="1080" zoomAndPan="magnify" viewBox="0 0 810 809.999993" height="1080" preserveAspectRatio="xMidYMid meet" version="1.0"><path fill="#ffffff" d="M 405 415.042969 C 368 415.042969 334.367188 435.457031 317.195312 468.246094 C 315.574219 471.289062 316.808594 475.113281 319.851562 476.734375 C 322.898438 478.355469 326.722656 477.121094 328.339844 474.078125 C 343.375 445.371094 372.730469 427.550781 405.066406 427.550781 C 437.398438 427.550781 466.753906 445.371094 481.789062 474.078125 C 482.890625 476.214844 485.09375 477.445312 487.359375 477.445312 C 488.332031 477.445312 489.304688 477.1875 490.277344 476.734375 C 493.324219 475.113281 494.554688 471.355469 492.933594 468.246094 C 475.632812 435.457031 442 415.042969 405 415.042969 Z M 405 415.042969 " fill-opacity="1" fill-rule="nonzero"/><path fill="#ffffff" d="M 405 243 C 315.640625 243 243 315.640625 243 405 C 243 494.359375 315.640625 567 405 567 C 494.359375 567 567 494.359375 567 405 C 567 315.640625 494.359375 243 405 243 Z M 405 554.492188 C 322.574219 554.492188 255.507812 487.425781 255.507812 405 C 255.507812 322.574219 322.574219 255.507812 405 255.507812 C 487.425781 255.507812 554.492188 322.574219 554.492188 405 C 554.492188 487.425781 487.425781 554.492188 405 554.492188 Z M 405 554.492188 " fill-opacity="1" fill-rule="nonzero"/><path fill="#ffffff" d="M 356.722656 375.386719 C 362.75 375.386719 367.609375 370.460938 367.609375 364.5 L 367.609375 333.332031 C 367.609375 327.304688 362.6875 322.445312 356.722656 322.445312 C 350.761719 322.445312 345.835938 327.371094 345.835938 333.332031 L 345.835938 364.5 C 345.835938 370.527344 350.699219 375.386719 356.722656 375.386719 Z M 356.722656 375.386719 " fill-opacity="1" fill-rule="nonzero"/><path fill="#ffffff" d="M 453.277344 375.386719 C 459.300781 375.386719 464.164062 370.460938 464.164062 364.5 L 464.164062 333.332031 C 464.164062 327.304688 459.238281 322.445312 453.277344 322.445312 C 447.3125 322.445312 442.390625 327.371094 442.390625 333.332031 L 442.390625 364.5 C 442.390625 370.527344 447.25 375.386719 453.277344 375.386719 Z M 453.277344 375.386719 " fill-opacity="1" fill-rule="nonzero"/></svg>