<svg xmlns="http://www.w3.org/2000/svg" xmlns:xlink="http://www.w3.org/1999/xlink" width="1080" zoomAndPan="magnify" viewBox="0 0 810 809.999993" height="1080" preserveAspectRatio="xMidYMid meet" version="1.0"><defs><clipPath id="id1"><path d="M 243 261.632812 L 567 261.632812 L 567 548.132812 L 243 548.132812 Z M 243 261.632812 " clip-rule="nonzero"/></clipPath></defs><path fill="#ffffff" d="M 404.96875 369.058594 C 330.433594 369.058594 299.191406 379.9375 297.902344 380.390625 L 294.230469 381.675781 L 294.230469 392.039062 C 294.230469 453.058594 343.898438 502.75 404.96875 502.75 C 466.039062 502.75 515.707031 453.058594 515.707031 392.039062 L 515.707031 381.742188 L 512.035156 380.453125 C 510.746094 379.9375 479.503906 369.058594 404.96875 369.058594 Z M 440.398438 381.097656 C 431.445312 387.46875 418.558594 391.332031 404.96875 391.332031 C 391.375 391.332031 378.425781 387.46875 369.535156 381.097656 C 380.039062 380.519531 391.824219 380.195312 404.96875 380.195312 C 418.109375 380.132812 429.898438 380.519531 440.398438 381.097656 Z M 365.21875 483.378906 C 374.046875 476.746094 389.054688 472.628906 404.96875 472.628906 C 420.878906 472.628906 435.890625 476.746094 444.714844 483.378906 C 432.539062 488.65625 419.140625 491.679688 404.96875 491.679688 C 390.796875 491.679688 377.460938 488.65625 365.21875 483.378906 Z M 504.625 392.039062 C 504.625 428.601562 484.785156 460.589844 455.34375 477.90625 C 445.039062 467.800781 425.839844 461.492188 404.96875 461.492188 C 384.09375 461.492188 364.898438 467.800781 354.589844 477.90625 C 325.152344 460.589844 305.308594 428.601562 305.308594 392.039062 L 305.308594 389.722656 C 311.945312 387.921875 327.792969 384.316406 354.398438 382.0625 C 364.769531 394.613281 383.964844 402.339844 404.96875 402.339844 C 425.96875 402.339844 445.164062 394.613281 455.539062 382.0625 C 482.207031 384.316406 497.992188 387.921875 504.625 389.722656 Z M 504.625 392.039062 " fill-opacity="1" fill-rule="nonzero"/><path fill="#ffffff" d="M 336.488281 324.132812 C 345.058594 321.816406 353.816406 321.492188 362.320312 322.972656 C 352.015625 326.449219 342.542969 332.242188 334.683594 340.09375 C 332.496094 342.285156 332.496094 345.757812 334.683594 347.949219 C 335.78125 349.042969 337.199219 349.558594 338.613281 349.558594 C 340.03125 349.558594 341.449219 349.042969 342.542969 347.949219 C 353.625 336.875 368.378906 330.632812 384.03125 330.375 C 384.03125 330.375 384.09375 330.375 384.09375 330.375 C 384.417969 330.375 384.675781 330.3125 384.996094 330.246094 C 385.0625 330.246094 385.125 330.246094 385.253906 330.183594 C 385.578125 330.117188 385.835938 329.988281 386.15625 329.859375 C 386.222656 329.859375 386.285156 329.796875 386.351562 329.796875 C 386.609375 329.667969 386.800781 329.539062 387.058594 329.410156 C 387.125 329.34375 387.1875 329.34375 387.253906 329.28125 C 387.511719 329.089844 387.765625 328.894531 387.960938 328.636719 C 387.960938 328.636719 388.023438 328.574219 388.023438 328.574219 C 388.21875 328.378906 388.410156 328.121094 388.539062 327.929688 C 388.605469 327.863281 388.667969 327.800781 388.667969 327.671875 C 388.734375 327.609375 388.734375 327.542969 388.796875 327.480469 C 388.863281 327.414062 388.863281 327.285156 388.925781 327.222656 C 388.992188 327.027344 389.121094 326.835938 389.183594 326.640625 C 389.25 326.449219 389.3125 326.320312 389.3125 326.128906 C 389.378906 325.933594 389.378906 325.804688 389.441406 325.613281 C 389.441406 325.417969 389.507812 325.226562 389.507812 325.03125 C 389.507812 324.902344 389.507812 324.839844 389.507812 324.710938 C 389.507812 324.648438 389.507812 324.582031 389.507812 324.519531 C 389.507812 324.324219 389.441406 324.132812 389.441406 323.9375 C 389.441406 323.808594 389.378906 323.617188 389.378906 323.488281 C 389.3125 323.296875 389.25 323.101562 389.183594 322.910156 C 389.121094 322.78125 389.054688 322.585938 388.992188 322.457031 C 388.925781 322.265625 388.796875 322.070312 388.667969 321.941406 C 388.605469 321.816406 388.539062 321.6875 388.410156 321.558594 C 388.28125 321.429688 388.152344 321.234375 388.023438 321.105469 C 387.894531 320.976562 387.765625 320.847656 387.640625 320.71875 C 387.511719 320.589844 387.445312 320.527344 387.316406 320.460938 C 387.125 320.335938 386.929688 320.207031 386.738281 320.078125 C 386.671875 320.078125 386.671875 320.011719 386.671875 320.011719 C 370.4375 311 351.628906 308.621094 333.71875 313.445312 C 330.753906 314.21875 329.015625 317.308594 329.789062 320.207031 C 330.496094 323.230469 333.527344 324.96875 336.488281 324.132812 Z M 336.488281 324.132812 " fill-opacity="1" fill-rule="nonzero"/><path fill="#ffffff" d="M 420.492188 325.097656 C 420.492188 325.289062 420.492188 325.484375 420.558594 325.675781 C 420.558594 325.871094 420.621094 326.0625 420.6875 326.191406 C 420.75 326.382812 420.75 326.511719 420.816406 326.707031 C 420.878906 326.898438 420.945312 327.09375 421.074219 327.285156 C 421.136719 327.351562 421.136719 327.480469 421.203125 327.542969 C 421.265625 327.609375 421.265625 327.671875 421.332031 327.738281 C 421.394531 327.800781 421.460938 327.863281 421.460938 327.992188 C 421.652344 328.25 421.78125 328.445312 421.976562 328.636719 C 421.976562 328.636719 422.039062 328.703125 422.039062 328.703125 C 422.230469 328.960938 422.488281 329.152344 422.746094 329.34375 C 422.8125 329.410156 422.875 329.410156 422.941406 329.472656 C 423.132812 329.601562 423.390625 329.730469 423.648438 329.859375 C 423.714844 329.859375 423.777344 329.925781 423.84375 329.925781 C 424.101562 330.054688 424.421875 330.117188 424.746094 330.246094 C 424.808594 330.246094 424.875 330.246094 425.003906 330.3125 C 425.324219 330.375 425.582031 330.375 425.90625 330.441406 C 425.90625 330.441406 425.96875 330.441406 425.96875 330.441406 C 441.621094 330.699219 456.375 336.875 467.457031 348.011719 C 468.550781 349.105469 469.96875 349.621094 471.386719 349.621094 C 472.800781 349.621094 474.21875 349.105469 475.316406 348.011719 C 477.503906 345.824219 477.503906 342.347656 475.316406 340.160156 C 467.457031 332.304688 457.984375 326.511719 447.679688 323.039062 C 456.183594 321.558594 464.941406 321.941406 473.511719 324.195312 C 476.472656 324.96875 479.503906 323.230469 480.273438 320.269531 C 481.046875 317.308594 479.308594 314.285156 476.34375 313.511719 C 458.371094 308.683594 439.5625 311.066406 423.390625 320.078125 C 423.390625 320.078125 423.328125 320.078125 423.328125 320.140625 C 423.070312 320.269531 422.875 320.464844 422.617188 320.65625 C 422.554688 320.71875 422.425781 320.785156 422.359375 320.847656 C 422.167969 320.976562 422.039062 321.171875 421.910156 321.363281 C 421.847656 321.492188 421.71875 321.558594 421.652344 321.6875 C 421.523438 321.816406 421.460938 322.007812 421.332031 322.136719 C 421.265625 322.265625 421.136719 322.457031 421.074219 322.585938 C 421.007812 322.78125 420.945312 322.910156 420.878906 323.101562 C 420.816406 323.296875 420.75 323.421875 420.6875 323.617188 C 420.621094 323.808594 420.621094 323.9375 420.621094 324.132812 C 420.621094 324.324219 420.558594 324.519531 420.558594 324.710938 C 420.558594 324.777344 420.558594 324.839844 420.558594 324.902344 C 420.492188 324.902344 420.492188 324.96875 420.492188 325.097656 Z M 420.492188 325.097656 " fill-opacity="1" fill-rule="nonzero"/><g clip-path="url(#id1)"><path fill="#ffffff" d="M 563.378906 345.628906 C 558.867188 336.941406 549.074219 330.570312 537.15625 328.507812 C 533.421875 327.863281 529.554688 327.671875 525.820312 327.863281 C 499.277344 286.347656 454.378906 261.632812 404.96875 261.632812 C 355.558594 261.632812 310.65625 286.285156 284.117188 327.800781 C 280.378906 327.609375 276.515625 327.800781 272.777344 328.445312 C 260.859375 330.503906 251.066406 336.941406 246.558594 345.566406 C 243.144531 352.066406 243.078125 359.40625 246.238281 366.292969 C 249.457031 373.117188 255.125 377.8125 262.277344 379.359375 C 262.792969 379.488281 263.308594 379.550781 263.824219 379.617188 C 262.339844 387.921875 261.570312 396.351562 261.570312 404.847656 C 261.570312 483.828125 325.859375 548.132812 404.96875 548.132812 C 484.011719 548.132812 548.367188 483.890625 548.367188 404.847656 C 548.367188 396.417969 547.59375 387.921875 546.113281 379.617188 C 546.628906 379.550781 547.144531 379.421875 547.660156 379.359375 C 554.808594 377.75 560.542969 373.117188 563.699219 366.292969 C 566.921875 359.46875 566.792969 352.132812 563.378906 345.628906 Z M 256.285156 361.65625 C 254.546875 357.925781 254.546875 354.253906 256.351562 350.78125 C 259.25 345.246094 266.269531 340.867188 274.644531 339.453125 C 278.382812 338.808594 282.3125 338.808594 286.113281 339.128906 L 286.5 339.195312 C 287.722656 339.324219 288.945312 339.453125 290.105469 339.644531 C 290.171875 339.644531 290.234375 339.644531 290.234375 339.644531 C 290.75 339.707031 291.265625 339.773438 291.78125 339.902344 C 291.910156 339.902344 291.976562 339.964844 292.105469 339.964844 C 292.554688 340.03125 292.941406 340.09375 293.390625 340.222656 C 293.519531 340.222656 293.648438 340.289062 293.84375 340.289062 C 294.230469 340.351562 294.550781 340.417969 294.9375 340.546875 C 295.066406 340.609375 295.261719 340.609375 295.390625 340.675781 C 295.710938 340.738281 296.03125 340.804688 296.355469 340.867188 C 296.546875 340.933594 296.675781 340.933594 296.871094 340.996094 C 297.191406 341.058594 297.449219 341.125 297.773438 341.1875 C 297.902344 341.253906 298.09375 341.253906 298.222656 341.316406 C 298.609375 341.382812 298.933594 341.511719 299.320312 341.574219 C 299.382812 341.574219 299.449219 341.574219 299.449219 341.640625 C 296.871094 347.304688 291.976562 356.25 285.144531 361.980469 C 284.628906 362.429688 284.117188 362.816406 283.535156 363.203125 C 283.40625 363.332031 283.214844 363.460938 283.085938 363.523438 C 282.632812 363.847656 282.183594 364.167969 281.730469 364.425781 C 281.601562 364.492188 281.539062 364.554688 281.410156 364.617188 C 280.894531 364.941406 280.316406 365.261719 279.800781 365.585938 C 279.605469 365.648438 279.476562 365.777344 279.285156 365.84375 C 278.832031 366.097656 278.382812 366.292969 277.929688 366.550781 C 277.800781 366.613281 277.671875 366.679688 277.542969 366.742188 C 276.964844 367 276.386719 367.257812 275.804688 367.453125 C 275.742188 367.453125 275.675781 367.515625 275.613281 367.515625 C 275.03125 367.707031 274.386719 367.902344 273.808594 368.09375 C 272.519531 368.480469 271.230469 368.738281 269.941406 368.867188 L 269.363281 368.933594 C 267.6875 369.058594 266.140625 368.933594 264.660156 368.609375 C 260.859375 367.773438 258.023438 365.390625 256.285156 361.65625 Z M 404.96875 537.058594 C 332.042969 537.058594 272.714844 477.777344 272.714844 404.914062 C 272.714844 396.289062 273.550781 387.597656 275.226562 379.167969 C 279.671875 378.136719 284.117188 376.207031 288.304688 373.371094 C 288.304688 373.371094 288.304688 373.371094 288.367188 373.371094 C 288.945312 372.988281 289.589844 372.535156 290.171875 372.085938 C 290.300781 371.957031 290.429688 371.890625 290.558594 371.765625 C 291.136719 371.3125 291.78125 370.796875 292.359375 370.347656 C 305.308594 359.46875 311.945312 340.675781 312.203125 339.835938 L 313.941406 334.753906 L 308.917969 332.820312 C 308.851562 332.820312 308.789062 332.757812 308.59375 332.691406 C 307.308594 332.242188 302.667969 330.632812 296.484375 329.34375 C 296.484375 329.34375 296.484375 329.34375 296.417969 329.34375 C 321.15625 293.6875 361.160156 272.703125 405.03125 272.703125 C 448.839844 272.703125 488.84375 293.75 513.644531 329.34375 C 513.582031 329.34375 513.515625 329.34375 513.515625 329.34375 C 513.195312 329.410156 512.871094 329.472656 512.613281 329.539062 C 512.484375 329.539062 512.421875 329.601562 512.292969 329.601562 C 511.90625 329.667969 511.582031 329.796875 511.195312 329.859375 C 511.132812 329.859375 511.132812 329.859375 511.066406 329.859375 C 506.558594 330.890625 503.207031 332.050781 501.855469 332.5625 C 501.46875 332.691406 501.277344 332.757812 501.210938 332.820312 L 496.1875 334.753906 L 497.925781 339.835938 C 498.183594 340.609375 504.820312 359.46875 517.765625 370.347656 C 518.347656 370.863281 518.992188 371.3125 519.570312 371.765625 C 519.699219 371.890625 519.828125 371.957031 519.957031 372.085938 C 520.539062 372.535156 521.183594 372.921875 521.761719 373.371094 C 525.949219 376.140625 530.394531 378.136719 534.839844 379.167969 C 536.515625 387.597656 537.351562 396.222656 537.351562 404.914062 C 537.222656 477.777344 477.890625 537.058594 404.96875 537.058594 Z M 553.648438 361.65625 C 551.910156 365.390625 549.074219 367.773438 545.210938 368.609375 C 543.730469 368.933594 542.183594 369.058594 540.507812 368.933594 L 539.929688 368.867188 C 538.058594 368.675781 536.128906 368.222656 534.195312 367.515625 C 534.128906 367.515625 534.066406 367.453125 534.066406 367.453125 C 533.484375 367.257812 532.84375 367 532.261719 366.742188 C 532.132812 366.679688 532.070312 366.613281 531.941406 366.613281 C 531.488281 366.421875 530.972656 366.164062 530.523438 365.90625 C 530.394531 365.84375 530.199219 365.714844 530.070312 365.648438 C 529.554688 365.328125 528.976562 365.003906 528.460938 364.683594 C 528.332031 364.617188 528.269531 364.554688 528.140625 364.492188 C 527.6875 364.167969 527.238281 363.910156 526.785156 363.589844 C 526.65625 363.460938 526.464844 363.394531 526.335938 363.265625 C 525.820312 362.882812 525.242188 362.429688 524.726562 362.042969 C 523.886719 361.335938 523.050781 360.5625 522.277344 359.726562 C 516.738281 354.0625 512.742188 346.597656 510.421875 341.640625 C 510.808594 341.511719 511.261719 341.445312 511.710938 341.316406 C 511.839844 341.316406 511.96875 341.253906 512.035156 341.253906 C 512.355469 341.1875 512.679688 341.058594 513.066406 340.996094 C 513.195312 340.933594 513.324219 340.933594 513.515625 340.867188 C 513.839844 340.804688 514.222656 340.738281 514.546875 340.609375 C 514.675781 340.546875 514.867188 340.546875 514.996094 340.480469 C 515.382812 340.417969 515.707031 340.351562 516.09375 340.222656 C 516.222656 340.222656 516.414062 340.160156 516.542969 340.160156 C 516.929688 340.09375 517.382812 340.03125 517.769531 339.902344 C 517.894531 339.902344 518.023438 339.835938 518.152344 339.835938 C 518.605469 339.773438 519.121094 339.707031 519.570312 339.578125 C 519.636719 339.578125 519.765625 339.578125 519.828125 339.515625 C 520.988281 339.324219 522.210938 339.195312 523.371094 339.066406 L 523.695312 339 C 527.496094 338.679688 531.425781 338.679688 535.226562 339.324219 C 543.601562 340.804688 550.621094 345.117188 553.519531 350.652344 C 555.390625 354.253906 555.390625 357.925781 553.648438 361.65625 Z M 553.648438 361.65625 " fill-opacity="1" fill-rule="nonzero"/></g></svg>