<svg xmlns="http://www.w3.org/2000/svg" xmlns:xlink="http://www.w3.org/1999/xlink" width="120" zoomAndPan="magnify" viewBox="0 0 90 89.999999" height="120" preserveAspectRatio="xMidYMid meet" version="1.0"><path fill="#ff9999" d="M 50.859375 45.597656 C 49.738281 45.273438 47.800781 44.890625 45 44.890625 C 42.191406 44.890625 40.261719 45.273438 39.140625 45.597656 C 38.640625 45.742188 38.210938 46.085938 37.964844 46.539062 C 37.722656 47 37.664062 47.527344 37.820312 48.015625 C 38.808594 51.175781 41.695312 53.300781 45.007812 53.300781 C 48.320312 53.300781 51.207031 51.175781 52.191406 48.015625 C 52.34375 47.527344 52.292969 47 52.046875 46.539062 C 51.789062 46.085938 51.363281 45.742188 50.859375 45.597656 Z M 50.855469 47.605469 C 50.054688 50.175781 47.699219 51.910156 45 51.910156 C 42.300781 51.910156 39.945312 50.183594 39.144531 47.605469 C 39.101562 47.476562 39.117188 47.332031 39.191406 47.210938 C 39.261719 47.082031 39.375 46.980469 39.519531 46.945312 C 40.566406 46.648438 42.359375 46.289062 45 46.289062 C 47.640625 46.289062 49.441406 46.640625 50.480469 46.945312 C 50.625 46.988281 50.738281 47.082031 50.808594 47.210938 C 50.882812 47.332031 50.898438 47.476562 50.855469 47.605469 Z M 50.855469 47.605469 " fill-opacity="1" fill-rule="nonzero"/><path fill="#ff9999" d="M 45 27 C 35.070312 27 27 35.070312 27 45 C 27 54.929688 35.070312 63 45 63 C 54.929688 63 63 54.929688 63 45 C 63 35.070312 54.929688 27 45 27 Z M 45 61.609375 C 35.839844 61.609375 28.390625 54.160156 28.390625 45 C 28.390625 35.839844 35.839844 28.390625 45 28.390625 C 54.160156 28.390625 61.609375 35.839844 61.609375 45 C 61.609375 54.160156 54.160156 61.609375 45 61.609375 Z M 45 61.609375 " fill-opacity="1" fill-rule="nonzero"/><path fill="#ff9999" d="M 38.511719 42.472656 C 38.519531 42.472656 38.527344 42.472656 38.535156 42.472656 C 39.910156 42.0625 41.046875 41.277344 42.199219 40.082031 C 43.949219 38.273438 44.332031 35.804688 43.046875 34.566406 C 41.992188 33.542969 39.894531 33.550781 38.511719 35.136719 C 37.128906 33.550781 35.035156 33.542969 33.976562 34.566406 C 32.695312 35.804688 33.078125 38.273438 34.828125 40.082031 C 35.976562 41.277344 37.109375 42.070312 38.492188 42.472656 C 38.5 42.472656 38.503906 42.472656 38.511719 42.472656 Z M 38.511719 42.472656 " fill-opacity="1" fill-rule="nonzero"/><path fill="#ff9999" d="M 56.023438 34.566406 C 54.964844 33.542969 52.871094 33.550781 51.488281 35.136719 C 50.105469 33.550781 48.007812 33.542969 46.953125 34.566406 C 45.667969 35.804688 46.050781 38.273438 47.800781 40.082031 C 48.953125 41.277344 50.082031 42.070312 51.464844 42.472656 C 51.472656 42.472656 51.480469 42.472656 51.488281 42.472656 C 51.496094 42.472656 51.5 42.472656 51.507812 42.472656 C 52.882812 42.0625 54.023438 41.277344 55.171875 40.082031 C 56.921875 38.273438 57.304688 35.804688 56.023438 34.566406 Z M 56.023438 34.566406 " fill-opacity="1" fill-rule="nonzero"/></svg>