<svg xmlns="http://www.w3.org/2000/svg" xmlns:xlink="http://www.w3.org/1999/xlink" width="1080" zoomAndPan="magnify" viewBox="0 0 810 809.999993" height="1080" preserveAspectRatio="xMidYMid meet" version="1.0"><path fill="#ffffff" d="M 405 243 C 315.675781 243 243 315.671875 243 405 C 243 494.328125 315.675781 567 405 567 C 494.328125 567 567 494.328125 567 405 C 567 315.671875 494.328125 243 405 243 Z M 405 553.5 C 323.113281 553.5 256.5 486.882812 256.5 405 C 256.5 323.113281 323.113281 256.5 405 256.5 C 486.882812 256.5 553.5 323.113281 553.5 405 C 553.5 486.882812 486.882812 553.5 405 553.5 Z M 405 553.5 " fill-opacity="1" fill-rule="nonzero"/><path fill="#ffffff" d="M 479.25 364.503906 L 438.75 364.503906 C 435.019531 364.503906 432 367.519531 432 371.25 C 432 374.984375 435.019531 378 438.75 378 L 445.5 378 C 445.5 385.441406 451.558594 391.5 459 391.5 C 466.441406 391.5 472.5 385.441406 472.5 378 L 479.25 378 C 482.980469 378 486 374.984375 486 371.25 C 486 367.519531 482.980469 364.503906 479.25 364.503906 Z M 479.25 364.503906 " fill-opacity="1" fill-rule="nonzero"/><path fill="#ffffff" d="M 364.5 378 L 371.25 378 C 374.980469 378 378 374.976562 378 371.25 C 378 367.515625 374.980469 364.496094 371.25 364.496094 L 330.75 364.496094 C 327.019531 364.496094 324 367.515625 324 371.25 C 324 374.976562 327.019531 378 330.75 378 L 337.5 378 C 337.5 385.441406 343.558594 391.5 351 391.5 C 358.441406 391.5 364.5 385.441406 364.5 378 Z M 364.5 378 " fill-opacity="1" fill-rule="nonzero"/><path fill="#ffffff" d="M 452.25 472.5 L 357.75 472.5 C 354.015625 472.5 351 475.515625 351 479.25 C 351 482.980469 354.015625 486 357.75 486 L 452.25 486 C 455.980469 486 459 482.980469 459 479.25 C 459 475.515625 455.980469 472.5 452.25 472.5 Z M 452.25 472.5 " fill-opacity="1" fill-rule="nonzero"/></svg>