<svg xmlns="http://www.w3.org/2000/svg" xmlns:xlink="http://www.w3.org/1999/xlink" width="1080" zoomAndPan="magnify" viewBox="0 0 810 809.999993" height="1080" preserveAspectRatio="xMidYMid meet" version="1.0"><defs><clipPath id="id1"><path d="M 243 243 L 567 243 L 567 567 L 243 567 Z M 243 243 " clip-rule="nonzero"/></clipPath></defs><g clip-path="url(#id1)"><path fill="#ffffff" d="M 405.019531 567 C 317.195312 567 243 490.152344 243 399.1875 C 243 311.585938 314.167969 242.964844 405.019531 242.964844 C 495.871094 242.964844 567.035156 311.585938 567.035156 399.1875 C 567.035156 490.152344 492.84375 567 405.019531 567 Z M 405.019531 254.136719 C 320.433594 254.136719 254.171875 317.851562 254.171875 399.1875 C 254.171875 484.09375 323.25 555.828125 405.019531 555.828125 C 486.785156 555.828125 555.863281 484.09375 555.863281 399.1875 C 555.863281 317.851562 489.605469 254.136719 405.019531 254.136719 Z M 405.019531 254.136719 " fill-opacity="1" fill-rule="nonzero"/></g><path fill="#ffffff" d="M 405.019531 416.15625 C 377.296875 416.15625 354.738281 438.710938 354.738281 466.4375 C 354.738281 469.523438 357.238281 472.023438 360.324219 472.023438 L 449.714844 472.023438 C 452.796875 472.023438 455.300781 469.523438 455.300781 466.4375 C 455.300781 438.710938 432.746094 416.15625 405.019531 416.15625 Z M 382.671875 460.847656 C 382.671875 448.507812 392.675781 438.503906 405.019531 438.503906 C 417.363281 438.503906 427.367188 448.507812 427.367188 460.847656 Z M 382.671875 460.847656 " fill-opacity="1" fill-rule="nonzero"/><path fill="#ffffff" d="M 365.910156 365.875 C 365.910156 375.128906 358.40625 382.636719 349.152344 382.636719 C 339.894531 382.636719 332.390625 375.128906 332.390625 365.875 C 332.390625 356.617188 339.894531 349.113281 349.152344 349.113281 C 358.40625 349.113281 365.910156 356.617188 365.910156 365.875 Z M 365.910156 365.875 " fill-opacity="1" fill-rule="nonzero"/><path fill="#ffffff" d="M 477.648438 365.875 C 477.648438 375.128906 470.144531 382.636719 460.886719 382.636719 C 451.632812 382.636719 444.128906 375.128906 444.128906 365.875 C 444.128906 356.617188 451.632812 349.113281 460.886719 349.113281 C 470.144531 349.113281 477.648438 356.617188 477.648438 365.875 Z M 477.648438 365.875 " fill-opacity="1" fill-rule="nonzero"/><path fill="#ffffff" d="M 460.886719 360.285156 L 416.191406 360.285156 C 413.105469 360.285156 410.605469 357.785156 410.605469 354.703125 C 410.605469 351.613281 413.105469 349.113281 416.191406 349.113281 L 460.886719 349.113281 C 463.972656 349.113281 466.472656 351.613281 466.472656 354.703125 C 466.472656 357.785156 463.972656 360.285156 460.886719 360.285156 Z M 460.886719 360.285156 " fill-opacity="1" fill-rule="nonzero"/><path fill="#ffffff" d="M 349.152344 360.285156 L 304.457031 360.285156 C 301.371094 360.285156 298.867188 357.785156 298.867188 354.703125 C 298.867188 351.613281 301.371094 349.113281 304.457031 349.113281 L 349.152344 349.113281 C 352.234375 349.113281 354.738281 351.613281 354.738281 354.703125 C 354.738281 357.785156 352.234375 360.285156 349.152344 360.285156 Z M 349.152344 360.285156 " fill-opacity="1" fill-rule="nonzero"/></svg>