<svg xmlns="http://www.w3.org/2000/svg" xmlns:xlink="http://www.w3.org/1999/xlink" width="1080" zoomAndPan="magnify" viewBox="0 0 810 809.999993" height="1080" preserveAspectRatio="xMidYMid meet" version="1.0"><path fill="#ffffff" d="M 405 243 C 315.675781 243 243 315.671875 243 405 C 243 494.328125 315.675781 567 405 567 C 494.328125 567 567 494.328125 567 405 C 567 315.671875 494.328125 243 405 243 Z M 405 553.5 C 323.113281 553.5 256.5 486.882812 256.5 405 C 256.5 323.113281 323.113281 256.5 405 256.5 C 486.882812 256.5 553.5 323.113281 553.5 405 C 553.5 486.882812 486.882812 553.5 405 553.5 Z M 405 553.5 " fill-opacity="1" fill-rule="nonzero"/><path fill="#ffffff" d="M 364.5 364.503906 C 364.5 371.957031 358.457031 378 351 378 C 343.546875 378 337.5 371.957031 337.5 364.503906 C 337.5 357.042969 343.546875 351 351 351 C 358.457031 351 364.5 357.042969 364.5 364.503906 Z M 364.5 364.503906 " fill-opacity="1" fill-rule="nonzero"/><path fill="#ffffff" d="M 472.5 364.503906 C 472.5 371.957031 466.457031 378 459 378 C 451.542969 378 445.5 371.957031 445.5 364.503906 C 445.5 357.042969 451.542969 351 459 351 C 466.457031 351 472.5 357.042969 472.5 364.503906 Z M 472.5 364.503906 " fill-opacity="1" fill-rule="nonzero"/><path fill="#ffffff" d="M 480.457031 472.609375 L 331.957031 445.609375 C 328.320312 444.90625 324.769531 447.371094 324.113281 451.042969 C 323.441406 454.707031 325.871094 458.21875 329.542969 458.886719 L 478.042969 485.890625 C 478.453125 485.96875 478.855469 486 479.257812 486 C 482.460938 486 485.300781 483.71875 485.886719 480.453125 C 486.558594 476.792969 484.125 473.277344 480.457031 472.609375 Z M 480.457031 472.609375 " fill-opacity="1" fill-rule="nonzero"/></svg>