<svg xmlns="http://www.w3.org/2000/svg" xmlns:xlink="http://www.w3.org/1999/xlink" width="1080" zoomAndPan="magnify" viewBox="0 0 810 809.999993" height="1080" preserveAspectRatio="xMidYMid meet" version="1.0"><path fill="#ffffff" d="M 405 243 C 315.640625 243 243 315.640625 243 405 C 243 494.359375 315.640625 567 405 567 C 494.359375 567 567 494.359375 567 405 C 567 315.640625 494.359375 243 405 243 Z M 405 554.492188 C 322.574219 554.492188 255.507812 487.425781 255.507812 405 C 255.507812 322.574219 322.574219 255.507812 405 255.507812 C 487.425781 255.507812 554.492188 322.574219 554.492188 405 C 554.492188 487.425781 487.425781 554.492188 405 554.492188 Z M 405 554.492188 " fill-opacity="1" fill-rule="nonzero"/><path fill="#ffffff" d="M 381.414062 320.695312 C 381.738281 320.695312 382.0625 320.628906 382.386719 320.566406 C 382.449219 320.566406 382.578125 320.566406 382.644531 320.5 C 382.96875 320.4375 383.292969 320.304688 383.617188 320.175781 C 383.679688 320.175781 383.746094 320.113281 383.808594 320.046875 C 384.070312 319.917969 384.328125 319.789062 384.589844 319.59375 C 384.652344 319.527344 384.71875 319.527344 384.78125 319.464844 C 385.042969 319.269531 385.367188 319.011719 385.625 318.75 C 385.625 318.75 385.691406 318.6875 385.691406 318.6875 C 385.882812 318.425781 386.078125 318.234375 386.273438 317.910156 C 386.335938 317.84375 386.402344 317.714844 386.46875 317.648438 C 386.53125 317.585938 386.597656 317.519531 386.597656 317.390625 C 386.660156 317.261719 386.660156 317.195312 386.726562 317.066406 C 386.855469 316.871094 386.921875 316.675781 386.984375 316.417969 C 387.050781 316.222656 387.113281 316.03125 387.179688 315.835938 C 387.246094 315.640625 387.246094 315.445312 387.308594 315.253906 C 387.375 315.058594 387.375 314.796875 387.375 314.605469 C 387.375 314.472656 387.375 314.34375 387.375 314.28125 C 387.375 314.214844 387.375 314.152344 387.375 314.085938 C 387.375 313.890625 387.308594 313.632812 387.308594 313.4375 C 387.308594 313.242188 387.246094 313.046875 387.179688 312.855469 C 387.113281 312.660156 387.050781 312.464844 386.984375 312.269531 C 386.921875 312.078125 386.855469 311.882812 386.792969 311.6875 C 386.726562 311.492188 386.597656 311.363281 386.53125 311.167969 C 386.402344 310.976562 386.335938 310.78125 386.207031 310.585938 C 386.078125 310.457031 386.011719 310.328125 385.882812 310.199219 C 385.691406 310.003906 385.558594 309.808594 385.367188 309.679688 C 385.300781 309.613281 385.171875 309.550781 385.042969 309.421875 C 384.78125 309.226562 384.589844 309.03125 384.328125 308.902344 C 384.328125 308.902344 384.265625 308.835938 384.265625 308.835938 C 365.925781 298.597656 344.671875 296.007812 324.390625 301.386719 C 321.019531 302.292969 319.074219 305.726562 319.980469 309.03125 C 320.890625 312.402344 324.324219 314.34375 327.628906 313.4375 C 337.285156 310.84375 347.199219 310.457031 356.789062 312.078125 C 345.125 315.964844 334.433594 322.507812 325.554688 331.453125 C 323.09375 333.914062 323.09375 337.867188 325.554688 340.328125 C 326.785156 341.5625 328.40625 342.144531 329.960938 342.144531 C 331.582031 342.144531 333.203125 341.5625 334.367188 340.328125 C 346.875 327.824219 363.527344 320.761719 381.28125 320.5 C 381.347656 320.761719 381.347656 320.695312 381.414062 320.695312 Z M 381.414062 320.695312 " fill-opacity="1" fill-rule="nonzero"/><path fill="#ffffff" d="M 484.445312 340.589844 C 486.90625 338.125 486.90625 334.171875 484.445312 331.710938 C 475.503906 322.769531 464.875 316.222656 453.210938 312.335938 C 462.800781 310.652344 472.714844 311.105469 482.371094 313.695312 C 485.675781 314.605469 489.175781 312.59375 490.015625 309.289062 C 490.925781 305.921875 488.914062 302.488281 485.609375 301.644531 C 465.328125 296.199219 444.074219 298.859375 425.734375 309.097656 C 425.734375 309.097656 425.734375 309.097656 425.671875 309.097656 C 425.347656 309.289062 425.089844 309.484375 424.765625 309.742188 C 424.699219 309.808594 424.632812 309.808594 424.632812 309.875 C 424.375 310.066406 424.179688 310.328125 423.988281 310.585938 C 423.921875 310.652344 423.855469 310.714844 423.792969 310.84375 C 423.597656 311.039062 423.46875 311.300781 423.339844 311.558594 C 423.273438 311.6875 423.207031 311.816406 423.144531 311.945312 C 423.015625 312.140625 422.949219 312.402344 422.886719 312.59375 C 422.820312 312.789062 422.753906 312.917969 422.691406 313.113281 C 422.625 313.308594 422.625 313.503906 422.5625 313.695312 C 422.496094 313.890625 422.496094 314.152344 422.496094 314.34375 C 422.496094 314.410156 422.496094 314.472656 422.496094 314.539062 C 422.496094 314.667969 422.496094 314.796875 422.496094 314.929688 C 422.496094 315.121094 422.496094 315.382812 422.5625 315.574219 C 422.5625 315.769531 422.625 315.964844 422.691406 316.160156 C 422.753906 316.355469 422.820312 316.546875 422.886719 316.742188 C 422.949219 316.9375 423.078125 317.195312 423.144531 317.390625 C 423.207031 317.519531 423.207031 317.585938 423.273438 317.714844 C 423.339844 317.777344 423.402344 317.84375 423.402344 317.972656 C 423.46875 318.039062 423.53125 318.167969 423.597656 318.234375 C 423.792969 318.492188 423.988281 318.75 424.179688 319.011719 C 424.179688 319.011719 424.246094 319.074219 424.246094 319.074219 C 424.503906 319.335938 424.765625 319.59375 425.089844 319.789062 C 425.152344 319.851562 425.21875 319.851562 425.28125 319.917969 C 425.542969 320.113281 425.800781 320.242188 426.058594 320.371094 C 426.125 320.4375 426.191406 320.4375 426.253906 320.5 C 426.578125 320.628906 426.902344 320.761719 427.226562 320.824219 C 427.292969 320.824219 427.421875 320.890625 427.484375 320.890625 C 427.808594 320.953125 428.132812 321.019531 428.457031 321.019531 C 428.523438 321.019531 428.523438 321.019531 428.585938 321.019531 C 446.277344 321.277344 462.929688 328.339844 475.503906 340.847656 C 476.734375 342.078125 478.355469 342.664062 479.910156 342.664062 C 481.464844 342.664062 483.214844 341.820312 484.445312 340.589844 Z M 484.445312 340.589844 " fill-opacity="1" fill-rule="nonzero"/><path fill="#ffffff" d="M 409.277344 398.585938 C 406.878906 396.316406 403.121094 396.316406 400.660156 398.585938 L 370.785156 426.773438 C 368.257812 429.171875 368.128906 433.125 370.527344 435.652344 C 372.925781 438.175781 376.875 438.308594 379.402344 435.910156 L 405 411.804688 L 430.597656 435.910156 C 431.828125 437.074219 433.382812 437.59375 434.871094 437.59375 C 436.558594 437.59375 438.175781 436.945312 439.410156 435.652344 C 441.804688 433.125 441.675781 429.171875 439.148438 426.773438 Z M 409.277344 398.585938 " fill-opacity="1" fill-rule="nonzero"/><path fill="#ffffff" d="M 315.121094 393.855469 C 316.03125 390.484375 314.019531 387.050781 310.714844 386.207031 C 307.347656 385.300781 303.910156 387.308594 303.070312 390.613281 C 291.601562 433.445312 298.015625 479.777344 320.761719 517.6875 C 321.925781 519.632812 324 520.734375 326.136719 520.734375 C 327.238281 520.734375 328.339844 520.472656 329.378906 519.824219 C 332.359375 518.074219 333.332031 514.1875 331.515625 511.207031 C 310.523438 476.214844 304.558594 433.445312 315.121094 393.855469 Z M 315.121094 393.855469 " fill-opacity="1" fill-rule="nonzero"/><path fill="#ffffff" d="M 314.796875 374.738281 C 315.640625 375.128906 316.484375 375.257812 317.324219 375.257812 C 319.722656 375.257812 321.992188 373.894531 323.027344 371.5625 C 324.582031 368.128906 326.203125 364.695312 328.019531 361.390625 C 329.636719 358.34375 328.535156 354.519531 325.492188 352.902344 C 322.445312 351.28125 318.621094 352.382812 317 355.429688 C 315.058594 358.992188 313.242188 362.6875 311.625 366.445312 C 310.199219 369.621094 311.625 373.3125 314.796875 374.738281 Z M 314.796875 374.738281 " fill-opacity="1" fill-rule="nonzero"/><path fill="#ffffff" d="M 506.929688 390.613281 C 506.023438 387.246094 502.589844 385.300781 499.285156 386.207031 C 495.914062 387.113281 493.96875 390.550781 494.878906 393.855469 C 505.503906 433.445312 499.542969 476.214844 478.546875 511.273438 C 476.796875 514.253906 477.707031 518.074219 480.6875 519.890625 C 481.722656 520.472656 482.824219 520.796875 483.925781 520.796875 C 486.066406 520.796875 488.136719 519.695312 489.304688 517.753906 C 511.984375 479.777344 518.398438 433.445312 506.929688 390.613281 Z M 506.929688 390.613281 " fill-opacity="1" fill-rule="nonzero"/><path fill="#ffffff" d="M 484.507812 352.902344 C 481.464844 354.519531 480.296875 358.34375 481.980469 361.390625 C 483.730469 364.695312 485.417969 368.128906 486.972656 371.5625 C 488.007812 373.894531 490.277344 375.257812 492.675781 375.257812 C 493.515625 375.257812 494.359375 375.0625 495.203125 374.738281 C 498.375 373.3125 499.800781 369.621094 498.375 366.445312 C 496.691406 362.75 494.878906 359.058594 493 355.429688 C 491.378906 352.382812 487.554688 351.28125 484.507812 352.902344 Z M 484.507812 352.902344 " fill-opacity="1" fill-rule="nonzero"/></svg>