<svg xmlns="http://www.w3.org/2000/svg" xmlns:xlink="http://www.w3.org/1999/xlink" width="1080" zoomAndPan="magnify" viewBox="0 0 810 809.999993" height="1080" preserveAspectRatio="xMidYMid meet" version="1.0"><defs><clipPath id="id1"><path d="M 245 256.570312 L 567 256.570312 L 567 553.570312 L 245 553.570312 Z M 245 256.570312 " clip-rule="nonzero"/></clipPath></defs><path fill="#ffffff" d="M 466.839844 395.742188 C 457.519531 393.105469 441.640625 389.953125 418.5 389.953125 C 395.359375 389.953125 379.414062 393.105469 370.160156 395.742188 C 366.042969 396.902344 362.507812 399.792969 360.453125 403.523438 C 358.394531 407.253906 358.007812 411.628906 359.230469 415.679688 C 367.394531 441.726562 391.179688 459.21875 418.5 459.21875 C 445.820312 459.21875 469.605469 441.726562 477.769531 415.679688 C 479.054688 411.628906 478.605469 407.320312 476.546875 403.523438 C 474.488281 399.730469 470.953125 396.902344 466.839844 395.742188 Z M 466.777344 412.273438 C 460.15625 433.496094 440.742188 447.773438 418.5 447.773438 C 396.257812 447.773438 376.84375 433.496094 370.222656 412.273438 C 369.902344 411.179688 370.03125 410.019531 370.542969 408.992188 C 371.121094 407.898438 372.085938 407.125 373.308594 406.742188 C 381.921875 404.296875 396.707031 401.339844 418.5 401.339844 C 440.292969 401.339844 455.078125 404.230469 463.691406 406.742188 C 464.847656 407.0625 465.875 407.898438 466.453125 408.992188 C 467.03125 410.019531 467.160156 411.179688 466.777344 412.273438 Z M 466.777344 412.273438 " fill-opacity="1" fill-rule="nonzero"/><path fill="#ffffff" d="M 397.027344 341.589844 C 397.414062 344.742188 400.308594 346.929688 403.457031 346.542969 C 406.605469 346.15625 408.792969 343.261719 408.40625 340.113281 C 406.222656 323.132812 391.628906 310.335938 374.53125 310.335938 C 357.429688 310.335938 342.839844 323.132812 340.652344 340.113281 C 340.265625 343.261719 342.453125 346.15625 345.601562 346.542969 C 345.859375 346.609375 346.117188 346.609375 346.375 346.609375 C 349.203125 346.609375 351.710938 344.484375 352.03125 341.589844 C 353.507812 330.335938 363.152344 321.847656 374.53125 321.847656 C 385.90625 321.847656 395.550781 330.335938 397.027344 341.589844 Z M 397.027344 341.589844 " fill-opacity="1" fill-rule="nonzero"/><path fill="#ffffff" d="M 462.535156 310.335938 C 445.433594 310.335938 430.84375 323.132812 428.65625 340.113281 C 428.269531 343.261719 430.457031 346.15625 433.605469 346.542969 C 433.863281 346.609375 434.121094 346.609375 434.378906 346.609375 C 437.207031 346.609375 439.710938 344.484375 440.035156 341.589844 C 441.511719 330.335938 451.15625 321.847656 462.535156 321.847656 C 473.910156 321.847656 483.554688 330.335938 485.03125 341.589844 C 485.417969 344.742188 488.3125 346.929688 491.460938 346.542969 C 494.609375 346.15625 496.796875 343.261719 496.410156 340.113281 C 494.226562 323.132812 479.632812 310.335938 462.535156 310.335938 Z M 462.535156 310.335938 " fill-opacity="1" fill-rule="nonzero"/><g clip-path="url(#id1)"><path fill="#ffffff" d="M 418.5 256.570312 C 376.328125 256.570312 336.730469 274.253906 308.574219 305.316406 C 299.320312 289.882812 288.003906 278.820312 287.363281 278.179688 L 283.375 274.320312 L 279.390625 278.179688 C 278.425781 279.140625 255.089844 301.910156 248.019531 328.34375 C 243.070312 346.863281 245.640625 365.128906 254.964844 377.285156 C 259.269531 382.878906 264.671875 386.867188 271.035156 389.054688 C 270.457031 394.390625 270.199219 399.730469 270.199219 405.070312 C 270.199219 486.941406 336.796875 553.570312 418.628906 553.570312 C 500.332031 553.570312 566.929688 486.941406 566.929688 405.070312 C 566.929688 323.199219 500.332031 256.570312 418.5 256.570312 Z M 264.027344 370.339844 C 257.019531 361.140625 255.089844 346.222656 259.078125 331.363281 C 263.707031 314.128906 276.753906 298.050781 283.375 290.65625 C 288.261719 296.058594 296.554688 306.152344 302.46875 317.921875 C 304.78125 322.554688 306.582031 327.054688 307.675781 331.300781 C 311.148438 344.292969 310.183594 357.347656 305.105469 366.542969 C 304.398438 367.832031 303.5625 369.117188 302.726562 370.273438 C 298.03125 376.449219 291.476562 379.535156 283.375 379.535156 C 282.476562 379.535156 281.578125 379.472656 280.742188 379.40625 C 280.035156 379.34375 279.328125 379.214844 278.621094 379.085938 C 278.492188 379.085938 278.363281 379.019531 278.167969 379.019531 L 277.398438 378.894531 C 272 377.734375 267.5 374.90625 264.027344 370.339844 Z M 418.5 542.054688 C 342.964844 542.054688 281.578125 480.574219 281.578125 405.070312 C 281.578125 400.4375 281.832031 395.742188 282.285156 391.046875 C 282.667969 391.046875 282.992188 391.046875 283.375 391.046875 C 295.074219 391.046875 304.976562 386.289062 311.855469 377.285156 C 321.175781 365.128906 323.746094 346.863281 318.796875 328.34375 C 318.539062 327.378906 318.28125 326.476562 317.960938 325.578125 C 317.894531 325.382812 317.832031 325.125 317.769531 324.933594 C 317.511719 324.160156 317.253906 323.390625 316.996094 322.683594 C 316.933594 322.488281 316.867188 322.296875 316.804688 322.105469 C 316.480469 321.203125 316.160156 320.304688 315.773438 319.46875 C 315.773438 319.402344 315.710938 319.402344 315.710938 319.339844 C 315.261719 318.308594 314.875 317.28125 314.359375 316.25 C 340.460938 285.574219 378.195312 268.082031 418.5 268.082031 C 494.03125 268.082031 555.421875 329.5625 555.421875 405.070312 C 555.421875 480.636719 494.03125 542.054688 418.5 542.054688 Z M 418.5 542.054688 " fill-opacity="1" fill-rule="nonzero"/></g></svg>