<svg xmlns="http://www.w3.org/2000/svg" xmlns:xlink="http://www.w3.org/1999/xlink" width="1080" zoomAndPan="magnify" viewBox="0 0 810 809.999993" height="1080" preserveAspectRatio="xMidYMid meet" version="1.0"><path fill="#ffffff" d="M 567 405 C 567 315.5625 494.4375 243 405 243 C 315.5625 243 243 315.5625 243 405 C 243 494.4375 315.5625 567 405 567 C 494.4375 567 567 494.4375 567 405 Z M 257.726562 405 C 257.726562 323.691406 323.691406 257.726562 405 257.726562 C 486.308594 257.726562 552.273438 323.691406 552.273438 405 C 552.273438 486.308594 486.308594 552.273438 405 552.273438 C 323.691406 552.273438 257.726562 486.308594 257.726562 405 Z M 257.726562 405 " fill-opacity="1" fill-rule="nonzero"/><path fill="#ffffff" d="M 360.816406 405 C 360.816406 413.128906 354.222656 419.726562 346.089844 419.726562 C 337.960938 419.726562 331.363281 413.128906 331.363281 405 C 331.363281 396.871094 337.960938 390.273438 346.089844 390.273438 C 354.222656 390.273438 360.816406 396.871094 360.816406 405 Z M 360.816406 405 " fill-opacity="1" fill-rule="evenodd"/><path fill="#ffffff" d="M 478.636719 405 C 478.636719 413.128906 472.039062 419.726562 463.910156 419.726562 C 455.777344 419.726562 449.183594 413.128906 449.183594 405 C 449.183594 396.871094 455.777344 390.273438 463.910156 390.273438 C 472.039062 390.273438 478.636719 396.871094 478.636719 405 Z M 478.636719 405 " fill-opacity="1" fill-rule="evenodd"/><path fill="#ffffff" d="M 441.816406 493.363281 C 445.882812 493.363281 449.183594 490.066406 449.183594 486 C 449.183594 481.933594 445.882812 478.636719 441.816406 478.636719 L 368.183594 478.636719 C 364.117188 478.636719 360.816406 481.933594 360.816406 486 C 360.816406 490.066406 364.117188 493.363281 368.183594 493.363281 Z M 441.816406 493.363281 " fill-opacity="1" fill-rule="nonzero"/></svg>