<svg xmlns="http://www.w3.org/2000/svg" xmlns:xlink="http://www.w3.org/1999/xlink" width="120" zoomAndPan="magnify" viewBox="0 0 90 89.999999" height="120" preserveAspectRatio="xMidYMid meet" version="1.0"><path fill="#ff9999" d="M 45 63 C 44.410156 63 43.824219 62.972656 43.234375 62.914062 C 42.648438 62.855469 42.066406 62.769531 41.488281 62.652344 C 40.910156 62.539062 40.339844 62.394531 39.773438 62.226562 C 39.210938 62.054688 38.65625 61.855469 38.113281 61.628906 C 37.566406 61.402344 37.035156 61.152344 36.515625 60.875 C 35.996094 60.597656 35.488281 60.292969 35 59.964844 C 34.507812 59.640625 34.035156 59.289062 33.582031 58.914062 C 33.125 58.539062 32.6875 58.144531 32.273438 57.726562 C 31.855469 57.3125 31.460938 56.875 31.085938 56.417969 C 30.710938 55.964844 30.359375 55.492188 30.035156 55 C 29.707031 54.511719 29.402344 54.003906 29.125 53.484375 C 28.847656 52.964844 28.597656 52.433594 28.371094 51.886719 C 28.144531 51.34375 27.945312 50.789062 27.773438 50.226562 C 27.605469 49.660156 27.460938 49.089844 27.347656 48.511719 C 27.230469 47.933594 27.144531 47.351562 27.085938 46.765625 C 27.027344 46.175781 27 45.589844 27 45 C 27 44.410156 27.027344 43.824219 27.085938 43.234375 C 27.144531 42.648438 27.230469 42.066406 27.347656 41.488281 C 27.460938 40.910156 27.605469 40.339844 27.773438 39.773438 C 27.945312 39.210938 28.144531 38.65625 28.371094 38.113281 C 28.597656 37.566406 28.847656 37.035156 29.125 36.515625 C 29.402344 35.996094 29.707031 35.488281 30.035156 35 C 30.359375 34.507812 30.710938 34.035156 31.085938 33.582031 C 31.460938 33.125 31.855469 32.6875 32.273438 32.273438 C 32.6875 31.855469 33.125 31.460938 33.582031 31.085938 C 34.035156 30.710938 34.507812 30.359375 35 30.035156 C 35.488281 29.707031 35.996094 29.402344 36.515625 29.125 C 37.035156 28.847656 37.566406 28.597656 38.113281 28.371094 C 38.65625 28.144531 39.210938 27.945312 39.773438 27.773438 C 40.339844 27.605469 40.910156 27.460938 41.488281 27.347656 C 42.066406 27.230469 42.648438 27.144531 43.234375 27.085938 C 43.824219 27.027344 44.410156 27 45 27 C 45.589844 27 46.175781 27.027344 46.765625 27.085938 C 47.351562 27.144531 47.933594 27.230469 48.511719 27.347656 C 49.089844 27.460938 49.660156 27.605469 50.226562 27.773438 C 50.789062 27.945312 51.34375 28.144531 51.886719 28.371094 C 52.433594 28.597656 52.964844 28.847656 53.484375 29.125 C 54.003906 29.402344 54.511719 29.707031 55 30.035156 C 55.492188 30.359375 55.964844 30.710938 56.417969 31.085938 C 56.875 31.460938 57.3125 31.855469 57.726562 32.273438 C 58.144531 32.6875 58.539062 33.125 58.914062 33.582031 C 59.289062 34.035156 59.640625 34.507812 59.964844 35 C 60.292969 35.488281 60.597656 35.996094 60.875 36.515625 C 61.152344 37.035156 61.402344 37.566406 61.628906 38.113281 C 61.855469 38.65625 62.054688 39.210938 62.226562 39.773438 C 62.394531 40.339844 62.539062 40.910156 62.652344 41.488281 C 62.769531 42.066406 62.855469 42.648438 62.914062 43.234375 C 62.972656 43.824219 63 44.410156 63 45 C 63 45.589844 62.96875 46.175781 62.910156 46.765625 C 62.851562 47.351562 62.765625 47.933594 62.652344 48.511719 C 62.535156 49.089844 62.390625 49.660156 62.21875 50.222656 C 62.050781 50.785156 61.851562 51.339844 61.625 51.886719 C 61.398438 52.429688 61.148438 52.960938 60.867188 53.480469 C 60.589844 54 60.289062 54.503906 59.960938 54.996094 C 59.632812 55.484375 59.28125 55.957031 58.910156 56.414062 C 58.535156 56.871094 58.140625 57.304688 57.722656 57.722656 C 57.304688 58.140625 56.871094 58.535156 56.414062 58.910156 C 55.957031 59.28125 55.484375 59.632812 54.996094 59.960938 C 54.503906 60.289062 54 60.589844 53.480469 60.867188 C 52.960938 61.148438 52.429688 61.398438 51.886719 61.625 C 51.339844 61.851562 50.785156 62.050781 50.222656 62.21875 C 49.660156 62.390625 49.089844 62.535156 48.511719 62.652344 C 47.933594 62.765625 47.351562 62.851562 46.765625 62.910156 C 46.175781 62.96875 45.589844 63 45 63 Z M 45 28.894531 C 44.472656 28.894531 43.945312 28.921875 43.421875 28.972656 C 42.894531 29.023438 42.375 29.101562 41.859375 29.203125 C 41.339844 29.308594 40.828125 29.433594 40.324219 29.589844 C 39.820312 29.742188 39.324219 29.917969 38.835938 30.121094 C 38.347656 30.324219 37.875 30.546875 37.40625 30.796875 C 36.941406 31.046875 36.492188 31.316406 36.050781 31.609375 C 35.613281 31.902344 35.191406 32.214844 34.78125 32.550781 C 34.375 32.886719 33.984375 33.238281 33.613281 33.613281 C 33.238281 33.984375 32.886719 34.375 32.550781 34.78125 C 32.214844 35.191406 31.902344 35.613281 31.609375 36.050781 C 31.316406 36.492188 31.046875 36.941406 30.796875 37.40625 C 30.546875 37.875 30.324219 38.347656 30.121094 38.835938 C 29.917969 39.324219 29.742188 39.820312 29.589844 40.324219 C 29.433594 40.828125 29.308594 41.339844 29.203125 41.859375 C 29.101562 42.375 29.023438 42.894531 28.972656 43.421875 C 28.921875 43.945312 28.894531 44.472656 28.894531 45 C 28.894531 45.527344 28.921875 46.054688 28.972656 46.578125 C 29.023438 47.105469 29.101562 47.625 29.203125 48.140625 C 29.308594 48.660156 29.433594 49.171875 29.589844 49.675781 C 29.742188 50.179688 29.917969 50.675781 30.121094 51.164062 C 30.324219 51.652344 30.546875 52.125 30.796875 52.59375 C 31.046875 53.058594 31.316406 53.507812 31.609375 53.949219 C 31.902344 54.386719 32.214844 54.808594 32.550781 55.21875 C 32.886719 55.625 33.238281 56.015625 33.613281 56.386719 C 33.984375 56.761719 34.375 57.113281 34.78125 57.449219 C 35.191406 57.785156 35.613281 58.097656 36.050781 58.390625 C 36.492188 58.683594 36.941406 58.953125 37.40625 59.203125 C 37.875 59.453125 38.347656 59.675781 38.835938 59.878906 C 39.324219 60.082031 39.820312 60.257812 40.324219 60.410156 C 40.828125 60.566406 41.339844 60.691406 41.859375 60.796875 C 42.375 60.898438 42.894531 60.976562 43.421875 61.027344 C 43.945312 61.078125 44.472656 61.105469 45 61.105469 C 45.527344 61.105469 46.054688 61.078125 46.578125 61.027344 C 47.105469 60.976562 47.625 60.898438 48.140625 60.796875 C 48.660156 60.691406 49.171875 60.566406 49.675781 60.410156 C 50.179688 60.257812 50.675781 60.082031 51.164062 59.878906 C 51.652344 59.675781 52.125 59.453125 52.59375 59.203125 C 53.058594 58.953125 53.507812 58.683594 53.949219 58.390625 C 54.386719 58.097656 54.808594 57.785156 55.21875 57.449219 C 55.625 57.113281 56.015625 56.761719 56.386719 56.386719 C 56.761719 56.015625 57.113281 55.625 57.449219 55.21875 C 57.785156 54.808594 58.097656 54.386719 58.390625 53.949219 C 58.683594 53.507812 58.953125 53.058594 59.203125 52.59375 C 59.453125 52.125 59.675781 51.652344 59.878906 51.164062 C 60.082031 50.675781 60.257812 50.179688 60.410156 49.675781 C 60.566406 49.171875 60.691406 48.660156 60.796875 48.140625 C 60.898438 47.625 60.976562 47.105469 61.027344 46.578125 C 61.078125 46.054688 61.105469 45.527344 61.105469 45 C 61.105469 44.472656 61.078125 43.945312 61.027344 43.421875 C 60.972656 42.898438 60.894531 42.375 60.792969 41.859375 C 60.6875 41.34375 60.5625 40.832031 60.40625 40.328125 C 60.253906 39.824219 60.078125 39.328125 59.875 38.839844 C 59.671875 38.351562 59.445312 37.875 59.199219 37.410156 C 58.949219 36.945312 58.679688 36.496094 58.386719 36.058594 C 58.09375 35.617188 57.777344 35.195312 57.445312 34.789062 C 57.109375 34.378906 56.753906 33.992188 56.382812 33.617188 C 56.007812 33.246094 55.621094 32.890625 55.210938 32.554688 C 54.804688 32.222656 54.382812 31.90625 53.941406 31.613281 C 53.503906 31.320312 53.054688 31.050781 52.589844 30.800781 C 52.125 30.554688 51.648438 30.328125 51.160156 30.125 C 50.671875 29.921875 50.175781 29.746094 49.671875 29.59375 C 49.167969 29.4375 48.65625 29.3125 48.140625 29.207031 C 47.625 29.105469 47.101562 29.027344 46.578125 28.972656 C 46.054688 28.921875 45.527344 28.894531 45 28.894531 Z M 50.683594 51.632812 L 39.203125 51.632812 L 39.203125 53.527344 L 50.683594 53.527344 Z M 38.976562 38.367188 C 38.703125 38.367188 38.441406 38.421875 38.191406 38.523438 C 37.941406 38.628906 37.71875 38.777344 37.527344 38.96875 C 37.335938 39.160156 37.1875 39.382812 37.085938 39.632812 C 36.980469 39.882812 36.929688 40.144531 36.929688 40.414062 C 36.929688 40.6875 36.980469 40.945312 37.085938 41.199219 C 37.1875 41.449219 37.335938 41.667969 37.527344 41.863281 C 37.71875 42.054688 37.941406 42.203125 38.191406 42.304688 C 38.441406 42.410156 38.703125 42.460938 38.976562 42.460938 C 39.246094 42.460938 39.507812 42.410156 39.757812 42.304688 C 40.007812 42.203125 40.230469 42.054688 40.421875 41.863281 C 40.613281 41.667969 40.761719 41.449219 40.867188 41.199219 C 40.96875 40.945312 41.019531 40.6875 41.019531 40.414062 C 41.019531 40.144531 40.96875 39.882812 40.867188 39.632812 C 40.761719 39.382812 40.613281 39.160156 40.421875 38.96875 C 40.230469 38.777344 40.007812 38.628906 39.757812 38.523438 C 39.507812 38.421875 39.246094 38.367188 38.976562 38.367188 Z M 51.023438 38.367188 C 50.753906 38.367188 50.492188 38.421875 50.242188 38.523438 C 49.992188 38.628906 49.769531 38.777344 49.578125 38.96875 C 49.386719 39.160156 49.238281 39.382812 49.132812 39.632812 C 49.03125 39.882812 48.980469 40.144531 48.980469 40.414062 C 48.980469 40.6875 49.03125 40.945312 49.132812 41.199219 C 49.238281 41.449219 49.386719 41.667969 49.578125 41.863281 C 49.769531 42.054688 49.992188 42.203125 50.242188 42.304688 C 50.492188 42.410156 50.753906 42.460938 51.023438 42.460938 C 51.296875 42.460938 51.558594 42.410156 51.808594 42.304688 C 52.058594 42.203125 52.28125 42.054688 52.472656 41.863281 C 52.664062 41.667969 52.8125 41.449219 52.914062 41.199219 C 53.019531 40.945312 53.070312 40.6875 53.070312 40.414062 C 53.070312 40.144531 53.019531 39.882812 52.914062 39.632812 C 52.8125 39.382812 52.664062 39.160156 52.472656 38.96875 C 52.28125 38.777344 52.058594 38.628906 51.808594 38.523438 C 51.558594 38.421875 51.296875 38.367188 51.023438 38.367188 Z M 39.867188 36.207031 L 38.539062 34.84375 L 34.636719 38.632812 L 35.941406 39.996094 Z M 55.136719 38.652344 L 51.347656 34.863281 L 50.019531 36.191406 L 53.808594 39.980469 Z M 55.136719 38.652344 " fill-opacity="1" fill-rule="nonzero"/></svg>