<svg xmlns="http://www.w3.org/2000/svg" xmlns:xlink="http://www.w3.org/1999/xlink" width="120" zoomAndPan="magnify" viewBox="0 0 90 89.999999" height="120" preserveAspectRatio="xMidYMid meet" version="1.0"><path fill="#ff9999" d="M 45 27 C 35.0625 27 27 35.0625 27 45 C 27 54.9375 35.0625 63 45 63 C 54.9375 63 63 54.9375 63 45 C 63 35.0625 54.9375 27 45 27 Z M 45 61.433594 C 35.921875 61.433594 28.566406 54.078125 28.566406 45 C 28.566406 35.921875 35.921875 28.566406 45 28.566406 C 54.078125 28.566406 61.433594 35.921875 61.433594 45 C 61.433594 54.078125 54.078125 61.433594 45 61.433594 Z M 45 61.433594 " fill-opacity="1" fill-rule="nonzero"/><path fill="#ff9999" d="M 39.914062 41.871094 C 41.398438 41.871094 42.652344 40.617188 42.652344 39.128906 C 42.652344 37.644531 41.398438 36.390625 39.914062 36.390625 C 38.425781 36.390625 37.175781 37.644531 37.175781 39.128906 C 37.175781 40.617188 38.425781 41.871094 39.914062 41.871094 Z M 39.914062 37.957031 C 40.070312 37.957031 40.21875 37.988281 40.363281 38.046875 C 40.507812 38.105469 40.632812 38.191406 40.742188 38.300781 C 40.855469 38.410156 40.9375 38.539062 41 38.679688 C 41.058594 38.824219 41.089844 38.976562 41.089844 39.128906 C 41.089844 39.285156 41.058594 39.4375 41 39.582031 C 40.9375 39.722656 40.855469 39.851562 40.746094 39.960938 C 40.632812 40.070312 40.507812 40.15625 40.363281 40.214844 C 40.21875 40.277344 40.070312 40.304688 39.914062 40.304688 C 39.757812 40.304688 39.609375 40.277344 39.464844 40.214844 C 39.320312 40.15625 39.195312 40.070312 39.082031 39.960938 C 38.972656 39.851562 38.890625 39.722656 38.828125 39.582031 C 38.769531 39.4375 38.738281 39.285156 38.738281 39.132812 C 38.742188 38.976562 38.777344 38.828125 38.835938 38.6875 C 38.898438 38.542969 38.980469 38.417969 39.089844 38.308594 C 39.199219 38.199219 39.328125 38.113281 39.46875 38.054688 C 39.609375 37.992188 39.757812 37.960938 39.914062 37.957031 Z M 39.914062 37.957031 " fill-opacity="1" fill-rule="nonzero"/><path fill="#ff9999" d="M 50.085938 36.390625 C 48.601562 36.390625 47.347656 37.644531 47.347656 39.132812 C 47.347656 40.617188 48.601562 41.871094 50.085938 41.871094 C 51.574219 41.871094 52.824219 40.617188 52.824219 39.132812 C 52.824219 37.644531 51.574219 36.390625 50.085938 36.390625 Z M 50.085938 40.304688 C 49.929688 40.304688 49.78125 40.273438 49.636719 40.214844 C 49.492188 40.15625 49.367188 40.070312 49.257812 39.960938 C 49.144531 39.851562 49.0625 39.722656 49 39.578125 C 48.941406 39.4375 48.914062 39.285156 48.914062 39.128906 C 48.914062 38.976562 48.941406 38.824219 49.003906 38.679688 C 49.0625 38.535156 49.148438 38.410156 49.257812 38.300781 C 49.367188 38.191406 49.492188 38.105469 49.636719 38.046875 C 49.78125 37.984375 49.929688 37.957031 50.085938 37.957031 C 50.242188 37.957031 50.394531 37.984375 50.535156 38.046875 C 50.679688 38.105469 50.808594 38.191406 50.917969 38.300781 C 51.027344 38.410156 51.113281 38.539062 51.171875 38.683594 C 51.230469 38.824219 51.261719 38.976562 51.261719 39.132812 C 51.257812 39.285156 51.226562 39.433594 51.164062 39.574219 C 51.101562 39.71875 51.019531 39.84375 50.910156 39.953125 C 50.800781 40.0625 50.675781 40.148438 50.53125 40.207031 C 50.390625 40.269531 50.242188 40.300781 50.085938 40.304688 Z M 50.085938 40.304688 " fill-opacity="1" fill-rule="nonzero"/><path fill="#ff9999" d="M 51.808594 47.347656 L 37.722656 51.261719 C 37.332031 51.335938 37.097656 51.808594 37.175781 52.199219 C 37.25 52.511719 37.566406 52.746094 37.957031 52.746094 L 38.191406 52.746094 L 52.277344 48.832031 C 52.667969 48.757812 52.902344 48.285156 52.824219 47.890625 C 52.667969 47.503906 52.277344 47.269531 51.808594 47.347656 Z M 51.808594 47.347656 " fill-opacity="1" fill-rule="nonzero"/></svg>