<svg xmlns="http://www.w3.org/2000/svg" xmlns:xlink="http://www.w3.org/1999/xlink" width="1080" zoomAndPan="magnify" viewBox="0 0 810 809.999993" height="1080" preserveAspectRatio="xMidYMid meet" version="1.0"><path fill="#ffffff" d="M 567 405 C 567 315.5625 494.4375 243 405 243 C 315.5625 243 243 315.5625 243 405 C 243 494.4375 315.5625 567 405 567 C 494.4375 567 567 494.4375 567 405 Z M 257.726562 405 C 257.726562 323.695312 323.691406 257.726562 405 257.726562 C 486.308594 257.726562 552.273438 323.695312 552.273438 405 C 552.273438 486.308594 486.308594 552.273438 405 552.273438 C 323.691406 552.273438 257.726562 486.308594 257.726562 405 Z M 257.726562 405 " fill-opacity="1" fill-rule="nonzero"/><path fill="#ffffff" d="M 338.726562 390.273438 C 359.054688 390.273438 375.546875 373.78125 375.546875 353.453125 C 375.546875 349.390625 372.246094 346.089844 368.183594 346.089844 C 364.117188 346.089844 360.816406 349.390625 360.816406 353.453125 C 360.816406 365.652344 350.921875 375.546875 338.726562 375.546875 C 326.53125 375.546875 316.636719 365.652344 316.636719 353.453125 C 316.636719 349.390625 313.339844 346.089844 309.273438 346.089844 C 305.207031 346.089844 301.910156 349.390625 301.910156 353.453125 C 301.910156 373.78125 318.402344 390.273438 338.726562 390.273438 Z M 338.726562 390.273438 " fill-opacity="1" fill-rule="nonzero"/><path fill="#ffffff" d="M 471.273438 390.273438 C 491.597656 390.273438 508.089844 373.78125 508.089844 353.453125 C 508.089844 349.390625 504.792969 346.089844 500.726562 346.089844 C 496.660156 346.089844 493.363281 349.390625 493.363281 353.453125 C 493.363281 365.652344 483.46875 375.546875 471.273438 375.546875 C 459.078125 375.546875 449.183594 365.652344 449.183594 353.453125 C 449.183594 349.390625 445.882812 346.089844 441.816406 346.089844 C 437.753906 346.089844 434.453125 349.390625 434.453125 353.453125 C 434.453125 373.78125 450.945312 390.273438 471.273438 390.273438 Z M 471.273438 390.273438 " fill-opacity="1" fill-rule="nonzero"/><path fill="#ffffff" d="M 416.734375 478.023438 C 425.632812 472.652344 435.222656 468.820312 444.808594 466.363281 C 450.484375 464.828125 454.859375 464.0625 457.234375 463.910156 C 461.300781 463.527344 464.292969 459.921875 463.910156 455.855469 C 463.527344 451.789062 459.921875 448.796875 455.855469 449.183594 C 452.785156 449.488281 447.570312 450.332031 441.050781 452.097656 C 430.160156 454.933594 419.34375 459.230469 409.140625 465.367188 C 395.871094 473.265625 384.828125 483.699219 376.621094 496.816406 C 374.472656 500.265625 375.546875 504.871094 378.996094 507.015625 C 382.449219 509.164062 387.050781 508.089844 389.199219 504.640625 C 396.027344 493.59375 405.382812 484.773438 416.734375 478.023438 Z M 416.734375 478.023438 " fill-opacity="1" fill-rule="nonzero"/></svg>