<svg xmlns="http://www.w3.org/2000/svg" xmlns:xlink="http://www.w3.org/1999/xlink" width="120" zoomAndPan="magnify" viewBox="0 0 90 89.999999" height="120" preserveAspectRatio="xMidYMid meet" version="1.0"><path fill="#ff9999" d="M 63 45 C 63 35.058594 54.941406 27 45 27 C 35.058594 27 27 35.058594 27 45 C 27 54.941406 35.058594 63 45 63 C 54.941406 63 63 54.941406 63 45 Z M 61.800781 45 C 61.800781 54.277344 54.277344 61.800781 45 61.800781 C 35.722656 61.800781 28.199219 54.277344 28.199219 45 C 28.199219 35.722656 35.722656 28.199219 45 28.199219 C 54.277344 28.199219 61.800781 35.722656 61.800781 45 " fill-opacity="1" fill-rule="nonzero"/><path fill="#ff9999" d="M 36.394531 41.363281 C 36.148438 41.144531 35.769531 41.167969 35.550781 41.417969 C 35.332031 41.664062 35.355469 42.042969 35.605469 42.261719 C 37.316406 43.769531 40.28125 43.390625 41.851562 41.609375 C 42.203125 41.207031 41.894531 40.582031 41.363281 40.613281 C 39.410156 40.738281 36.6875 39.183594 36.597656 37.761719 C 36.578125 37.429688 36.292969 37.179688 35.960938 37.203125 C 35.632812 37.222656 35.378906 37.507812 35.402344 37.839844 C 35.511719 39.59375 37.652344 41.164062 39.792969 41.660156 C 38.652344 42.179688 37.253906 42.117188 36.394531 41.363281 " fill-opacity="1" fill-rule="nonzero"/><path fill="#ff9999" d="M 54.597656 37.839844 C 54.621094 37.507812 54.367188 37.222656 54.039062 37.203125 C 53.707031 37.179688 53.421875 37.429688 53.402344 37.761719 C 53.3125 39.183594 50.589844 40.738281 48.636719 40.613281 C 48.105469 40.582031 47.796875 41.207031 48.148438 41.609375 C 49.71875 43.390625 52.683594 43.769531 54.394531 42.261719 C 54.644531 42.042969 54.667969 41.664062 54.449219 41.417969 C 54.230469 41.167969 53.851562 41.144531 53.605469 41.363281 C 52.746094 42.117188 51.347656 42.179688 50.207031 41.660156 C 52.347656 41.164062 54.488281 39.59375 54.597656 37.839844 " fill-opacity="1" fill-rule="nonzero"/><path fill="#ff9999" d="M 39 37.800781 C 40.988281 37.800781 42.601562 36.191406 42.601562 34.199219 C 42.601562 33.867188 42.332031 33.601562 42 33.601562 C 41.667969 33.601562 41.398438 33.867188 41.398438 34.199219 C 41.398438 35.527344 40.328125 36.601562 39 36.601562 C 38.667969 36.601562 38.398438 36.867188 38.398438 37.199219 C 38.398438 37.53125 38.667969 37.800781 39 37.800781 " fill-opacity="1" fill-rule="nonzero"/><path fill="#ff9999" d="M 51 36.601562 C 49.671875 36.601562 48.601562 35.527344 48.601562 34.199219 C 48.601562 33.867188 48.332031 33.601562 48 33.601562 C 47.667969 33.601562 47.398438 33.867188 47.398438 34.199219 C 47.398438 36.191406 49.011719 37.800781 51 37.800781 C 51.332031 37.800781 51.601562 37.53125 51.601562 37.199219 C 51.601562 36.867188 51.332031 36.601562 51 36.601562 " fill-opacity="1" fill-rule="nonzero"/><path fill="#ff9999" d="M 49.800781 55.800781 L 49.800781 52.3125 C 49.800781 50.921875 48.679688 49.753906 47.308594 49.800781 C 46.503906 49.828125 45.78125 50.183594 45 50.8125 C 44.21875 50.183594 43.496094 49.828125 42.691406 49.800781 C 41.320312 49.753906 40.199219 50.921875 40.199219 52.3125 L 40.199219 55.800781 C 40.199219 58.449219 42.347656 60.601562 45 60.601562 C 47.652344 60.601562 49.800781 58.449219 49.800781 55.800781 Z M 48.601562 52.3125 L 48.601562 55.800781 C 48.601562 57.789062 46.988281 59.398438 45 59.398438 C 43.011719 59.398438 41.398438 57.789062 41.398438 55.800781 L 41.398438 52.3125 C 41.398438 51.582031 41.980469 50.976562 42.648438 51 C 43.234375 51.019531 43.855469 51.378906 44.597656 52.046875 C 44.828125 52.25 45.171875 52.25 45.402344 52.046875 C 46.144531 51.378906 46.765625 51.019531 47.351562 51 C 48.019531 50.976562 48.601562 51.582031 48.601562 52.3125 " fill-opacity="1" fill-rule="nonzero"/><path fill="#ff9999" d="M 49.800781 52.3125 C 49.800781 50.921875 48.679688 49.753906 47.308594 49.800781 C 46.503906 49.828125 45.78125 50.183594 45 50.8125 C 44.21875 50.183594 43.496094 49.828125 42.691406 49.800781 C 41.320312 49.753906 40.199219 50.921875 40.199219 52.3125 L 40.199219 53.835938 C 39.589844 53.9375 39 54.0625 38.414062 54.207031 C 37.222656 54.5 36.234375 53.316406 36.730469 52.1875 C 38.15625 48.941406 41.371094 46.800781 44.976562 46.800781 C 48.652344 46.800781 51.914062 49.023438 53.296875 52.359375 C 53.730469 53.40625 52.757812 54.515625 51.640625 54.246094 C 51.058594 54.105469 50.441406 53.976562 49.800781 53.867188 Z M 44.976562 45.601562 C 40.890625 45.601562 37.246094 48.027344 35.632812 51.707031 C 34.738281 53.742188 36.542969 55.902344 38.703125 55.371094 C 39.410156 55.195312 40.132812 55.054688 40.890625 54.9375 C 41.183594 54.890625 41.398438 54.640625 41.398438 54.34375 L 41.398438 52.3125 C 41.398438 51.582031 41.980469 50.976562 42.648438 51 C 43.234375 51.019531 43.851562 51.378906 44.597656 52.046875 C 44.828125 52.25 45.171875 52.25 45.402344 52.046875 C 46.148438 51.375 46.765625 51.019531 47.351562 51 C 48.019531 50.976562 48.601562 51.582031 48.601562 52.3125 L 48.601562 54.375 C 48.601562 54.667969 48.816406 54.921875 49.105469 54.96875 C 49.898438 55.089844 50.65625 55.242188 51.359375 55.414062 C 53.421875 55.914062 55.21875 53.859375 54.40625 51.898438 C 52.839844 48.117188 49.140625 45.601562 44.976562 45.601562 " fill-opacity="1" fill-rule="nonzero"/></svg>