<svg xmlns="http://www.w3.org/2000/svg" xmlns:xlink="http://www.w3.org/1999/xlink" width="1080" zoomAndPan="magnify" viewBox="0 0 810 809.999993" height="1080" preserveAspectRatio="xMidYMid meet" version="1.0"><path fill="#ffffff" d="M 434.113281 487.429688 C 415.226562 503.1875 394.25 503.207031 375.363281 487.445312 C 372.515625 485.082031 368.253906 485.445312 365.875 488.304688 C 363.488281 491.15625 363.871094 495.410156 366.726562 497.792969 C 378.648438 507.746094 391.429688 512.796875 404.722656 512.796875 C 418.03125 512.796875 430.824219 507.738281 442.746094 497.769531 C 445.601562 495.382812 445.984375 491.132812 443.601562 488.273438 C 441.207031 485.414062 436.929688 485.039062 434.113281 487.429688 Z M 434.113281 487.429688 " fill-opacity="1" fill-rule="nonzero"/><path fill="#ffffff" d="M 492.324219 357.828125 C 488.597656 357.828125 485.585938 360.84375 485.585938 364.570312 C 485.585938 379.433594 473.488281 391.523438 458.632812 391.523438 C 443.773438 391.523438 431.679688 379.433594 431.679688 364.570312 C 431.679688 360.84375 428.664062 357.828125 424.9375 357.828125 C 421.214844 357.828125 418.199219 360.84375 418.199219 364.570312 C 418.199219 386.863281 436.335938 405 458.632812 405 C 480.925781 405 499.0625 386.863281 499.0625 364.570312 C 499.0625 360.84375 496.046875 357.828125 492.324219 357.828125 Z M 492.324219 357.828125 " fill-opacity="1" fill-rule="nonzero"/><path fill="#ffffff" d="M 391.246094 364.570312 C 391.246094 360.84375 388.234375 357.828125 384.507812 357.828125 C 380.785156 357.828125 377.769531 360.84375 377.769531 364.570312 C 377.769531 379.433594 365.671875 391.523438 350.8125 391.523438 C 335.957031 391.523438 323.859375 379.433594 323.859375 364.570312 C 323.859375 360.84375 320.847656 357.828125 317.125 357.828125 C 313.398438 357.828125 310.382812 360.84375 310.382812 364.570312 C 310.382812 386.863281 328.519531 405 350.8125 405 C 373.109375 405 391.246094 386.863281 391.246094 364.570312 Z M 391.246094 364.570312 " fill-opacity="1" fill-rule="nonzero"/><path fill="#ffffff" d="M 532.753906 270.230469 L 543.441406 270.230469 L 527.992188 285.679688 C 526.070312 287.609375 525.492188 290.507812 526.53125 293.023438 C 527.570312 295.542969 530.03125 297.183594 532.753906 297.183594 L 559.707031 297.183594 C 563.433594 297.183594 566.449219 294.167969 566.449219 290.445312 C 566.449219 286.71875 563.433594 283.707031 559.707031 283.707031 L 549.019531 283.707031 L 564.472656 268.253906 C 566.394531 266.328125 566.972656 263.433594 565.933594 260.910156 C 564.894531 258.390625 562.433594 256.75 559.707031 256.75 L 532.753906 256.75 C 529.03125 256.75 526.015625 259.765625 526.015625 263.496094 C 526.015625 267.214844 529.03125 270.230469 532.753906 270.230469 Z M 532.753906 270.230469 " fill-opacity="1" fill-rule="nonzero"/><path fill="#ffffff" d="M 516.957031 288.816406 L 524.039062 281.730469 C 525.960938 279.804688 526.542969 276.910156 525.503906 274.386719 C 524.464844 271.867188 522.003906 270.230469 519.277344 270.230469 L 493.925781 270.230469 C 468.335938 253.230469 437.683594 243.273438 404.722656 243.273438 C 315.542969 243.273438 243 315.824219 243 405 C 243 494.175781 315.542969 566.722656 404.722656 566.722656 C 493.902344 566.722656 566.449219 494.175781 566.449219 405 C 566.449219 359.410156 547.410156 318.242188 516.957031 288.816406 Z M 404.722656 553.246094 C 322.976562 553.246094 256.476562 486.742188 256.476562 405 C 256.476562 323.253906 322.976562 256.75 404.722656 256.75 C 426.636719 256.75 447.386719 261.65625 466.121094 270.230469 L 465.371094 270.230469 C 461.644531 270.230469 458.632812 273.242188 458.632812 276.96875 C 458.632812 280.691406 461.644531 283.707031 465.371094 283.707031 L 489.695312 283.707031 C 492.289062 285.53125 494.839844 287.421875 497.308594 289.40625 L 460.605469 326.109375 C 458.683594 328.039062 458.105469 330.933594 459.144531 333.453125 C 460.183594 335.972656 462.644531 337.613281 465.367188 337.613281 L 519.277344 337.613281 C 523 337.613281 526.015625 334.597656 526.015625 330.878906 C 526.015625 327.148438 523 324.136719 519.277344 324.136719 L 481.636719 324.136719 L 507.433594 298.34375 C 535.445312 325.328125 552.96875 363.125 552.96875 405 C 552.972656 486.742188 486.46875 553.246094 404.722656 553.246094 Z M 404.722656 553.246094 " fill-opacity="1" fill-rule="nonzero"/></svg>