<svg xmlns="http://www.w3.org/2000/svg" xmlns:xlink="http://www.w3.org/1999/xlink" width="120" zoomAndPan="magnify" viewBox="0 0 90 89.999999" height="120" preserveAspectRatio="xMidYMid meet" version="1.0"><path fill="#ff9999" d="M 50.859375 45.253906 C 49.738281 44.929688 47.800781 44.546875 45 44.546875 C 42.191406 44.546875 40.261719 44.929688 39.140625 45.253906 C 38.640625 45.394531 38.210938 45.742188 37.964844 46.195312 C 37.722656 46.65625 37.664062 47.179688 37.820312 47.671875 C 38.808594 50.832031 41.695312 52.957031 45.007812 52.957031 C 48.320312 52.957031 51.207031 50.832031 52.191406 47.671875 C 52.34375 47.179688 52.292969 46.65625 52.046875 46.195312 C 51.789062 45.734375 51.363281 45.394531 50.859375 45.253906 Z M 50.855469 47.261719 C 50.046875 49.839844 47.691406 51.566406 45 51.566406 C 42.300781 51.566406 39.945312 49.839844 39.144531 47.261719 C 39.101562 47.132812 39.117188 46.988281 39.191406 46.863281 C 39.261719 46.734375 39.375 46.632812 39.519531 46.597656 C 40.566406 46.304688 42.359375 45.941406 45 45.941406 C 47.640625 45.941406 49.441406 46.296875 50.480469 46.597656 C 50.625 46.640625 50.738281 46.734375 50.808594 46.863281 C 50.882812 46.988281 50.898438 47.125 50.855469 47.261719 Z M 50.855469 47.261719 " fill-opacity="1" fill-rule="nonzero"/><path fill="#ff9999" d="M 60.214844 35.394531 C 60.445312 35.214844 60.574219 35.019531 60.574219 34.820312 C 60.574219 34.402344 60.019531 34.0625 59.089844 33.804688 C 55.785156 29.664062 50.695312 27 45 27 C 39.304688 27 34.214844 29.664062 30.917969 33.8125 C 29.980469 34.070312 29.433594 34.410156 29.433594 34.828125 C 29.433594 35.027344 29.554688 35.214844 29.792969 35.402344 C 28.023438 38.175781 27 41.472656 27 45 C 27 54.929688 35.070312 63 45 63 C 54.929688 63 63 54.929688 63 45 C 63 41.472656 61.976562 38.175781 60.214844 35.394531 Z M 45 28.390625 C 49.660156 28.390625 53.871094 30.320312 56.886719 33.414062 C 55.640625 33.277344 54.164062 33.207031 52.582031 33.207031 C 49.046875 33.207031 40.945312 33.207031 37.410156 33.207031 C 35.828125 33.207031 34.351562 33.277344 33.105469 33.414062 C 36.128906 30.320312 40.339844 28.390625 45 28.390625 Z M 45 61.609375 C 35.839844 61.609375 28.390625 54.160156 28.390625 45 C 28.390625 41.679688 29.367188 38.59375 31.054688 35.992188 C 31.066406 36 31.082031 36 31.097656 36.007812 C 31.0625 36.28125 31.039062 36.554688 31.039062 36.84375 C 31.039062 40.363281 33.890625 43.214844 37.410156 43.214844 C 40.933594 43.214844 43.78125 40.363281 43.78125 36.84375 C 43.78125 36.5625 43.761719 36.28125 43.726562 36.007812 C 44.273438 35.835938 45.710938 35.835938 46.261719 36.007812 C 46.222656 36.28125 46.203125 36.554688 46.203125 36.84375 C 46.203125 40.363281 49.054688 43.214844 52.574219 43.214844 C 56.09375 43.214844 58.945312 40.363281 58.945312 36.84375 C 58.945312 36.5625 58.925781 36.28125 58.890625 36.007812 C 58.902344 36 58.917969 36 58.933594 35.992188 C 60.617188 38.59375 61.597656 41.679688 61.597656 45 C 61.609375 54.160156 54.160156 61.609375 45 61.609375 Z M 45 61.609375 " fill-opacity="1" fill-rule="nonzero"/></svg>