<svg xmlns="http://www.w3.org/2000/svg" xmlns:xlink="http://www.w3.org/1999/xlink" width="1080" zoomAndPan="magnify" viewBox="0 0 810 809.999993" height="1080" preserveAspectRatio="xMidYMid meet" version="1.0"><path fill="#ffffff" d="M 405 243 C 315.675781 243 243 315.671875 243 405 C 243 494.328125 315.675781 567 405 567 C 494.328125 567 567 494.328125 567 405 C 567 315.671875 494.328125 243 405 243 Z M 405 553.5 C 323.113281 553.5 256.5 486.882812 256.5 405 C 256.5 323.113281 323.113281 256.5 405 256.5 C 486.882812 256.5 553.5 323.113281 553.5 405 C 553.5 486.882812 486.882812 553.5 405 553.5 Z M 405 553.5 " fill-opacity="1" fill-rule="nonzero"/><path fill="#ffffff" d="M 491.9375 432.285156 C 488.28125 431.410156 484.667969 433.660156 483.8125 437.285156 C 475.109375 473.917969 442.703125 499.496094 405 499.496094 C 367.25 499.496094 334.828125 473.875 326.167969 437.199219 C 325.300781 433.5625 321.648438 431.351562 318.046875 432.179688 C 314.414062 433.035156 312.167969 436.671875 313.023438 440.296875 C 323.136719 483.105469 360.960938 512.996094 405 512.996094 C 448.984375 512.996094 486.796875 483.148438 496.941406 440.410156 C 497.804688 436.78125 495.566406 433.140625 491.9375 432.285156 Z M 491.9375 432.285156 " fill-opacity="1" fill-rule="nonzero"/><path fill="#ffffff" d="M 364.5 364.503906 C 364.5 371.957031 358.457031 378 351 378 C 343.546875 378 337.5 371.957031 337.5 364.503906 C 337.5 357.042969 343.546875 351 351 351 C 358.457031 351 364.5 357.042969 364.5 364.503906 Z M 364.5 364.503906 " fill-opacity="1" fill-rule="nonzero"/><path fill="#ffffff" d="M 472.5 364.503906 C 472.5 371.957031 466.457031 378 459 378 C 451.542969 378 445.5 371.957031 445.5 364.503906 C 445.5 357.042969 451.542969 351 459 351 C 466.457031 351 472.5 357.042969 472.5 364.503906 Z M 472.5 364.503906 " fill-opacity="1" fill-rule="nonzero"/></svg>