<svg xmlns="http://www.w3.org/2000/svg" xmlns:xlink="http://www.w3.org/1999/xlink" width="1080" zoomAndPan="magnify" viewBox="0 0 810 809.999993" height="1080" preserveAspectRatio="xMidYMid meet" version="1.0"><path fill="#ffffff" d="M 519.550781 290.449219 C 488.953125 259.851562 448.273438 243 405 243 C 361.726562 243 321.046875 259.851562 290.449219 290.449219 C 259.851562 321.046875 243 361.726562 243 405 C 243 448.273438 259.851562 488.953125 290.449219 519.550781 C 321.046875 550.148438 361.726562 567 405 567 C 448.273438 567 488.953125 550.148438 519.550781 519.550781 C 550.148438 488.953125 567 448.273438 567 405 C 567 361.726562 550.148438 321.046875 519.550781 290.449219 Z M 506.128906 506.128906 C 479.113281 533.136719 443.199219 548.015625 405 548.015625 C 366.800781 548.015625 330.886719 533.136719 303.871094 506.128906 C 276.863281 479.113281 261.984375 443.199219 261.984375 405 C 261.984375 366.796875 276.863281 330.886719 303.871094 303.871094 C 330.886719 276.863281 366.800781 261.984375 405 261.984375 C 443.199219 261.984375 479.113281 276.863281 506.128906 303.871094 C 533.136719 330.886719 548.015625 366.796875 548.015625 405 C 548.015625 443.199219 533.136719 479.113281 506.128906 506.128906 Z M 506.128906 506.128906 " fill-opacity="1" fill-rule="nonzero"/><path fill="#ffffff" d="M 462.066406 414.398438 C 480.082031 414.398438 494.742188 399.738281 494.742188 381.71875 C 494.742188 363.695312 480.082031 349.035156 462.066406 349.035156 C 444.042969 349.035156 429.382812 363.695312 429.382812 381.71875 C 429.382812 399.738281 444.042969 414.398438 462.066406 414.398438 Z M 462.066406 368.023438 C 469.617188 368.023438 475.757812 374.167969 475.757812 381.71875 C 475.757812 389.269531 469.617188 395.414062 462.066406 395.414062 C 454.511719 395.414062 448.371094 389.269531 448.371094 381.71875 C 448.371094 374.167969 454.511719 368.023438 462.066406 368.023438 Z M 462.066406 368.023438 " fill-opacity="1" fill-rule="nonzero"/><path fill="#ffffff" d="M 346.003906 414.398438 C 358.890625 414.398438 371.039062 409.988281 378.503906 402.609375 C 382.230469 398.925781 382.265625 392.914062 378.578125 389.1875 C 374.894531 385.457031 368.882812 385.421875 365.15625 389.109375 C 362.074219 392.15625 355.425781 395.414062 346.003906 395.414062 C 335.863281 395.414062 329.03125 391.679688 326.261719 388.476562 C 322.828125 384.519531 316.832031 384.089844 312.871094 387.523438 C 308.90625 390.960938 308.484375 396.953125 311.917969 400.917969 C 319.234375 409.355469 331.980469 414.398438 346.003906 414.398438 Z M 346.003906 414.398438 " fill-opacity="1" fill-rule="nonzero"/><path fill="#ffffff" d="M 318.054688 368.664062 C 320.542969 369.144531 323.019531 369.375 325.464844 369.375 C 343.722656 369.375 360.058594 356.433594 363.652344 337.851562 C 364.652344 332.707031 361.285156 327.722656 356.136719 326.730469 C 350.992188 325.734375 346.011719 329.097656 345.015625 334.246094 C 342.929688 345.035156 332.449219 352.109375 321.664062 350.023438 C 316.519531 349.027344 311.535156 352.390625 310.539062 357.539062 C 309.539062 362.683594 312.90625 367.667969 318.054688 368.664062 Z M 318.054688 368.664062 " fill-opacity="1" fill-rule="nonzero"/><path fill="#ffffff" d="M 442.660156 326.988281 L 481.46875 326.988281 C 486.710938 326.988281 490.960938 322.738281 490.960938 317.496094 C 490.960938 312.253906 486.710938 308.003906 481.46875 308.003906 L 442.660156 308.003906 C 437.414062 308.003906 433.167969 312.253906 433.167969 317.496094 C 433.167969 322.738281 437.414062 326.988281 442.660156 326.988281 Z M 442.660156 326.988281 " fill-opacity="1" fill-rule="nonzero"/><path fill="#ffffff" d="M 495.269531 434.058594 C 490.628906 431.625 484.890625 433.410156 482.453125 438.050781 C 478.066406 446.402344 470.921875 457.832031 459.570312 460.675781 C 451.722656 462.636719 442.695312 460.511719 433.132812 458.265625 C 422.25 455.707031 409.925781 452.8125 397.457031 455.914062 C 380.648438 459.105469 371.058594 467.230469 364.046875 473.167969 C 357.507812 478.707031 355.882812 479.578125 353.183594 478.988281 C 347.167969 477.679688 336.730469 469.355469 322.152344 454.246094 C 318.507812 450.476562 312.5 450.367188 308.726562 454.011719 C 304.957031 457.648438 304.847656 463.65625 308.488281 467.429688 C 326.933594 486.546875 338.710938 495.269531 349.140625 497.539062 C 351.074219 497.960938 352.898438 498.152344 354.625 498.152344 C 363.917969 498.152344 370.449219 492.625 376.3125 487.65625 C 382.644531 482.296875 389.1875 476.753906 401.226562 474.523438 C 401.4375 474.484375 401.652344 474.4375 401.863281 474.382812 C 409.910156 472.3125 419.082031 474.46875 428.789062 476.75 C 440.132812 479.414062 451.859375 482.171875 464.179688 479.089844 C 478.246094 475.570312 489.722656 465.035156 499.257812 446.878906 C 501.699219 442.238281 499.910156 436.5 495.269531 434.058594 Z M 495.269531 434.058594 " fill-opacity="1" fill-rule="nonzero"/></svg>