<svg xmlns="http://www.w3.org/2000/svg" xmlns:xlink="http://www.w3.org/1999/xlink" width="120" zoomAndPan="magnify" viewBox="0 0 90 89.999999" height="120" preserveAspectRatio="xMidYMid meet" version="1.0"><path fill="#ff9999" d="M 63 45 C 63 35.0625 54.9375 27 45 27 C 35.0625 27 27 35.0625 27 45 C 27 54.9375 35.0625 63 45 63 C 54.9375 63 63 54.9375 63 45 Z M 28.636719 45 C 28.636719 35.964844 35.964844 28.636719 45 28.636719 C 54.035156 28.636719 61.363281 35.964844 61.363281 45 C 61.363281 54.035156 54.035156 61.363281 45 61.363281 C 35.964844 61.363281 28.636719 54.035156 28.636719 45 Z M 28.636719 45 " fill-opacity="1" fill-rule="nonzero"/><path fill="#ff9999" d="M 37.636719 43.363281 C 39.894531 43.363281 41.726562 41.53125 41.726562 39.273438 C 41.726562 38.820312 41.359375 38.453125 40.910156 38.453125 C 40.457031 38.453125 40.089844 38.820312 40.089844 39.273438 C 40.089844 40.628906 38.992188 41.726562 37.636719 41.726562 C 36.28125 41.726562 35.183594 40.628906 35.183594 39.273438 C 35.183594 38.820312 34.816406 38.453125 34.363281 38.453125 C 33.910156 38.453125 33.546875 38.820312 33.546875 39.273438 C 33.546875 41.53125 35.378906 43.363281 37.636719 43.363281 Z M 37.636719 43.363281 " fill-opacity="1" fill-rule="nonzero"/><path fill="#ff9999" d="M 52.363281 43.363281 C 54.621094 43.363281 56.453125 41.53125 56.453125 39.273438 C 56.453125 38.820312 56.089844 38.453125 55.636719 38.453125 C 55.183594 38.453125 54.816406 38.820312 54.816406 39.273438 C 54.816406 40.628906 53.71875 41.726562 52.363281 41.726562 C 51.007812 41.726562 49.910156 40.628906 49.910156 39.273438 C 49.910156 38.820312 49.542969 38.453125 49.089844 38.453125 C 48.640625 38.453125 48.273438 38.820312 48.273438 39.273438 C 48.273438 41.53125 50.105469 43.363281 52.363281 43.363281 Z M 52.363281 43.363281 " fill-opacity="1" fill-rule="nonzero"/><path fill="#ff9999" d="M 46.304688 53.113281 C 47.292969 52.515625 48.359375 52.089844 49.421875 51.816406 C 50.054688 51.648438 50.539062 51.5625 50.804688 51.546875 C 51.253906 51.503906 51.589844 51.101562 51.546875 50.652344 C 51.503906 50.199219 51.101562 49.867188 50.652344 49.910156 C 50.308594 49.941406 49.730469 50.035156 49.003906 50.234375 C 47.796875 50.546875 46.59375 51.027344 45.460938 51.707031 C 43.984375 52.585938 42.757812 53.746094 41.847656 55.203125 C 41.609375 55.585938 41.726562 56.097656 42.109375 56.335938 C 42.496094 56.574219 43.003906 56.453125 43.246094 56.070312 C 44.003906 54.84375 45.042969 53.863281 46.304688 53.113281 Z M 46.304688 53.113281 " fill-opacity="1" fill-rule="nonzero"/></svg>