<svg xmlns="http://www.w3.org/2000/svg" xmlns:xlink="http://www.w3.org/1999/xlink" width="1080" zoomAndPan="magnify" viewBox="0 0 810 809.999993" height="1080" preserveAspectRatio="xMidYMid meet" version="1.0"><path fill="#ffffff" d="M 405 243 C 315.675781 243 243 315.675781 243 405 C 243 494.328125 315.675781 567 405 567 C 494.328125 567 567 494.328125 567 405 C 567 315.675781 494.328125 243 405 243 Z M 405 553.5 C 323.113281 553.5 256.5 486.882812 256.5 405 C 256.5 323.113281 323.113281 256.5 405 256.5 C 486.882812 256.5 553.5 323.113281 553.5 405 C 553.5 486.882812 486.882812 553.5 405 553.5 Z M 405 553.5 " fill-opacity="1" fill-rule="nonzero"/><path fill="#ffffff" d="M 364.5 364.503906 C 364.5 371.957031 358.457031 378 351 378 C 343.546875 378 337.5 371.957031 337.5 364.503906 C 337.5 357.046875 343.546875 351 351 351 C 358.457031 351 364.5 357.046875 364.5 364.503906 Z M 364.5 364.503906 " fill-opacity="1" fill-rule="nonzero"/><path fill="#ffffff" d="M 472.5 364.503906 C 472.5 371.957031 466.457031 378 459 378 C 451.542969 378 445.5 371.957031 445.5 364.503906 C 445.5 357.046875 451.542969 351 459 351 C 466.457031 351 472.5 357.046875 472.5 364.503906 Z M 472.5 364.503906 " fill-opacity="1" fill-rule="nonzero"/><path fill="#ffffff" d="M 506.25 378 C 495.082031 378 486 387.082031 486 398.25 C 486 401.367188 486.765625 404.285156 488.03125 406.925781 L 443.320312 451.632812 C 432.464844 448.113281 419.804688 445.5 405 445.5 L 404.980469 445.5 C 355.515625 445.5 327.15625 473.296875 325.976562 474.476562 C 323.347656 477.105469 323.347656 481.363281 325.96875 484.003906 C 327.289062 485.332031 329.023438 485.988281 330.757812 485.988281 C 332.472656 485.988281 334.191406 485.339844 335.507812 484.035156 C 335.765625 483.785156 361.332031 459 404.980469 459 L 405 459 C 448.664062 459.003906 474.238281 483.785156 474.492188 484.035156 C 477.148438 486.652344 481.40625 486.640625 484.027344 484.003906 C 486.65625 481.363281 486.65625 477.105469 484.023438 474.476562 C 483.359375 473.8125 473.835938 464.789062 457.074219 456.972656 L 497.574219 416.46875 C 500.214844 417.734375 503.132812 418.5 506.25 418.5 C 517.417969 418.5 526.5 409.414062 526.5 398.25 C 526.5 387.085938 517.417969 378 506.25 378 Z M 506.25 405 C 502.527344 405 499.5 401.976562 499.5 398.25 C 499.5 394.527344 502.523438 391.5 506.25 391.5 C 509.972656 391.5 513 394.527344 513 398.25 C 513 401.976562 509.972656 405 506.25 405 Z M 506.25 405 " fill-opacity="1" fill-rule="nonzero"/></svg>