<svg xmlns="http://www.w3.org/2000/svg" xmlns:xlink="http://www.w3.org/1999/xlink" width="1080" zoomAndPan="magnify" viewBox="0 0 810 809.999993" height="1080" preserveAspectRatio="xMidYMid meet" version="1.0"><path fill="#ffffff" d="M 567 405 C 567 315.53125 494.46875 243 405 243 C 315.53125 243 243 315.53125 243 405 C 243 494.46875 315.53125 567 405 567 C 494.46875 567 567 494.46875 567 405 Z M 556.199219 405 C 556.199219 488.503906 488.503906 556.199219 405 556.199219 C 321.496094 556.199219 253.800781 488.503906 253.800781 405 C 253.800781 321.496094 321.496094 253.800781 405 253.800781 C 488.503906 253.800781 556.199219 321.496094 556.199219 405 " fill-opacity="1" fill-rule="nonzero"/><path fill="#ffffff" d="M 323.246094 344.085938 C 321.007812 346.054688 320.789062 349.464844 322.757812 351.707031 C 324.730469 353.941406 328.144531 354.160156 330.378906 352.191406 C 341.582031 342.328125 358.625 343.414062 368.488281 354.613281 C 371.667969 358.226562 377.625 356.191406 377.929688 351.390625 C 379.257812 330.539062 361.621094 310.503906 340.765625 309.179688 C 337.789062 308.992188 335.226562 311.253906 335.039062 314.230469 C 334.847656 317.203125 337.109375 319.769531 340.085938 319.957031 C 350.824219 320.640625 360.640625 328.574219 364.925781 338.53125 C 351.605469 331.972656 335.089844 333.65625 323.246094 344.085938 " fill-opacity="1" fill-rule="nonzero"/><path fill="#ffffff" d="M 469.914062 319.957031 C 472.890625 319.769531 475.152344 317.203125 474.960938 314.230469 C 474.773438 311.253906 472.210938 308.992188 469.234375 309.179688 C 448.382812 310.503906 430.742188 330.539062 432.070312 351.390625 C 432.375 356.191406 438.332031 358.226562 441.511719 354.613281 C 451.375 343.414062 468.417969 342.328125 479.621094 352.191406 C 481.855469 354.160156 485.269531 353.941406 487.242188 351.707031 C 489.210938 349.464844 488.992188 346.054688 486.753906 344.085938 C 474.910156 333.65625 458.394531 331.972656 445.074219 338.53125 C 449.359375 328.574219 459.175781 320.640625 469.914062 319.957031 " fill-opacity="1" fill-rule="nonzero"/><path fill="#ffffff" d="M 307.800781 491.398438 C 307.800781 494.382812 310.21875 496.800781 313.199219 496.800781 L 496.800781 496.800781 C 499.785156 496.800781 502.199219 494.382812 502.199219 491.398438 C 502.199219 437.714844 458.683594 394.199219 405 394.199219 C 351.316406 394.199219 307.800781 437.714844 307.800781 491.398438 Z M 405 405 C 450.902344 405 488.445312 440.796875 491.234375 486 L 318.765625 486 C 321.554688 440.796875 359.097656 405 405 405 " fill-opacity="1" fill-rule="nonzero"/><path fill="#ffffff" d="M 378 475.199219 L 432 475.199219 L 432 486 L 378 486 Z M 372.601562 496.800781 L 437.398438 496.800781 C 440.382812 496.800781 442.800781 494.382812 442.800781 491.398438 L 442.800781 469.800781 C 442.800781 466.816406 440.382812 464.398438 437.398438 464.398438 L 372.601562 464.398438 C 369.617188 464.398438 367.199219 466.816406 367.199219 469.800781 L 367.199219 491.398438 C 367.199219 494.382812 369.617188 496.800781 372.601562 496.800781 " fill-opacity="1" fill-rule="nonzero"/><path fill="#ffffff" d="M 442.800781 475.199219 L 459 475.199219 C 466.054688 475.199219 472.054688 479.710938 474.277344 486 L 442.800781 486 Z M 432 469.800781 L 432 491.398438 C 432 494.382812 434.417969 496.800781 437.398438 496.800781 L 480.601562 496.800781 C 483.582031 496.800781 486 494.382812 486 491.398438 C 486 476.488281 473.910156 464.398438 459 464.398438 L 437.398438 464.398438 C 434.417969 464.398438 432 466.816406 432 469.800781 " fill-opacity="1" fill-rule="nonzero"/><path fill="#ffffff" d="M 351.027344 475.199219 L 367.199219 475.199219 L 367.199219 486 L 335.730469 486 C 337.964844 479.707031 343.96875 475.199219 351.027344 475.199219 Z M 329.398438 496.800781 L 372.601562 496.800781 C 375.582031 496.800781 378 494.382812 378 491.398438 L 378 469.800781 C 378 466.816406 375.582031 464.398438 372.601562 464.398438 L 351.027344 464.398438 C 336.113281 464.398438 324.019531 476.476562 324 491.394531 C 323.996094 494.378906 326.414062 496.800781 329.398438 496.800781 " fill-opacity="1" fill-rule="nonzero"/><path fill="#ffffff" d="M 365.4375 464.398438 C 371.609375 453.847656 377.347656 448.285156 383.398438 448.285156 C 388.8125 448.285156 394.570312 451.5 401.394531 457.621094 C 403.449219 459.460938 406.550781 459.460938 408.605469 457.621094 C 415.429688 451.5 421.1875 448.285156 426.601562 448.285156 C 432.652344 448.285156 438.402344 453.859375 444.5625 464.398438 Z M 383.398438 437.484375 C 370.03125 437.484375 361.332031 447.925781 351.574219 467.378906 C 349.773438 470.96875 352.382812 475.199219 356.398438 475.199219 L 453.601562 475.199219 C 457.617188 475.199219 460.226562 470.972656 458.429688 467.378906 C 448.6875 447.945312 439.972656 437.484375 426.601562 437.484375 C 419.050781 437.484375 412.25 440.691406 405 446.511719 C 397.75 440.691406 390.949219 437.484375 383.398438 437.484375 " fill-opacity="1" fill-rule="nonzero"/></svg>