<svg xmlns="http://www.w3.org/2000/svg" xmlns:xlink="http://www.w3.org/1999/xlink" width="120" zoomAndPan="magnify" viewBox="0 0 90 89.999999" height="120" preserveAspectRatio="xMidYMid meet" version="1.0"><path fill="#ff9999" d="M 34.683594 43.683594 C 34.683594 49.371094 39.3125 54 45 54 C 50.6875 54 55.316406 49.371094 55.316406 43.683594 L 55.316406 42.394531 L 34.683594 42.394531 Z M 40.824219 51.566406 C 41.730469 50.34375 43.292969 49.59375 45 49.59375 C 46.707031 49.59375 48.261719 50.34375 49.175781 51.566406 C 47.929688 52.230469 46.503906 52.601562 45 52.601562 C 43.496094 52.609375 42.070312 52.234375 40.824219 51.566406 Z M 53.921875 43.789062 C 53.886719 46.664062 52.488281 49.203125 50.347656 50.816406 C 49.183594 49.191406 47.179688 48.195312 45 48.195312 C 42.820312 48.195312 40.808594 49.191406 39.652344 50.816406 C 37.511719 49.203125 36.113281 46.664062 36.078125 43.789062 Z M 53.921875 43.789062 " fill-opacity="1" fill-rule="nonzero"/><path fill="#ff9999" d="M 36.152344 37.902344 C 36.179688 37.90625 36.207031 37.90625 36.246094 37.90625 C 36.589844 37.90625 36.886719 37.648438 36.9375 37.304688 C 37.117188 35.933594 38.28125 34.90625 39.664062 34.90625 C 41.046875 34.90625 42.214844 35.933594 42.394531 37.304688 C 42.445312 37.683594 42.789062 37.953125 43.171875 37.902344 C 43.554688 37.851562 43.820312 37.503906 43.769531 37.125 C 43.503906 35.0625 41.738281 33.515625 39.65625 33.515625 C 37.585938 33.515625 35.8125 35.0625 35.546875 37.125 C 35.503906 37.503906 35.769531 37.859375 36.152344 37.902344 Z M 36.152344 37.902344 " fill-opacity="1" fill-rule="nonzero"/><path fill="#ff9999" d="M 46.828125 37.902344 C 46.859375 37.90625 46.886719 37.90625 46.921875 37.90625 C 47.269531 37.90625 47.5625 37.648438 47.613281 37.304688 C 47.792969 35.933594 48.960938 34.90625 50.34375 34.90625 C 51.71875 34.90625 52.890625 35.933594 53.070312 37.304688 C 53.121094 37.683594 53.46875 37.953125 53.847656 37.902344 C 54.230469 37.851562 54.496094 37.503906 54.445312 37.125 C 54.179688 35.0625 52.414062 33.515625 50.335938 33.515625 C 48.261719 33.515625 46.492188 35.0625 46.222656 37.125 C 46.179688 37.503906 46.445312 37.859375 46.828125 37.902344 Z M 46.828125 37.902344 " fill-opacity="1" fill-rule="nonzero"/><path fill="#ff9999" d="M 45 27 C 35.070312 27 27 35.070312 27 45 C 27 54.929688 35.070312 63 45 63 C 54.929688 63 63 54.929688 63 45 C 63 35.070312 54.929688 27 45 27 Z M 45 61.609375 C 35.839844 61.609375 28.390625 54.160156 28.390625 45 C 28.390625 35.839844 35.839844 28.390625 45 28.390625 C 54.160156 28.390625 61.609375 35.839844 61.609375 45 C 61.609375 54.160156 54.160156 61.609375 45 61.609375 Z M 45 61.609375 " fill-opacity="1" fill-rule="nonzero"/></svg>