<svg xmlns="http://www.w3.org/2000/svg" xmlns:xlink="http://www.w3.org/1999/xlink" width="120" zoomAndPan="magnify" viewBox="0 0 90 89.999999" height="120" preserveAspectRatio="xMidYMid meet" version="1.0"><defs><clipPath id="id1"><path d="M 27 28.507812 L 63 28.507812 L 63 61.507812 L 27 61.507812 Z M 27 28.507812 " clip-rule="nonzero"/></clipPath></defs><path fill="#ff9999" d="M 51.871094 43.972656 C 50.835938 43.679688 49.070312 43.328125 46.5 43.328125 C 43.929688 43.328125 42.15625 43.679688 41.128906 43.972656 C 40.671875 44.101562 40.28125 44.421875 40.050781 44.835938 C 39.824219 45.25 39.78125 45.738281 39.914062 46.1875 C 40.824219 49.082031 43.464844 51.023438 46.5 51.023438 C 49.535156 51.023438 52.175781 49.082031 53.082031 46.1875 C 53.226562 45.738281 53.175781 45.257812 52.949219 44.835938 C 52.71875 44.414062 52.328125 44.101562 51.871094 43.972656 Z M 51.863281 45.808594 C 51.125 48.167969 48.96875 49.753906 46.5 49.753906 C 44.027344 49.753906 41.871094 48.167969 41.136719 45.808594 C 41.101562 45.6875 41.117188 45.558594 41.171875 45.445312 C 41.238281 45.320312 41.34375 45.234375 41.480469 45.195312 C 42.4375 44.921875 44.078125 44.59375 46.5 44.59375 C 48.921875 44.59375 50.5625 44.914062 51.519531 45.195312 C 51.648438 45.230469 51.761719 45.320312 51.828125 45.445312 C 51.890625 45.558594 51.90625 45.6875 51.863281 45.808594 Z M 51.863281 45.808594 " fill-opacity="1" fill-rule="nonzero"/><path fill="#ff9999" d="M 44.113281 37.953125 C 44.15625 38.304688 44.480469 38.546875 44.828125 38.503906 C 45.179688 38.460938 45.421875 38.140625 45.378906 37.789062 C 45.136719 35.902344 43.515625 34.480469 41.613281 34.480469 C 39.714844 34.480469 38.09375 35.902344 37.851562 37.789062 C 37.808594 38.140625 38.050781 38.460938 38.402344 38.503906 C 38.429688 38.511719 38.457031 38.511719 38.488281 38.511719 C 38.800781 38.511719 39.082031 38.277344 39.117188 37.953125 C 39.28125 36.703125 40.351562 35.761719 41.613281 35.761719 C 42.878906 35.761719 43.949219 36.703125 44.113281 37.953125 Z M 44.113281 37.953125 " fill-opacity="1" fill-rule="nonzero"/><path fill="#ff9999" d="M 51.390625 34.480469 C 49.492188 34.480469 47.871094 35.902344 47.628906 37.789062 C 47.585938 38.140625 47.828125 38.460938 48.175781 38.503906 C 48.207031 38.511719 48.234375 38.511719 48.261719 38.511719 C 48.578125 38.511719 48.855469 38.277344 48.890625 37.953125 C 49.054688 36.703125 50.128906 35.761719 51.390625 35.761719 C 52.65625 35.761719 53.726562 36.703125 53.890625 37.953125 C 53.933594 38.304688 54.253906 38.546875 54.605469 38.503906 C 54.953125 38.460938 55.195312 38.140625 55.15625 37.789062 C 54.910156 35.902344 53.289062 34.480469 51.390625 34.480469 Z M 51.390625 34.480469 " fill-opacity="1" fill-rule="nonzero"/><g clip-path="url(#id1)"><path fill="#ff9999" d="M 46.5 28.507812 C 41.816406 28.507812 37.417969 30.472656 34.289062 33.925781 C 33.261719 32.210938 32.003906 30.980469 31.933594 30.910156 L 31.488281 30.480469 L 31.046875 30.910156 C 30.941406 31.015625 28.347656 33.546875 27.5625 36.484375 C 27.011719 38.539062 27.296875 40.570312 28.332031 41.921875 C 28.8125 42.542969 29.410156 42.984375 30.117188 43.226562 C 30.054688 43.820312 30.027344 44.414062 30.027344 45.007812 C 30.027344 54.105469 37.421875 61.507812 46.515625 61.507812 C 55.589844 61.507812 62.988281 54.105469 62.988281 45.007812 C 62.988281 35.910156 55.589844 28.507812 46.5 28.507812 Z M 29.339844 41.148438 C 28.5625 40.125 28.347656 38.46875 28.789062 36.816406 C 29.304688 34.902344 30.753906 33.117188 31.488281 32.296875 C 32.03125 32.894531 32.953125 34.015625 33.609375 35.324219 C 33.867188 35.839844 34.066406 36.339844 34.1875 36.8125 C 34.574219 38.253906 34.46875 39.707031 33.902344 40.726562 C 33.824219 40.871094 33.730469 41.011719 33.640625 41.140625 C 33.117188 41.828125 32.390625 42.171875 31.488281 42.171875 C 31.390625 42.171875 31.289062 42.164062 31.195312 42.15625 C 31.117188 42.148438 31.039062 42.136719 30.960938 42.121094 C 30.945312 42.121094 30.933594 42.113281 30.910156 42.113281 L 30.824219 42.097656 C 30.226562 41.96875 29.726562 41.65625 29.339844 41.148438 Z M 46.5 60.226562 C 38.109375 60.226562 31.289062 53.398438 31.289062 45.007812 C 31.289062 44.492188 31.316406 43.972656 31.367188 43.449219 C 31.410156 43.449219 31.445312 43.449219 31.488281 43.449219 C 32.789062 43.449219 33.890625 42.921875 34.652344 41.921875 C 35.6875 40.570312 35.972656 38.539062 35.425781 36.484375 C 35.394531 36.375 35.367188 36.273438 35.332031 36.175781 C 35.324219 36.152344 35.316406 36.125 35.308594 36.105469 C 35.28125 36.019531 35.253906 35.933594 35.222656 35.855469 C 35.21875 35.832031 35.210938 35.8125 35.203125 35.789062 C 35.167969 35.6875 35.132812 35.589844 35.089844 35.496094 C 35.089844 35.488281 35.082031 35.488281 35.082031 35.480469 C 35.03125 35.367188 34.988281 35.253906 34.929688 35.140625 C 37.832031 31.730469 42.023438 29.785156 46.5 29.785156 C 54.890625 29.785156 61.710938 36.617188 61.710938 45.007812 C 61.710938 53.402344 54.890625 60.226562 46.5 60.226562 Z M 46.5 60.226562 " fill-opacity="1" fill-rule="nonzero"/></g></svg>