<svg xmlns="http://www.w3.org/2000/svg" xmlns:xlink="http://www.w3.org/1999/xlink" width="120" zoomAndPan="magnify" viewBox="0 0 90 89.999999" height="120" preserveAspectRatio="xMidYMid meet" version="1.0"><defs><clipPath id="id1"><path d="M 27 29.070312 L 63 29.070312 L 63 60.570312 L 27 60.570312 Z M 27 29.070312 " clip-rule="nonzero"/></clipPath></defs><path fill="#ff9999" d="M 44.996094 40.882812 C 36.71875 40.882812 33.246094 42.078125 33.101562 42.128906 L 32.695312 42.269531 L 32.695312 43.410156 C 32.695312 50.117188 38.210938 55.582031 44.996094 55.582031 C 51.78125 55.582031 57.296875 50.117188 57.296875 43.410156 L 57.296875 42.277344 L 56.890625 42.132812 C 56.746094 42.078125 53.277344 40.882812 44.996094 40.882812 Z M 48.933594 42.207031 C 47.9375 42.90625 46.507812 43.332031 44.996094 43.332031 C 43.488281 43.332031 42.046875 42.90625 41.0625 42.207031 C 42.226562 42.140625 43.535156 42.105469 44.996094 42.105469 C 46.457031 42.097656 47.765625 42.140625 48.933594 42.207031 Z M 40.582031 53.449219 C 41.5625 52.722656 43.230469 52.269531 44.996094 52.269531 C 46.765625 52.269531 48.429688 52.722656 49.410156 53.449219 C 48.058594 54.03125 46.570312 54.363281 44.996094 54.363281 C 43.421875 54.363281 41.941406 54.03125 40.582031 53.449219 Z M 56.066406 43.410156 C 56.066406 47.429688 53.863281 50.945312 50.59375 52.847656 C 49.449219 51.738281 47.316406 51.042969 44.996094 51.042969 C 42.679688 51.042969 40.546875 51.738281 39.402344 52.847656 C 36.128906 50.945312 33.925781 47.429688 33.925781 43.410156 L 33.925781 43.152344 C 34.664062 42.957031 36.421875 42.558594 39.378906 42.3125 C 40.53125 43.691406 42.664062 44.539062 44.996094 44.539062 C 47.328125 44.539062 49.460938 43.691406 50.613281 42.3125 C 53.578125 42.558594 55.328125 42.957031 56.066406 43.152344 Z M 56.066406 43.410156 " fill-opacity="1" fill-rule="nonzero"/><path fill="#ff9999" d="M 37.390625 35.941406 C 38.339844 35.6875 39.316406 35.652344 40.257812 35.816406 C 39.113281 36.195312 38.0625 36.832031 37.1875 37.695312 C 36.945312 37.9375 36.945312 38.320312 37.1875 38.558594 C 37.3125 38.679688 37.46875 38.738281 37.625 38.738281 C 37.78125 38.738281 37.941406 38.679688 38.0625 38.558594 C 39.292969 37.34375 40.933594 36.65625 42.671875 36.628906 C 42.671875 36.628906 42.679688 36.628906 42.679688 36.628906 C 42.714844 36.628906 42.742188 36.621094 42.777344 36.613281 C 42.785156 36.613281 42.792969 36.613281 42.808594 36.605469 C 42.84375 36.601562 42.871094 36.585938 42.90625 36.570312 C 42.914062 36.570312 42.921875 36.566406 42.929688 36.566406 C 42.957031 36.550781 42.976562 36.535156 43.007812 36.523438 C 43.015625 36.515625 43.019531 36.515625 43.027344 36.507812 C 43.058594 36.488281 43.085938 36.464844 43.105469 36.4375 C 43.105469 36.4375 43.113281 36.429688 43.113281 36.429688 C 43.136719 36.410156 43.15625 36.378906 43.171875 36.359375 C 43.179688 36.351562 43.1875 36.34375 43.1875 36.332031 C 43.191406 36.324219 43.191406 36.316406 43.199219 36.308594 C 43.207031 36.304688 43.207031 36.289062 43.214844 36.28125 C 43.222656 36.261719 43.234375 36.238281 43.242188 36.21875 C 43.25 36.195312 43.257812 36.183594 43.257812 36.160156 C 43.265625 36.140625 43.265625 36.125 43.273438 36.105469 C 43.273438 36.082031 43.277344 36.0625 43.277344 36.042969 C 43.277344 36.027344 43.277344 36.019531 43.277344 36.003906 C 43.277344 36 43.277344 35.992188 43.277344 35.984375 C 43.277344 35.964844 43.273438 35.941406 43.273438 35.921875 C 43.273438 35.90625 43.265625 35.886719 43.265625 35.871094 C 43.257812 35.851562 43.25 35.828125 43.242188 35.808594 C 43.234375 35.792969 43.230469 35.773438 43.222656 35.757812 C 43.214844 35.738281 43.199219 35.714844 43.1875 35.703125 C 43.179688 35.6875 43.171875 35.671875 43.15625 35.660156 C 43.144531 35.644531 43.128906 35.625 43.113281 35.609375 C 43.101562 35.59375 43.085938 35.582031 43.070312 35.566406 C 43.058594 35.550781 43.050781 35.546875 43.035156 35.539062 C 43.015625 35.523438 42.992188 35.511719 42.972656 35.496094 C 42.964844 35.496094 42.964844 35.488281 42.964844 35.488281 C 41.160156 34.5 39.070312 34.238281 37.082031 34.765625 C 36.753906 34.851562 36.558594 35.191406 36.644531 35.511719 C 36.722656 35.84375 37.058594 36.035156 37.390625 35.941406 Z M 37.390625 35.941406 " fill-opacity="1" fill-rule="nonzero"/><path fill="#ff9999" d="M 46.722656 36.046875 C 46.722656 36.070312 46.722656 36.089844 46.726562 36.113281 C 46.726562 36.132812 46.734375 36.152344 46.742188 36.167969 C 46.75 36.191406 46.75 36.203125 46.757812 36.226562 C 46.765625 36.246094 46.769531 36.265625 46.785156 36.289062 C 46.792969 36.296875 46.792969 36.308594 46.800781 36.316406 C 46.808594 36.324219 46.808594 36.332031 46.8125 36.339844 C 46.820312 36.34375 46.828125 36.351562 46.828125 36.367188 C 46.851562 36.394531 46.863281 36.417969 46.886719 36.4375 C 46.886719 36.4375 46.894531 36.445312 46.894531 36.445312 C 46.914062 36.472656 46.941406 36.492188 46.972656 36.515625 C 46.980469 36.523438 46.984375 36.523438 46.992188 36.53125 C 47.015625 36.542969 47.042969 36.558594 47.070312 36.570312 C 47.078125 36.570312 47.085938 36.578125 47.09375 36.578125 C 47.121094 36.59375 47.15625 36.601562 47.191406 36.613281 C 47.199219 36.613281 47.207031 36.613281 47.222656 36.621094 C 47.257812 36.628906 47.285156 36.628906 47.320312 36.636719 C 47.320312 36.636719 47.328125 36.636719 47.328125 36.636719 C 49.066406 36.664062 50.707031 37.34375 51.9375 38.566406 C 52.058594 38.6875 52.21875 38.746094 52.375 38.746094 C 52.53125 38.746094 52.6875 38.6875 52.8125 38.566406 C 53.054688 38.328125 53.054688 37.945312 52.8125 37.703125 C 51.9375 36.839844 50.886719 36.203125 49.742188 35.820312 C 50.683594 35.660156 51.660156 35.703125 52.609375 35.949219 C 52.941406 36.035156 53.277344 35.84375 53.363281 35.515625 C 53.449219 35.191406 53.253906 34.859375 52.925781 34.773438 C 50.929688 34.242188 48.839844 34.503906 47.042969 35.496094 C 47.042969 35.496094 47.035156 35.496094 47.035156 35.503906 C 47.007812 35.515625 46.984375 35.539062 46.957031 35.558594 C 46.949219 35.566406 46.9375 35.574219 46.929688 35.582031 C 46.90625 35.59375 46.894531 35.617188 46.878906 35.636719 C 46.871094 35.652344 46.855469 35.660156 46.851562 35.671875 C 46.835938 35.6875 46.828125 35.707031 46.8125 35.722656 C 46.808594 35.738281 46.792969 35.757812 46.785156 35.773438 C 46.777344 35.792969 46.769531 35.808594 46.765625 35.828125 C 46.757812 35.851562 46.75 35.863281 46.742188 35.886719 C 46.734375 35.90625 46.734375 35.921875 46.734375 35.941406 C 46.734375 35.964844 46.726562 35.984375 46.726562 36.003906 C 46.726562 36.011719 46.726562 36.019531 46.726562 36.027344 C 46.722656 36.027344 46.722656 36.035156 46.722656 36.046875 Z M 46.722656 36.046875 " fill-opacity="1" fill-rule="nonzero"/><g clip-path="url(#id1)"><path fill="#ff9999" d="M 62.59375 38.304688 C 62.09375 37.351562 61.003906 36.648438 59.679688 36.421875 C 59.265625 36.351562 58.835938 36.332031 58.421875 36.351562 C 55.472656 31.789062 50.484375 29.070312 44.996094 29.070312 C 39.507812 29.070312 34.519531 31.78125 31.570312 36.34375 C 31.15625 36.324219 30.726562 36.34375 30.3125 36.417969 C 28.988281 36.640625 27.902344 37.351562 27.398438 38.296875 C 27.019531 39.011719 27.011719 39.820312 27.363281 40.578125 C 27.722656 41.328125 28.351562 41.84375 29.144531 42.015625 C 29.203125 42.027344 29.261719 42.035156 29.316406 42.042969 C 29.152344 42.957031 29.066406 43.882812 29.066406 44.816406 C 29.066406 53.5 36.207031 60.570312 44.996094 60.570312 C 53.777344 60.570312 60.925781 53.507812 60.925781 44.816406 C 60.925781 43.890625 60.839844 42.957031 60.675781 42.042969 C 60.734375 42.035156 60.789062 42.019531 60.847656 42.015625 C 61.640625 41.835938 62.277344 41.328125 62.628906 40.578125 C 62.988281 39.828125 62.972656 39.019531 62.59375 38.304688 Z M 28.480469 40.066406 C 28.285156 39.65625 28.285156 39.253906 28.488281 38.871094 C 28.808594 38.261719 29.589844 37.78125 30.519531 37.625 C 30.933594 37.554688 31.371094 37.554688 31.792969 37.589844 L 31.835938 37.597656 C 31.972656 37.613281 32.109375 37.625 32.238281 37.648438 C 32.246094 37.648438 32.25 37.648438 32.25 37.648438 C 32.308594 37.65625 32.367188 37.660156 32.421875 37.675781 C 32.4375 37.675781 32.445312 37.683594 32.460938 37.683594 C 32.507812 37.691406 32.550781 37.695312 32.601562 37.710938 C 32.617188 37.710938 32.628906 37.71875 32.652344 37.71875 C 32.695312 37.726562 32.730469 37.734375 32.773438 37.746094 C 32.789062 37.753906 32.808594 37.753906 32.824219 37.761719 C 32.859375 37.769531 32.894531 37.773438 32.929688 37.78125 C 32.953125 37.789062 32.96875 37.789062 32.988281 37.796875 C 33.023438 37.804688 33.054688 37.808594 33.089844 37.816406 C 33.101562 37.824219 33.125 37.824219 33.140625 37.832031 C 33.183594 37.839844 33.21875 37.851562 33.261719 37.859375 C 33.269531 37.859375 33.273438 37.859375 33.273438 37.867188 C 32.988281 38.488281 32.445312 39.472656 31.6875 40.101562 C 31.628906 40.152344 31.570312 40.195312 31.507812 40.238281 C 31.492188 40.25 31.472656 40.265625 31.457031 40.273438 C 31.40625 40.308594 31.355469 40.34375 31.308594 40.371094 C 31.292969 40.378906 31.285156 40.386719 31.269531 40.394531 C 31.214844 40.429688 31.148438 40.464844 31.09375 40.5 C 31.070312 40.507812 31.054688 40.519531 31.035156 40.527344 C 30.984375 40.554688 30.933594 40.578125 30.882812 40.605469 C 30.871094 40.613281 30.855469 40.621094 30.839844 40.628906 C 30.777344 40.65625 30.714844 40.683594 30.648438 40.703125 C 30.640625 40.703125 30.632812 40.710938 30.628906 40.710938 C 30.5625 40.734375 30.492188 40.753906 30.425781 40.777344 C 30.285156 40.816406 30.140625 40.847656 29.996094 40.859375 L 29.933594 40.867188 C 29.746094 40.882812 29.574219 40.867188 29.410156 40.832031 C 28.988281 40.738281 28.671875 40.476562 28.480469 40.066406 Z M 44.996094 59.351562 C 36.894531 59.351562 30.304688 52.835938 30.304688 44.824219 C 30.304688 43.875 30.398438 42.921875 30.585938 41.992188 C 31.078125 41.878906 31.570312 41.667969 32.035156 41.355469 C 32.035156 41.355469 32.035156 41.355469 32.042969 41.355469 C 32.109375 41.3125 32.179688 41.265625 32.246094 41.214844 C 32.257812 41.199219 32.273438 41.191406 32.289062 41.179688 C 32.351562 41.128906 32.421875 41.074219 32.488281 41.023438 C 33.925781 39.828125 34.664062 37.761719 34.691406 37.667969 L 34.886719 37.109375 L 34.328125 36.898438 C 34.320312 36.898438 34.3125 36.890625 34.289062 36.882812 C 34.148438 36.832031 33.632812 36.65625 32.945312 36.515625 C 32.945312 36.515625 32.945312 36.515625 32.9375 36.515625 C 35.6875 32.59375 40.128906 30.289062 45.003906 30.289062 C 49.871094 30.289062 54.3125 32.601562 57.070312 36.515625 C 57.0625 36.515625 57.054688 36.515625 57.054688 36.515625 C 57.019531 36.523438 56.984375 36.53125 56.953125 36.535156 C 56.941406 36.535156 56.933594 36.542969 56.917969 36.542969 C 56.875 36.550781 56.839844 36.566406 56.796875 36.570312 C 56.789062 36.570312 56.789062 36.570312 56.78125 36.570312 C 56.28125 36.683594 55.910156 36.8125 55.757812 36.867188 C 55.714844 36.882812 55.695312 36.890625 55.6875 36.898438 L 55.128906 37.109375 L 55.324219 37.667969 C 55.351562 37.753906 56.089844 39.828125 57.527344 41.023438 C 57.589844 41.078125 57.664062 41.128906 57.726562 41.179688 C 57.742188 41.191406 57.753906 41.199219 57.769531 41.214844 C 57.835938 41.265625 57.90625 41.304688 57.96875 41.355469 C 58.433594 41.660156 58.929688 41.878906 59.421875 41.992188 C 59.609375 42.921875 59.703125 43.867188 59.703125 44.824219 C 59.6875 52.835938 53.097656 59.351562 44.996094 59.351562 Z M 61.511719 40.066406 C 61.320312 40.476562 61.003906 40.738281 60.574219 40.832031 C 60.410156 40.867188 60.238281 40.882812 60.054688 40.867188 L 59.988281 40.859375 C 59.78125 40.839844 59.566406 40.789062 59.351562 40.710938 C 59.34375 40.710938 59.335938 40.703125 59.335938 40.703125 C 59.273438 40.683594 59.199219 40.65625 59.136719 40.628906 C 59.121094 40.621094 59.117188 40.613281 59.101562 40.613281 C 59.050781 40.589844 58.992188 40.5625 58.945312 40.535156 C 58.929688 40.527344 58.90625 40.515625 58.894531 40.507812 C 58.835938 40.472656 58.773438 40.4375 58.714844 40.402344 C 58.699219 40.394531 58.691406 40.386719 58.679688 40.378906 C 58.628906 40.34375 58.578125 40.316406 58.527344 40.28125 C 58.515625 40.265625 58.492188 40.257812 58.476562 40.246094 C 58.421875 40.203125 58.355469 40.152344 58.300781 40.109375 C 58.207031 40.03125 58.113281 39.949219 58.027344 39.855469 C 57.414062 39.234375 56.96875 38.410156 56.710938 37.867188 C 56.753906 37.851562 56.804688 37.84375 56.855469 37.832031 C 56.867188 37.832031 56.882812 37.824219 56.890625 37.824219 C 56.925781 37.816406 56.960938 37.804688 57.003906 37.796875 C 57.019531 37.789062 57.03125 37.789062 57.054688 37.78125 C 57.089844 37.773438 57.132812 37.769531 57.167969 37.753906 C 57.183594 37.746094 57.203125 37.746094 57.21875 37.738281 C 57.261719 37.734375 57.296875 37.726562 57.339844 37.710938 C 57.355469 37.710938 57.375 37.703125 57.390625 37.703125 C 57.433594 37.695312 57.484375 37.691406 57.527344 37.675781 C 57.539062 37.675781 57.554688 37.667969 57.570312 37.667969 C 57.621094 37.660156 57.675781 37.65625 57.726562 37.640625 C 57.734375 37.640625 57.75 37.640625 57.753906 37.632812 C 57.882812 37.613281 58.019531 37.597656 58.148438 37.582031 L 58.183594 37.578125 C 58.605469 37.542969 59.042969 37.542969 59.464844 37.613281 C 60.394531 37.773438 61.175781 38.25 61.5 38.859375 C 61.707031 39.253906 61.707031 39.65625 61.511719 40.066406 Z M 61.511719 40.066406 " fill-opacity="1" fill-rule="nonzero"/></g></svg>