<svg xmlns="http://www.w3.org/2000/svg" xmlns:xlink="http://www.w3.org/1999/xlink" width="120" zoomAndPan="magnify" viewBox="0 0 90 89.999999" height="120" preserveAspectRatio="xMidYMid meet" version="1.0"><path fill="#ff9999" d="M 45 27 C 35.070312 27 27 35.070312 27 45 C 27 54.929688 35.070312 63 45 63 C 54.929688 63 63 54.929688 63 45 C 63 35.070312 54.929688 27 45 27 Z M 45 61.609375 C 35.839844 61.609375 28.390625 54.160156 28.390625 45 C 28.390625 35.839844 35.839844 28.390625 45 28.390625 C 54.160156 28.390625 61.609375 35.839844 61.609375 45 C 61.609375 54.160156 54.160156 61.609375 45 61.609375 Z M 45 61.609375 " fill-opacity="1" fill-rule="nonzero"/><path fill="#ff9999" d="M 42.378906 35.632812 C 42.414062 35.632812 42.453125 35.625 42.488281 35.617188 C 42.496094 35.617188 42.507812 35.617188 42.515625 35.609375 C 42.550781 35.605469 42.589844 35.589844 42.625 35.574219 C 42.632812 35.574219 42.636719 35.566406 42.644531 35.5625 C 42.675781 35.546875 42.703125 35.53125 42.730469 35.511719 C 42.738281 35.503906 42.746094 35.503906 42.753906 35.496094 C 42.78125 35.472656 42.820312 35.445312 42.847656 35.417969 C 42.847656 35.417969 42.855469 35.410156 42.855469 35.410156 C 42.875 35.378906 42.898438 35.359375 42.917969 35.324219 C 42.925781 35.316406 42.933594 35.300781 42.941406 35.292969 C 42.949219 35.289062 42.957031 35.28125 42.957031 35.265625 C 42.960938 35.25 42.960938 35.242188 42.96875 35.230469 C 42.984375 35.207031 42.992188 35.1875 43 35.15625 C 43.003906 35.136719 43.011719 35.113281 43.019531 35.09375 C 43.027344 35.070312 43.027344 35.050781 43.035156 35.027344 C 43.042969 35.007812 43.042969 34.976562 43.042969 34.957031 C 43.042969 34.941406 43.042969 34.925781 43.042969 34.921875 C 43.042969 34.914062 43.042969 34.90625 43.042969 34.898438 C 43.042969 34.875 43.035156 34.847656 43.035156 34.828125 C 43.035156 34.804688 43.027344 34.78125 43.019531 34.761719 C 43.011719 34.738281 43.003906 34.71875 43 34.695312 C 42.992188 34.675781 42.984375 34.652344 42.976562 34.632812 C 42.96875 34.609375 42.957031 34.597656 42.949219 34.574219 C 42.933594 34.554688 42.925781 34.53125 42.910156 34.507812 C 42.898438 34.496094 42.890625 34.480469 42.875 34.464844 C 42.855469 34.445312 42.839844 34.421875 42.820312 34.410156 C 42.8125 34.402344 42.796875 34.394531 42.78125 34.378906 C 42.753906 34.359375 42.730469 34.335938 42.703125 34.324219 C 42.703125 34.324219 42.695312 34.316406 42.695312 34.316406 C 40.660156 33.175781 38.296875 32.890625 36.042969 33.488281 C 35.667969 33.589844 35.453125 33.96875 35.554688 34.335938 C 35.65625 34.710938 36.035156 34.925781 36.402344 34.828125 C 37.476562 34.539062 38.578125 34.496094 39.644531 34.675781 C 38.347656 35.105469 37.160156 35.835938 36.171875 36.828125 C 35.898438 37.101562 35.898438 37.539062 36.171875 37.8125 C 36.308594 37.953125 36.488281 38.015625 36.664062 38.015625 C 36.84375 38.015625 37.023438 37.953125 37.152344 37.8125 C 38.542969 36.425781 40.390625 35.640625 42.363281 35.609375 C 42.371094 35.640625 42.371094 35.632812 42.378906 35.632812 Z M 42.378906 35.632812 " fill-opacity="1" fill-rule="nonzero"/><path fill="#ff9999" d="M 53.828125 37.84375 C 54.101562 37.570312 54.101562 37.128906 53.828125 36.855469 C 52.832031 35.863281 51.652344 35.136719 50.355469 34.703125 C 51.421875 34.515625 52.523438 34.566406 53.597656 34.855469 C 53.964844 34.957031 54.351562 34.734375 54.445312 34.367188 C 54.546875 33.992188 54.324219 33.609375 53.957031 33.515625 C 51.703125 32.910156 49.339844 33.207031 47.304688 34.34375 C 47.304688 34.34375 47.304688 34.34375 47.296875 34.34375 C 47.261719 34.367188 47.230469 34.386719 47.195312 34.414062 C 47.1875 34.421875 47.179688 34.421875 47.179688 34.429688 C 47.152344 34.453125 47.132812 34.480469 47.109375 34.507812 C 47.101562 34.515625 47.09375 34.523438 47.089844 34.539062 C 47.066406 34.558594 47.050781 34.589844 47.039062 34.617188 C 47.03125 34.632812 47.023438 34.644531 47.015625 34.660156 C 47 34.683594 46.996094 34.710938 46.988281 34.734375 C 46.980469 34.753906 46.972656 34.769531 46.964844 34.789062 C 46.957031 34.8125 46.957031 34.832031 46.953125 34.855469 C 46.945312 34.875 46.945312 34.90625 46.945312 34.925781 C 46.945312 34.933594 46.945312 34.941406 46.945312 34.949219 C 46.945312 34.964844 46.945312 34.976562 46.945312 34.992188 C 46.945312 35.011719 46.945312 35.042969 46.953125 35.0625 C 46.953125 35.085938 46.957031 35.105469 46.964844 35.128906 C 46.972656 35.152344 46.980469 35.171875 46.988281 35.195312 C 46.996094 35.214844 47.007812 35.242188 47.015625 35.265625 C 47.023438 35.28125 47.023438 35.289062 47.03125 35.300781 C 47.039062 35.308594 47.042969 35.316406 47.042969 35.332031 C 47.050781 35.335938 47.058594 35.351562 47.066406 35.359375 C 47.089844 35.386719 47.109375 35.417969 47.132812 35.445312 C 47.132812 35.445312 47.136719 35.453125 47.136719 35.453125 C 47.167969 35.480469 47.195312 35.511719 47.230469 35.53125 C 47.238281 35.539062 47.246094 35.539062 47.253906 35.546875 C 47.28125 35.566406 47.3125 35.582031 47.339844 35.597656 C 47.347656 35.605469 47.355469 35.605469 47.363281 35.609375 C 47.398438 35.625 47.433594 35.640625 47.46875 35.648438 C 47.476562 35.648438 47.492188 35.65625 47.5 35.65625 C 47.535156 35.660156 47.570312 35.667969 47.605469 35.667969 C 47.613281 35.667969 47.613281 35.667969 47.621094 35.667969 C 49.585938 35.699219 51.4375 36.480469 52.832031 37.871094 C 52.96875 38.007812 53.152344 38.074219 53.324219 38.074219 C 53.496094 38.074219 53.691406 37.980469 53.828125 37.84375 Z M 53.828125 37.84375 " fill-opacity="1" fill-rule="nonzero"/><path fill="#ff9999" d="M 45.476562 44.289062 C 45.207031 44.035156 44.792969 44.035156 44.519531 44.289062 L 41.199219 47.417969 C 40.917969 47.6875 40.902344 48.125 41.167969 48.40625 C 41.4375 48.6875 41.875 48.699219 42.15625 48.433594 L 45 45.757812 L 47.84375 48.433594 C 47.980469 48.5625 48.152344 48.621094 48.320312 48.621094 C 48.507812 48.621094 48.6875 48.550781 48.824219 48.40625 C 49.089844 48.125 49.074219 47.6875 48.792969 47.417969 Z M 45.476562 44.289062 " fill-opacity="1" fill-rule="nonzero"/><path fill="#ff9999" d="M 35.011719 43.761719 C 35.113281 43.386719 34.890625 43.003906 34.523438 42.910156 C 34.148438 42.8125 33.769531 43.035156 33.675781 43.402344 C 32.398438 48.160156 33.113281 53.308594 35.640625 57.519531 C 35.769531 57.738281 36 57.859375 36.238281 57.859375 C 36.359375 57.859375 36.480469 57.832031 36.597656 57.757812 C 36.929688 57.5625 37.035156 57.132812 36.835938 56.800781 C 34.503906 52.914062 33.839844 48.160156 35.011719 43.761719 Z M 35.011719 43.761719 " fill-opacity="1" fill-rule="nonzero"/><path fill="#ff9999" d="M 34.976562 41.636719 C 35.070312 41.679688 35.164062 41.695312 35.257812 41.695312 C 35.523438 41.695312 35.777344 41.542969 35.890625 41.285156 C 36.066406 40.902344 36.246094 40.523438 36.445312 40.15625 C 36.625 39.816406 36.503906 39.390625 36.164062 39.210938 C 35.828125 39.03125 35.402344 39.152344 35.222656 39.492188 C 35.007812 39.886719 34.804688 40.296875 34.625 40.714844 C 34.464844 41.070312 34.625 41.480469 34.976562 41.636719 Z M 34.976562 41.636719 " fill-opacity="1" fill-rule="nonzero"/><path fill="#ff9999" d="M 56.324219 43.402344 C 56.226562 43.027344 55.84375 42.8125 55.476562 42.910156 C 55.101562 43.011719 54.886719 43.394531 54.988281 43.761719 C 56.167969 48.160156 55.503906 52.914062 53.171875 56.808594 C 52.976562 57.140625 53.078125 57.5625 53.410156 57.765625 C 53.523438 57.832031 53.648438 57.867188 53.769531 57.867188 C 54.007812 57.867188 54.238281 57.742188 54.367188 57.527344 C 56.886719 53.308594 57.601562 48.160156 56.324219 43.402344 Z M 56.324219 43.402344 " fill-opacity="1" fill-rule="nonzero"/><path fill="#ff9999" d="M 53.835938 39.210938 C 53.496094 39.390625 53.367188 39.816406 53.554688 40.15625 C 53.746094 40.523438 53.933594 40.902344 54.109375 41.285156 C 54.222656 41.542969 54.476562 41.695312 54.742188 41.695312 C 54.835938 41.695312 54.929688 41.671875 55.023438 41.636719 C 55.375 41.480469 55.535156 41.070312 55.375 40.714844 C 55.1875 40.304688 54.988281 39.894531 54.777344 39.492188 C 54.597656 39.152344 54.171875 39.03125 53.835938 39.210938 Z M 53.835938 39.210938 " fill-opacity="1" fill-rule="nonzero"/></svg>