<svg xmlns="http://www.w3.org/2000/svg" xmlns:xlink="http://www.w3.org/1999/xlink" width="1080" zoomAndPan="magnify" viewBox="0 0 810 809.999993" height="1080" preserveAspectRatio="xMidYMid meet" version="1.0"><path fill="#ffffff" d="M 457.746094 407.269531 C 447.636719 404.351562 430.207031 400.917969 405 400.917969 C 379.726562 400.917969 362.363281 404.351562 352.253906 407.269531 C 347.78125 408.5625 343.894531 411.675781 341.691406 415.757812 C 339.488281 419.902344 338.96875 424.632812 340.394531 429.039062 C 349.273438 457.488281 375.257812 476.605469 405.066406 476.605469 C 434.871094 476.605469 460.859375 457.488281 469.734375 429.039062 C 471.097656 424.632812 470.640625 419.902344 468.4375 415.757812 C 466.105469 411.609375 462.28125 408.5625 457.746094 407.269531 Z M 457.683594 425.347656 C 450.425781 448.546875 429.234375 464.097656 405 464.097656 C 380.699219 464.097656 359.511719 448.546875 352.316406 425.347656 C 351.929688 424.179688 352.058594 422.886719 352.707031 421.78125 C 353.355469 420.617188 354.390625 419.710938 355.6875 419.386719 C 365.082031 416.730469 381.21875 413.488281 405 413.488281 C 428.78125 413.488281 444.980469 416.664062 454.3125 419.386719 C 455.609375 419.773438 456.644531 420.617188 457.292969 421.78125 C 457.941406 422.886719 458.070312 424.117188 457.683594 425.347656 Z M 457.683594 425.347656 " fill-opacity="1" fill-rule="nonzero"/><path fill="#ffffff" d="M 541.921875 318.558594 C 543.996094 316.9375 545.164062 315.1875 545.164062 313.371094 C 545.164062 309.613281 540.171875 306.570312 531.8125 304.234375 C 502.070312 266.976562 456.257812 243 405 243 C 353.742188 243 307.929688 266.976562 278.25 304.300781 C 269.828125 306.632812 264.902344 309.679688 264.902344 313.4375 C 264.902344 315.253906 266.003906 316.9375 268.140625 318.621094 C 252.203125 343.570312 243 373.246094 243 405 C 243 494.359375 315.640625 567 405 567 C 494.359375 567 567 494.359375 567 405 C 567 373.246094 557.796875 343.570312 541.921875 318.558594 Z M 405 255.507812 C 446.925781 255.507812 484.832031 272.871094 511.984375 300.738281 C 500.773438 299.503906 487.492188 298.859375 473.234375 298.859375 C 441.417969 298.859375 368.519531 298.859375 336.699219 298.859375 C 322.445312 298.859375 309.160156 299.503906 297.949219 300.738281 C 325.167969 272.871094 363.074219 255.507812 405 255.507812 Z M 405 554.492188 C 322.574219 554.492188 255.507812 487.425781 255.507812 405 C 255.507812 375.128906 264.320312 347.328125 279.480469 323.933594 C 279.613281 324 279.742188 324 279.871094 324.066406 C 279.546875 326.527344 279.351562 328.988281 279.351562 331.582031 C 279.351562 363.269531 305.011719 388.929688 336.699219 388.929688 C 368.386719 388.929688 394.046875 363.269531 394.046875 331.582031 C 394.046875 329.054688 393.855469 326.527344 393.53125 324.066406 C 398.457031 322.507812 411.414062 322.507812 416.339844 324.066406 C 416.015625 326.527344 415.820312 328.988281 415.820312 331.582031 C 415.820312 363.269531 441.480469 388.929688 473.167969 388.929688 C 504.855469 388.929688 530.519531 363.269531 530.519531 331.582031 C 530.519531 329.054688 530.324219 326.527344 530 324.066406 C 530.128906 324 530.257812 324 530.386719 323.933594 C 545.550781 347.328125 554.363281 375.128906 554.363281 405 C 554.492188 487.425781 487.425781 554.492188 405 554.492188 Z M 405 554.492188 " fill-opacity="1" fill-rule="nonzero"/></svg>