<svg xmlns="http://www.w3.org/2000/svg" xmlns:xlink="http://www.w3.org/1999/xlink" width="1080" zoomAndPan="magnify" viewBox="0 0 810 809.999993" height="1080" preserveAspectRatio="xMidYMid meet" version="1.0"><path fill="#ffffff" d="M 405 428.003906 C 381.671875 428.003906 360.417969 440.835938 349.597656 461.570312 C 347.976562 464.617188 349.207031 468.4375 352.253906 470.058594 C 355.296875 471.679688 359.121094 470.449219 360.742188 467.402344 C 369.425781 450.878906 386.402344 440.574219 405 440.574219 C 423.664062 440.574219 440.640625 450.878906 449.257812 467.402344 C 450.359375 469.542969 452.5625 470.773438 454.832031 470.773438 C 455.804688 470.773438 456.773438 470.511719 457.746094 470.058594 C 460.792969 468.4375 462.023438 464.679688 460.402344 461.570312 C 449.582031 440.898438 428.328125 428.003906 405 428.003906 Z M 405 428.003906 " fill-opacity="1" fill-rule="nonzero"/><path fill="#ffffff" d="M 405 243 C 315.640625 243 243 315.640625 243 405 C 243 494.359375 315.640625 567 405 567 C 494.359375 567 567 494.359375 567 405 C 567 315.640625 494.359375 243 405 243 Z M 405 554.492188 C 322.574219 554.492188 255.507812 487.425781 255.507812 405 C 255.507812 322.574219 322.574219 255.507812 405 255.507812 C 487.425781 255.507812 554.492188 322.574219 554.492188 405 C 554.492188 487.425781 487.425781 554.492188 405 554.492188 Z M 405 554.492188 " fill-opacity="1" fill-rule="nonzero"/><path fill="#ffffff" d="M 356.722656 375.386719 C 362.75 375.386719 367.609375 370.460938 367.609375 364.5 L 367.609375 333.332031 C 367.609375 327.304688 362.6875 322.445312 356.722656 322.445312 C 350.761719 322.445312 345.835938 327.371094 345.835938 333.332031 L 345.835938 364.5 C 345.835938 370.527344 350.699219 375.386719 356.722656 375.386719 Z M 356.722656 375.386719 " fill-opacity="1" fill-rule="nonzero"/><path fill="#ffffff" d="M 453.277344 322.445312 C 447.25 322.445312 442.390625 327.371094 442.390625 333.332031 L 442.390625 364.5 C 442.390625 370.527344 447.3125 375.386719 453.277344 375.386719 C 459.238281 375.386719 464.164062 370.460938 464.164062 364.5 L 464.164062 333.332031 C 464.164062 327.371094 459.300781 322.445312 453.277344 322.445312 Z M 453.277344 322.445312 " fill-opacity="1" fill-rule="nonzero"/><path fill="#ffffff" d="M 338.710938 376.292969 L 332.617188 376.164062 C 331.644531 376.164062 309.097656 375.90625 292.570312 385.429688 C 280.777344 392.234375 272.808594 402.863281 271.382812 413.8125 C 270.28125 422.042969 273.003906 429.882812 279.09375 435.910156 C 284.277344 441.09375 290.757812 443.816406 297.691406 443.816406 C 298.859375 443.816406 300.023438 443.75 301.191406 443.554688 C 312.140625 442.128906 322.703125 434.160156 329.574219 422.367188 C 339.097656 405.777344 338.839844 383.226562 338.839844 382.320312 Z M 318.6875 416.144531 C 313.890625 424.503906 306.570312 430.207031 299.570312 431.179688 C 295.164062 431.761719 291.277344 430.402344 287.972656 427.03125 C 284.667969 423.726562 283.242188 419.839844 283.824219 415.433594 C 284.730469 408.433594 290.5 401.113281 298.859375 396.316406 C 307.605469 391.261719 319.011719 389.578125 326.007812 388.996094 C 325.425781 396.058594 323.742188 407.398438 318.6875 416.144531 Z M 318.6875 416.144531 " fill-opacity="1" fill-rule="nonzero"/></svg>