<svg xmlns="http://www.w3.org/2000/svg" xmlns:xlink="http://www.w3.org/1999/xlink" width="1080" zoomAndPan="magnify" viewBox="0 0 810 809.999993" height="1080" preserveAspectRatio="xMidYMid meet" version="1.0"><path fill="#ffffff" d="M 463.0625 374.996094 C 459.625 374.542969 456.515625 377.007812 456.0625 380.375 C 452.757812 405.90625 430.789062 425.152344 405 425.152344 C 379.210938 425.152344 357.242188 405.90625 353.9375 380.375 C 353.484375 376.941406 350.375 374.542969 346.9375 374.996094 C 343.503906 375.453125 341.105469 378.5625 341.5625 381.996094 C 345.707031 413.746094 372.988281 437.722656 405.066406 437.722656 C 437.140625 437.722656 464.421875 413.746094 468.570312 381.996094 C 468.894531 378.5625 466.496094 375.453125 463.0625 374.996094 Z M 463.0625 374.996094 " fill-opacity="1" fill-rule="nonzero"/><path fill="#ffffff" d="M 405 243 C 315.640625 243 243 315.640625 243 405 C 243 494.359375 315.640625 567 405 567 C 494.359375 567 567 494.359375 567 405 C 567 315.640625 494.359375 243 405 243 Z M 405 554.492188 C 322.574219 554.492188 255.507812 487.425781 255.507812 405 C 255.507812 322.574219 322.574219 255.507812 405 255.507812 C 487.425781 255.507812 554.492188 322.574219 554.492188 405 C 554.492188 487.425781 487.425781 554.492188 405 554.492188 Z M 405 554.492188 " fill-opacity="1" fill-rule="nonzero"/><path fill="#ffffff" d="M 381.414062 320.695312 C 381.738281 320.695312 382.0625 320.628906 382.386719 320.566406 C 382.449219 320.566406 382.578125 320.566406 382.644531 320.5 C 382.96875 320.4375 383.292969 320.304688 383.617188 320.175781 C 383.679688 320.175781 383.746094 320.113281 383.808594 320.046875 C 384.070312 319.917969 384.328125 319.789062 384.589844 319.59375 C 384.652344 319.527344 384.71875 319.527344 384.78125 319.464844 C 385.042969 319.269531 385.367188 319.011719 385.625 318.75 C 385.625 318.75 385.691406 318.6875 385.691406 318.6875 C 385.882812 318.425781 386.078125 318.234375 386.273438 317.910156 C 386.335938 317.84375 386.402344 317.714844 386.46875 317.648438 C 386.53125 317.585938 386.597656 317.519531 386.597656 317.390625 C 386.660156 317.261719 386.660156 317.195312 386.726562 317.066406 C 386.855469 316.871094 386.921875 316.675781 386.984375 316.417969 C 387.050781 316.222656 387.113281 316.03125 387.179688 315.835938 C 387.246094 315.640625 387.246094 315.445312 387.308594 315.253906 C 387.375 315.058594 387.375 314.796875 387.375 314.605469 C 387.375 314.472656 387.375 314.34375 387.375 314.28125 C 387.375 314.214844 387.375 314.152344 387.375 314.085938 C 387.375 313.890625 387.308594 313.632812 387.308594 313.4375 C 387.308594 313.242188 387.246094 313.046875 387.179688 312.855469 C 387.113281 312.660156 387.050781 312.464844 386.984375 312.269531 C 386.921875 312.078125 386.855469 311.882812 386.792969 311.6875 C 386.726562 311.492188 386.597656 311.363281 386.53125 311.167969 C 386.402344 310.976562 386.335938 310.78125 386.207031 310.585938 C 386.078125 310.457031 386.011719 310.328125 385.882812 310.199219 C 385.691406 310.003906 385.558594 309.808594 385.367188 309.679688 C 385.300781 309.613281 385.171875 309.550781 385.042969 309.421875 C 384.78125 309.226562 384.589844 309.03125 384.328125 308.902344 C 384.328125 308.902344 384.265625 308.835938 384.265625 308.835938 C 365.925781 298.597656 344.671875 296.007812 324.390625 301.386719 C 321.019531 302.292969 319.074219 305.726562 319.980469 309.03125 C 320.890625 312.402344 324.324219 314.34375 327.628906 313.4375 C 337.285156 310.84375 347.199219 310.457031 356.789062 312.078125 C 345.125 315.964844 334.433594 322.507812 325.554688 331.453125 C 323.09375 333.914062 323.09375 337.867188 325.554688 340.328125 C 326.785156 341.5625 328.40625 342.144531 329.960938 342.144531 C 331.582031 342.144531 333.203125 341.5625 334.367188 340.328125 C 346.875 327.824219 363.527344 320.761719 381.28125 320.5 C 381.347656 320.761719 381.347656 320.695312 381.414062 320.695312 Z M 381.414062 320.695312 " fill-opacity="1" fill-rule="nonzero"/><path fill="#ffffff" d="M 485.609375 301.578125 C 465.328125 296.136719 444.074219 298.792969 425.734375 309.03125 C 425.734375 309.03125 425.734375 309.03125 425.671875 309.03125 C 425.347656 309.226562 425.089844 309.421875 424.765625 309.679688 C 424.699219 309.742188 424.632812 309.742188 424.632812 309.808594 C 424.375 310.003906 424.179688 310.261719 423.988281 310.523438 C 423.921875 310.585938 423.855469 310.652344 423.792969 310.78125 C 423.597656 310.976562 423.46875 311.234375 423.339844 311.492188 C 423.273438 311.625 423.207031 311.753906 423.144531 311.882812 C 423.015625 312.078125 422.949219 312.335938 422.886719 312.53125 C 422.820312 312.726562 422.753906 312.855469 422.691406 313.046875 C 422.625 313.242188 422.625 313.4375 422.5625 313.632812 C 422.496094 313.828125 422.496094 314.085938 422.496094 314.28125 C 422.496094 314.34375 422.496094 314.410156 422.496094 314.472656 C 422.496094 314.605469 422.496094 314.734375 422.496094 314.863281 C 422.496094 315.058594 422.496094 315.316406 422.5625 315.511719 C 422.5625 315.707031 422.625 315.898438 422.691406 316.09375 C 422.753906 316.289062 422.820312 316.484375 422.886719 316.675781 C 422.949219 316.871094 423.078125 317.132812 423.144531 317.324219 C 423.207031 317.457031 423.207031 317.519531 423.273438 317.648438 C 423.339844 317.714844 423.402344 317.777344 423.402344 317.910156 C 423.46875 317.972656 423.53125 318.101562 423.597656 318.167969 C 423.792969 318.425781 423.988281 318.6875 424.179688 318.945312 C 424.179688 318.945312 424.246094 319.011719 424.246094 319.011719 C 424.503906 319.269531 424.765625 319.527344 425.089844 319.722656 C 425.152344 319.789062 425.21875 319.789062 425.28125 319.851562 C 425.542969 320.046875 425.800781 320.175781 426.058594 320.304688 C 426.125 320.371094 426.191406 320.371094 426.253906 320.4375 C 426.578125 320.566406 426.902344 320.695312 427.226562 320.761719 C 427.292969 320.761719 427.421875 320.824219 427.484375 320.824219 C 427.808594 320.890625 428.132812 320.953125 428.457031 320.953125 C 428.523438 320.953125 428.523438 320.953125 428.585938 320.953125 C 446.277344 321.214844 462.929688 328.277344 475.503906 340.78125 C 476.734375 342.015625 478.355469 342.597656 479.910156 342.597656 C 481.464844 342.597656 483.148438 342.015625 484.316406 340.78125 C 486.777344 338.320312 486.777344 334.367188 484.316406 331.90625 C 475.371094 322.964844 464.746094 316.417969 453.082031 312.53125 C 462.671875 310.84375 472.585938 311.300781 482.242188 313.890625 C 485.546875 314.796875 489.046875 312.789062 489.886719 309.484375 C 490.925781 305.921875 488.980469 302.488281 485.609375 301.578125 Z M 485.609375 301.578125 " fill-opacity="1" fill-rule="nonzero"/></svg>